%FSLAX36Y36*%
G04 Gerber Fmt 3.6, Leading zero omitted, Abs format (unit inch)*
G04 Created by KiCad (PCBNEW (2014-jul-16 BZR unknown)-product) date Tue 27 Jan 2015 12:23:33 PM PST*
%MOIN*%
G01*
G04 APERTURE LIST*
%ADD10C,0.003937*%
%ADD11C,0.059100*%
%ADD12C,0.078700*%
%ADD13R,0.078700X0.078700*%
%ADD14C,0.060000*%
%ADD15R,0.068000X0.068000*%
%ADD16C,0.068000*%
%ADD17R,0.060000X0.060000*%
%ADD18O,0.068000X0.068000*%
%ADD19R,0.055000X0.055000*%
%ADD20C,0.055000*%
%ADD21C,0.236220*%
%ADD22C,0.035000*%
%ADD23C,0.040000*%
%ADD24C,0.008000*%
%ADD25C,0.010000*%
G04 APERTURE END LIST*
D10*
D11*
X4475000Y-4400000D03*
X4475000Y-4500000D03*
X4875000Y-4400000D03*
X4875000Y-4500000D03*
X5725000Y-5200000D03*
X5825000Y-5200000D03*
X5525000Y-5200000D03*
X5625000Y-5200000D03*
X5625000Y-4650000D03*
X5525000Y-4650000D03*
X4525000Y-4650000D03*
X4625000Y-4650000D03*
X5925000Y-5200000D03*
X6025000Y-5200000D03*
X5550000Y-5650000D03*
X5550000Y-5750000D03*
X5175000Y-4650000D03*
X5075000Y-4650000D03*
D12*
X5075000Y-4500000D03*
D13*
X5475000Y-4500000D03*
D14*
X6125000Y-4325000D03*
X6125000Y-4225000D03*
D15*
X4325000Y-5425000D03*
D16*
X4425000Y-5425000D03*
X4525000Y-5425000D03*
D17*
X4100000Y-4725000D03*
D14*
X4200000Y-4725000D03*
X4100000Y-4825000D03*
X4200000Y-4825000D03*
X4100000Y-4925000D03*
X4200000Y-4925000D03*
X4100000Y-5025000D03*
X4200000Y-5025000D03*
X4100000Y-5125000D03*
X4200000Y-5125000D03*
D15*
X4825000Y-5775000D03*
D16*
X4925000Y-5775000D03*
X5025000Y-5775000D03*
X5125000Y-5775000D03*
X5225000Y-5775000D03*
X5325000Y-5775000D03*
D15*
X5725000Y-4500000D03*
D18*
X5725000Y-4400000D03*
X5825000Y-4500000D03*
X5825000Y-4400000D03*
X5925000Y-4500000D03*
X5925000Y-4400000D03*
D15*
X7600000Y-4500000D03*
D18*
X7600000Y-4400000D03*
X7700000Y-4500000D03*
X7700000Y-4400000D03*
X7800000Y-4500000D03*
X7800000Y-4400000D03*
D15*
X7600000Y-4800000D03*
D18*
X7600000Y-4700000D03*
X7700000Y-4800000D03*
X7700000Y-4700000D03*
X7800000Y-4800000D03*
X7800000Y-4700000D03*
D15*
X7600000Y-5125000D03*
D18*
X7600000Y-5025000D03*
X7700000Y-5125000D03*
X7700000Y-5025000D03*
X7800000Y-5125000D03*
X7800000Y-5025000D03*
D15*
X7600000Y-5425000D03*
D18*
X7600000Y-5325000D03*
X7700000Y-5425000D03*
X7700000Y-5325000D03*
X7800000Y-5425000D03*
X7800000Y-5325000D03*
D12*
X4425000Y-5225000D03*
X4825000Y-5225000D03*
X6075000Y-5725000D03*
X5675000Y-5725000D03*
X5675000Y-5575000D03*
X6075000Y-5575000D03*
X6225000Y-5725000D03*
X6225000Y-5325000D03*
X5375000Y-5225000D03*
X4975000Y-5225000D03*
X4650000Y-5750000D03*
X4650000Y-5350000D03*
X5075000Y-4375000D03*
X5475000Y-4375000D03*
D15*
X7400000Y-4275000D03*
D16*
X7400000Y-4375000D03*
X7400000Y-4475000D03*
X7400000Y-4575000D03*
X7400000Y-4675000D03*
X7400000Y-4775000D03*
X7400000Y-4875000D03*
X7400000Y-4975000D03*
X7400000Y-5075000D03*
D13*
X4822000Y-4075000D03*
D12*
X5078000Y-4075000D03*
D19*
X4825000Y-5650000D03*
D20*
X4925000Y-5650000D03*
X5025000Y-5650000D03*
X5125000Y-5650000D03*
X5225000Y-5650000D03*
X5325000Y-5650000D03*
X5425000Y-5650000D03*
X5425000Y-5350000D03*
X5325000Y-5350000D03*
X5225000Y-5350000D03*
X5125000Y-5350000D03*
X5025000Y-5350000D03*
X4925000Y-5350000D03*
X4825000Y-5350000D03*
D19*
X4425000Y-4775000D03*
D20*
X4425000Y-4875000D03*
X4425000Y-4975000D03*
X4425000Y-5075000D03*
X4725000Y-5075000D03*
X4725000Y-4975000D03*
X4725000Y-4875000D03*
X4725000Y-4775000D03*
X5025000Y-5075000D03*
X5125000Y-5075000D03*
X5225000Y-5075000D03*
X5325000Y-5075000D03*
X5425000Y-5075000D03*
X5525000Y-5075000D03*
X5625000Y-5075000D03*
X5725000Y-5075000D03*
X5825000Y-5075000D03*
X5925000Y-5075000D03*
X6025000Y-5075000D03*
X6125000Y-5075000D03*
X6225000Y-5075000D03*
D19*
X4925000Y-5075000D03*
D20*
X6225000Y-4775000D03*
X6125000Y-4775000D03*
X6025000Y-4775000D03*
X5925000Y-4775000D03*
X5825000Y-4775000D03*
X5725000Y-4775000D03*
X5625000Y-4775000D03*
X5525000Y-4775000D03*
X5425000Y-4775000D03*
X5325000Y-4775000D03*
X5225000Y-4775000D03*
X5125000Y-4775000D03*
X5025000Y-4775000D03*
X4925000Y-4775000D03*
D19*
X6950000Y-4050000D03*
D20*
X6950000Y-4150000D03*
X6950000Y-4250000D03*
X6950000Y-4350000D03*
X7250000Y-4350000D03*
X7250000Y-4250000D03*
X7250000Y-4150000D03*
X7250000Y-4050000D03*
D19*
X6950000Y-4500000D03*
D20*
X6950000Y-4600000D03*
X6950000Y-4700000D03*
X6950000Y-4800000D03*
X7250000Y-4800000D03*
X7250000Y-4700000D03*
X7250000Y-4600000D03*
X7250000Y-4500000D03*
D19*
X6950000Y-4975000D03*
D20*
X6950000Y-5075000D03*
X6950000Y-5175000D03*
X6950000Y-5275000D03*
X7250000Y-5275000D03*
X7250000Y-5175000D03*
X7250000Y-5075000D03*
X7250000Y-4975000D03*
D19*
X6950000Y-5425000D03*
D20*
X6950000Y-5525000D03*
X6950000Y-5625000D03*
X6950000Y-5725000D03*
X7250000Y-5725000D03*
X7250000Y-5625000D03*
X7250000Y-5525000D03*
X7250000Y-5425000D03*
D11*
X5728900Y-5375000D03*
X5921100Y-5375000D03*
D14*
X4725000Y-4400000D03*
X4675000Y-4475000D03*
X4625000Y-4400000D03*
D15*
X7400000Y-5525000D03*
D16*
X7400000Y-5425000D03*
X7400000Y-5325000D03*
D12*
X5475000Y-4250000D03*
X5875000Y-4250000D03*
X6425000Y-4975000D03*
X6825000Y-4975000D03*
X6425000Y-5175000D03*
X6825000Y-5175000D03*
X6425000Y-5425000D03*
X6825000Y-5425000D03*
X6425000Y-5625000D03*
X6825000Y-5625000D03*
D21*
X7677165Y-5708661D03*
X4133858Y-5708661D03*
X7677165Y-4133858D03*
X4133858Y-4133858D03*
D22*
X4900000Y-5425000D03*
X4750000Y-5425000D03*
X4750000Y-5650000D03*
X5000000Y-5550000D03*
X5800000Y-5725000D03*
X5800000Y-5575000D03*
X5175000Y-5290000D03*
X5165000Y-5170000D03*
X4970000Y-5145000D03*
X5175000Y-5550000D03*
X5250000Y-5145000D03*
X4325000Y-4975000D03*
X4275000Y-5200000D03*
X4825000Y-4875000D03*
X4825000Y-4775000D03*
X5425000Y-5775000D03*
X5200000Y-4950000D03*
X5575000Y-4500000D03*
X7800000Y-4925000D03*
X7800000Y-5225000D03*
X7800000Y-4600000D03*
X6750000Y-4500000D03*
D23*
X5000000Y-5525000D02*
X4900000Y-5425000D01*
X4750000Y-5425000D02*
X4750000Y-5650000D01*
X5000000Y-5550000D02*
X5000000Y-5525000D01*
X5800000Y-5725000D02*
X5800000Y-5575000D01*
D24*
X5175000Y-5290000D02*
X5165000Y-5280000D01*
X5165000Y-5280000D02*
X5165000Y-5170000D01*
D23*
X4325000Y-4950000D02*
X4325000Y-4975000D01*
X4200000Y-4825000D02*
X4325000Y-4950000D01*
X4700000Y-4650000D02*
X4625000Y-4650000D01*
X4700000Y-4650000D02*
X4825000Y-4775000D01*
X4825000Y-4875000D02*
X4825000Y-4775000D01*
X5425000Y-5650000D02*
X5425000Y-5775000D01*
X5575000Y-4600000D02*
X5575000Y-4500000D01*
X5525000Y-4650000D02*
X5575000Y-4600000D01*
X7375000Y-5425000D02*
X7400000Y-5425000D01*
X4025000Y-5100000D02*
X4025000Y-5300000D01*
X4025000Y-5300000D02*
X4575000Y-5850000D01*
X4575000Y-5850000D02*
X7250000Y-5850000D01*
X7250000Y-5850000D02*
X7325000Y-5775000D01*
X7325000Y-5775000D02*
X7325000Y-5475000D01*
X7325000Y-5475000D02*
X7375000Y-5425000D01*
X4100000Y-5025000D02*
X4025000Y-5100000D01*
D24*
X7750000Y-4550000D02*
X7750000Y-4375000D01*
X7750000Y-4375000D02*
X7725000Y-4350000D01*
X7725000Y-4350000D02*
X7650000Y-4350000D01*
X7650000Y-4350000D02*
X7600000Y-4400000D01*
X7800000Y-4925000D02*
X7750000Y-4875000D01*
X7750000Y-5175000D02*
X7750000Y-4975000D01*
X7750000Y-4975000D02*
X7800000Y-4925000D01*
X7600000Y-5425000D02*
X7600000Y-5475000D01*
X7750000Y-5275000D02*
X7800000Y-5225000D01*
X7750000Y-5475000D02*
X7750000Y-5275000D01*
X7725000Y-5500000D02*
X7750000Y-5475000D01*
X7625000Y-5500000D02*
X7725000Y-5500000D01*
X7600000Y-5475000D02*
X7625000Y-5500000D01*
X7800000Y-5225000D02*
X7750000Y-5175000D01*
X7750000Y-4650000D02*
X7800000Y-4600000D01*
X7750000Y-4875000D02*
X7750000Y-4650000D01*
X7800000Y-4600000D02*
X7750000Y-4550000D01*
D23*
X5650000Y-4425000D02*
X5675000Y-4400000D01*
X5525000Y-4925000D02*
X5625000Y-4825000D01*
X5625000Y-4825000D02*
X5625000Y-4775000D01*
X5525000Y-5075000D02*
X5525000Y-4925000D01*
X5525000Y-5200000D02*
X5525000Y-5075000D01*
X5625000Y-4775000D02*
X5625000Y-4650000D01*
X4825000Y-5650000D02*
X4825000Y-5350000D01*
X4950000Y-5225000D02*
X4825000Y-5350000D01*
X4975000Y-5225000D02*
X4950000Y-5225000D01*
X4525000Y-4875000D02*
X4525000Y-4650000D01*
X4425000Y-4975000D02*
X4525000Y-4875000D01*
X4600000Y-4575000D02*
X4725000Y-4575000D01*
X4725000Y-4575000D02*
X4775000Y-4525000D01*
X4775000Y-4525000D02*
X4775000Y-4450000D01*
X4775000Y-4450000D02*
X4725000Y-4400000D01*
X4525000Y-4650000D02*
X4600000Y-4575000D01*
X5675000Y-4400000D02*
X5725000Y-4400000D01*
X5475000Y-4500000D02*
X5475000Y-4375000D01*
X5550000Y-5525000D02*
X5525000Y-5500000D01*
X5525000Y-5500000D02*
X5525000Y-5200000D01*
X5550000Y-5650000D02*
X5550000Y-5525000D01*
X5650000Y-4625000D02*
X5650000Y-4425000D01*
X5625000Y-4650000D02*
X5650000Y-4625000D01*
D24*
X5725000Y-5075000D02*
X5725000Y-5200000D01*
X5728900Y-5203900D02*
X5728900Y-5375000D01*
X5725000Y-5200000D02*
X5728900Y-5203900D01*
X5921100Y-5203900D02*
X5921100Y-5375000D01*
X5925000Y-5200000D02*
X5921100Y-5203900D01*
X5825000Y-5100000D02*
X5825000Y-5075000D01*
X5925000Y-5200000D02*
X5825000Y-5100000D01*
X5425000Y-5300000D02*
X5475000Y-5250000D01*
X5475000Y-5250000D02*
X5475000Y-5050000D01*
X5475000Y-5050000D02*
X5275000Y-4850000D01*
X5275000Y-4850000D02*
X5275000Y-4750000D01*
X5275000Y-4750000D02*
X5175000Y-4650000D01*
X5425000Y-5350000D02*
X5425000Y-5300000D01*
X5075000Y-4500000D02*
X5075000Y-4375000D01*
X5075000Y-4650000D02*
X5075000Y-4500000D01*
X5075000Y-4925000D02*
X5075000Y-4650000D01*
X4925000Y-5075000D02*
X5075000Y-4925000D01*
X5078000Y-4372000D02*
X5078000Y-4075000D01*
X5075000Y-4375000D02*
X5078000Y-4372000D01*
X4325000Y-5050000D02*
X4250000Y-4975000D01*
X4250000Y-4975000D02*
X4150000Y-4975000D01*
X4150000Y-4975000D02*
X4100000Y-4925000D01*
X4325000Y-5425000D02*
X4325000Y-5050000D01*
X4475000Y-5225000D02*
X4725000Y-4975000D01*
X4425000Y-5225000D02*
X4475000Y-5225000D01*
X5075000Y-5725000D02*
X5075000Y-5500000D01*
X5075000Y-5500000D02*
X4925000Y-5350000D01*
X5125000Y-5775000D02*
X5075000Y-5725000D01*
X6075000Y-5725000D02*
X6075000Y-5575000D01*
X5275000Y-5725000D02*
X5275000Y-5500000D01*
X5275000Y-5500000D02*
X5325000Y-5450000D01*
X5325000Y-5450000D02*
X5325000Y-5350000D01*
X5325000Y-5775000D02*
X5275000Y-5725000D01*
D23*
X7700000Y-4400000D02*
X7700000Y-4500000D01*
X7700000Y-4500000D02*
X7700000Y-4700000D01*
X7700000Y-4700000D02*
X7700000Y-4800000D01*
X7700000Y-4800000D02*
X7700000Y-5025000D01*
X7700000Y-5025000D02*
X7700000Y-5125000D01*
X7700000Y-5125000D02*
X7700000Y-5325000D01*
X7700000Y-5325000D02*
X7700000Y-5425000D01*
X7175000Y-4125000D02*
X7175000Y-4175000D01*
X7175000Y-4175000D02*
X7250000Y-4250000D01*
X7250000Y-4050000D02*
X7175000Y-4125000D01*
X7175000Y-4325000D02*
X7175000Y-4425000D01*
X7175000Y-4425000D02*
X7250000Y-4500000D01*
X7250000Y-4250000D02*
X7175000Y-4325000D01*
X7175000Y-4575000D02*
X7175000Y-4625000D01*
X7175000Y-4625000D02*
X7250000Y-4700000D01*
X7250000Y-4500000D02*
X7175000Y-4575000D01*
X7175000Y-4775000D02*
X7175000Y-4900000D01*
X7175000Y-4900000D02*
X7250000Y-4975000D01*
X7250000Y-4700000D02*
X7175000Y-4775000D01*
X7175000Y-5050000D02*
X7175000Y-5100000D01*
X7175000Y-5100000D02*
X7250000Y-5175000D01*
X7250000Y-4975000D02*
X7175000Y-5050000D01*
X7175000Y-5250000D02*
X7175000Y-5350000D01*
X7175000Y-5350000D02*
X7250000Y-5425000D01*
X7250000Y-5175000D02*
X7175000Y-5250000D01*
X7175000Y-5500000D02*
X7175000Y-5550000D01*
X7175000Y-5550000D02*
X7250000Y-5625000D01*
X7250000Y-5425000D02*
X7175000Y-5500000D01*
X7350000Y-5325000D02*
X7400000Y-5325000D01*
X7250000Y-5425000D02*
X7350000Y-5325000D01*
D24*
X5875000Y-4825000D02*
X5800000Y-4825000D01*
X5800000Y-4825000D02*
X5775000Y-4800000D01*
X5775000Y-4800000D02*
X5775000Y-4650000D01*
X5775000Y-4650000D02*
X5725000Y-4600000D01*
X5725000Y-4600000D02*
X5725000Y-4500000D01*
X5925000Y-4775000D02*
X5875000Y-4825000D01*
X5825000Y-4500000D02*
X5825000Y-4775000D01*
X5775000Y-4450000D02*
X5775000Y-4350000D01*
X5775000Y-4350000D02*
X5875000Y-4250000D01*
X5825000Y-4500000D02*
X5775000Y-4450000D01*
X5875000Y-4450000D02*
X5875000Y-4625000D01*
X5875000Y-4625000D02*
X6025000Y-4775000D01*
X5825000Y-4400000D02*
X5875000Y-4450000D01*
X5375000Y-5325000D02*
X5375000Y-5375000D01*
X5125000Y-5075000D02*
X5375000Y-5325000D01*
X5475000Y-5475000D02*
X5375000Y-5375000D01*
X5600000Y-5800000D02*
X5525000Y-5800000D01*
X5525000Y-5800000D02*
X5475000Y-5750000D01*
X5475000Y-5750000D02*
X5475000Y-5475000D01*
X5675000Y-5725000D02*
X5600000Y-5800000D01*
X4375000Y-5475000D02*
X4375000Y-5300000D01*
X4375000Y-5300000D02*
X4350000Y-5275000D01*
X4350000Y-5275000D02*
X4350000Y-5150000D01*
X4350000Y-5150000D02*
X4425000Y-5075000D01*
X4650000Y-5750000D02*
X4375000Y-5475000D01*
X6425000Y-4875000D02*
X6275000Y-4725000D01*
X6275000Y-4725000D02*
X6175000Y-4725000D01*
X6175000Y-4725000D02*
X6125000Y-4775000D01*
X6425000Y-4975000D02*
X6425000Y-4875000D01*
X6225000Y-4975000D02*
X6425000Y-5175000D01*
X6225000Y-4775000D02*
X6225000Y-4975000D01*
X6075000Y-5125000D02*
X6275000Y-5125000D01*
X6275000Y-5125000D02*
X6425000Y-5275000D01*
X6425000Y-5275000D02*
X6425000Y-5425000D01*
X6025000Y-5075000D02*
X6075000Y-5125000D01*
X6000000Y-5150000D02*
X6225000Y-5150000D01*
X6225000Y-5150000D02*
X6350000Y-5275000D01*
X6350000Y-5275000D02*
X6350000Y-5550000D01*
X6350000Y-5550000D02*
X6425000Y-5625000D01*
X5925000Y-5075000D02*
X6000000Y-5150000D01*
X6900000Y-5675000D02*
X6900000Y-5750000D01*
X6900000Y-5750000D02*
X6925000Y-5775000D01*
X6925000Y-5775000D02*
X6975000Y-5775000D01*
X6975000Y-5775000D02*
X7025000Y-5725000D01*
X7025000Y-5725000D02*
X7025000Y-4950000D01*
X6950000Y-5625000D02*
X6900000Y-5675000D01*
X6900000Y-4750000D02*
X6900000Y-4825000D01*
X6900000Y-4825000D02*
X7025000Y-4950000D01*
X6950000Y-4700000D02*
X6900000Y-4750000D01*
X6750000Y-5350000D02*
X6750000Y-4500000D01*
X6825000Y-5425000D02*
X6750000Y-5350000D01*
X6900000Y-5100000D02*
X6900000Y-4900000D01*
X6825000Y-5175000D02*
X6900000Y-5100000D01*
X6875000Y-4325000D02*
X6875000Y-4875000D01*
X6875000Y-4875000D02*
X6900000Y-4900000D01*
X6950000Y-4250000D02*
X6875000Y-4325000D01*
X6825000Y-4175000D02*
X6950000Y-4050000D01*
X6825000Y-4975000D02*
X6825000Y-4175000D01*
X5125000Y-5175000D02*
X5125000Y-5350000D01*
X5025000Y-5075000D02*
X5125000Y-5175000D01*
X7000000Y-5125000D02*
X7000000Y-5225000D01*
X7000000Y-5225000D02*
X6950000Y-5275000D01*
X6950000Y-5075000D02*
X7000000Y-5125000D01*
X7000000Y-5325000D02*
X7000000Y-5475000D01*
X7000000Y-5475000D02*
X6950000Y-5525000D01*
X6950000Y-5275000D02*
X7000000Y-5325000D01*
X7000000Y-5575000D02*
X7000000Y-5675000D01*
X7000000Y-5675000D02*
X6950000Y-5725000D01*
X6950000Y-5525000D02*
X7000000Y-5575000D01*
X7000000Y-4200000D02*
X7000000Y-4300000D01*
X7000000Y-4300000D02*
X6950000Y-4350000D01*
X6950000Y-4150000D02*
X7000000Y-4200000D01*
X7000000Y-4400000D02*
X7000000Y-4550000D01*
X7000000Y-4550000D02*
X6950000Y-4600000D01*
X6950000Y-4350000D02*
X7000000Y-4400000D01*
X7000000Y-4650000D02*
X7000000Y-4750000D01*
X7000000Y-4750000D02*
X6950000Y-4800000D01*
X6950000Y-4600000D02*
X7000000Y-4650000D01*
D23*
X4200000Y-4675000D02*
X4475000Y-4400000D01*
X4200000Y-4725000D02*
X4200000Y-4675000D01*
D25*
G36*
X4614653Y-5805000D02*
X4593640Y-5805000D01*
X4070000Y-5281360D01*
X4070000Y-5172096D01*
X4089012Y-5179990D01*
X4110892Y-5180010D01*
X4131114Y-5171654D01*
X4146600Y-5156196D01*
X4149998Y-5148011D01*
X4153346Y-5156114D01*
X4168804Y-5171600D01*
X4189012Y-5179990D01*
X4210892Y-5180010D01*
X4231114Y-5171654D01*
X4246600Y-5156196D01*
X4254990Y-5135988D01*
X4255010Y-5114108D01*
X4246654Y-5093886D01*
X4231196Y-5078400D01*
X4223011Y-5075002D01*
X4231114Y-5071654D01*
X4246600Y-5056196D01*
X4254990Y-5035988D01*
X4255003Y-5021016D01*
X4296000Y-5062012D01*
X4296000Y-5366000D01*
X4286027Y-5366000D01*
X4276839Y-5369806D01*
X4269806Y-5376839D01*
X4266000Y-5386027D01*
X4266000Y-5395973D01*
X4266000Y-5463973D01*
X4269806Y-5473161D01*
X4276839Y-5480194D01*
X4286027Y-5484000D01*
X4295973Y-5484000D01*
X4347790Y-5484000D01*
X4348207Y-5486098D01*
X4354494Y-5495506D01*
X4588733Y-5729745D01*
X4585661Y-5737144D01*
X4585639Y-5762744D01*
X4595415Y-5786404D01*
X4613501Y-5804521D01*
X4614653Y-5805000D01*
X4614653Y-5805000D01*
G37*
X4614653Y-5805000D02*
X4593640Y-5805000D01*
X4070000Y-5281360D01*
X4070000Y-5172096D01*
X4089012Y-5179990D01*
X4110892Y-5180010D01*
X4131114Y-5171654D01*
X4146600Y-5156196D01*
X4149998Y-5148011D01*
X4153346Y-5156114D01*
X4168804Y-5171600D01*
X4189012Y-5179990D01*
X4210892Y-5180010D01*
X4231114Y-5171654D01*
X4246600Y-5156196D01*
X4254990Y-5135988D01*
X4255010Y-5114108D01*
X4246654Y-5093886D01*
X4231196Y-5078400D01*
X4223011Y-5075002D01*
X4231114Y-5071654D01*
X4246600Y-5056196D01*
X4254990Y-5035988D01*
X4255003Y-5021016D01*
X4296000Y-5062012D01*
X4296000Y-5366000D01*
X4286027Y-5366000D01*
X4276839Y-5369806D01*
X4269806Y-5376839D01*
X4266000Y-5386027D01*
X4266000Y-5395973D01*
X4266000Y-5463973D01*
X4269806Y-5473161D01*
X4276839Y-5480194D01*
X4286027Y-5484000D01*
X4295973Y-5484000D01*
X4347790Y-5484000D01*
X4348207Y-5486098D01*
X4354494Y-5495506D01*
X4588733Y-5729745D01*
X4585661Y-5737144D01*
X4585639Y-5762744D01*
X4595415Y-5786404D01*
X4613501Y-5804521D01*
X4614653Y-5805000D01*
G36*
X5046000Y-5601874D02*
X5035489Y-5597509D01*
X5014603Y-5597491D01*
X4995300Y-5605467D01*
X4980519Y-5620222D01*
X4974996Y-5633521D01*
X4969533Y-5620300D01*
X4954778Y-5605519D01*
X4935489Y-5597509D01*
X4914603Y-5597491D01*
X4895300Y-5605467D01*
X4880519Y-5620222D01*
X4877500Y-5627492D01*
X4877500Y-5617527D01*
X4873694Y-5608339D01*
X4870000Y-5604645D01*
X4870000Y-5378529D01*
X4875004Y-5366478D01*
X4880467Y-5379700D01*
X4895222Y-5394481D01*
X4914511Y-5402491D01*
X4935397Y-5402509D01*
X4936175Y-5402188D01*
X5046000Y-5512012D01*
X5046000Y-5601874D01*
X5046000Y-5601874D01*
G37*
X5046000Y-5601874D02*
X5035489Y-5597509D01*
X5014603Y-5597491D01*
X4995300Y-5605467D01*
X4980519Y-5620222D01*
X4974996Y-5633521D01*
X4969533Y-5620300D01*
X4954778Y-5605519D01*
X4935489Y-5597509D01*
X4914603Y-5597491D01*
X4895300Y-5605467D01*
X4880519Y-5620222D01*
X4877500Y-5627492D01*
X4877500Y-5617527D01*
X4873694Y-5608339D01*
X4870000Y-5604645D01*
X4870000Y-5378529D01*
X4875004Y-5366478D01*
X4880467Y-5379700D01*
X4895222Y-5394481D01*
X4914511Y-5402491D01*
X4935397Y-5402509D01*
X4936175Y-5402188D01*
X5046000Y-5512012D01*
X5046000Y-5601874D01*
G36*
X5296000Y-5437988D02*
X5254494Y-5479494D01*
X5248207Y-5488902D01*
X5246000Y-5500000D01*
X5246000Y-5601874D01*
X5235489Y-5597509D01*
X5214603Y-5597491D01*
X5195300Y-5605467D01*
X5180519Y-5620222D01*
X5174996Y-5633521D01*
X5169533Y-5620300D01*
X5154778Y-5605519D01*
X5135489Y-5597509D01*
X5114603Y-5597491D01*
X5104000Y-5601872D01*
X5104000Y-5500000D01*
X5101793Y-5488902D01*
X5101793Y-5488902D01*
X5095506Y-5479494D01*
X5018507Y-5402494D01*
X5035397Y-5402509D01*
X5054700Y-5394533D01*
X5069481Y-5379778D01*
X5075004Y-5366478D01*
X5080467Y-5379700D01*
X5095222Y-5394481D01*
X5114511Y-5402491D01*
X5135397Y-5402509D01*
X5154700Y-5394533D01*
X5169481Y-5379778D01*
X5175004Y-5366478D01*
X5180467Y-5379700D01*
X5195222Y-5394481D01*
X5214511Y-5402491D01*
X5235397Y-5402509D01*
X5254700Y-5394533D01*
X5269481Y-5379778D01*
X5275004Y-5366478D01*
X5280467Y-5379700D01*
X5295222Y-5394481D01*
X5296000Y-5394804D01*
X5296000Y-5437988D01*
X5296000Y-5437988D01*
G37*
X5296000Y-5437988D02*
X5254494Y-5479494D01*
X5248207Y-5488902D01*
X5246000Y-5500000D01*
X5246000Y-5601874D01*
X5235489Y-5597509D01*
X5214603Y-5597491D01*
X5195300Y-5605467D01*
X5180519Y-5620222D01*
X5174996Y-5633521D01*
X5169533Y-5620300D01*
X5154778Y-5605519D01*
X5135489Y-5597509D01*
X5114603Y-5597491D01*
X5104000Y-5601872D01*
X5104000Y-5500000D01*
X5101793Y-5488902D01*
X5101793Y-5488902D01*
X5095506Y-5479494D01*
X5018507Y-5402494D01*
X5035397Y-5402509D01*
X5054700Y-5394533D01*
X5069481Y-5379778D01*
X5075004Y-5366478D01*
X5080467Y-5379700D01*
X5095222Y-5394481D01*
X5114511Y-5402491D01*
X5135397Y-5402509D01*
X5154700Y-5394533D01*
X5169481Y-5379778D01*
X5175004Y-5366478D01*
X5180467Y-5379700D01*
X5195222Y-5394481D01*
X5214511Y-5402491D01*
X5235397Y-5402509D01*
X5254700Y-5394533D01*
X5269481Y-5379778D01*
X5275004Y-5366478D01*
X5280467Y-5379700D01*
X5295222Y-5394481D01*
X5296000Y-5394804D01*
X5296000Y-5437988D01*
G36*
X5308854Y-5299866D02*
X5295300Y-5305467D01*
X5280519Y-5320222D01*
X5274996Y-5333521D01*
X5269533Y-5320300D01*
X5254778Y-5305519D01*
X5235489Y-5297509D01*
X5214603Y-5297491D01*
X5195300Y-5305467D01*
X5180519Y-5320222D01*
X5174996Y-5333521D01*
X5169533Y-5320300D01*
X5154778Y-5305519D01*
X5154000Y-5305196D01*
X5154000Y-5175000D01*
X5151793Y-5163902D01*
X5145506Y-5154494D01*
X5118507Y-5127494D01*
X5135397Y-5127509D01*
X5136175Y-5127188D01*
X5308854Y-5299866D01*
X5308854Y-5299866D01*
G37*
X5308854Y-5299866D02*
X5295300Y-5305467D01*
X5280519Y-5320222D01*
X5274996Y-5333521D01*
X5269533Y-5320300D01*
X5254778Y-5305519D01*
X5235489Y-5297509D01*
X5214603Y-5297491D01*
X5195300Y-5305467D01*
X5180519Y-5320222D01*
X5174996Y-5333521D01*
X5169533Y-5320300D01*
X5154778Y-5305519D01*
X5154000Y-5305196D01*
X5154000Y-5175000D01*
X5151793Y-5163902D01*
X5145506Y-5154494D01*
X5118507Y-5127494D01*
X5135397Y-5127509D01*
X5136175Y-5127188D01*
X5308854Y-5299866D01*
G36*
X5408854Y-5024866D02*
X5395300Y-5030467D01*
X5380519Y-5045222D01*
X5374996Y-5058521D01*
X5369533Y-5045300D01*
X5354778Y-5030519D01*
X5335489Y-5022509D01*
X5314603Y-5022491D01*
X5295300Y-5030467D01*
X5280519Y-5045222D01*
X5274996Y-5058521D01*
X5269533Y-5045300D01*
X5254778Y-5030519D01*
X5235489Y-5022509D01*
X5214603Y-5022491D01*
X5195300Y-5030467D01*
X5180519Y-5045222D01*
X5174996Y-5058521D01*
X5169533Y-5045300D01*
X5154778Y-5030519D01*
X5135489Y-5022509D01*
X5114603Y-5022491D01*
X5095300Y-5030467D01*
X5080519Y-5045222D01*
X5074996Y-5058521D01*
X5069533Y-5045300D01*
X5054778Y-5030519D01*
X5035489Y-5022509D01*
X5018518Y-5022494D01*
X5095506Y-4945506D01*
X5101793Y-4936098D01*
X5101793Y-4936098D01*
X5104000Y-4925000D01*
X5104000Y-4823126D01*
X5114511Y-4827491D01*
X5135397Y-4827509D01*
X5154700Y-4819533D01*
X5169481Y-4804778D01*
X5175004Y-4791478D01*
X5180467Y-4804700D01*
X5195222Y-4819481D01*
X5214511Y-4827491D01*
X5235397Y-4827509D01*
X5246000Y-4823128D01*
X5246000Y-4850000D01*
X5248207Y-4861098D01*
X5254494Y-4870506D01*
X5408854Y-5024866D01*
X5408854Y-5024866D01*
G37*
X5408854Y-5024866D02*
X5395300Y-5030467D01*
X5380519Y-5045222D01*
X5374996Y-5058521D01*
X5369533Y-5045300D01*
X5354778Y-5030519D01*
X5335489Y-5022509D01*
X5314603Y-5022491D01*
X5295300Y-5030467D01*
X5280519Y-5045222D01*
X5274996Y-5058521D01*
X5269533Y-5045300D01*
X5254778Y-5030519D01*
X5235489Y-5022509D01*
X5214603Y-5022491D01*
X5195300Y-5030467D01*
X5180519Y-5045222D01*
X5174996Y-5058521D01*
X5169533Y-5045300D01*
X5154778Y-5030519D01*
X5135489Y-5022509D01*
X5114603Y-5022491D01*
X5095300Y-5030467D01*
X5080519Y-5045222D01*
X5074996Y-5058521D01*
X5069533Y-5045300D01*
X5054778Y-5030519D01*
X5035489Y-5022509D01*
X5018518Y-5022494D01*
X5095506Y-4945506D01*
X5101793Y-4936098D01*
X5101793Y-4936098D01*
X5104000Y-4925000D01*
X5104000Y-4823126D01*
X5114511Y-4827491D01*
X5135397Y-4827509D01*
X5154700Y-4819533D01*
X5169481Y-4804778D01*
X5175004Y-4791478D01*
X5180467Y-4804700D01*
X5195222Y-4819481D01*
X5214511Y-4827491D01*
X5235397Y-4827509D01*
X5246000Y-4823128D01*
X5246000Y-4850000D01*
X5248207Y-4861098D01*
X5254494Y-4870506D01*
X5408854Y-5024866D01*
G36*
X5446000Y-5237988D02*
X5434515Y-5249472D01*
X5439339Y-5237856D01*
X5439361Y-5212256D01*
X5429585Y-5188596D01*
X5411499Y-5170479D01*
X5387856Y-5160661D01*
X5362256Y-5160639D01*
X5338596Y-5170415D01*
X5320479Y-5188501D01*
X5310661Y-5212144D01*
X5310655Y-5219642D01*
X5218507Y-5127494D01*
X5235397Y-5127509D01*
X5254700Y-5119533D01*
X5269481Y-5104778D01*
X5275004Y-5091478D01*
X5280467Y-5104700D01*
X5295222Y-5119481D01*
X5314511Y-5127491D01*
X5335397Y-5127509D01*
X5354700Y-5119533D01*
X5369481Y-5104778D01*
X5375004Y-5091478D01*
X5380467Y-5104700D01*
X5395222Y-5119481D01*
X5414511Y-5127491D01*
X5435397Y-5127509D01*
X5446000Y-5123128D01*
X5446000Y-5237988D01*
X5446000Y-5237988D01*
G37*
X5446000Y-5237988D02*
X5434515Y-5249472D01*
X5439339Y-5237856D01*
X5439361Y-5212256D01*
X5429585Y-5188596D01*
X5411499Y-5170479D01*
X5387856Y-5160661D01*
X5362256Y-5160639D01*
X5338596Y-5170415D01*
X5320479Y-5188501D01*
X5310661Y-5212144D01*
X5310655Y-5219642D01*
X5218507Y-5127494D01*
X5235397Y-5127509D01*
X5254700Y-5119533D01*
X5269481Y-5104778D01*
X5275004Y-5091478D01*
X5280467Y-5104700D01*
X5295222Y-5119481D01*
X5314511Y-5127491D01*
X5335397Y-5127509D01*
X5354700Y-5119533D01*
X5369481Y-5104778D01*
X5375004Y-5091478D01*
X5380467Y-5104700D01*
X5395222Y-5119481D01*
X5414511Y-5127491D01*
X5435397Y-5127509D01*
X5446000Y-5123128D01*
X5446000Y-5237988D01*
G36*
X5488988Y-5805000D02*
X5376427Y-5805000D01*
X5383990Y-5786787D01*
X5384010Y-5763316D01*
X5375047Y-5741623D01*
X5358464Y-5725011D01*
X5336787Y-5716010D01*
X5313316Y-5715990D01*
X5308848Y-5717836D01*
X5304000Y-5712988D01*
X5304000Y-5698126D01*
X5314511Y-5702491D01*
X5335397Y-5702509D01*
X5354700Y-5694533D01*
X5369481Y-5679778D01*
X5369494Y-5679747D01*
X5371195Y-5684145D01*
X5372864Y-5686643D01*
X5385427Y-5688159D01*
X5423586Y-5650000D01*
X5385427Y-5611841D01*
X5372864Y-5613357D01*
X5369660Y-5620606D01*
X5369533Y-5620300D01*
X5354778Y-5605519D01*
X5335489Y-5597509D01*
X5314603Y-5597491D01*
X5304000Y-5601872D01*
X5304000Y-5512012D01*
X5345506Y-5470506D01*
X5351793Y-5461098D01*
X5354000Y-5450000D01*
X5354000Y-5394823D01*
X5354029Y-5394810D01*
X5354494Y-5395506D01*
X5446000Y-5487012D01*
X5446000Y-5590949D01*
X5438902Y-5587810D01*
X5414045Y-5587224D01*
X5390855Y-5596195D01*
X5388357Y-5597864D01*
X5386841Y-5610427D01*
X5425000Y-5648586D01*
X5425557Y-5648029D01*
X5426971Y-5649443D01*
X5426414Y-5650000D01*
X5426971Y-5650557D01*
X5425557Y-5651971D01*
X5425000Y-5651414D01*
X5386841Y-5689573D01*
X5388357Y-5702136D01*
X5411098Y-5712190D01*
X5435955Y-5712776D01*
X5446000Y-5708890D01*
X5446000Y-5750000D01*
X5448207Y-5761098D01*
X5454494Y-5770506D01*
X5488988Y-5805000D01*
X5488988Y-5805000D01*
G37*
X5488988Y-5805000D02*
X5376427Y-5805000D01*
X5383990Y-5786787D01*
X5384010Y-5763316D01*
X5375047Y-5741623D01*
X5358464Y-5725011D01*
X5336787Y-5716010D01*
X5313316Y-5715990D01*
X5308848Y-5717836D01*
X5304000Y-5712988D01*
X5304000Y-5698126D01*
X5314511Y-5702491D01*
X5335397Y-5702509D01*
X5354700Y-5694533D01*
X5369481Y-5679778D01*
X5369494Y-5679747D01*
X5371195Y-5684145D01*
X5372864Y-5686643D01*
X5385427Y-5688159D01*
X5423586Y-5650000D01*
X5385427Y-5611841D01*
X5372864Y-5613357D01*
X5369660Y-5620606D01*
X5369533Y-5620300D01*
X5354778Y-5605519D01*
X5335489Y-5597509D01*
X5314603Y-5597491D01*
X5304000Y-5601872D01*
X5304000Y-5512012D01*
X5345506Y-5470506D01*
X5351793Y-5461098D01*
X5354000Y-5450000D01*
X5354000Y-5394823D01*
X5354029Y-5394810D01*
X5354494Y-5395506D01*
X5446000Y-5487012D01*
X5446000Y-5590949D01*
X5438902Y-5587810D01*
X5414045Y-5587224D01*
X5390855Y-5596195D01*
X5388357Y-5597864D01*
X5386841Y-5610427D01*
X5425000Y-5648586D01*
X5425557Y-5648029D01*
X5426971Y-5649443D01*
X5426414Y-5650000D01*
X5426971Y-5650557D01*
X5425557Y-5651971D01*
X5425000Y-5651414D01*
X5386841Y-5689573D01*
X5388357Y-5702136D01*
X5411098Y-5712190D01*
X5435955Y-5712776D01*
X5446000Y-5708890D01*
X5446000Y-5750000D01*
X5448207Y-5761098D01*
X5454494Y-5770506D01*
X5488988Y-5805000D01*
G36*
X7042239Y-3963976D02*
X7042046Y-4926034D01*
X6966146Y-4850134D01*
X6979700Y-4844533D01*
X6994481Y-4829778D01*
X7002491Y-4810489D01*
X7002509Y-4789603D01*
X7002188Y-4788825D01*
X7020506Y-4770506D01*
X7026793Y-4761098D01*
X7029000Y-4750000D01*
X7029000Y-4650000D01*
X7026793Y-4638902D01*
X7020506Y-4629494D01*
X7002200Y-4611188D01*
X7002491Y-4610489D01*
X7002509Y-4589603D01*
X7002188Y-4588825D01*
X7020506Y-4570506D01*
X7026793Y-4561098D01*
X7029000Y-4550000D01*
X7029000Y-4400000D01*
X7026793Y-4388902D01*
X7020506Y-4379494D01*
X7002200Y-4361188D01*
X7002491Y-4360489D01*
X7002509Y-4339603D01*
X7002188Y-4338825D01*
X7020506Y-4320506D01*
X7026793Y-4311098D01*
X7029000Y-4300000D01*
X7029000Y-4200000D01*
X7026793Y-4188902D01*
X7020506Y-4179494D01*
X7002200Y-4161188D01*
X7002491Y-4160489D01*
X7002509Y-4139603D01*
X6994533Y-4120300D01*
X6979778Y-4105519D01*
X6972508Y-4102500D01*
X6982473Y-4102500D01*
X6991661Y-4098694D01*
X6998694Y-4091661D01*
X7002500Y-4082473D01*
X7002500Y-4072527D01*
X7002500Y-4017527D01*
X6998694Y-4008339D01*
X6991661Y-4001306D01*
X6982473Y-3997500D01*
X6972527Y-3997500D01*
X6917527Y-3997500D01*
X6908339Y-4001306D01*
X6901306Y-4008339D01*
X6897500Y-4017527D01*
X6897500Y-4027473D01*
X6897500Y-4061488D01*
X6804494Y-4154494D01*
X6798207Y-4163902D01*
X6796000Y-4175000D01*
X6796000Y-4917356D01*
X6788596Y-4920415D01*
X6779000Y-4929994D01*
X6779000Y-4531102D01*
X6786009Y-4524106D01*
X6792493Y-4508491D01*
X6792507Y-4491583D01*
X6786051Y-4475957D01*
X6774106Y-4463991D01*
X6758491Y-4457507D01*
X6741583Y-4457493D01*
X6725957Y-4463949D01*
X6713991Y-4475894D01*
X6707507Y-4491509D01*
X6707493Y-4508417D01*
X6713949Y-4524043D01*
X6721000Y-4531106D01*
X6721000Y-5350000D01*
X6723207Y-5361098D01*
X6729494Y-5370506D01*
X6763733Y-5404745D01*
X6760661Y-5412144D01*
X6760639Y-5437744D01*
X6770415Y-5461404D01*
X6788501Y-5479521D01*
X6812144Y-5489339D01*
X6837744Y-5489361D01*
X6861404Y-5479585D01*
X6879521Y-5461499D01*
X6889339Y-5437856D01*
X6889361Y-5412256D01*
X6879585Y-5388596D01*
X6861499Y-5370479D01*
X6837856Y-5360661D01*
X6812256Y-5360639D01*
X6804752Y-5363740D01*
X6779000Y-5337988D01*
X6779000Y-5220004D01*
X6788501Y-5229521D01*
X6812144Y-5239339D01*
X6837744Y-5239361D01*
X6861404Y-5229585D01*
X6879521Y-5211499D01*
X6889339Y-5187856D01*
X6889361Y-5162256D01*
X6886260Y-5154752D01*
X6920506Y-5120506D01*
X6920980Y-5119796D01*
X6933521Y-5125004D01*
X6920300Y-5130467D01*
X6905519Y-5145222D01*
X6897509Y-5164511D01*
X6897491Y-5185397D01*
X6905467Y-5204700D01*
X6920222Y-5219481D01*
X6933521Y-5225004D01*
X6920300Y-5230467D01*
X6905519Y-5245222D01*
X6897509Y-5264511D01*
X6897491Y-5285397D01*
X6905467Y-5304700D01*
X6920222Y-5319481D01*
X6939511Y-5327491D01*
X6960397Y-5327509D01*
X6961175Y-5327188D01*
X6971000Y-5337012D01*
X6971000Y-5372500D01*
X6917527Y-5372500D01*
X6908339Y-5376306D01*
X6901306Y-5383339D01*
X6897500Y-5392527D01*
X6897500Y-5402473D01*
X6897500Y-5457473D01*
X6901306Y-5466661D01*
X6908339Y-5473694D01*
X6917527Y-5477500D01*
X6927473Y-5477500D01*
X6927480Y-5477500D01*
X6920300Y-5480467D01*
X6905519Y-5495222D01*
X6897509Y-5514511D01*
X6897491Y-5535397D01*
X6905467Y-5554700D01*
X6920222Y-5569481D01*
X6933521Y-5575004D01*
X6920300Y-5580467D01*
X6905519Y-5595222D01*
X6897509Y-5614511D01*
X6897491Y-5635397D01*
X6897812Y-5636175D01*
X6884515Y-5649472D01*
X6889339Y-5637856D01*
X6889361Y-5612256D01*
X6879585Y-5588596D01*
X6861499Y-5570479D01*
X6837856Y-5560661D01*
X6812256Y-5560639D01*
X6788596Y-5570415D01*
X6770479Y-5588501D01*
X6760661Y-5612144D01*
X6760639Y-5637744D01*
X6770415Y-5661404D01*
X6788501Y-5679521D01*
X6812144Y-5689339D01*
X6837744Y-5689361D01*
X6861404Y-5679585D01*
X6872240Y-5668768D01*
X6871000Y-5675000D01*
X6871000Y-5750000D01*
X6873207Y-5761098D01*
X6879494Y-5770506D01*
X6904494Y-5795506D01*
X6913902Y-5801793D01*
X6913902Y-5801793D01*
X6925000Y-5804000D01*
X6975000Y-5804000D01*
X6986098Y-5801793D01*
X6995506Y-5795506D01*
X7041882Y-5749131D01*
X7041870Y-5805000D01*
X6289361Y-5805000D01*
X6289361Y-5712256D01*
X6289361Y-5312256D01*
X6279585Y-5288596D01*
X6261499Y-5270479D01*
X6237856Y-5260661D01*
X6212256Y-5260639D01*
X6188596Y-5270415D01*
X6170479Y-5288501D01*
X6160661Y-5312144D01*
X6160639Y-5337744D01*
X6170415Y-5361404D01*
X6188501Y-5379521D01*
X6212144Y-5389339D01*
X6237744Y-5389361D01*
X6261404Y-5379585D01*
X6279521Y-5361499D01*
X6289339Y-5337856D01*
X6289361Y-5312256D01*
X6289361Y-5712256D01*
X6279585Y-5688596D01*
X6261499Y-5670479D01*
X6237856Y-5660661D01*
X6212256Y-5660639D01*
X6188596Y-5670415D01*
X6170479Y-5688501D01*
X6160661Y-5712144D01*
X6160639Y-5737744D01*
X6170415Y-5761404D01*
X6188501Y-5779521D01*
X6212144Y-5789339D01*
X6237744Y-5789361D01*
X6261404Y-5779585D01*
X6279521Y-5761499D01*
X6289339Y-5737856D01*
X6289361Y-5712256D01*
X6289361Y-5805000D01*
X6139361Y-5805000D01*
X6139361Y-5712256D01*
X6129585Y-5688596D01*
X6111499Y-5670479D01*
X6104000Y-5667365D01*
X6104000Y-5632644D01*
X6111404Y-5629585D01*
X6129521Y-5611499D01*
X6139339Y-5587856D01*
X6139361Y-5562256D01*
X6129585Y-5538596D01*
X6111499Y-5520479D01*
X6087856Y-5510661D01*
X6064637Y-5510641D01*
X6064637Y-5241052D01*
X6025000Y-5201414D01*
X5985363Y-5241052D01*
X5987129Y-5253827D01*
X6010610Y-5264222D01*
X6036282Y-5264840D01*
X6060237Y-5255587D01*
X6062871Y-5253827D01*
X6064637Y-5241052D01*
X6064637Y-5510641D01*
X6062256Y-5510639D01*
X6038596Y-5520415D01*
X6020479Y-5538501D01*
X6010661Y-5562144D01*
X6010639Y-5587744D01*
X6020415Y-5611404D01*
X6038501Y-5629521D01*
X6046000Y-5632635D01*
X6046000Y-5667356D01*
X6038596Y-5670415D01*
X6020479Y-5688501D01*
X6010661Y-5712144D01*
X6010639Y-5737744D01*
X6020415Y-5761404D01*
X6038501Y-5779521D01*
X6062144Y-5789339D01*
X6087744Y-5789361D01*
X6111404Y-5779585D01*
X6129521Y-5761499D01*
X6139339Y-5737856D01*
X6139361Y-5712256D01*
X6139361Y-5805000D01*
X5864637Y-5805000D01*
X5864637Y-5241052D01*
X5825000Y-5201414D01*
X5785363Y-5241052D01*
X5787129Y-5253827D01*
X5810610Y-5264222D01*
X5836282Y-5264840D01*
X5860237Y-5255587D01*
X5862871Y-5253827D01*
X5864637Y-5241052D01*
X5864637Y-5805000D01*
X5749710Y-5805000D01*
X5749710Y-5562155D01*
X5739108Y-5534542D01*
X5736911Y-5531255D01*
X5723118Y-5528296D01*
X5721704Y-5529710D01*
X5721704Y-5526882D01*
X5718745Y-5513089D01*
X5691723Y-5501061D01*
X5664637Y-5500354D01*
X5664637Y-5241052D01*
X5625000Y-5201414D01*
X5585363Y-5241052D01*
X5587129Y-5253827D01*
X5610610Y-5264222D01*
X5636282Y-5264840D01*
X5660237Y-5255587D01*
X5662871Y-5253827D01*
X5664637Y-5241052D01*
X5664637Y-5500354D01*
X5662155Y-5500290D01*
X5634542Y-5510892D01*
X5631255Y-5513089D01*
X5628296Y-5526882D01*
X5675000Y-5573586D01*
X5721704Y-5526882D01*
X5721704Y-5529710D01*
X5676414Y-5575000D01*
X5723118Y-5621704D01*
X5736911Y-5618745D01*
X5748939Y-5591723D01*
X5749710Y-5562155D01*
X5749710Y-5805000D01*
X5636012Y-5805000D01*
X5654745Y-5786267D01*
X5662144Y-5789339D01*
X5687744Y-5789361D01*
X5711404Y-5779585D01*
X5729521Y-5761499D01*
X5739339Y-5737856D01*
X5739361Y-5712256D01*
X5729585Y-5688596D01*
X5721704Y-5680701D01*
X5721704Y-5623118D01*
X5675000Y-5576414D01*
X5673586Y-5577828D01*
X5673586Y-5575000D01*
X5626882Y-5528296D01*
X5613089Y-5531255D01*
X5601061Y-5558277D01*
X5600290Y-5587845D01*
X5610892Y-5615458D01*
X5613089Y-5618745D01*
X5626882Y-5621704D01*
X5673586Y-5575000D01*
X5673586Y-5577828D01*
X5628296Y-5623118D01*
X5631255Y-5636911D01*
X5658277Y-5648939D01*
X5687845Y-5649710D01*
X5715458Y-5639108D01*
X5718745Y-5636911D01*
X5721704Y-5623118D01*
X5721704Y-5680701D01*
X5711499Y-5670479D01*
X5687856Y-5660661D01*
X5662256Y-5660639D01*
X5638596Y-5670415D01*
X5620479Y-5688501D01*
X5610661Y-5712144D01*
X5610647Y-5727863D01*
X5605587Y-5714763D01*
X5603827Y-5712129D01*
X5591052Y-5710363D01*
X5551414Y-5750000D01*
X5551971Y-5750557D01*
X5550557Y-5751971D01*
X5550000Y-5751414D01*
X5549443Y-5751971D01*
X5548029Y-5750557D01*
X5548586Y-5750000D01*
X5548029Y-5749443D01*
X5549443Y-5748029D01*
X5550000Y-5748586D01*
X5589637Y-5708948D01*
X5587871Y-5696173D01*
X5583083Y-5694053D01*
X5596218Y-5680940D01*
X5604541Y-5660898D01*
X5604559Y-5639197D01*
X5596272Y-5619140D01*
X5595000Y-5617866D01*
X5595000Y-5525000D01*
X5591575Y-5507779D01*
X5581820Y-5493180D01*
X5570000Y-5481360D01*
X5570000Y-5236116D01*
X5571173Y-5237871D01*
X5583948Y-5239637D01*
X5623586Y-5200000D01*
X5583948Y-5160363D01*
X5571173Y-5162129D01*
X5570000Y-5164779D01*
X5570000Y-5106055D01*
X5571195Y-5109145D01*
X5572864Y-5111643D01*
X5585427Y-5113159D01*
X5623586Y-5075000D01*
X5585427Y-5036841D01*
X5572864Y-5038357D01*
X5570000Y-5044836D01*
X5570000Y-4943640D01*
X5656820Y-4856820D01*
X5666575Y-4842221D01*
X5670000Y-4825000D01*
X5670000Y-4803529D01*
X5675004Y-4791478D01*
X5680467Y-4804700D01*
X5695222Y-4819481D01*
X5714511Y-4827491D01*
X5735397Y-4827509D01*
X5754029Y-4819810D01*
X5754494Y-4820506D01*
X5779494Y-4845506D01*
X5788902Y-4851793D01*
X5788902Y-4851793D01*
X5800000Y-4854000D01*
X5875000Y-4854000D01*
X5886098Y-4851793D01*
X5895506Y-4845506D01*
X5913812Y-4827200D01*
X5914511Y-4827491D01*
X5935397Y-4827509D01*
X5954700Y-4819533D01*
X5969481Y-4804778D01*
X5975004Y-4791478D01*
X5980467Y-4804700D01*
X5995222Y-4819481D01*
X6014511Y-4827491D01*
X6035397Y-4827509D01*
X6054700Y-4819533D01*
X6069481Y-4804778D01*
X6075004Y-4791478D01*
X6080467Y-4804700D01*
X6095222Y-4819481D01*
X6114511Y-4827491D01*
X6135397Y-4827509D01*
X6154700Y-4819533D01*
X6169481Y-4804778D01*
X6175004Y-4791478D01*
X6180467Y-4804700D01*
X6195222Y-4819481D01*
X6196000Y-4819804D01*
X6196000Y-4975000D01*
X6198207Y-4986098D01*
X6204494Y-4995506D01*
X6231493Y-5022506D01*
X6214603Y-5022491D01*
X6195300Y-5030467D01*
X6180519Y-5045222D01*
X6174996Y-5058521D01*
X6169533Y-5045300D01*
X6154778Y-5030519D01*
X6135489Y-5022509D01*
X6114603Y-5022491D01*
X6095300Y-5030467D01*
X6080519Y-5045222D01*
X6074996Y-5058521D01*
X6069533Y-5045300D01*
X6054778Y-5030519D01*
X6035489Y-5022509D01*
X6014603Y-5022491D01*
X5995300Y-5030467D01*
X5980519Y-5045222D01*
X5974996Y-5058521D01*
X5969533Y-5045300D01*
X5954778Y-5030519D01*
X5935489Y-5022509D01*
X5914603Y-5022491D01*
X5895300Y-5030467D01*
X5880519Y-5045222D01*
X5874996Y-5058521D01*
X5869533Y-5045300D01*
X5854778Y-5030519D01*
X5835489Y-5022509D01*
X5814603Y-5022491D01*
X5795300Y-5030467D01*
X5780519Y-5045222D01*
X5774996Y-5058521D01*
X5769533Y-5045300D01*
X5754778Y-5030519D01*
X5735489Y-5022509D01*
X5714603Y-5022491D01*
X5695300Y-5030467D01*
X5680519Y-5045222D01*
X5680506Y-5045253D01*
X5678805Y-5040855D01*
X5677136Y-5038357D01*
X5664573Y-5036841D01*
X5663159Y-5038255D01*
X5663159Y-5035427D01*
X5661643Y-5022864D01*
X5638902Y-5012810D01*
X5614045Y-5012224D01*
X5590855Y-5021195D01*
X5588357Y-5022864D01*
X5586841Y-5035427D01*
X5625000Y-5073586D01*
X5663159Y-5035427D01*
X5663159Y-5038255D01*
X5626414Y-5075000D01*
X5664573Y-5113159D01*
X5677136Y-5111643D01*
X5680340Y-5104394D01*
X5680467Y-5104700D01*
X5695222Y-5119481D01*
X5696000Y-5119804D01*
X5696000Y-5152959D01*
X5694140Y-5153728D01*
X5681282Y-5166563D01*
X5680587Y-5164763D01*
X5678827Y-5162129D01*
X5666052Y-5160363D01*
X5664637Y-5161777D01*
X5664637Y-5158948D01*
X5662871Y-5146173D01*
X5640197Y-5136135D01*
X5659145Y-5128805D01*
X5661643Y-5127136D01*
X5663159Y-5114573D01*
X5625000Y-5076414D01*
X5586841Y-5114573D01*
X5588357Y-5127136D01*
X5609869Y-5136646D01*
X5589763Y-5144413D01*
X5587129Y-5146173D01*
X5585363Y-5158948D01*
X5625000Y-5198586D01*
X5664637Y-5158948D01*
X5664637Y-5161777D01*
X5626414Y-5200000D01*
X5666052Y-5239637D01*
X5678827Y-5237871D01*
X5680947Y-5233083D01*
X5694060Y-5246218D01*
X5699900Y-5248643D01*
X5699900Y-5327959D01*
X5698040Y-5328728D01*
X5682682Y-5344060D01*
X5674359Y-5364102D01*
X5674341Y-5385803D01*
X5682628Y-5405860D01*
X5697960Y-5421218D01*
X5718002Y-5429541D01*
X5739703Y-5429559D01*
X5759760Y-5421272D01*
X5775118Y-5405940D01*
X5783441Y-5385898D01*
X5783459Y-5364197D01*
X5775172Y-5344140D01*
X5759840Y-5328782D01*
X5757900Y-5327976D01*
X5757900Y-5244235D01*
X5768718Y-5233437D01*
X5769413Y-5235237D01*
X5771173Y-5237871D01*
X5783948Y-5239637D01*
X5823586Y-5200000D01*
X5783948Y-5160363D01*
X5771173Y-5162129D01*
X5769053Y-5166917D01*
X5755940Y-5153782D01*
X5754000Y-5152976D01*
X5754000Y-5119823D01*
X5754700Y-5119533D01*
X5769481Y-5104778D01*
X5775004Y-5091478D01*
X5780467Y-5104700D01*
X5795222Y-5119481D01*
X5809325Y-5125337D01*
X5819281Y-5135294D01*
X5813718Y-5135160D01*
X5789763Y-5144413D01*
X5787129Y-5146173D01*
X5785363Y-5158948D01*
X5825000Y-5198586D01*
X5825557Y-5198029D01*
X5826971Y-5199443D01*
X5826414Y-5200000D01*
X5866052Y-5239637D01*
X5878827Y-5237871D01*
X5880947Y-5233083D01*
X5892100Y-5244255D01*
X5892100Y-5327959D01*
X5890240Y-5328728D01*
X5874882Y-5344060D01*
X5866559Y-5364102D01*
X5866541Y-5385803D01*
X5874828Y-5405860D01*
X5890160Y-5421218D01*
X5910202Y-5429541D01*
X5931903Y-5429559D01*
X5951960Y-5421272D01*
X5967318Y-5405940D01*
X5975641Y-5385898D01*
X5975659Y-5364197D01*
X5967372Y-5344140D01*
X5952040Y-5328782D01*
X5950100Y-5327976D01*
X5950100Y-5248652D01*
X5955860Y-5246272D01*
X5968718Y-5233437D01*
X5969413Y-5235237D01*
X5971173Y-5237871D01*
X5983948Y-5239637D01*
X6023586Y-5200000D01*
X6023029Y-5199443D01*
X6024443Y-5198029D01*
X6025000Y-5198586D01*
X6025557Y-5198029D01*
X6026971Y-5199443D01*
X6026414Y-5200000D01*
X6066052Y-5239637D01*
X6078827Y-5237871D01*
X6089222Y-5214390D01*
X6089840Y-5188718D01*
X6086087Y-5179000D01*
X6212988Y-5179000D01*
X6321000Y-5287012D01*
X6321000Y-5550000D01*
X6323207Y-5561098D01*
X6329494Y-5570506D01*
X6363733Y-5604745D01*
X6360661Y-5612144D01*
X6360639Y-5637744D01*
X6370415Y-5661404D01*
X6388501Y-5679521D01*
X6412144Y-5689339D01*
X6437744Y-5689361D01*
X6461404Y-5679585D01*
X6479521Y-5661499D01*
X6489339Y-5637856D01*
X6489361Y-5612256D01*
X6479585Y-5588596D01*
X6461499Y-5570479D01*
X6437856Y-5560661D01*
X6412256Y-5560639D01*
X6404752Y-5563740D01*
X6379000Y-5537988D01*
X6379000Y-5470004D01*
X6388501Y-5479521D01*
X6412144Y-5489339D01*
X6437744Y-5489361D01*
X6461404Y-5479585D01*
X6479521Y-5461499D01*
X6489339Y-5437856D01*
X6489361Y-5412256D01*
X6479585Y-5388596D01*
X6461499Y-5370479D01*
X6454000Y-5367365D01*
X6454000Y-5275000D01*
X6451793Y-5263902D01*
X6451793Y-5263902D01*
X6445506Y-5254494D01*
X6430367Y-5239355D01*
X6437744Y-5239361D01*
X6461404Y-5229585D01*
X6479521Y-5211499D01*
X6489339Y-5187856D01*
X6489361Y-5162256D01*
X6479585Y-5138596D01*
X6461499Y-5120479D01*
X6437856Y-5110661D01*
X6412256Y-5110639D01*
X6404752Y-5113740D01*
X6254000Y-4962988D01*
X6254000Y-4819823D01*
X6254700Y-4819533D01*
X6269481Y-4804778D01*
X6277491Y-4785489D01*
X6277506Y-4768518D01*
X6396000Y-4887012D01*
X6396000Y-4917356D01*
X6388596Y-4920415D01*
X6370479Y-4938501D01*
X6360661Y-4962144D01*
X6360639Y-4987744D01*
X6370415Y-5011404D01*
X6388501Y-5029521D01*
X6412144Y-5039339D01*
X6437744Y-5039361D01*
X6461404Y-5029585D01*
X6479521Y-5011499D01*
X6489339Y-4987856D01*
X6489361Y-4962256D01*
X6479585Y-4938596D01*
X6461499Y-4920479D01*
X6454000Y-4917365D01*
X6454000Y-4875000D01*
X6451793Y-4863902D01*
X6451793Y-4863902D01*
X6445506Y-4854494D01*
X6295506Y-4704494D01*
X6286098Y-4698207D01*
X6275000Y-4696000D01*
X6190294Y-4696000D01*
X6190294Y-4213646D01*
X6180978Y-4189524D01*
X6179198Y-4186859D01*
X6166376Y-4185038D01*
X6164962Y-4186452D01*
X6164962Y-4183624D01*
X6163141Y-4170802D01*
X6139497Y-4160332D01*
X6113646Y-4159706D01*
X6089524Y-4169022D01*
X6086859Y-4170802D01*
X6085038Y-4183624D01*
X6125000Y-4223586D01*
X6164962Y-4183624D01*
X6164962Y-4186452D01*
X6126414Y-4225000D01*
X6166376Y-4264962D01*
X6179198Y-4263141D01*
X6189668Y-4239497D01*
X6190294Y-4213646D01*
X6190294Y-4696000D01*
X6180010Y-4696000D01*
X6180010Y-4314108D01*
X6171654Y-4293886D01*
X6159244Y-4281454D01*
X6160476Y-4280978D01*
X6163141Y-4279198D01*
X6164962Y-4266376D01*
X6125000Y-4226414D01*
X6123586Y-4227828D01*
X6123586Y-4225000D01*
X6083624Y-4185038D01*
X6070802Y-4186859D01*
X6060332Y-4210503D01*
X6059706Y-4236354D01*
X6069022Y-4260476D01*
X6070802Y-4263141D01*
X6083624Y-4264962D01*
X6123586Y-4225000D01*
X6123586Y-4227828D01*
X6085038Y-4266376D01*
X6086859Y-4279198D01*
X6091135Y-4281092D01*
X6078400Y-4293804D01*
X6070010Y-4314012D01*
X6069990Y-4335892D01*
X6078346Y-4356114D01*
X6093804Y-4371600D01*
X6114012Y-4379990D01*
X6135892Y-4380010D01*
X6156114Y-4371654D01*
X6171600Y-4356196D01*
X6179990Y-4335988D01*
X6180010Y-4314108D01*
X6180010Y-4696000D01*
X6175000Y-4696000D01*
X6163902Y-4698207D01*
X6154494Y-4704494D01*
X6136188Y-4722800D01*
X6135489Y-4722509D01*
X6114603Y-4722491D01*
X6095300Y-4730467D01*
X6080519Y-4745222D01*
X6074996Y-4758521D01*
X6069533Y-4745300D01*
X6054778Y-4730519D01*
X6035489Y-4722509D01*
X6014603Y-4722491D01*
X6013825Y-4722812D01*
X5904000Y-4612988D01*
X5904000Y-4555053D01*
X5923844Y-4559000D01*
X5926156Y-4559000D01*
X5948734Y-4554509D01*
X5967875Y-4541719D01*
X5980665Y-4522578D01*
X5985156Y-4500000D01*
X5980665Y-4477422D01*
X5967875Y-4458281D01*
X5964380Y-4455945D01*
X5981404Y-4439744D01*
X5992320Y-4415134D01*
X5992987Y-4411781D01*
X5992987Y-4388219D01*
X5992320Y-4384866D01*
X5981404Y-4360256D01*
X5961901Y-4341696D01*
X5936781Y-4332013D01*
X5926000Y-4339757D01*
X5926000Y-4399000D01*
X5985242Y-4399000D01*
X5992987Y-4388219D01*
X5992987Y-4411781D01*
X5985242Y-4401000D01*
X5926000Y-4401000D01*
X5926000Y-4401787D01*
X5924000Y-4401787D01*
X5924000Y-4401000D01*
X5923213Y-4401000D01*
X5923213Y-4399000D01*
X5924000Y-4399000D01*
X5924000Y-4339757D01*
X5913219Y-4332013D01*
X5888099Y-4341696D01*
X5868962Y-4359907D01*
X5867875Y-4358281D01*
X5848734Y-4345491D01*
X5826156Y-4341000D01*
X5825012Y-4341000D01*
X5854745Y-4311267D01*
X5862144Y-4314339D01*
X5887744Y-4314361D01*
X5911404Y-4304585D01*
X5929521Y-4286499D01*
X5939339Y-4262856D01*
X5939361Y-4237256D01*
X5929585Y-4213596D01*
X5911499Y-4195479D01*
X5887856Y-4185661D01*
X5862256Y-4185639D01*
X5838596Y-4195415D01*
X5820479Y-4213501D01*
X5810661Y-4237144D01*
X5810639Y-4262744D01*
X5813740Y-4270248D01*
X5754494Y-4329494D01*
X5748207Y-4338902D01*
X5746967Y-4345140D01*
X5726156Y-4341000D01*
X5723844Y-4341000D01*
X5701266Y-4345491D01*
X5687035Y-4355000D01*
X5675000Y-4355000D01*
X5657779Y-4358425D01*
X5643180Y-4368180D01*
X5618180Y-4393180D01*
X5608425Y-4407779D01*
X5605000Y-4425000D01*
X5605000Y-4599241D01*
X5594140Y-4603728D01*
X5581282Y-4616563D01*
X5580587Y-4614763D01*
X5578827Y-4612129D01*
X5566052Y-4610363D01*
X5564637Y-4611777D01*
X5564637Y-4608948D01*
X5562871Y-4596173D01*
X5539390Y-4585778D01*
X5539361Y-4585777D01*
X5539361Y-4362256D01*
X5529585Y-4338596D01*
X5511499Y-4320479D01*
X5492266Y-4312492D01*
X5511404Y-4304585D01*
X5529521Y-4286499D01*
X5539339Y-4262856D01*
X5539361Y-4237256D01*
X5529585Y-4213596D01*
X5511499Y-4195479D01*
X5487856Y-4185661D01*
X5462256Y-4185639D01*
X5438596Y-4195415D01*
X5420479Y-4213501D01*
X5410661Y-4237144D01*
X5410639Y-4262744D01*
X5420415Y-4286404D01*
X5438501Y-4304521D01*
X5457734Y-4312507D01*
X5438596Y-4320415D01*
X5420479Y-4338501D01*
X5410661Y-4362144D01*
X5410639Y-4387744D01*
X5420415Y-4411404D01*
X5430000Y-4421006D01*
X5430000Y-4435930D01*
X5421489Y-4439456D01*
X5414456Y-4446489D01*
X5410650Y-4455677D01*
X5410650Y-4465623D01*
X5410650Y-4544323D01*
X5414456Y-4553511D01*
X5421489Y-4560544D01*
X5430677Y-4564350D01*
X5440623Y-4564350D01*
X5519323Y-4564350D01*
X5528511Y-4560544D01*
X5535544Y-4553511D01*
X5539350Y-4544323D01*
X5539350Y-4534377D01*
X5539350Y-4455677D01*
X5535544Y-4446489D01*
X5528511Y-4439456D01*
X5520000Y-4435930D01*
X5520000Y-4421004D01*
X5529521Y-4411499D01*
X5539339Y-4387856D01*
X5539361Y-4362256D01*
X5539361Y-4585777D01*
X5513718Y-4585160D01*
X5489763Y-4594413D01*
X5487129Y-4596173D01*
X5485363Y-4608948D01*
X5525000Y-4648586D01*
X5564637Y-4608948D01*
X5564637Y-4611777D01*
X5526414Y-4650000D01*
X5566052Y-4689637D01*
X5578827Y-4687871D01*
X5580000Y-4685221D01*
X5580000Y-4743945D01*
X5578805Y-4740855D01*
X5577136Y-4738357D01*
X5564637Y-4736848D01*
X5564637Y-4691052D01*
X5525000Y-4651414D01*
X5523586Y-4652828D01*
X5523586Y-4650000D01*
X5483948Y-4610363D01*
X5471173Y-4612129D01*
X5460778Y-4635610D01*
X5460160Y-4661282D01*
X5469413Y-4685237D01*
X5471173Y-4687871D01*
X5483948Y-4689637D01*
X5523586Y-4650000D01*
X5523586Y-4652828D01*
X5485363Y-4691052D01*
X5487129Y-4703827D01*
X5509803Y-4713865D01*
X5490855Y-4721195D01*
X5488357Y-4722864D01*
X5486841Y-4735427D01*
X5525000Y-4773586D01*
X5563159Y-4735427D01*
X5561643Y-4722864D01*
X5540131Y-4713354D01*
X5560237Y-4705587D01*
X5562871Y-4703827D01*
X5564637Y-4691052D01*
X5564637Y-4736848D01*
X5564573Y-4736841D01*
X5526414Y-4775000D01*
X5526971Y-4775557D01*
X5525557Y-4776971D01*
X5525000Y-4776414D01*
X5486841Y-4814573D01*
X5488357Y-4827136D01*
X5511098Y-4837190D01*
X5535955Y-4837776D01*
X5556553Y-4829807D01*
X5493180Y-4893180D01*
X5483425Y-4907779D01*
X5480000Y-4925000D01*
X5480000Y-5013988D01*
X5304000Y-4837988D01*
X5304000Y-4823126D01*
X5314511Y-4827491D01*
X5335397Y-4827509D01*
X5354700Y-4819533D01*
X5369481Y-4804778D01*
X5375004Y-4791478D01*
X5380467Y-4804700D01*
X5395222Y-4819481D01*
X5414511Y-4827491D01*
X5435397Y-4827509D01*
X5454700Y-4819533D01*
X5469481Y-4804778D01*
X5469494Y-4804747D01*
X5471195Y-4809145D01*
X5472864Y-4811643D01*
X5485427Y-4813159D01*
X5523586Y-4775000D01*
X5485427Y-4736841D01*
X5472864Y-4738357D01*
X5469660Y-4745606D01*
X5469533Y-4745300D01*
X5454778Y-4730519D01*
X5435489Y-4722509D01*
X5414603Y-4722491D01*
X5395300Y-4730467D01*
X5380519Y-4745222D01*
X5374996Y-4758521D01*
X5369533Y-4745300D01*
X5354778Y-4730519D01*
X5335489Y-4722509D01*
X5314603Y-4722491D01*
X5295971Y-4730189D01*
X5295506Y-4729494D01*
X5228769Y-4662757D01*
X5229541Y-4660898D01*
X5229559Y-4639197D01*
X5221272Y-4619140D01*
X5205940Y-4603782D01*
X5185898Y-4595459D01*
X5164197Y-4595441D01*
X5144140Y-4603728D01*
X5128782Y-4619060D01*
X5125001Y-4628165D01*
X5121272Y-4619140D01*
X5105940Y-4603782D01*
X5104000Y-4602976D01*
X5104000Y-4557644D01*
X5111404Y-4554585D01*
X5129521Y-4536499D01*
X5139339Y-4512856D01*
X5139361Y-4487256D01*
X5129585Y-4463596D01*
X5111499Y-4445479D01*
X5104000Y-4442365D01*
X5104000Y-4432644D01*
X5111404Y-4429585D01*
X5129521Y-4411499D01*
X5139339Y-4387856D01*
X5139361Y-4362256D01*
X5129585Y-4338596D01*
X5111499Y-4320479D01*
X5107000Y-4318610D01*
X5107000Y-4132644D01*
X5114404Y-4129585D01*
X5132521Y-4111499D01*
X5142339Y-4087856D01*
X5142361Y-4062256D01*
X5132585Y-4038596D01*
X5114499Y-4020479D01*
X5090856Y-4010661D01*
X5065256Y-4010639D01*
X5041596Y-4020415D01*
X5023479Y-4038501D01*
X5013661Y-4062144D01*
X5013639Y-4087744D01*
X5023415Y-4111404D01*
X5041501Y-4129521D01*
X5049000Y-4132635D01*
X5049000Y-4316116D01*
X5038596Y-4320415D01*
X5020479Y-4338501D01*
X5010661Y-4362144D01*
X5010639Y-4387744D01*
X5020415Y-4411404D01*
X5038501Y-4429521D01*
X5046000Y-4432635D01*
X5046000Y-4442356D01*
X5038596Y-4445415D01*
X5020479Y-4463501D01*
X5010661Y-4487144D01*
X5010639Y-4512744D01*
X5020415Y-4536404D01*
X5038501Y-4554521D01*
X5046000Y-4557635D01*
X5046000Y-4602959D01*
X5044140Y-4603728D01*
X5028782Y-4619060D01*
X5020459Y-4639102D01*
X5020441Y-4660803D01*
X5028728Y-4680860D01*
X5044060Y-4696218D01*
X5046000Y-4697024D01*
X5046000Y-4726874D01*
X5035489Y-4722509D01*
X5014603Y-4722491D01*
X4995300Y-4730467D01*
X4980519Y-4745222D01*
X4974996Y-4758521D01*
X4969533Y-4745300D01*
X4954778Y-4730519D01*
X4939840Y-4724316D01*
X4939840Y-4488718D01*
X4930587Y-4464763D01*
X4929559Y-4463225D01*
X4929559Y-4389197D01*
X4921272Y-4369140D01*
X4905940Y-4353782D01*
X4896350Y-4349799D01*
X4896350Y-4121312D01*
X4896350Y-4107388D01*
X4896350Y-4084750D01*
X4896350Y-4065250D01*
X4896350Y-4042612D01*
X4896350Y-4028688D01*
X4891022Y-4015824D01*
X4881176Y-4005978D01*
X4868312Y-4000650D01*
X4831750Y-4000650D01*
X4823000Y-4009400D01*
X4823000Y-4074000D01*
X4887600Y-4074000D01*
X4896350Y-4065250D01*
X4896350Y-4084750D01*
X4887600Y-4076000D01*
X4823000Y-4076000D01*
X4823000Y-4140600D01*
X4831750Y-4149350D01*
X4868312Y-4149350D01*
X4881176Y-4144022D01*
X4891022Y-4134176D01*
X4896350Y-4121312D01*
X4896350Y-4349799D01*
X4885898Y-4345459D01*
X4864197Y-4345441D01*
X4844140Y-4353728D01*
X4828782Y-4369060D01*
X4821000Y-4387800D01*
X4821000Y-4140600D01*
X4821000Y-4076000D01*
X4821000Y-4074000D01*
X4821000Y-4009400D01*
X4812250Y-4000650D01*
X4775688Y-4000650D01*
X4762824Y-4005978D01*
X4752978Y-4015824D01*
X4747650Y-4028688D01*
X4747650Y-4042612D01*
X4747650Y-4065250D01*
X4756400Y-4074000D01*
X4821000Y-4074000D01*
X4821000Y-4076000D01*
X4756400Y-4076000D01*
X4747650Y-4084750D01*
X4747650Y-4107388D01*
X4747650Y-4121312D01*
X4752978Y-4134176D01*
X4762824Y-4144022D01*
X4775688Y-4149350D01*
X4812250Y-4149350D01*
X4821000Y-4140600D01*
X4821000Y-4387800D01*
X4820459Y-4389102D01*
X4820441Y-4410803D01*
X4828728Y-4430860D01*
X4841563Y-4443718D01*
X4839763Y-4444413D01*
X4837129Y-4446173D01*
X4835363Y-4458948D01*
X4875000Y-4498586D01*
X4914637Y-4458948D01*
X4912871Y-4446173D01*
X4908083Y-4444053D01*
X4921218Y-4430940D01*
X4929541Y-4410898D01*
X4929559Y-4389197D01*
X4929559Y-4463225D01*
X4928827Y-4462129D01*
X4916052Y-4460363D01*
X4876414Y-4500000D01*
X4916052Y-4539637D01*
X4928827Y-4537871D01*
X4939222Y-4514390D01*
X4939840Y-4488718D01*
X4939840Y-4724316D01*
X4935489Y-4722509D01*
X4914637Y-4722491D01*
X4914637Y-4541052D01*
X4875000Y-4501414D01*
X4835363Y-4541052D01*
X4837129Y-4553827D01*
X4860610Y-4564222D01*
X4886282Y-4564840D01*
X4910237Y-4555587D01*
X4912871Y-4553827D01*
X4914637Y-4541052D01*
X4914637Y-4722491D01*
X4914603Y-4722491D01*
X4895300Y-4730467D01*
X4880519Y-4745222D01*
X4872509Y-4764511D01*
X4872491Y-4785397D01*
X4880467Y-4804700D01*
X4895222Y-4819481D01*
X4914511Y-4827491D01*
X4935397Y-4827509D01*
X4954700Y-4819533D01*
X4969481Y-4804778D01*
X4975004Y-4791478D01*
X4980467Y-4804700D01*
X4995222Y-4819481D01*
X5014511Y-4827491D01*
X5035397Y-4827509D01*
X5046000Y-4823128D01*
X5046000Y-4912988D01*
X4936488Y-5022500D01*
X4892527Y-5022500D01*
X4883339Y-5026306D01*
X4876306Y-5033339D01*
X4872500Y-5042527D01*
X4872500Y-5052473D01*
X4872500Y-5107473D01*
X4876306Y-5116661D01*
X4883339Y-5123694D01*
X4892527Y-5127500D01*
X4902473Y-5127500D01*
X4957473Y-5127500D01*
X4966661Y-5123694D01*
X4973694Y-5116661D01*
X4977500Y-5107473D01*
X4977500Y-5097527D01*
X4977500Y-5097520D01*
X4980467Y-5104700D01*
X4995222Y-5119481D01*
X5014511Y-5127491D01*
X5035397Y-5127509D01*
X5036175Y-5127188D01*
X5096000Y-5187012D01*
X5096000Y-5305177D01*
X5095300Y-5305467D01*
X5080519Y-5320222D01*
X5074996Y-5333521D01*
X5069533Y-5320300D01*
X5054778Y-5305519D01*
X5035489Y-5297509D01*
X5014603Y-5297491D01*
X4995300Y-5305467D01*
X4980519Y-5320222D01*
X4974996Y-5333521D01*
X4969533Y-5320300D01*
X4954778Y-5305519D01*
X4939475Y-5299164D01*
X4953069Y-5285571D01*
X4962144Y-5289339D01*
X4987744Y-5289361D01*
X5011404Y-5279585D01*
X5029521Y-5261499D01*
X5039339Y-5237856D01*
X5039361Y-5212256D01*
X5029585Y-5188596D01*
X5011499Y-5170479D01*
X4987856Y-5160661D01*
X4962256Y-5160639D01*
X4938596Y-5170415D01*
X4920479Y-5188501D01*
X4918672Y-5192852D01*
X4918180Y-5193180D01*
X4889353Y-5222008D01*
X4889361Y-5212256D01*
X4879585Y-5188596D01*
X4861499Y-5170479D01*
X4837856Y-5160661D01*
X4812256Y-5160639D01*
X4788596Y-5170415D01*
X4770479Y-5188501D01*
X4760661Y-5212144D01*
X4760639Y-5237744D01*
X4770415Y-5261404D01*
X4788501Y-5279521D01*
X4812144Y-5289339D01*
X4822013Y-5289347D01*
X4813353Y-5298007D01*
X4795300Y-5305467D01*
X4780519Y-5320222D01*
X4772509Y-5339511D01*
X4772491Y-5360397D01*
X4780000Y-5378571D01*
X4780000Y-5604645D01*
X4776306Y-5608339D01*
X4772500Y-5617527D01*
X4772500Y-5627473D01*
X4772500Y-5682473D01*
X4776306Y-5691661D01*
X4783339Y-5698694D01*
X4792527Y-5702500D01*
X4802473Y-5702500D01*
X4857473Y-5702500D01*
X4866661Y-5698694D01*
X4873694Y-5691661D01*
X4877500Y-5682473D01*
X4877500Y-5672527D01*
X4877500Y-5672520D01*
X4880467Y-5679700D01*
X4895222Y-5694481D01*
X4914511Y-5702491D01*
X4935397Y-5702509D01*
X4954700Y-5694533D01*
X4969481Y-5679778D01*
X4975004Y-5666478D01*
X4980467Y-5679700D01*
X4995222Y-5694481D01*
X5014511Y-5702491D01*
X5035397Y-5702509D01*
X5046000Y-5698128D01*
X5046000Y-5719836D01*
X5036787Y-5716010D01*
X5013316Y-5715990D01*
X4991623Y-5724953D01*
X4975011Y-5741536D01*
X4974996Y-5741572D01*
X4958464Y-5725011D01*
X4936787Y-5716010D01*
X4913316Y-5715990D01*
X4891623Y-5724953D01*
X4890642Y-5725932D01*
X4888672Y-5721174D01*
X4878826Y-5711328D01*
X4865962Y-5706000D01*
X4834750Y-5706000D01*
X4826000Y-5714750D01*
X4826000Y-5774000D01*
X4826787Y-5774000D01*
X4826787Y-5776000D01*
X4826000Y-5776000D01*
X4826000Y-5776787D01*
X4824000Y-5776787D01*
X4824000Y-5776000D01*
X4824000Y-5774000D01*
X4824000Y-5714750D01*
X4815250Y-5706000D01*
X4784038Y-5706000D01*
X4771174Y-5711328D01*
X4761328Y-5721174D01*
X4756000Y-5734038D01*
X4756000Y-5747962D01*
X4756000Y-5765250D01*
X4764750Y-5774000D01*
X4824000Y-5774000D01*
X4824000Y-5776000D01*
X4764750Y-5776000D01*
X4756000Y-5784750D01*
X4756000Y-5802038D01*
X4756000Y-5805000D01*
X4685400Y-5805000D01*
X4686404Y-5804585D01*
X4704521Y-5786499D01*
X4714339Y-5762856D01*
X4714361Y-5737256D01*
X4714361Y-5337256D01*
X4704585Y-5313596D01*
X4686499Y-5295479D01*
X4662856Y-5285661D01*
X4637256Y-5285639D01*
X4613596Y-5295415D01*
X4595479Y-5313501D01*
X4585661Y-5337144D01*
X4585639Y-5362744D01*
X4595415Y-5386404D01*
X4613501Y-5404521D01*
X4637144Y-5414339D01*
X4662744Y-5414361D01*
X4686404Y-5404585D01*
X4704521Y-5386499D01*
X4714339Y-5362856D01*
X4714361Y-5337256D01*
X4714361Y-5737256D01*
X4704585Y-5713596D01*
X4686499Y-5695479D01*
X4662856Y-5685661D01*
X4637256Y-5685639D01*
X4629752Y-5688740D01*
X4425012Y-5484000D01*
X4436684Y-5484010D01*
X4458377Y-5475047D01*
X4474989Y-5458464D01*
X4475004Y-5458428D01*
X4491536Y-5474989D01*
X4513213Y-5483990D01*
X4536684Y-5484010D01*
X4558377Y-5475047D01*
X4574989Y-5458464D01*
X4583990Y-5436787D01*
X4584010Y-5413316D01*
X4575047Y-5391623D01*
X4558464Y-5375011D01*
X4536787Y-5366010D01*
X4513316Y-5365990D01*
X4491623Y-5374953D01*
X4475011Y-5391536D01*
X4474996Y-5391572D01*
X4458464Y-5375011D01*
X4436787Y-5366010D01*
X4413316Y-5365990D01*
X4404000Y-5369839D01*
X4404000Y-5300000D01*
X4401793Y-5288902D01*
X4401793Y-5288902D01*
X4398221Y-5283558D01*
X4412144Y-5289339D01*
X4437744Y-5289361D01*
X4461404Y-5279585D01*
X4479521Y-5261499D01*
X4483323Y-5252344D01*
X4486098Y-5251793D01*
X4495506Y-5245506D01*
X4672506Y-5068507D01*
X4672491Y-5085397D01*
X4680467Y-5104700D01*
X4695222Y-5119481D01*
X4714511Y-5127491D01*
X4735397Y-5127509D01*
X4754700Y-5119533D01*
X4769481Y-5104778D01*
X4777491Y-5085489D01*
X4777509Y-5064603D01*
X4769533Y-5045300D01*
X4754778Y-5030519D01*
X4741478Y-5024996D01*
X4754700Y-5019533D01*
X4769481Y-5004778D01*
X4777491Y-4985489D01*
X4777509Y-4964603D01*
X4769533Y-4945300D01*
X4754778Y-4930519D01*
X4741478Y-4924996D01*
X4754700Y-4919533D01*
X4769481Y-4904778D01*
X4777491Y-4885489D01*
X4777509Y-4864603D01*
X4769533Y-4845300D01*
X4754778Y-4830519D01*
X4741478Y-4824996D01*
X4754700Y-4819533D01*
X4769481Y-4804778D01*
X4777491Y-4785489D01*
X4777509Y-4764603D01*
X4769533Y-4745300D01*
X4754778Y-4730519D01*
X4735489Y-4722509D01*
X4714603Y-4722491D01*
X4695300Y-4730467D01*
X4680519Y-4745222D01*
X4672509Y-4764511D01*
X4672491Y-4785397D01*
X4680467Y-4804700D01*
X4695222Y-4819481D01*
X4708521Y-4825004D01*
X4695300Y-4830467D01*
X4680519Y-4845222D01*
X4672509Y-4864511D01*
X4672491Y-4885397D01*
X4680467Y-4904700D01*
X4695222Y-4919481D01*
X4708521Y-4925004D01*
X4695300Y-4930467D01*
X4680519Y-4945222D01*
X4672509Y-4964511D01*
X4672491Y-4985397D01*
X4672812Y-4986175D01*
X4664637Y-4994350D01*
X4664637Y-4691052D01*
X4625000Y-4651414D01*
X4585363Y-4691052D01*
X4587129Y-4703827D01*
X4610610Y-4714222D01*
X4636282Y-4714840D01*
X4660237Y-4705587D01*
X4662871Y-4703827D01*
X4664637Y-4691052D01*
X4664637Y-4994350D01*
X4474992Y-5183995D01*
X4461499Y-5170479D01*
X4437856Y-5160661D01*
X4412256Y-5160639D01*
X4388596Y-5170415D01*
X4379000Y-5179994D01*
X4379000Y-5162012D01*
X4413812Y-5127200D01*
X4414511Y-5127491D01*
X4435397Y-5127509D01*
X4454700Y-5119533D01*
X4469481Y-5104778D01*
X4477491Y-5085489D01*
X4477509Y-5064603D01*
X4469533Y-5045300D01*
X4454778Y-5030519D01*
X4441478Y-5024996D01*
X4454700Y-5019533D01*
X4469481Y-5004778D01*
X4477022Y-4986617D01*
X4556820Y-4906820D01*
X4566575Y-4892221D01*
X4570000Y-4875000D01*
X4570000Y-4686116D01*
X4571173Y-4687871D01*
X4583948Y-4689637D01*
X4623586Y-4650000D01*
X4623029Y-4649443D01*
X4624443Y-4648029D01*
X4625000Y-4648586D01*
X4625557Y-4648029D01*
X4626971Y-4649443D01*
X4626414Y-4650000D01*
X4666052Y-4689637D01*
X4678827Y-4687871D01*
X4689222Y-4664390D01*
X4689840Y-4638718D01*
X4682610Y-4620000D01*
X4725000Y-4620000D01*
X4742221Y-4616575D01*
X4756820Y-4606820D01*
X4806820Y-4556820D01*
X4816575Y-4542221D01*
X4818456Y-4532761D01*
X4819413Y-4535237D01*
X4821173Y-4537871D01*
X4833948Y-4539637D01*
X4873586Y-4500000D01*
X4833948Y-4460363D01*
X4821173Y-4462129D01*
X4820000Y-4464779D01*
X4820000Y-4450000D01*
X4816575Y-4432779D01*
X4806820Y-4418180D01*
X4780008Y-4391368D01*
X4780010Y-4389108D01*
X4771654Y-4368886D01*
X4756196Y-4353400D01*
X4735988Y-4345010D01*
X4714108Y-4344990D01*
X4693886Y-4353346D01*
X4678400Y-4368804D01*
X4675002Y-4376989D01*
X4671654Y-4368886D01*
X4656196Y-4353400D01*
X4635988Y-4345010D01*
X4614108Y-4344990D01*
X4593886Y-4353346D01*
X4578400Y-4368804D01*
X4570010Y-4389012D01*
X4569990Y-4410892D01*
X4578346Y-4431114D01*
X4593804Y-4446600D01*
X4612965Y-4454556D01*
X4610332Y-4460503D01*
X4609706Y-4486354D01*
X4619022Y-4510476D01*
X4620802Y-4513141D01*
X4633624Y-4514962D01*
X4673586Y-4475000D01*
X4673029Y-4474443D01*
X4674443Y-4473029D01*
X4675000Y-4473586D01*
X4675557Y-4473029D01*
X4676971Y-4474443D01*
X4676414Y-4475000D01*
X4676971Y-4475557D01*
X4675557Y-4476971D01*
X4675000Y-4476414D01*
X4635038Y-4516376D01*
X4636859Y-4529198D01*
X4638670Y-4530000D01*
X4600000Y-4530000D01*
X4582779Y-4533425D01*
X4568180Y-4543180D01*
X4539840Y-4571520D01*
X4539840Y-4488718D01*
X4530587Y-4464763D01*
X4529559Y-4463225D01*
X4529559Y-4389197D01*
X4521272Y-4369140D01*
X4505940Y-4353782D01*
X4485898Y-4345459D01*
X4464197Y-4345441D01*
X4444140Y-4353728D01*
X4428782Y-4369060D01*
X4420459Y-4389102D01*
X4420458Y-4390902D01*
X4276993Y-4534367D01*
X4276993Y-4105517D01*
X4255252Y-4052899D01*
X4215030Y-4012606D01*
X4162450Y-3990773D01*
X4105517Y-3990723D01*
X4052899Y-4012465D01*
X4012606Y-4052687D01*
X3990773Y-4105267D01*
X3990723Y-4162200D01*
X4012465Y-4214818D01*
X4052687Y-4255110D01*
X4105267Y-4276944D01*
X4162200Y-4276993D01*
X4214818Y-4255252D01*
X4255110Y-4215030D01*
X4276944Y-4162450D01*
X4276993Y-4105517D01*
X4276993Y-4534367D01*
X4168180Y-4643180D01*
X4158425Y-4657779D01*
X4155000Y-4675000D01*
X4155000Y-4690027D01*
X4151194Y-4680839D01*
X4144161Y-4673806D01*
X4134973Y-4670000D01*
X4125027Y-4670000D01*
X4065027Y-4670000D01*
X4055839Y-4673806D01*
X4048806Y-4680839D01*
X4045000Y-4690027D01*
X4045000Y-4699973D01*
X4045000Y-4759973D01*
X4048806Y-4769161D01*
X4055839Y-4776194D01*
X4060801Y-4778250D01*
X4060038Y-4783624D01*
X4100000Y-4823586D01*
X4139962Y-4783624D01*
X4139199Y-4778250D01*
X4144161Y-4776194D01*
X4151194Y-4769161D01*
X4155000Y-4759973D01*
X4155000Y-4757771D01*
X4165756Y-4768546D01*
X4164524Y-4769022D01*
X4161859Y-4770802D01*
X4160038Y-4783624D01*
X4200000Y-4823586D01*
X4239962Y-4783624D01*
X4238141Y-4770802D01*
X4233865Y-4768908D01*
X4246600Y-4756196D01*
X4254990Y-4735988D01*
X4255010Y-4714108D01*
X4246654Y-4693886D01*
X4245705Y-4692935D01*
X4414952Y-4523688D01*
X4419413Y-4535237D01*
X4421173Y-4537871D01*
X4433948Y-4539637D01*
X4473586Y-4500000D01*
X4473029Y-4499443D01*
X4474443Y-4498029D01*
X4475000Y-4498586D01*
X4514637Y-4458948D01*
X4512871Y-4446173D01*
X4508083Y-4444053D01*
X4521218Y-4430940D01*
X4529541Y-4410898D01*
X4529559Y-4389197D01*
X4529559Y-4463225D01*
X4528827Y-4462129D01*
X4516052Y-4460363D01*
X4476414Y-4500000D01*
X4516052Y-4539637D01*
X4528827Y-4537871D01*
X4539222Y-4514390D01*
X4539840Y-4488718D01*
X4539840Y-4571520D01*
X4515918Y-4595442D01*
X4514637Y-4595441D01*
X4514637Y-4541052D01*
X4475000Y-4501414D01*
X4435363Y-4541052D01*
X4437129Y-4553827D01*
X4460610Y-4564222D01*
X4486282Y-4564840D01*
X4510237Y-4555587D01*
X4512871Y-4553827D01*
X4514637Y-4541052D01*
X4514637Y-4595441D01*
X4514197Y-4595441D01*
X4494140Y-4603728D01*
X4478782Y-4619060D01*
X4470459Y-4639102D01*
X4470441Y-4660803D01*
X4478728Y-4680860D01*
X4480000Y-4682134D01*
X4480000Y-4843945D01*
X4478805Y-4840855D01*
X4477500Y-4838903D01*
X4477500Y-4807473D01*
X4477500Y-4797527D01*
X4477500Y-4742527D01*
X4473694Y-4733339D01*
X4466661Y-4726306D01*
X4457473Y-4722500D01*
X4447527Y-4722500D01*
X4392527Y-4722500D01*
X4383339Y-4726306D01*
X4376306Y-4733339D01*
X4372500Y-4742527D01*
X4372500Y-4752473D01*
X4372500Y-4807473D01*
X4376306Y-4816661D01*
X4383339Y-4823694D01*
X4388023Y-4825634D01*
X4386841Y-4835427D01*
X4425000Y-4873586D01*
X4463159Y-4835427D01*
X4461977Y-4825634D01*
X4466661Y-4823694D01*
X4473694Y-4816661D01*
X4477500Y-4807473D01*
X4477500Y-4838903D01*
X4477136Y-4838357D01*
X4464573Y-4836841D01*
X4426414Y-4875000D01*
X4426971Y-4875557D01*
X4425557Y-4876971D01*
X4425000Y-4876414D01*
X4423586Y-4877828D01*
X4423586Y-4875000D01*
X4385427Y-4836841D01*
X4372864Y-4838357D01*
X4362810Y-4861098D01*
X4362224Y-4885955D01*
X4371195Y-4909145D01*
X4372864Y-4911643D01*
X4385427Y-4913159D01*
X4423586Y-4875000D01*
X4423586Y-4877828D01*
X4386841Y-4914573D01*
X4388357Y-4927136D01*
X4395606Y-4930340D01*
X4395300Y-4930467D01*
X4380519Y-4945222D01*
X4372509Y-4964511D01*
X4372491Y-4985397D01*
X4380467Y-5004700D01*
X4395222Y-5019481D01*
X4408521Y-5025004D01*
X4395300Y-5030467D01*
X4380519Y-5045222D01*
X4372509Y-5064511D01*
X4372491Y-5085397D01*
X4372812Y-5086175D01*
X4354000Y-5104988D01*
X4354000Y-5050000D01*
X4351793Y-5038902D01*
X4351793Y-5038902D01*
X4345506Y-5029494D01*
X4270506Y-4954494D01*
X4265294Y-4951011D01*
X4265294Y-4813646D01*
X4255978Y-4789524D01*
X4254198Y-4786859D01*
X4241376Y-4785038D01*
X4201414Y-4825000D01*
X4241376Y-4864962D01*
X4254198Y-4863141D01*
X4264668Y-4839497D01*
X4265294Y-4813646D01*
X4265294Y-4951011D01*
X4261098Y-4948207D01*
X4250770Y-4946153D01*
X4254990Y-4935988D01*
X4255010Y-4914108D01*
X4246654Y-4893886D01*
X4234244Y-4881454D01*
X4235476Y-4880978D01*
X4238141Y-4879198D01*
X4239962Y-4866376D01*
X4200000Y-4826414D01*
X4198586Y-4827828D01*
X4198586Y-4825000D01*
X4158624Y-4785038D01*
X4150000Y-4786263D01*
X4141376Y-4785038D01*
X4101414Y-4825000D01*
X4141376Y-4864962D01*
X4150000Y-4863737D01*
X4158624Y-4864962D01*
X4198586Y-4825000D01*
X4198586Y-4827828D01*
X4160038Y-4866376D01*
X4161859Y-4879198D01*
X4166135Y-4881092D01*
X4153400Y-4893804D01*
X4150002Y-4901989D01*
X4146654Y-4893886D01*
X4134244Y-4881454D01*
X4135476Y-4880978D01*
X4138141Y-4879198D01*
X4139962Y-4866376D01*
X4100000Y-4826414D01*
X4098586Y-4827828D01*
X4098586Y-4825000D01*
X4058624Y-4785038D01*
X4045802Y-4786859D01*
X4035332Y-4810503D01*
X4034706Y-4836354D01*
X4044022Y-4860476D01*
X4045802Y-4863141D01*
X4058624Y-4864962D01*
X4098586Y-4825000D01*
X4098586Y-4827828D01*
X4060038Y-4866376D01*
X4061859Y-4879198D01*
X4066135Y-4881092D01*
X4053400Y-4893804D01*
X4045010Y-4914012D01*
X4044990Y-4935892D01*
X4053346Y-4956114D01*
X4068804Y-4971600D01*
X4076989Y-4974998D01*
X4068886Y-4978346D01*
X4053400Y-4993804D01*
X4045010Y-5014012D01*
X4045008Y-5016353D01*
X3993180Y-5068180D01*
X3983425Y-5082779D01*
X3980000Y-5100000D01*
X3980000Y-5300000D01*
X3983425Y-5317221D01*
X3993180Y-5331820D01*
X4539904Y-5878543D01*
X4276993Y-5878543D01*
X4276993Y-5680320D01*
X4255252Y-5627702D01*
X4215030Y-5587409D01*
X4162450Y-5565576D01*
X4105517Y-5565526D01*
X4052899Y-5587268D01*
X4012606Y-5627490D01*
X3990773Y-5680070D01*
X3990723Y-5737003D01*
X4012465Y-5789621D01*
X4052687Y-5829914D01*
X4105267Y-5851747D01*
X4162200Y-5851796D01*
X4214818Y-5830055D01*
X4255110Y-5789833D01*
X4276944Y-5737253D01*
X4276993Y-5680320D01*
X4276993Y-5878543D01*
X3963976Y-5878543D01*
X3963976Y-3963976D01*
X7042239Y-3963976D01*
X7042239Y-3963976D01*
G37*
X7042239Y-3963976D02*
X7042046Y-4926034D01*
X6966146Y-4850134D01*
X6979700Y-4844533D01*
X6994481Y-4829778D01*
X7002491Y-4810489D01*
X7002509Y-4789603D01*
X7002188Y-4788825D01*
X7020506Y-4770506D01*
X7026793Y-4761098D01*
X7029000Y-4750000D01*
X7029000Y-4650000D01*
X7026793Y-4638902D01*
X7020506Y-4629494D01*
X7002200Y-4611188D01*
X7002491Y-4610489D01*
X7002509Y-4589603D01*
X7002188Y-4588825D01*
X7020506Y-4570506D01*
X7026793Y-4561098D01*
X7029000Y-4550000D01*
X7029000Y-4400000D01*
X7026793Y-4388902D01*
X7020506Y-4379494D01*
X7002200Y-4361188D01*
X7002491Y-4360489D01*
X7002509Y-4339603D01*
X7002188Y-4338825D01*
X7020506Y-4320506D01*
X7026793Y-4311098D01*
X7029000Y-4300000D01*
X7029000Y-4200000D01*
X7026793Y-4188902D01*
X7020506Y-4179494D01*
X7002200Y-4161188D01*
X7002491Y-4160489D01*
X7002509Y-4139603D01*
X6994533Y-4120300D01*
X6979778Y-4105519D01*
X6972508Y-4102500D01*
X6982473Y-4102500D01*
X6991661Y-4098694D01*
X6998694Y-4091661D01*
X7002500Y-4082473D01*
X7002500Y-4072527D01*
X7002500Y-4017527D01*
X6998694Y-4008339D01*
X6991661Y-4001306D01*
X6982473Y-3997500D01*
X6972527Y-3997500D01*
X6917527Y-3997500D01*
X6908339Y-4001306D01*
X6901306Y-4008339D01*
X6897500Y-4017527D01*
X6897500Y-4027473D01*
X6897500Y-4061488D01*
X6804494Y-4154494D01*
X6798207Y-4163902D01*
X6796000Y-4175000D01*
X6796000Y-4917356D01*
X6788596Y-4920415D01*
X6779000Y-4929994D01*
X6779000Y-4531102D01*
X6786009Y-4524106D01*
X6792493Y-4508491D01*
X6792507Y-4491583D01*
X6786051Y-4475957D01*
X6774106Y-4463991D01*
X6758491Y-4457507D01*
X6741583Y-4457493D01*
X6725957Y-4463949D01*
X6713991Y-4475894D01*
X6707507Y-4491509D01*
X6707493Y-4508417D01*
X6713949Y-4524043D01*
X6721000Y-4531106D01*
X6721000Y-5350000D01*
X6723207Y-5361098D01*
X6729494Y-5370506D01*
X6763733Y-5404745D01*
X6760661Y-5412144D01*
X6760639Y-5437744D01*
X6770415Y-5461404D01*
X6788501Y-5479521D01*
X6812144Y-5489339D01*
X6837744Y-5489361D01*
X6861404Y-5479585D01*
X6879521Y-5461499D01*
X6889339Y-5437856D01*
X6889361Y-5412256D01*
X6879585Y-5388596D01*
X6861499Y-5370479D01*
X6837856Y-5360661D01*
X6812256Y-5360639D01*
X6804752Y-5363740D01*
X6779000Y-5337988D01*
X6779000Y-5220004D01*
X6788501Y-5229521D01*
X6812144Y-5239339D01*
X6837744Y-5239361D01*
X6861404Y-5229585D01*
X6879521Y-5211499D01*
X6889339Y-5187856D01*
X6889361Y-5162256D01*
X6886260Y-5154752D01*
X6920506Y-5120506D01*
X6920980Y-5119796D01*
X6933521Y-5125004D01*
X6920300Y-5130467D01*
X6905519Y-5145222D01*
X6897509Y-5164511D01*
X6897491Y-5185397D01*
X6905467Y-5204700D01*
X6920222Y-5219481D01*
X6933521Y-5225004D01*
X6920300Y-5230467D01*
X6905519Y-5245222D01*
X6897509Y-5264511D01*
X6897491Y-5285397D01*
X6905467Y-5304700D01*
X6920222Y-5319481D01*
X6939511Y-5327491D01*
X6960397Y-5327509D01*
X6961175Y-5327188D01*
X6971000Y-5337012D01*
X6971000Y-5372500D01*
X6917527Y-5372500D01*
X6908339Y-5376306D01*
X6901306Y-5383339D01*
X6897500Y-5392527D01*
X6897500Y-5402473D01*
X6897500Y-5457473D01*
X6901306Y-5466661D01*
X6908339Y-5473694D01*
X6917527Y-5477500D01*
X6927473Y-5477500D01*
X6927480Y-5477500D01*
X6920300Y-5480467D01*
X6905519Y-5495222D01*
X6897509Y-5514511D01*
X6897491Y-5535397D01*
X6905467Y-5554700D01*
X6920222Y-5569481D01*
X6933521Y-5575004D01*
X6920300Y-5580467D01*
X6905519Y-5595222D01*
X6897509Y-5614511D01*
X6897491Y-5635397D01*
X6897812Y-5636175D01*
X6884515Y-5649472D01*
X6889339Y-5637856D01*
X6889361Y-5612256D01*
X6879585Y-5588596D01*
X6861499Y-5570479D01*
X6837856Y-5560661D01*
X6812256Y-5560639D01*
X6788596Y-5570415D01*
X6770479Y-5588501D01*
X6760661Y-5612144D01*
X6760639Y-5637744D01*
X6770415Y-5661404D01*
X6788501Y-5679521D01*
X6812144Y-5689339D01*
X6837744Y-5689361D01*
X6861404Y-5679585D01*
X6872240Y-5668768D01*
X6871000Y-5675000D01*
X6871000Y-5750000D01*
X6873207Y-5761098D01*
X6879494Y-5770506D01*
X6904494Y-5795506D01*
X6913902Y-5801793D01*
X6913902Y-5801793D01*
X6925000Y-5804000D01*
X6975000Y-5804000D01*
X6986098Y-5801793D01*
X6995506Y-5795506D01*
X7041882Y-5749131D01*
X7041870Y-5805000D01*
X6289361Y-5805000D01*
X6289361Y-5712256D01*
X6289361Y-5312256D01*
X6279585Y-5288596D01*
X6261499Y-5270479D01*
X6237856Y-5260661D01*
X6212256Y-5260639D01*
X6188596Y-5270415D01*
X6170479Y-5288501D01*
X6160661Y-5312144D01*
X6160639Y-5337744D01*
X6170415Y-5361404D01*
X6188501Y-5379521D01*
X6212144Y-5389339D01*
X6237744Y-5389361D01*
X6261404Y-5379585D01*
X6279521Y-5361499D01*
X6289339Y-5337856D01*
X6289361Y-5312256D01*
X6289361Y-5712256D01*
X6279585Y-5688596D01*
X6261499Y-5670479D01*
X6237856Y-5660661D01*
X6212256Y-5660639D01*
X6188596Y-5670415D01*
X6170479Y-5688501D01*
X6160661Y-5712144D01*
X6160639Y-5737744D01*
X6170415Y-5761404D01*
X6188501Y-5779521D01*
X6212144Y-5789339D01*
X6237744Y-5789361D01*
X6261404Y-5779585D01*
X6279521Y-5761499D01*
X6289339Y-5737856D01*
X6289361Y-5712256D01*
X6289361Y-5805000D01*
X6139361Y-5805000D01*
X6139361Y-5712256D01*
X6129585Y-5688596D01*
X6111499Y-5670479D01*
X6104000Y-5667365D01*
X6104000Y-5632644D01*
X6111404Y-5629585D01*
X6129521Y-5611499D01*
X6139339Y-5587856D01*
X6139361Y-5562256D01*
X6129585Y-5538596D01*
X6111499Y-5520479D01*
X6087856Y-5510661D01*
X6064637Y-5510641D01*
X6064637Y-5241052D01*
X6025000Y-5201414D01*
X5985363Y-5241052D01*
X5987129Y-5253827D01*
X6010610Y-5264222D01*
X6036282Y-5264840D01*
X6060237Y-5255587D01*
X6062871Y-5253827D01*
X6064637Y-5241052D01*
X6064637Y-5510641D01*
X6062256Y-5510639D01*
X6038596Y-5520415D01*
X6020479Y-5538501D01*
X6010661Y-5562144D01*
X6010639Y-5587744D01*
X6020415Y-5611404D01*
X6038501Y-5629521D01*
X6046000Y-5632635D01*
X6046000Y-5667356D01*
X6038596Y-5670415D01*
X6020479Y-5688501D01*
X6010661Y-5712144D01*
X6010639Y-5737744D01*
X6020415Y-5761404D01*
X6038501Y-5779521D01*
X6062144Y-5789339D01*
X6087744Y-5789361D01*
X6111404Y-5779585D01*
X6129521Y-5761499D01*
X6139339Y-5737856D01*
X6139361Y-5712256D01*
X6139361Y-5805000D01*
X5864637Y-5805000D01*
X5864637Y-5241052D01*
X5825000Y-5201414D01*
X5785363Y-5241052D01*
X5787129Y-5253827D01*
X5810610Y-5264222D01*
X5836282Y-5264840D01*
X5860237Y-5255587D01*
X5862871Y-5253827D01*
X5864637Y-5241052D01*
X5864637Y-5805000D01*
X5749710Y-5805000D01*
X5749710Y-5562155D01*
X5739108Y-5534542D01*
X5736911Y-5531255D01*
X5723118Y-5528296D01*
X5721704Y-5529710D01*
X5721704Y-5526882D01*
X5718745Y-5513089D01*
X5691723Y-5501061D01*
X5664637Y-5500354D01*
X5664637Y-5241052D01*
X5625000Y-5201414D01*
X5585363Y-5241052D01*
X5587129Y-5253827D01*
X5610610Y-5264222D01*
X5636282Y-5264840D01*
X5660237Y-5255587D01*
X5662871Y-5253827D01*
X5664637Y-5241052D01*
X5664637Y-5500354D01*
X5662155Y-5500290D01*
X5634542Y-5510892D01*
X5631255Y-5513089D01*
X5628296Y-5526882D01*
X5675000Y-5573586D01*
X5721704Y-5526882D01*
X5721704Y-5529710D01*
X5676414Y-5575000D01*
X5723118Y-5621704D01*
X5736911Y-5618745D01*
X5748939Y-5591723D01*
X5749710Y-5562155D01*
X5749710Y-5805000D01*
X5636012Y-5805000D01*
X5654745Y-5786267D01*
X5662144Y-5789339D01*
X5687744Y-5789361D01*
X5711404Y-5779585D01*
X5729521Y-5761499D01*
X5739339Y-5737856D01*
X5739361Y-5712256D01*
X5729585Y-5688596D01*
X5721704Y-5680701D01*
X5721704Y-5623118D01*
X5675000Y-5576414D01*
X5673586Y-5577828D01*
X5673586Y-5575000D01*
X5626882Y-5528296D01*
X5613089Y-5531255D01*
X5601061Y-5558277D01*
X5600290Y-5587845D01*
X5610892Y-5615458D01*
X5613089Y-5618745D01*
X5626882Y-5621704D01*
X5673586Y-5575000D01*
X5673586Y-5577828D01*
X5628296Y-5623118D01*
X5631255Y-5636911D01*
X5658277Y-5648939D01*
X5687845Y-5649710D01*
X5715458Y-5639108D01*
X5718745Y-5636911D01*
X5721704Y-5623118D01*
X5721704Y-5680701D01*
X5711499Y-5670479D01*
X5687856Y-5660661D01*
X5662256Y-5660639D01*
X5638596Y-5670415D01*
X5620479Y-5688501D01*
X5610661Y-5712144D01*
X5610647Y-5727863D01*
X5605587Y-5714763D01*
X5603827Y-5712129D01*
X5591052Y-5710363D01*
X5551414Y-5750000D01*
X5551971Y-5750557D01*
X5550557Y-5751971D01*
X5550000Y-5751414D01*
X5549443Y-5751971D01*
X5548029Y-5750557D01*
X5548586Y-5750000D01*
X5548029Y-5749443D01*
X5549443Y-5748029D01*
X5550000Y-5748586D01*
X5589637Y-5708948D01*
X5587871Y-5696173D01*
X5583083Y-5694053D01*
X5596218Y-5680940D01*
X5604541Y-5660898D01*
X5604559Y-5639197D01*
X5596272Y-5619140D01*
X5595000Y-5617866D01*
X5595000Y-5525000D01*
X5591575Y-5507779D01*
X5581820Y-5493180D01*
X5570000Y-5481360D01*
X5570000Y-5236116D01*
X5571173Y-5237871D01*
X5583948Y-5239637D01*
X5623586Y-5200000D01*
X5583948Y-5160363D01*
X5571173Y-5162129D01*
X5570000Y-5164779D01*
X5570000Y-5106055D01*
X5571195Y-5109145D01*
X5572864Y-5111643D01*
X5585427Y-5113159D01*
X5623586Y-5075000D01*
X5585427Y-5036841D01*
X5572864Y-5038357D01*
X5570000Y-5044836D01*
X5570000Y-4943640D01*
X5656820Y-4856820D01*
X5666575Y-4842221D01*
X5670000Y-4825000D01*
X5670000Y-4803529D01*
X5675004Y-4791478D01*
X5680467Y-4804700D01*
X5695222Y-4819481D01*
X5714511Y-4827491D01*
X5735397Y-4827509D01*
X5754029Y-4819810D01*
X5754494Y-4820506D01*
X5779494Y-4845506D01*
X5788902Y-4851793D01*
X5788902Y-4851793D01*
X5800000Y-4854000D01*
X5875000Y-4854000D01*
X5886098Y-4851793D01*
X5895506Y-4845506D01*
X5913812Y-4827200D01*
X5914511Y-4827491D01*
X5935397Y-4827509D01*
X5954700Y-4819533D01*
X5969481Y-4804778D01*
X5975004Y-4791478D01*
X5980467Y-4804700D01*
X5995222Y-4819481D01*
X6014511Y-4827491D01*
X6035397Y-4827509D01*
X6054700Y-4819533D01*
X6069481Y-4804778D01*
X6075004Y-4791478D01*
X6080467Y-4804700D01*
X6095222Y-4819481D01*
X6114511Y-4827491D01*
X6135397Y-4827509D01*
X6154700Y-4819533D01*
X6169481Y-4804778D01*
X6175004Y-4791478D01*
X6180467Y-4804700D01*
X6195222Y-4819481D01*
X6196000Y-4819804D01*
X6196000Y-4975000D01*
X6198207Y-4986098D01*
X6204494Y-4995506D01*
X6231493Y-5022506D01*
X6214603Y-5022491D01*
X6195300Y-5030467D01*
X6180519Y-5045222D01*
X6174996Y-5058521D01*
X6169533Y-5045300D01*
X6154778Y-5030519D01*
X6135489Y-5022509D01*
X6114603Y-5022491D01*
X6095300Y-5030467D01*
X6080519Y-5045222D01*
X6074996Y-5058521D01*
X6069533Y-5045300D01*
X6054778Y-5030519D01*
X6035489Y-5022509D01*
X6014603Y-5022491D01*
X5995300Y-5030467D01*
X5980519Y-5045222D01*
X5974996Y-5058521D01*
X5969533Y-5045300D01*
X5954778Y-5030519D01*
X5935489Y-5022509D01*
X5914603Y-5022491D01*
X5895300Y-5030467D01*
X5880519Y-5045222D01*
X5874996Y-5058521D01*
X5869533Y-5045300D01*
X5854778Y-5030519D01*
X5835489Y-5022509D01*
X5814603Y-5022491D01*
X5795300Y-5030467D01*
X5780519Y-5045222D01*
X5774996Y-5058521D01*
X5769533Y-5045300D01*
X5754778Y-5030519D01*
X5735489Y-5022509D01*
X5714603Y-5022491D01*
X5695300Y-5030467D01*
X5680519Y-5045222D01*
X5680506Y-5045253D01*
X5678805Y-5040855D01*
X5677136Y-5038357D01*
X5664573Y-5036841D01*
X5663159Y-5038255D01*
X5663159Y-5035427D01*
X5661643Y-5022864D01*
X5638902Y-5012810D01*
X5614045Y-5012224D01*
X5590855Y-5021195D01*
X5588357Y-5022864D01*
X5586841Y-5035427D01*
X5625000Y-5073586D01*
X5663159Y-5035427D01*
X5663159Y-5038255D01*
X5626414Y-5075000D01*
X5664573Y-5113159D01*
X5677136Y-5111643D01*
X5680340Y-5104394D01*
X5680467Y-5104700D01*
X5695222Y-5119481D01*
X5696000Y-5119804D01*
X5696000Y-5152959D01*
X5694140Y-5153728D01*
X5681282Y-5166563D01*
X5680587Y-5164763D01*
X5678827Y-5162129D01*
X5666052Y-5160363D01*
X5664637Y-5161777D01*
X5664637Y-5158948D01*
X5662871Y-5146173D01*
X5640197Y-5136135D01*
X5659145Y-5128805D01*
X5661643Y-5127136D01*
X5663159Y-5114573D01*
X5625000Y-5076414D01*
X5586841Y-5114573D01*
X5588357Y-5127136D01*
X5609869Y-5136646D01*
X5589763Y-5144413D01*
X5587129Y-5146173D01*
X5585363Y-5158948D01*
X5625000Y-5198586D01*
X5664637Y-5158948D01*
X5664637Y-5161777D01*
X5626414Y-5200000D01*
X5666052Y-5239637D01*
X5678827Y-5237871D01*
X5680947Y-5233083D01*
X5694060Y-5246218D01*
X5699900Y-5248643D01*
X5699900Y-5327959D01*
X5698040Y-5328728D01*
X5682682Y-5344060D01*
X5674359Y-5364102D01*
X5674341Y-5385803D01*
X5682628Y-5405860D01*
X5697960Y-5421218D01*
X5718002Y-5429541D01*
X5739703Y-5429559D01*
X5759760Y-5421272D01*
X5775118Y-5405940D01*
X5783441Y-5385898D01*
X5783459Y-5364197D01*
X5775172Y-5344140D01*
X5759840Y-5328782D01*
X5757900Y-5327976D01*
X5757900Y-5244235D01*
X5768718Y-5233437D01*
X5769413Y-5235237D01*
X5771173Y-5237871D01*
X5783948Y-5239637D01*
X5823586Y-5200000D01*
X5783948Y-5160363D01*
X5771173Y-5162129D01*
X5769053Y-5166917D01*
X5755940Y-5153782D01*
X5754000Y-5152976D01*
X5754000Y-5119823D01*
X5754700Y-5119533D01*
X5769481Y-5104778D01*
X5775004Y-5091478D01*
X5780467Y-5104700D01*
X5795222Y-5119481D01*
X5809325Y-5125337D01*
X5819281Y-5135294D01*
X5813718Y-5135160D01*
X5789763Y-5144413D01*
X5787129Y-5146173D01*
X5785363Y-5158948D01*
X5825000Y-5198586D01*
X5825557Y-5198029D01*
X5826971Y-5199443D01*
X5826414Y-5200000D01*
X5866052Y-5239637D01*
X5878827Y-5237871D01*
X5880947Y-5233083D01*
X5892100Y-5244255D01*
X5892100Y-5327959D01*
X5890240Y-5328728D01*
X5874882Y-5344060D01*
X5866559Y-5364102D01*
X5866541Y-5385803D01*
X5874828Y-5405860D01*
X5890160Y-5421218D01*
X5910202Y-5429541D01*
X5931903Y-5429559D01*
X5951960Y-5421272D01*
X5967318Y-5405940D01*
X5975641Y-5385898D01*
X5975659Y-5364197D01*
X5967372Y-5344140D01*
X5952040Y-5328782D01*
X5950100Y-5327976D01*
X5950100Y-5248652D01*
X5955860Y-5246272D01*
X5968718Y-5233437D01*
X5969413Y-5235237D01*
X5971173Y-5237871D01*
X5983948Y-5239637D01*
X6023586Y-5200000D01*
X6023029Y-5199443D01*
X6024443Y-5198029D01*
X6025000Y-5198586D01*
X6025557Y-5198029D01*
X6026971Y-5199443D01*
X6026414Y-5200000D01*
X6066052Y-5239637D01*
X6078827Y-5237871D01*
X6089222Y-5214390D01*
X6089840Y-5188718D01*
X6086087Y-5179000D01*
X6212988Y-5179000D01*
X6321000Y-5287012D01*
X6321000Y-5550000D01*
X6323207Y-5561098D01*
X6329494Y-5570506D01*
X6363733Y-5604745D01*
X6360661Y-5612144D01*
X6360639Y-5637744D01*
X6370415Y-5661404D01*
X6388501Y-5679521D01*
X6412144Y-5689339D01*
X6437744Y-5689361D01*
X6461404Y-5679585D01*
X6479521Y-5661499D01*
X6489339Y-5637856D01*
X6489361Y-5612256D01*
X6479585Y-5588596D01*
X6461499Y-5570479D01*
X6437856Y-5560661D01*
X6412256Y-5560639D01*
X6404752Y-5563740D01*
X6379000Y-5537988D01*
X6379000Y-5470004D01*
X6388501Y-5479521D01*
X6412144Y-5489339D01*
X6437744Y-5489361D01*
X6461404Y-5479585D01*
X6479521Y-5461499D01*
X6489339Y-5437856D01*
X6489361Y-5412256D01*
X6479585Y-5388596D01*
X6461499Y-5370479D01*
X6454000Y-5367365D01*
X6454000Y-5275000D01*
X6451793Y-5263902D01*
X6451793Y-5263902D01*
X6445506Y-5254494D01*
X6430367Y-5239355D01*
X6437744Y-5239361D01*
X6461404Y-5229585D01*
X6479521Y-5211499D01*
X6489339Y-5187856D01*
X6489361Y-5162256D01*
X6479585Y-5138596D01*
X6461499Y-5120479D01*
X6437856Y-5110661D01*
X6412256Y-5110639D01*
X6404752Y-5113740D01*
X6254000Y-4962988D01*
X6254000Y-4819823D01*
X6254700Y-4819533D01*
X6269481Y-4804778D01*
X6277491Y-4785489D01*
X6277506Y-4768518D01*
X6396000Y-4887012D01*
X6396000Y-4917356D01*
X6388596Y-4920415D01*
X6370479Y-4938501D01*
X6360661Y-4962144D01*
X6360639Y-4987744D01*
X6370415Y-5011404D01*
X6388501Y-5029521D01*
X6412144Y-5039339D01*
X6437744Y-5039361D01*
X6461404Y-5029585D01*
X6479521Y-5011499D01*
X6489339Y-4987856D01*
X6489361Y-4962256D01*
X6479585Y-4938596D01*
X6461499Y-4920479D01*
X6454000Y-4917365D01*
X6454000Y-4875000D01*
X6451793Y-4863902D01*
X6451793Y-4863902D01*
X6445506Y-4854494D01*
X6295506Y-4704494D01*
X6286098Y-4698207D01*
X6275000Y-4696000D01*
X6190294Y-4696000D01*
X6190294Y-4213646D01*
X6180978Y-4189524D01*
X6179198Y-4186859D01*
X6166376Y-4185038D01*
X6164962Y-4186452D01*
X6164962Y-4183624D01*
X6163141Y-4170802D01*
X6139497Y-4160332D01*
X6113646Y-4159706D01*
X6089524Y-4169022D01*
X6086859Y-4170802D01*
X6085038Y-4183624D01*
X6125000Y-4223586D01*
X6164962Y-4183624D01*
X6164962Y-4186452D01*
X6126414Y-4225000D01*
X6166376Y-4264962D01*
X6179198Y-4263141D01*
X6189668Y-4239497D01*
X6190294Y-4213646D01*
X6190294Y-4696000D01*
X6180010Y-4696000D01*
X6180010Y-4314108D01*
X6171654Y-4293886D01*
X6159244Y-4281454D01*
X6160476Y-4280978D01*
X6163141Y-4279198D01*
X6164962Y-4266376D01*
X6125000Y-4226414D01*
X6123586Y-4227828D01*
X6123586Y-4225000D01*
X6083624Y-4185038D01*
X6070802Y-4186859D01*
X6060332Y-4210503D01*
X6059706Y-4236354D01*
X6069022Y-4260476D01*
X6070802Y-4263141D01*
X6083624Y-4264962D01*
X6123586Y-4225000D01*
X6123586Y-4227828D01*
X6085038Y-4266376D01*
X6086859Y-4279198D01*
X6091135Y-4281092D01*
X6078400Y-4293804D01*
X6070010Y-4314012D01*
X6069990Y-4335892D01*
X6078346Y-4356114D01*
X6093804Y-4371600D01*
X6114012Y-4379990D01*
X6135892Y-4380010D01*
X6156114Y-4371654D01*
X6171600Y-4356196D01*
X6179990Y-4335988D01*
X6180010Y-4314108D01*
X6180010Y-4696000D01*
X6175000Y-4696000D01*
X6163902Y-4698207D01*
X6154494Y-4704494D01*
X6136188Y-4722800D01*
X6135489Y-4722509D01*
X6114603Y-4722491D01*
X6095300Y-4730467D01*
X6080519Y-4745222D01*
X6074996Y-4758521D01*
X6069533Y-4745300D01*
X6054778Y-4730519D01*
X6035489Y-4722509D01*
X6014603Y-4722491D01*
X6013825Y-4722812D01*
X5904000Y-4612988D01*
X5904000Y-4555053D01*
X5923844Y-4559000D01*
X5926156Y-4559000D01*
X5948734Y-4554509D01*
X5967875Y-4541719D01*
X5980665Y-4522578D01*
X5985156Y-4500000D01*
X5980665Y-4477422D01*
X5967875Y-4458281D01*
X5964380Y-4455945D01*
X5981404Y-4439744D01*
X5992320Y-4415134D01*
X5992987Y-4411781D01*
X5992987Y-4388219D01*
X5992320Y-4384866D01*
X5981404Y-4360256D01*
X5961901Y-4341696D01*
X5936781Y-4332013D01*
X5926000Y-4339757D01*
X5926000Y-4399000D01*
X5985242Y-4399000D01*
X5992987Y-4388219D01*
X5992987Y-4411781D01*
X5985242Y-4401000D01*
X5926000Y-4401000D01*
X5926000Y-4401787D01*
X5924000Y-4401787D01*
X5924000Y-4401000D01*
X5923213Y-4401000D01*
X5923213Y-4399000D01*
X5924000Y-4399000D01*
X5924000Y-4339757D01*
X5913219Y-4332013D01*
X5888099Y-4341696D01*
X5868962Y-4359907D01*
X5867875Y-4358281D01*
X5848734Y-4345491D01*
X5826156Y-4341000D01*
X5825012Y-4341000D01*
X5854745Y-4311267D01*
X5862144Y-4314339D01*
X5887744Y-4314361D01*
X5911404Y-4304585D01*
X5929521Y-4286499D01*
X5939339Y-4262856D01*
X5939361Y-4237256D01*
X5929585Y-4213596D01*
X5911499Y-4195479D01*
X5887856Y-4185661D01*
X5862256Y-4185639D01*
X5838596Y-4195415D01*
X5820479Y-4213501D01*
X5810661Y-4237144D01*
X5810639Y-4262744D01*
X5813740Y-4270248D01*
X5754494Y-4329494D01*
X5748207Y-4338902D01*
X5746967Y-4345140D01*
X5726156Y-4341000D01*
X5723844Y-4341000D01*
X5701266Y-4345491D01*
X5687035Y-4355000D01*
X5675000Y-4355000D01*
X5657779Y-4358425D01*
X5643180Y-4368180D01*
X5618180Y-4393180D01*
X5608425Y-4407779D01*
X5605000Y-4425000D01*
X5605000Y-4599241D01*
X5594140Y-4603728D01*
X5581282Y-4616563D01*
X5580587Y-4614763D01*
X5578827Y-4612129D01*
X5566052Y-4610363D01*
X5564637Y-4611777D01*
X5564637Y-4608948D01*
X5562871Y-4596173D01*
X5539390Y-4585778D01*
X5539361Y-4585777D01*
X5539361Y-4362256D01*
X5529585Y-4338596D01*
X5511499Y-4320479D01*
X5492266Y-4312492D01*
X5511404Y-4304585D01*
X5529521Y-4286499D01*
X5539339Y-4262856D01*
X5539361Y-4237256D01*
X5529585Y-4213596D01*
X5511499Y-4195479D01*
X5487856Y-4185661D01*
X5462256Y-4185639D01*
X5438596Y-4195415D01*
X5420479Y-4213501D01*
X5410661Y-4237144D01*
X5410639Y-4262744D01*
X5420415Y-4286404D01*
X5438501Y-4304521D01*
X5457734Y-4312507D01*
X5438596Y-4320415D01*
X5420479Y-4338501D01*
X5410661Y-4362144D01*
X5410639Y-4387744D01*
X5420415Y-4411404D01*
X5430000Y-4421006D01*
X5430000Y-4435930D01*
X5421489Y-4439456D01*
X5414456Y-4446489D01*
X5410650Y-4455677D01*
X5410650Y-4465623D01*
X5410650Y-4544323D01*
X5414456Y-4553511D01*
X5421489Y-4560544D01*
X5430677Y-4564350D01*
X5440623Y-4564350D01*
X5519323Y-4564350D01*
X5528511Y-4560544D01*
X5535544Y-4553511D01*
X5539350Y-4544323D01*
X5539350Y-4534377D01*
X5539350Y-4455677D01*
X5535544Y-4446489D01*
X5528511Y-4439456D01*
X5520000Y-4435930D01*
X5520000Y-4421004D01*
X5529521Y-4411499D01*
X5539339Y-4387856D01*
X5539361Y-4362256D01*
X5539361Y-4585777D01*
X5513718Y-4585160D01*
X5489763Y-4594413D01*
X5487129Y-4596173D01*
X5485363Y-4608948D01*
X5525000Y-4648586D01*
X5564637Y-4608948D01*
X5564637Y-4611777D01*
X5526414Y-4650000D01*
X5566052Y-4689637D01*
X5578827Y-4687871D01*
X5580000Y-4685221D01*
X5580000Y-4743945D01*
X5578805Y-4740855D01*
X5577136Y-4738357D01*
X5564637Y-4736848D01*
X5564637Y-4691052D01*
X5525000Y-4651414D01*
X5523586Y-4652828D01*
X5523586Y-4650000D01*
X5483948Y-4610363D01*
X5471173Y-4612129D01*
X5460778Y-4635610D01*
X5460160Y-4661282D01*
X5469413Y-4685237D01*
X5471173Y-4687871D01*
X5483948Y-4689637D01*
X5523586Y-4650000D01*
X5523586Y-4652828D01*
X5485363Y-4691052D01*
X5487129Y-4703827D01*
X5509803Y-4713865D01*
X5490855Y-4721195D01*
X5488357Y-4722864D01*
X5486841Y-4735427D01*
X5525000Y-4773586D01*
X5563159Y-4735427D01*
X5561643Y-4722864D01*
X5540131Y-4713354D01*
X5560237Y-4705587D01*
X5562871Y-4703827D01*
X5564637Y-4691052D01*
X5564637Y-4736848D01*
X5564573Y-4736841D01*
X5526414Y-4775000D01*
X5526971Y-4775557D01*
X5525557Y-4776971D01*
X5525000Y-4776414D01*
X5486841Y-4814573D01*
X5488357Y-4827136D01*
X5511098Y-4837190D01*
X5535955Y-4837776D01*
X5556553Y-4829807D01*
X5493180Y-4893180D01*
X5483425Y-4907779D01*
X5480000Y-4925000D01*
X5480000Y-5013988D01*
X5304000Y-4837988D01*
X5304000Y-4823126D01*
X5314511Y-4827491D01*
X5335397Y-4827509D01*
X5354700Y-4819533D01*
X5369481Y-4804778D01*
X5375004Y-4791478D01*
X5380467Y-4804700D01*
X5395222Y-4819481D01*
X5414511Y-4827491D01*
X5435397Y-4827509D01*
X5454700Y-4819533D01*
X5469481Y-4804778D01*
X5469494Y-4804747D01*
X5471195Y-4809145D01*
X5472864Y-4811643D01*
X5485427Y-4813159D01*
X5523586Y-4775000D01*
X5485427Y-4736841D01*
X5472864Y-4738357D01*
X5469660Y-4745606D01*
X5469533Y-4745300D01*
X5454778Y-4730519D01*
X5435489Y-4722509D01*
X5414603Y-4722491D01*
X5395300Y-4730467D01*
X5380519Y-4745222D01*
X5374996Y-4758521D01*
X5369533Y-4745300D01*
X5354778Y-4730519D01*
X5335489Y-4722509D01*
X5314603Y-4722491D01*
X5295971Y-4730189D01*
X5295506Y-4729494D01*
X5228769Y-4662757D01*
X5229541Y-4660898D01*
X5229559Y-4639197D01*
X5221272Y-4619140D01*
X5205940Y-4603782D01*
X5185898Y-4595459D01*
X5164197Y-4595441D01*
X5144140Y-4603728D01*
X5128782Y-4619060D01*
X5125001Y-4628165D01*
X5121272Y-4619140D01*
X5105940Y-4603782D01*
X5104000Y-4602976D01*
X5104000Y-4557644D01*
X5111404Y-4554585D01*
X5129521Y-4536499D01*
X5139339Y-4512856D01*
X5139361Y-4487256D01*
X5129585Y-4463596D01*
X5111499Y-4445479D01*
X5104000Y-4442365D01*
X5104000Y-4432644D01*
X5111404Y-4429585D01*
X5129521Y-4411499D01*
X5139339Y-4387856D01*
X5139361Y-4362256D01*
X5129585Y-4338596D01*
X5111499Y-4320479D01*
X5107000Y-4318610D01*
X5107000Y-4132644D01*
X5114404Y-4129585D01*
X5132521Y-4111499D01*
X5142339Y-4087856D01*
X5142361Y-4062256D01*
X5132585Y-4038596D01*
X5114499Y-4020479D01*
X5090856Y-4010661D01*
X5065256Y-4010639D01*
X5041596Y-4020415D01*
X5023479Y-4038501D01*
X5013661Y-4062144D01*
X5013639Y-4087744D01*
X5023415Y-4111404D01*
X5041501Y-4129521D01*
X5049000Y-4132635D01*
X5049000Y-4316116D01*
X5038596Y-4320415D01*
X5020479Y-4338501D01*
X5010661Y-4362144D01*
X5010639Y-4387744D01*
X5020415Y-4411404D01*
X5038501Y-4429521D01*
X5046000Y-4432635D01*
X5046000Y-4442356D01*
X5038596Y-4445415D01*
X5020479Y-4463501D01*
X5010661Y-4487144D01*
X5010639Y-4512744D01*
X5020415Y-4536404D01*
X5038501Y-4554521D01*
X5046000Y-4557635D01*
X5046000Y-4602959D01*
X5044140Y-4603728D01*
X5028782Y-4619060D01*
X5020459Y-4639102D01*
X5020441Y-4660803D01*
X5028728Y-4680860D01*
X5044060Y-4696218D01*
X5046000Y-4697024D01*
X5046000Y-4726874D01*
X5035489Y-4722509D01*
X5014603Y-4722491D01*
X4995300Y-4730467D01*
X4980519Y-4745222D01*
X4974996Y-4758521D01*
X4969533Y-4745300D01*
X4954778Y-4730519D01*
X4939840Y-4724316D01*
X4939840Y-4488718D01*
X4930587Y-4464763D01*
X4929559Y-4463225D01*
X4929559Y-4389197D01*
X4921272Y-4369140D01*
X4905940Y-4353782D01*
X4896350Y-4349799D01*
X4896350Y-4121312D01*
X4896350Y-4107388D01*
X4896350Y-4084750D01*
X4896350Y-4065250D01*
X4896350Y-4042612D01*
X4896350Y-4028688D01*
X4891022Y-4015824D01*
X4881176Y-4005978D01*
X4868312Y-4000650D01*
X4831750Y-4000650D01*
X4823000Y-4009400D01*
X4823000Y-4074000D01*
X4887600Y-4074000D01*
X4896350Y-4065250D01*
X4896350Y-4084750D01*
X4887600Y-4076000D01*
X4823000Y-4076000D01*
X4823000Y-4140600D01*
X4831750Y-4149350D01*
X4868312Y-4149350D01*
X4881176Y-4144022D01*
X4891022Y-4134176D01*
X4896350Y-4121312D01*
X4896350Y-4349799D01*
X4885898Y-4345459D01*
X4864197Y-4345441D01*
X4844140Y-4353728D01*
X4828782Y-4369060D01*
X4821000Y-4387800D01*
X4821000Y-4140600D01*
X4821000Y-4076000D01*
X4821000Y-4074000D01*
X4821000Y-4009400D01*
X4812250Y-4000650D01*
X4775688Y-4000650D01*
X4762824Y-4005978D01*
X4752978Y-4015824D01*
X4747650Y-4028688D01*
X4747650Y-4042612D01*
X4747650Y-4065250D01*
X4756400Y-4074000D01*
X4821000Y-4074000D01*
X4821000Y-4076000D01*
X4756400Y-4076000D01*
X4747650Y-4084750D01*
X4747650Y-4107388D01*
X4747650Y-4121312D01*
X4752978Y-4134176D01*
X4762824Y-4144022D01*
X4775688Y-4149350D01*
X4812250Y-4149350D01*
X4821000Y-4140600D01*
X4821000Y-4387800D01*
X4820459Y-4389102D01*
X4820441Y-4410803D01*
X4828728Y-4430860D01*
X4841563Y-4443718D01*
X4839763Y-4444413D01*
X4837129Y-4446173D01*
X4835363Y-4458948D01*
X4875000Y-4498586D01*
X4914637Y-4458948D01*
X4912871Y-4446173D01*
X4908083Y-4444053D01*
X4921218Y-4430940D01*
X4929541Y-4410898D01*
X4929559Y-4389197D01*
X4929559Y-4463225D01*
X4928827Y-4462129D01*
X4916052Y-4460363D01*
X4876414Y-4500000D01*
X4916052Y-4539637D01*
X4928827Y-4537871D01*
X4939222Y-4514390D01*
X4939840Y-4488718D01*
X4939840Y-4724316D01*
X4935489Y-4722509D01*
X4914637Y-4722491D01*
X4914637Y-4541052D01*
X4875000Y-4501414D01*
X4835363Y-4541052D01*
X4837129Y-4553827D01*
X4860610Y-4564222D01*
X4886282Y-4564840D01*
X4910237Y-4555587D01*
X4912871Y-4553827D01*
X4914637Y-4541052D01*
X4914637Y-4722491D01*
X4914603Y-4722491D01*
X4895300Y-4730467D01*
X4880519Y-4745222D01*
X4872509Y-4764511D01*
X4872491Y-4785397D01*
X4880467Y-4804700D01*
X4895222Y-4819481D01*
X4914511Y-4827491D01*
X4935397Y-4827509D01*
X4954700Y-4819533D01*
X4969481Y-4804778D01*
X4975004Y-4791478D01*
X4980467Y-4804700D01*
X4995222Y-4819481D01*
X5014511Y-4827491D01*
X5035397Y-4827509D01*
X5046000Y-4823128D01*
X5046000Y-4912988D01*
X4936488Y-5022500D01*
X4892527Y-5022500D01*
X4883339Y-5026306D01*
X4876306Y-5033339D01*
X4872500Y-5042527D01*
X4872500Y-5052473D01*
X4872500Y-5107473D01*
X4876306Y-5116661D01*
X4883339Y-5123694D01*
X4892527Y-5127500D01*
X4902473Y-5127500D01*
X4957473Y-5127500D01*
X4966661Y-5123694D01*
X4973694Y-5116661D01*
X4977500Y-5107473D01*
X4977500Y-5097527D01*
X4977500Y-5097520D01*
X4980467Y-5104700D01*
X4995222Y-5119481D01*
X5014511Y-5127491D01*
X5035397Y-5127509D01*
X5036175Y-5127188D01*
X5096000Y-5187012D01*
X5096000Y-5305177D01*
X5095300Y-5305467D01*
X5080519Y-5320222D01*
X5074996Y-5333521D01*
X5069533Y-5320300D01*
X5054778Y-5305519D01*
X5035489Y-5297509D01*
X5014603Y-5297491D01*
X4995300Y-5305467D01*
X4980519Y-5320222D01*
X4974996Y-5333521D01*
X4969533Y-5320300D01*
X4954778Y-5305519D01*
X4939475Y-5299164D01*
X4953069Y-5285571D01*
X4962144Y-5289339D01*
X4987744Y-5289361D01*
X5011404Y-5279585D01*
X5029521Y-5261499D01*
X5039339Y-5237856D01*
X5039361Y-5212256D01*
X5029585Y-5188596D01*
X5011499Y-5170479D01*
X4987856Y-5160661D01*
X4962256Y-5160639D01*
X4938596Y-5170415D01*
X4920479Y-5188501D01*
X4918672Y-5192852D01*
X4918180Y-5193180D01*
X4889353Y-5222008D01*
X4889361Y-5212256D01*
X4879585Y-5188596D01*
X4861499Y-5170479D01*
X4837856Y-5160661D01*
X4812256Y-5160639D01*
X4788596Y-5170415D01*
X4770479Y-5188501D01*
X4760661Y-5212144D01*
X4760639Y-5237744D01*
X4770415Y-5261404D01*
X4788501Y-5279521D01*
X4812144Y-5289339D01*
X4822013Y-5289347D01*
X4813353Y-5298007D01*
X4795300Y-5305467D01*
X4780519Y-5320222D01*
X4772509Y-5339511D01*
X4772491Y-5360397D01*
X4780000Y-5378571D01*
X4780000Y-5604645D01*
X4776306Y-5608339D01*
X4772500Y-5617527D01*
X4772500Y-5627473D01*
X4772500Y-5682473D01*
X4776306Y-5691661D01*
X4783339Y-5698694D01*
X4792527Y-5702500D01*
X4802473Y-5702500D01*
X4857473Y-5702500D01*
X4866661Y-5698694D01*
X4873694Y-5691661D01*
X4877500Y-5682473D01*
X4877500Y-5672527D01*
X4877500Y-5672520D01*
X4880467Y-5679700D01*
X4895222Y-5694481D01*
X4914511Y-5702491D01*
X4935397Y-5702509D01*
X4954700Y-5694533D01*
X4969481Y-5679778D01*
X4975004Y-5666478D01*
X4980467Y-5679700D01*
X4995222Y-5694481D01*
X5014511Y-5702491D01*
X5035397Y-5702509D01*
X5046000Y-5698128D01*
X5046000Y-5719836D01*
X5036787Y-5716010D01*
X5013316Y-5715990D01*
X4991623Y-5724953D01*
X4975011Y-5741536D01*
X4974996Y-5741572D01*
X4958464Y-5725011D01*
X4936787Y-5716010D01*
X4913316Y-5715990D01*
X4891623Y-5724953D01*
X4890642Y-5725932D01*
X4888672Y-5721174D01*
X4878826Y-5711328D01*
X4865962Y-5706000D01*
X4834750Y-5706000D01*
X4826000Y-5714750D01*
X4826000Y-5774000D01*
X4826787Y-5774000D01*
X4826787Y-5776000D01*
X4826000Y-5776000D01*
X4826000Y-5776787D01*
X4824000Y-5776787D01*
X4824000Y-5776000D01*
X4824000Y-5774000D01*
X4824000Y-5714750D01*
X4815250Y-5706000D01*
X4784038Y-5706000D01*
X4771174Y-5711328D01*
X4761328Y-5721174D01*
X4756000Y-5734038D01*
X4756000Y-5747962D01*
X4756000Y-5765250D01*
X4764750Y-5774000D01*
X4824000Y-5774000D01*
X4824000Y-5776000D01*
X4764750Y-5776000D01*
X4756000Y-5784750D01*
X4756000Y-5802038D01*
X4756000Y-5805000D01*
X4685400Y-5805000D01*
X4686404Y-5804585D01*
X4704521Y-5786499D01*
X4714339Y-5762856D01*
X4714361Y-5737256D01*
X4714361Y-5337256D01*
X4704585Y-5313596D01*
X4686499Y-5295479D01*
X4662856Y-5285661D01*
X4637256Y-5285639D01*
X4613596Y-5295415D01*
X4595479Y-5313501D01*
X4585661Y-5337144D01*
X4585639Y-5362744D01*
X4595415Y-5386404D01*
X4613501Y-5404521D01*
X4637144Y-5414339D01*
X4662744Y-5414361D01*
X4686404Y-5404585D01*
X4704521Y-5386499D01*
X4714339Y-5362856D01*
X4714361Y-5337256D01*
X4714361Y-5737256D01*
X4704585Y-5713596D01*
X4686499Y-5695479D01*
X4662856Y-5685661D01*
X4637256Y-5685639D01*
X4629752Y-5688740D01*
X4425012Y-5484000D01*
X4436684Y-5484010D01*
X4458377Y-5475047D01*
X4474989Y-5458464D01*
X4475004Y-5458428D01*
X4491536Y-5474989D01*
X4513213Y-5483990D01*
X4536684Y-5484010D01*
X4558377Y-5475047D01*
X4574989Y-5458464D01*
X4583990Y-5436787D01*
X4584010Y-5413316D01*
X4575047Y-5391623D01*
X4558464Y-5375011D01*
X4536787Y-5366010D01*
X4513316Y-5365990D01*
X4491623Y-5374953D01*
X4475011Y-5391536D01*
X4474996Y-5391572D01*
X4458464Y-5375011D01*
X4436787Y-5366010D01*
X4413316Y-5365990D01*
X4404000Y-5369839D01*
X4404000Y-5300000D01*
X4401793Y-5288902D01*
X4401793Y-5288902D01*
X4398221Y-5283558D01*
X4412144Y-5289339D01*
X4437744Y-5289361D01*
X4461404Y-5279585D01*
X4479521Y-5261499D01*
X4483323Y-5252344D01*
X4486098Y-5251793D01*
X4495506Y-5245506D01*
X4672506Y-5068507D01*
X4672491Y-5085397D01*
X4680467Y-5104700D01*
X4695222Y-5119481D01*
X4714511Y-5127491D01*
X4735397Y-5127509D01*
X4754700Y-5119533D01*
X4769481Y-5104778D01*
X4777491Y-5085489D01*
X4777509Y-5064603D01*
X4769533Y-5045300D01*
X4754778Y-5030519D01*
X4741478Y-5024996D01*
X4754700Y-5019533D01*
X4769481Y-5004778D01*
X4777491Y-4985489D01*
X4777509Y-4964603D01*
X4769533Y-4945300D01*
X4754778Y-4930519D01*
X4741478Y-4924996D01*
X4754700Y-4919533D01*
X4769481Y-4904778D01*
X4777491Y-4885489D01*
X4777509Y-4864603D01*
X4769533Y-4845300D01*
X4754778Y-4830519D01*
X4741478Y-4824996D01*
X4754700Y-4819533D01*
X4769481Y-4804778D01*
X4777491Y-4785489D01*
X4777509Y-4764603D01*
X4769533Y-4745300D01*
X4754778Y-4730519D01*
X4735489Y-4722509D01*
X4714603Y-4722491D01*
X4695300Y-4730467D01*
X4680519Y-4745222D01*
X4672509Y-4764511D01*
X4672491Y-4785397D01*
X4680467Y-4804700D01*
X4695222Y-4819481D01*
X4708521Y-4825004D01*
X4695300Y-4830467D01*
X4680519Y-4845222D01*
X4672509Y-4864511D01*
X4672491Y-4885397D01*
X4680467Y-4904700D01*
X4695222Y-4919481D01*
X4708521Y-4925004D01*
X4695300Y-4930467D01*
X4680519Y-4945222D01*
X4672509Y-4964511D01*
X4672491Y-4985397D01*
X4672812Y-4986175D01*
X4664637Y-4994350D01*
X4664637Y-4691052D01*
X4625000Y-4651414D01*
X4585363Y-4691052D01*
X4587129Y-4703827D01*
X4610610Y-4714222D01*
X4636282Y-4714840D01*
X4660237Y-4705587D01*
X4662871Y-4703827D01*
X4664637Y-4691052D01*
X4664637Y-4994350D01*
X4474992Y-5183995D01*
X4461499Y-5170479D01*
X4437856Y-5160661D01*
X4412256Y-5160639D01*
X4388596Y-5170415D01*
X4379000Y-5179994D01*
X4379000Y-5162012D01*
X4413812Y-5127200D01*
X4414511Y-5127491D01*
X4435397Y-5127509D01*
X4454700Y-5119533D01*
X4469481Y-5104778D01*
X4477491Y-5085489D01*
X4477509Y-5064603D01*
X4469533Y-5045300D01*
X4454778Y-5030519D01*
X4441478Y-5024996D01*
X4454700Y-5019533D01*
X4469481Y-5004778D01*
X4477022Y-4986617D01*
X4556820Y-4906820D01*
X4566575Y-4892221D01*
X4570000Y-4875000D01*
X4570000Y-4686116D01*
X4571173Y-4687871D01*
X4583948Y-4689637D01*
X4623586Y-4650000D01*
X4623029Y-4649443D01*
X4624443Y-4648029D01*
X4625000Y-4648586D01*
X4625557Y-4648029D01*
X4626971Y-4649443D01*
X4626414Y-4650000D01*
X4666052Y-4689637D01*
X4678827Y-4687871D01*
X4689222Y-4664390D01*
X4689840Y-4638718D01*
X4682610Y-4620000D01*
X4725000Y-4620000D01*
X4742221Y-4616575D01*
X4756820Y-4606820D01*
X4806820Y-4556820D01*
X4816575Y-4542221D01*
X4818456Y-4532761D01*
X4819413Y-4535237D01*
X4821173Y-4537871D01*
X4833948Y-4539637D01*
X4873586Y-4500000D01*
X4833948Y-4460363D01*
X4821173Y-4462129D01*
X4820000Y-4464779D01*
X4820000Y-4450000D01*
X4816575Y-4432779D01*
X4806820Y-4418180D01*
X4780008Y-4391368D01*
X4780010Y-4389108D01*
X4771654Y-4368886D01*
X4756196Y-4353400D01*
X4735988Y-4345010D01*
X4714108Y-4344990D01*
X4693886Y-4353346D01*
X4678400Y-4368804D01*
X4675002Y-4376989D01*
X4671654Y-4368886D01*
X4656196Y-4353400D01*
X4635988Y-4345010D01*
X4614108Y-4344990D01*
X4593886Y-4353346D01*
X4578400Y-4368804D01*
X4570010Y-4389012D01*
X4569990Y-4410892D01*
X4578346Y-4431114D01*
X4593804Y-4446600D01*
X4612965Y-4454556D01*
X4610332Y-4460503D01*
X4609706Y-4486354D01*
X4619022Y-4510476D01*
X4620802Y-4513141D01*
X4633624Y-4514962D01*
X4673586Y-4475000D01*
X4673029Y-4474443D01*
X4674443Y-4473029D01*
X4675000Y-4473586D01*
X4675557Y-4473029D01*
X4676971Y-4474443D01*
X4676414Y-4475000D01*
X4676971Y-4475557D01*
X4675557Y-4476971D01*
X4675000Y-4476414D01*
X4635038Y-4516376D01*
X4636859Y-4529198D01*
X4638670Y-4530000D01*
X4600000Y-4530000D01*
X4582779Y-4533425D01*
X4568180Y-4543180D01*
X4539840Y-4571520D01*
X4539840Y-4488718D01*
X4530587Y-4464763D01*
X4529559Y-4463225D01*
X4529559Y-4389197D01*
X4521272Y-4369140D01*
X4505940Y-4353782D01*
X4485898Y-4345459D01*
X4464197Y-4345441D01*
X4444140Y-4353728D01*
X4428782Y-4369060D01*
X4420459Y-4389102D01*
X4420458Y-4390902D01*
X4276993Y-4534367D01*
X4276993Y-4105517D01*
X4255252Y-4052899D01*
X4215030Y-4012606D01*
X4162450Y-3990773D01*
X4105517Y-3990723D01*
X4052899Y-4012465D01*
X4012606Y-4052687D01*
X3990773Y-4105267D01*
X3990723Y-4162200D01*
X4012465Y-4214818D01*
X4052687Y-4255110D01*
X4105267Y-4276944D01*
X4162200Y-4276993D01*
X4214818Y-4255252D01*
X4255110Y-4215030D01*
X4276944Y-4162450D01*
X4276993Y-4105517D01*
X4276993Y-4534367D01*
X4168180Y-4643180D01*
X4158425Y-4657779D01*
X4155000Y-4675000D01*
X4155000Y-4690027D01*
X4151194Y-4680839D01*
X4144161Y-4673806D01*
X4134973Y-4670000D01*
X4125027Y-4670000D01*
X4065027Y-4670000D01*
X4055839Y-4673806D01*
X4048806Y-4680839D01*
X4045000Y-4690027D01*
X4045000Y-4699973D01*
X4045000Y-4759973D01*
X4048806Y-4769161D01*
X4055839Y-4776194D01*
X4060801Y-4778250D01*
X4060038Y-4783624D01*
X4100000Y-4823586D01*
X4139962Y-4783624D01*
X4139199Y-4778250D01*
X4144161Y-4776194D01*
X4151194Y-4769161D01*
X4155000Y-4759973D01*
X4155000Y-4757771D01*
X4165756Y-4768546D01*
X4164524Y-4769022D01*
X4161859Y-4770802D01*
X4160038Y-4783624D01*
X4200000Y-4823586D01*
X4239962Y-4783624D01*
X4238141Y-4770802D01*
X4233865Y-4768908D01*
X4246600Y-4756196D01*
X4254990Y-4735988D01*
X4255010Y-4714108D01*
X4246654Y-4693886D01*
X4245705Y-4692935D01*
X4414952Y-4523688D01*
X4419413Y-4535237D01*
X4421173Y-4537871D01*
X4433948Y-4539637D01*
X4473586Y-4500000D01*
X4473029Y-4499443D01*
X4474443Y-4498029D01*
X4475000Y-4498586D01*
X4514637Y-4458948D01*
X4512871Y-4446173D01*
X4508083Y-4444053D01*
X4521218Y-4430940D01*
X4529541Y-4410898D01*
X4529559Y-4389197D01*
X4529559Y-4463225D01*
X4528827Y-4462129D01*
X4516052Y-4460363D01*
X4476414Y-4500000D01*
X4516052Y-4539637D01*
X4528827Y-4537871D01*
X4539222Y-4514390D01*
X4539840Y-4488718D01*
X4539840Y-4571520D01*
X4515918Y-4595442D01*
X4514637Y-4595441D01*
X4514637Y-4541052D01*
X4475000Y-4501414D01*
X4435363Y-4541052D01*
X4437129Y-4553827D01*
X4460610Y-4564222D01*
X4486282Y-4564840D01*
X4510237Y-4555587D01*
X4512871Y-4553827D01*
X4514637Y-4541052D01*
X4514637Y-4595441D01*
X4514197Y-4595441D01*
X4494140Y-4603728D01*
X4478782Y-4619060D01*
X4470459Y-4639102D01*
X4470441Y-4660803D01*
X4478728Y-4680860D01*
X4480000Y-4682134D01*
X4480000Y-4843945D01*
X4478805Y-4840855D01*
X4477500Y-4838903D01*
X4477500Y-4807473D01*
X4477500Y-4797527D01*
X4477500Y-4742527D01*
X4473694Y-4733339D01*
X4466661Y-4726306D01*
X4457473Y-4722500D01*
X4447527Y-4722500D01*
X4392527Y-4722500D01*
X4383339Y-4726306D01*
X4376306Y-4733339D01*
X4372500Y-4742527D01*
X4372500Y-4752473D01*
X4372500Y-4807473D01*
X4376306Y-4816661D01*
X4383339Y-4823694D01*
X4388023Y-4825634D01*
X4386841Y-4835427D01*
X4425000Y-4873586D01*
X4463159Y-4835427D01*
X4461977Y-4825634D01*
X4466661Y-4823694D01*
X4473694Y-4816661D01*
X4477500Y-4807473D01*
X4477500Y-4838903D01*
X4477136Y-4838357D01*
X4464573Y-4836841D01*
X4426414Y-4875000D01*
X4426971Y-4875557D01*
X4425557Y-4876971D01*
X4425000Y-4876414D01*
X4423586Y-4877828D01*
X4423586Y-4875000D01*
X4385427Y-4836841D01*
X4372864Y-4838357D01*
X4362810Y-4861098D01*
X4362224Y-4885955D01*
X4371195Y-4909145D01*
X4372864Y-4911643D01*
X4385427Y-4913159D01*
X4423586Y-4875000D01*
X4423586Y-4877828D01*
X4386841Y-4914573D01*
X4388357Y-4927136D01*
X4395606Y-4930340D01*
X4395300Y-4930467D01*
X4380519Y-4945222D01*
X4372509Y-4964511D01*
X4372491Y-4985397D01*
X4380467Y-5004700D01*
X4395222Y-5019481D01*
X4408521Y-5025004D01*
X4395300Y-5030467D01*
X4380519Y-5045222D01*
X4372509Y-5064511D01*
X4372491Y-5085397D01*
X4372812Y-5086175D01*
X4354000Y-5104988D01*
X4354000Y-5050000D01*
X4351793Y-5038902D01*
X4351793Y-5038902D01*
X4345506Y-5029494D01*
X4270506Y-4954494D01*
X4265294Y-4951011D01*
X4265294Y-4813646D01*
X4255978Y-4789524D01*
X4254198Y-4786859D01*
X4241376Y-4785038D01*
X4201414Y-4825000D01*
X4241376Y-4864962D01*
X4254198Y-4863141D01*
X4264668Y-4839497D01*
X4265294Y-4813646D01*
X4265294Y-4951011D01*
X4261098Y-4948207D01*
X4250770Y-4946153D01*
X4254990Y-4935988D01*
X4255010Y-4914108D01*
X4246654Y-4893886D01*
X4234244Y-4881454D01*
X4235476Y-4880978D01*
X4238141Y-4879198D01*
X4239962Y-4866376D01*
X4200000Y-4826414D01*
X4198586Y-4827828D01*
X4198586Y-4825000D01*
X4158624Y-4785038D01*
X4150000Y-4786263D01*
X4141376Y-4785038D01*
X4101414Y-4825000D01*
X4141376Y-4864962D01*
X4150000Y-4863737D01*
X4158624Y-4864962D01*
X4198586Y-4825000D01*
X4198586Y-4827828D01*
X4160038Y-4866376D01*
X4161859Y-4879198D01*
X4166135Y-4881092D01*
X4153400Y-4893804D01*
X4150002Y-4901989D01*
X4146654Y-4893886D01*
X4134244Y-4881454D01*
X4135476Y-4880978D01*
X4138141Y-4879198D01*
X4139962Y-4866376D01*
X4100000Y-4826414D01*
X4098586Y-4827828D01*
X4098586Y-4825000D01*
X4058624Y-4785038D01*
X4045802Y-4786859D01*
X4035332Y-4810503D01*
X4034706Y-4836354D01*
X4044022Y-4860476D01*
X4045802Y-4863141D01*
X4058624Y-4864962D01*
X4098586Y-4825000D01*
X4098586Y-4827828D01*
X4060038Y-4866376D01*
X4061859Y-4879198D01*
X4066135Y-4881092D01*
X4053400Y-4893804D01*
X4045010Y-4914012D01*
X4044990Y-4935892D01*
X4053346Y-4956114D01*
X4068804Y-4971600D01*
X4076989Y-4974998D01*
X4068886Y-4978346D01*
X4053400Y-4993804D01*
X4045010Y-5014012D01*
X4045008Y-5016353D01*
X3993180Y-5068180D01*
X3983425Y-5082779D01*
X3980000Y-5100000D01*
X3980000Y-5300000D01*
X3983425Y-5317221D01*
X3993180Y-5331820D01*
X4539904Y-5878543D01*
X4276993Y-5878543D01*
X4276993Y-5680320D01*
X4255252Y-5627702D01*
X4215030Y-5587409D01*
X4162450Y-5565576D01*
X4105517Y-5565526D01*
X4052899Y-5587268D01*
X4012606Y-5627490D01*
X3990773Y-5680070D01*
X3990723Y-5737003D01*
X4012465Y-5789621D01*
X4052687Y-5829914D01*
X4105267Y-5851747D01*
X4162200Y-5851796D01*
X4214818Y-5830055D01*
X4255110Y-5789833D01*
X4276944Y-5737253D01*
X4276993Y-5680320D01*
X4276993Y-5878543D01*
X3963976Y-5878543D01*
X3963976Y-3963976D01*
X7042239Y-3963976D01*
G36*
X7847047Y-4664525D02*
X7842875Y-4658281D01*
X7823734Y-4645491D01*
X7801156Y-4641000D01*
X7798844Y-4641000D01*
X7776266Y-4645491D01*
X7757125Y-4658281D01*
X7750000Y-4668944D01*
X7745000Y-4661461D01*
X7745000Y-4538539D01*
X7750000Y-4531056D01*
X7757125Y-4541719D01*
X7776266Y-4554509D01*
X7798844Y-4559000D01*
X7801156Y-4559000D01*
X7823734Y-4554509D01*
X7842875Y-4541719D01*
X7847047Y-4535475D01*
X7847047Y-4664525D01*
X7847047Y-4664525D01*
G37*
X7847047Y-4664525D02*
X7842875Y-4658281D01*
X7823734Y-4645491D01*
X7801156Y-4641000D01*
X7798844Y-4641000D01*
X7776266Y-4645491D01*
X7757125Y-4658281D01*
X7750000Y-4668944D01*
X7745000Y-4661461D01*
X7745000Y-4538539D01*
X7750000Y-4531056D01*
X7757125Y-4541719D01*
X7776266Y-4554509D01*
X7798844Y-4559000D01*
X7801156Y-4559000D01*
X7823734Y-4554509D01*
X7842875Y-4541719D01*
X7847047Y-4535475D01*
X7847047Y-4664525D01*
G36*
X7847047Y-4989525D02*
X7842875Y-4983281D01*
X7823734Y-4970491D01*
X7801156Y-4966000D01*
X7798844Y-4966000D01*
X7776266Y-4970491D01*
X7757125Y-4983281D01*
X7750000Y-4993944D01*
X7745000Y-4986461D01*
X7745000Y-4838539D01*
X7750000Y-4831056D01*
X7757125Y-4841719D01*
X7776266Y-4854509D01*
X7798844Y-4859000D01*
X7801156Y-4859000D01*
X7823734Y-4854509D01*
X7842875Y-4841719D01*
X7847047Y-4835475D01*
X7847047Y-4989525D01*
X7847047Y-4989525D01*
G37*
X7847047Y-4989525D02*
X7842875Y-4983281D01*
X7823734Y-4970491D01*
X7801156Y-4966000D01*
X7798844Y-4966000D01*
X7776266Y-4970491D01*
X7757125Y-4983281D01*
X7750000Y-4993944D01*
X7745000Y-4986461D01*
X7745000Y-4838539D01*
X7750000Y-4831056D01*
X7757125Y-4841719D01*
X7776266Y-4854509D01*
X7798844Y-4859000D01*
X7801156Y-4859000D01*
X7823734Y-4854509D01*
X7842875Y-4841719D01*
X7847047Y-4835475D01*
X7847047Y-4989525D01*
G36*
X7847047Y-5289525D02*
X7842875Y-5283281D01*
X7823734Y-5270491D01*
X7801156Y-5266000D01*
X7798844Y-5266000D01*
X7776266Y-5270491D01*
X7757125Y-5283281D01*
X7750000Y-5293944D01*
X7745000Y-5286461D01*
X7745000Y-5163539D01*
X7750000Y-5156056D01*
X7757125Y-5166719D01*
X7776266Y-5179509D01*
X7798844Y-5184000D01*
X7801156Y-5184000D01*
X7823734Y-5179509D01*
X7842875Y-5166719D01*
X7847047Y-5160475D01*
X7847047Y-5289525D01*
X7847047Y-5289525D01*
G37*
X7847047Y-5289525D02*
X7842875Y-5283281D01*
X7823734Y-5270491D01*
X7801156Y-5266000D01*
X7798844Y-5266000D01*
X7776266Y-5270491D01*
X7757125Y-5283281D01*
X7750000Y-5293944D01*
X7745000Y-5286461D01*
X7745000Y-5163539D01*
X7750000Y-5156056D01*
X7757125Y-5166719D01*
X7776266Y-5179509D01*
X7798844Y-5184000D01*
X7801156Y-5184000D01*
X7823734Y-5179509D01*
X7842875Y-5166719D01*
X7847047Y-5160475D01*
X7847047Y-5289525D01*
G36*
X7847047Y-5878543D02*
X7820300Y-5878543D01*
X7820300Y-5680320D01*
X7798559Y-5627702D01*
X7758337Y-5587409D01*
X7705757Y-5565576D01*
X7648824Y-5565526D01*
X7599000Y-5586113D01*
X7599000Y-5485250D01*
X7599000Y-5426000D01*
X7599000Y-5424000D01*
X7599000Y-5385243D01*
X7599000Y-5364750D01*
X7599000Y-5326000D01*
X7599000Y-5324000D01*
X7599000Y-5264757D01*
X7599000Y-5185250D01*
X7599000Y-5126000D01*
X7599000Y-5124000D01*
X7599000Y-5085243D01*
X7599000Y-5064750D01*
X7599000Y-5026000D01*
X7599000Y-5024000D01*
X7599000Y-4964757D01*
X7599000Y-4860250D01*
X7599000Y-4801000D01*
X7599000Y-4799000D01*
X7599000Y-4760243D01*
X7599000Y-4739750D01*
X7599000Y-4701000D01*
X7599000Y-4699000D01*
X7599000Y-4639757D01*
X7599000Y-4560250D01*
X7599000Y-4501000D01*
X7599000Y-4499000D01*
X7599000Y-4460243D01*
X7599000Y-4439750D01*
X7599000Y-4401000D01*
X7599000Y-4399000D01*
X7599000Y-4339757D01*
X7588219Y-4332013D01*
X7563099Y-4341696D01*
X7543596Y-4360256D01*
X7532680Y-4384866D01*
X7532013Y-4388219D01*
X7539758Y-4399000D01*
X7599000Y-4399000D01*
X7599000Y-4401000D01*
X7539758Y-4401000D01*
X7532013Y-4411781D01*
X7532680Y-4415134D01*
X7543339Y-4439164D01*
X7536328Y-4446174D01*
X7531000Y-4459038D01*
X7531000Y-4472962D01*
X7531000Y-4490250D01*
X7539750Y-4499000D01*
X7599000Y-4499000D01*
X7599000Y-4501000D01*
X7539750Y-4501000D01*
X7531000Y-4509750D01*
X7531000Y-4527038D01*
X7531000Y-4540962D01*
X7536328Y-4553826D01*
X7546174Y-4563672D01*
X7559038Y-4569000D01*
X7590250Y-4569000D01*
X7599000Y-4560250D01*
X7599000Y-4639757D01*
X7588219Y-4632013D01*
X7563099Y-4641696D01*
X7543596Y-4660256D01*
X7532680Y-4684866D01*
X7532013Y-4688219D01*
X7539758Y-4699000D01*
X7599000Y-4699000D01*
X7599000Y-4701000D01*
X7539758Y-4701000D01*
X7532013Y-4711781D01*
X7532680Y-4715134D01*
X7543339Y-4739164D01*
X7536328Y-4746174D01*
X7531000Y-4759038D01*
X7531000Y-4772962D01*
X7531000Y-4790250D01*
X7539750Y-4799000D01*
X7599000Y-4799000D01*
X7599000Y-4801000D01*
X7539750Y-4801000D01*
X7531000Y-4809750D01*
X7531000Y-4827038D01*
X7531000Y-4840962D01*
X7536328Y-4853826D01*
X7546174Y-4863672D01*
X7559038Y-4869000D01*
X7590250Y-4869000D01*
X7599000Y-4860250D01*
X7599000Y-4964757D01*
X7588219Y-4957013D01*
X7563099Y-4966696D01*
X7543596Y-4985256D01*
X7532680Y-5009866D01*
X7532013Y-5013219D01*
X7539758Y-5024000D01*
X7599000Y-5024000D01*
X7599000Y-5026000D01*
X7539758Y-5026000D01*
X7532013Y-5036781D01*
X7532680Y-5040134D01*
X7543339Y-5064164D01*
X7536328Y-5071174D01*
X7531000Y-5084038D01*
X7531000Y-5097962D01*
X7531000Y-5115250D01*
X7539750Y-5124000D01*
X7599000Y-5124000D01*
X7599000Y-5126000D01*
X7539750Y-5126000D01*
X7531000Y-5134750D01*
X7531000Y-5152038D01*
X7531000Y-5165962D01*
X7536328Y-5178826D01*
X7546174Y-5188672D01*
X7559038Y-5194000D01*
X7590250Y-5194000D01*
X7599000Y-5185250D01*
X7599000Y-5264757D01*
X7588219Y-5257013D01*
X7563099Y-5266696D01*
X7543596Y-5285256D01*
X7532680Y-5309866D01*
X7532013Y-5313219D01*
X7539758Y-5324000D01*
X7599000Y-5324000D01*
X7599000Y-5326000D01*
X7539758Y-5326000D01*
X7532013Y-5336781D01*
X7532680Y-5340134D01*
X7543339Y-5364164D01*
X7536328Y-5371174D01*
X7531000Y-5384038D01*
X7531000Y-5397962D01*
X7531000Y-5415250D01*
X7539750Y-5424000D01*
X7599000Y-5424000D01*
X7599000Y-5426000D01*
X7539750Y-5426000D01*
X7531000Y-5434750D01*
X7531000Y-5452038D01*
X7531000Y-5465962D01*
X7536328Y-5478826D01*
X7546174Y-5488672D01*
X7559038Y-5494000D01*
X7590250Y-5494000D01*
X7599000Y-5485250D01*
X7599000Y-5586113D01*
X7596206Y-5587268D01*
X7555913Y-5627490D01*
X7534080Y-5680070D01*
X7534030Y-5737003D01*
X7555772Y-5789621D01*
X7595994Y-5829914D01*
X7648574Y-5851747D01*
X7705507Y-5851796D01*
X7758125Y-5830055D01*
X7798418Y-5789833D01*
X7820251Y-5737253D01*
X7820300Y-5680320D01*
X7820300Y-5878543D01*
X7469322Y-5878543D01*
X7459000Y-5878543D01*
X7170354Y-5878543D01*
X7170354Y-5608994D01*
X7198007Y-5636647D01*
X7205467Y-5654700D01*
X7220222Y-5669481D01*
X7233521Y-5675004D01*
X7220300Y-5680467D01*
X7205519Y-5695222D01*
X7197509Y-5714511D01*
X7197491Y-5735397D01*
X7205467Y-5754700D01*
X7220222Y-5769481D01*
X7239511Y-5777491D01*
X7260397Y-5777509D01*
X7279700Y-5769533D01*
X7294481Y-5754778D01*
X7302491Y-5735489D01*
X7302509Y-5714603D01*
X7294533Y-5695300D01*
X7279778Y-5680519D01*
X7266478Y-5674996D01*
X7279700Y-5669533D01*
X7294481Y-5654778D01*
X7302491Y-5635489D01*
X7302509Y-5614603D01*
X7294533Y-5595300D01*
X7279778Y-5580519D01*
X7266478Y-5574996D01*
X7279700Y-5569533D01*
X7294481Y-5554778D01*
X7302491Y-5535489D01*
X7302509Y-5514603D01*
X7294533Y-5495300D01*
X7279778Y-5480519D01*
X7266478Y-5474996D01*
X7279700Y-5469533D01*
X7294481Y-5454778D01*
X7302022Y-5436617D01*
X7333183Y-5405457D01*
X7331366Y-5409551D01*
X7330678Y-5436992D01*
X7340544Y-5462608D01*
X7342502Y-5465539D01*
X7355739Y-5467846D01*
X7355152Y-5468434D01*
X7351839Y-5469806D01*
X7344806Y-5476839D01*
X7341000Y-5486027D01*
X7341000Y-5495973D01*
X7341000Y-5563973D01*
X7344806Y-5573161D01*
X7351839Y-5580194D01*
X7361027Y-5584000D01*
X7370973Y-5584000D01*
X7438973Y-5584000D01*
X7448161Y-5580194D01*
X7455194Y-5573161D01*
X7459000Y-5563973D01*
X7459000Y-5554027D01*
X7459000Y-5486027D01*
X7455194Y-5476839D01*
X7448161Y-5469806D01*
X7444848Y-5468433D01*
X7444260Y-5467846D01*
X7457498Y-5465539D01*
X7468634Y-5440449D01*
X7469322Y-5413008D01*
X7469000Y-5412172D01*
X7469000Y-4315962D01*
X7469000Y-4284750D01*
X7469000Y-4265250D01*
X7469000Y-4234038D01*
X7463672Y-4221174D01*
X7453826Y-4211328D01*
X7440962Y-4206000D01*
X7427038Y-4206000D01*
X7409750Y-4206000D01*
X7401000Y-4214750D01*
X7401000Y-4274000D01*
X7460250Y-4274000D01*
X7469000Y-4265250D01*
X7469000Y-4284750D01*
X7460250Y-4276000D01*
X7401000Y-4276000D01*
X7401000Y-4276787D01*
X7399000Y-4276787D01*
X7399000Y-4276000D01*
X7399000Y-4274000D01*
X7399000Y-4214750D01*
X7390250Y-4206000D01*
X7372962Y-4206000D01*
X7359038Y-4206000D01*
X7346174Y-4211328D01*
X7336328Y-4221174D01*
X7331000Y-4234038D01*
X7331000Y-4265250D01*
X7339750Y-4274000D01*
X7399000Y-4274000D01*
X7399000Y-4276000D01*
X7339750Y-4276000D01*
X7331000Y-4284750D01*
X7331000Y-4315962D01*
X7336328Y-4328826D01*
X7346174Y-4338672D01*
X7350914Y-4340635D01*
X7350011Y-4341536D01*
X7341010Y-4363213D01*
X7340990Y-4386684D01*
X7349953Y-4408377D01*
X7366536Y-4424989D01*
X7366572Y-4425004D01*
X7350011Y-4441536D01*
X7341010Y-4463213D01*
X7340990Y-4486684D01*
X7349953Y-4508377D01*
X7366536Y-4524989D01*
X7366572Y-4525004D01*
X7350011Y-4541536D01*
X7341010Y-4563213D01*
X7340990Y-4586684D01*
X7349953Y-4608377D01*
X7366536Y-4624989D01*
X7366572Y-4625004D01*
X7350011Y-4641536D01*
X7341010Y-4663213D01*
X7340990Y-4686684D01*
X7349953Y-4708377D01*
X7366536Y-4724989D01*
X7366572Y-4725004D01*
X7350011Y-4741536D01*
X7341010Y-4763213D01*
X7340990Y-4786684D01*
X7349953Y-4808377D01*
X7366536Y-4824989D01*
X7366572Y-4825004D01*
X7350011Y-4841536D01*
X7341010Y-4863213D01*
X7340990Y-4886684D01*
X7349953Y-4908377D01*
X7366536Y-4924989D01*
X7366572Y-4925004D01*
X7350011Y-4941536D01*
X7341010Y-4963213D01*
X7340990Y-4986684D01*
X7349953Y-5008377D01*
X7366536Y-5024989D01*
X7366572Y-5025004D01*
X7350011Y-5041536D01*
X7341010Y-5063213D01*
X7340990Y-5086684D01*
X7349953Y-5108377D01*
X7366536Y-5124989D01*
X7388213Y-5133990D01*
X7411684Y-5134010D01*
X7433377Y-5125047D01*
X7449989Y-5108464D01*
X7458990Y-5086787D01*
X7459010Y-5063316D01*
X7450047Y-5041623D01*
X7433464Y-5025011D01*
X7433428Y-5024996D01*
X7449989Y-5008464D01*
X7458990Y-4986787D01*
X7459010Y-4963316D01*
X7450047Y-4941623D01*
X7433464Y-4925011D01*
X7433428Y-4924996D01*
X7449989Y-4908464D01*
X7458990Y-4886787D01*
X7459010Y-4863316D01*
X7450047Y-4841623D01*
X7433464Y-4825011D01*
X7433428Y-4824996D01*
X7449989Y-4808464D01*
X7458990Y-4786787D01*
X7459010Y-4763316D01*
X7450047Y-4741623D01*
X7433464Y-4725011D01*
X7433428Y-4724996D01*
X7449989Y-4708464D01*
X7458990Y-4686787D01*
X7459010Y-4663316D01*
X7450047Y-4641623D01*
X7433464Y-4625011D01*
X7433428Y-4624996D01*
X7449989Y-4608464D01*
X7458990Y-4586787D01*
X7459010Y-4563316D01*
X7450047Y-4541623D01*
X7433464Y-4525011D01*
X7433428Y-4524996D01*
X7449989Y-4508464D01*
X7458990Y-4486787D01*
X7459010Y-4463316D01*
X7450047Y-4441623D01*
X7433464Y-4425011D01*
X7433428Y-4424996D01*
X7449989Y-4408464D01*
X7458990Y-4386787D01*
X7459010Y-4363316D01*
X7450047Y-4341623D01*
X7449068Y-4340642D01*
X7453826Y-4338672D01*
X7463672Y-4328826D01*
X7469000Y-4315962D01*
X7469000Y-5412172D01*
X7459456Y-5387392D01*
X7457498Y-5384461D01*
X7444260Y-5382154D01*
X7401414Y-5425000D01*
X7401971Y-5425557D01*
X7400557Y-5426971D01*
X7400000Y-5426414D01*
X7399443Y-5426971D01*
X7398029Y-5425557D01*
X7398586Y-5425000D01*
X7398029Y-5424443D01*
X7399443Y-5423029D01*
X7400000Y-5423586D01*
X7442846Y-5380740D01*
X7440597Y-5367839D01*
X7449989Y-5358464D01*
X7458990Y-5336787D01*
X7459010Y-5313316D01*
X7450047Y-5291623D01*
X7433464Y-5275011D01*
X7411787Y-5266010D01*
X7388316Y-5265990D01*
X7366623Y-5274953D01*
X7361567Y-5280000D01*
X7350000Y-5280000D01*
X7332779Y-5283425D01*
X7318180Y-5293180D01*
X7250000Y-5361360D01*
X7220000Y-5331360D01*
X7220000Y-5319259D01*
X7220222Y-5319481D01*
X7239511Y-5327491D01*
X7260397Y-5327509D01*
X7279700Y-5319533D01*
X7294481Y-5304778D01*
X7302491Y-5285489D01*
X7302509Y-5264603D01*
X7294533Y-5245300D01*
X7279778Y-5230519D01*
X7266478Y-5224996D01*
X7279700Y-5219533D01*
X7294481Y-5204778D01*
X7302491Y-5185489D01*
X7302509Y-5164603D01*
X7294533Y-5145300D01*
X7279778Y-5130519D01*
X7266478Y-5124996D01*
X7279700Y-5119533D01*
X7294481Y-5104778D01*
X7302491Y-5085489D01*
X7302509Y-5064603D01*
X7294533Y-5045300D01*
X7279778Y-5030519D01*
X7266478Y-5024996D01*
X7279700Y-5019533D01*
X7294481Y-5004778D01*
X7302491Y-4985489D01*
X7302509Y-4964603D01*
X7294533Y-4945300D01*
X7279778Y-4930519D01*
X7261617Y-4922978D01*
X7220000Y-4881360D01*
X7220000Y-4844259D01*
X7220222Y-4844481D01*
X7239511Y-4852491D01*
X7260397Y-4852509D01*
X7279700Y-4844533D01*
X7294481Y-4829778D01*
X7302491Y-4810489D01*
X7302509Y-4789603D01*
X7294533Y-4770300D01*
X7279778Y-4755519D01*
X7266478Y-4749996D01*
X7279700Y-4744533D01*
X7294481Y-4729778D01*
X7302491Y-4710489D01*
X7302509Y-4689603D01*
X7294533Y-4670300D01*
X7279778Y-4655519D01*
X7266478Y-4649996D01*
X7279700Y-4644533D01*
X7294481Y-4629778D01*
X7302491Y-4610489D01*
X7302509Y-4589603D01*
X7294533Y-4570300D01*
X7279778Y-4555519D01*
X7266478Y-4549996D01*
X7279700Y-4544533D01*
X7294481Y-4529778D01*
X7302491Y-4510489D01*
X7302509Y-4489603D01*
X7294533Y-4470300D01*
X7279778Y-4455519D01*
X7261617Y-4447978D01*
X7220000Y-4406360D01*
X7220000Y-4394259D01*
X7220222Y-4394481D01*
X7239511Y-4402491D01*
X7260397Y-4402509D01*
X7279700Y-4394533D01*
X7294481Y-4379778D01*
X7302491Y-4360489D01*
X7302509Y-4339603D01*
X7294533Y-4320300D01*
X7279778Y-4305519D01*
X7266478Y-4299996D01*
X7279700Y-4294533D01*
X7294481Y-4279778D01*
X7302491Y-4260489D01*
X7302509Y-4239603D01*
X7294533Y-4220300D01*
X7279778Y-4205519D01*
X7266478Y-4199996D01*
X7279700Y-4194533D01*
X7294481Y-4179778D01*
X7302491Y-4160489D01*
X7302509Y-4139603D01*
X7294533Y-4120300D01*
X7279778Y-4105519D01*
X7266478Y-4099996D01*
X7279700Y-4094533D01*
X7294481Y-4079778D01*
X7302491Y-4060489D01*
X7302509Y-4039603D01*
X7294533Y-4020300D01*
X7279778Y-4005519D01*
X7260489Y-3997509D01*
X7239603Y-3997491D01*
X7220300Y-4005467D01*
X7205519Y-4020222D01*
X7197978Y-4038383D01*
X7170354Y-4066006D01*
X7170354Y-3963976D01*
X7847047Y-3963976D01*
X7847047Y-4364525D01*
X7842875Y-4358281D01*
X7823734Y-4345491D01*
X7820300Y-4344808D01*
X7820300Y-4105517D01*
X7798559Y-4052899D01*
X7758337Y-4012606D01*
X7705757Y-3990773D01*
X7648824Y-3990723D01*
X7596206Y-4012465D01*
X7555913Y-4052687D01*
X7534080Y-4105267D01*
X7534030Y-4162200D01*
X7555772Y-4214818D01*
X7595994Y-4255110D01*
X7648574Y-4276944D01*
X7705507Y-4276993D01*
X7758125Y-4255252D01*
X7798418Y-4215030D01*
X7820251Y-4162450D01*
X7820300Y-4105517D01*
X7820300Y-4344808D01*
X7801156Y-4341000D01*
X7798844Y-4341000D01*
X7776266Y-4345491D01*
X7757125Y-4358281D01*
X7750000Y-4368944D01*
X7742875Y-4358281D01*
X7723734Y-4345491D01*
X7701156Y-4341000D01*
X7698844Y-4341000D01*
X7676266Y-4345491D01*
X7657125Y-4358281D01*
X7656038Y-4359907D01*
X7636901Y-4341696D01*
X7611781Y-4332013D01*
X7601000Y-4339757D01*
X7601000Y-4399000D01*
X7601787Y-4399000D01*
X7601787Y-4401000D01*
X7601000Y-4401000D01*
X7601000Y-4439750D01*
X7601000Y-4460243D01*
X7601000Y-4499000D01*
X7601787Y-4499000D01*
X7601787Y-4501000D01*
X7601000Y-4501000D01*
X7601000Y-4560250D01*
X7609750Y-4569000D01*
X7640962Y-4569000D01*
X7653826Y-4563672D01*
X7655000Y-4562497D01*
X7655000Y-4658920D01*
X7636901Y-4641696D01*
X7611781Y-4632013D01*
X7601000Y-4639757D01*
X7601000Y-4699000D01*
X7601787Y-4699000D01*
X7601787Y-4701000D01*
X7601000Y-4701000D01*
X7601000Y-4739750D01*
X7601000Y-4760243D01*
X7601000Y-4799000D01*
X7601787Y-4799000D01*
X7601787Y-4801000D01*
X7601000Y-4801000D01*
X7601000Y-4860250D01*
X7609750Y-4869000D01*
X7640962Y-4869000D01*
X7653826Y-4863672D01*
X7655000Y-4862497D01*
X7655000Y-4983920D01*
X7636901Y-4966696D01*
X7611781Y-4957013D01*
X7601000Y-4964757D01*
X7601000Y-5024000D01*
X7601787Y-5024000D01*
X7601787Y-5026000D01*
X7601000Y-5026000D01*
X7601000Y-5064750D01*
X7601000Y-5085243D01*
X7601000Y-5124000D01*
X7601787Y-5124000D01*
X7601787Y-5126000D01*
X7601000Y-5126000D01*
X7601000Y-5185250D01*
X7609750Y-5194000D01*
X7640962Y-5194000D01*
X7653826Y-5188672D01*
X7655000Y-5187497D01*
X7655000Y-5283920D01*
X7636901Y-5266696D01*
X7611781Y-5257013D01*
X7601000Y-5264757D01*
X7601000Y-5324000D01*
X7601787Y-5324000D01*
X7601787Y-5326000D01*
X7601000Y-5326000D01*
X7601000Y-5364750D01*
X7601000Y-5385243D01*
X7601000Y-5424000D01*
X7601787Y-5424000D01*
X7601787Y-5426000D01*
X7601000Y-5426000D01*
X7601000Y-5485250D01*
X7609750Y-5494000D01*
X7640962Y-5494000D01*
X7653826Y-5488672D01*
X7663672Y-5478826D01*
X7666180Y-5472770D01*
X7676266Y-5479509D01*
X7698844Y-5484000D01*
X7701156Y-5484000D01*
X7723734Y-5479509D01*
X7742875Y-5466719D01*
X7750000Y-5456056D01*
X7757125Y-5466719D01*
X7776266Y-5479509D01*
X7798844Y-5484000D01*
X7801156Y-5484000D01*
X7823734Y-5479509D01*
X7842875Y-5466719D01*
X7847047Y-5460475D01*
X7847047Y-5878543D01*
X7847047Y-5878543D01*
G37*
X7847047Y-5878543D02*
X7820300Y-5878543D01*
X7820300Y-5680320D01*
X7798559Y-5627702D01*
X7758337Y-5587409D01*
X7705757Y-5565576D01*
X7648824Y-5565526D01*
X7599000Y-5586113D01*
X7599000Y-5485250D01*
X7599000Y-5426000D01*
X7599000Y-5424000D01*
X7599000Y-5385243D01*
X7599000Y-5364750D01*
X7599000Y-5326000D01*
X7599000Y-5324000D01*
X7599000Y-5264757D01*
X7599000Y-5185250D01*
X7599000Y-5126000D01*
X7599000Y-5124000D01*
X7599000Y-5085243D01*
X7599000Y-5064750D01*
X7599000Y-5026000D01*
X7599000Y-5024000D01*
X7599000Y-4964757D01*
X7599000Y-4860250D01*
X7599000Y-4801000D01*
X7599000Y-4799000D01*
X7599000Y-4760243D01*
X7599000Y-4739750D01*
X7599000Y-4701000D01*
X7599000Y-4699000D01*
X7599000Y-4639757D01*
X7599000Y-4560250D01*
X7599000Y-4501000D01*
X7599000Y-4499000D01*
X7599000Y-4460243D01*
X7599000Y-4439750D01*
X7599000Y-4401000D01*
X7599000Y-4399000D01*
X7599000Y-4339757D01*
X7588219Y-4332013D01*
X7563099Y-4341696D01*
X7543596Y-4360256D01*
X7532680Y-4384866D01*
X7532013Y-4388219D01*
X7539758Y-4399000D01*
X7599000Y-4399000D01*
X7599000Y-4401000D01*
X7539758Y-4401000D01*
X7532013Y-4411781D01*
X7532680Y-4415134D01*
X7543339Y-4439164D01*
X7536328Y-4446174D01*
X7531000Y-4459038D01*
X7531000Y-4472962D01*
X7531000Y-4490250D01*
X7539750Y-4499000D01*
X7599000Y-4499000D01*
X7599000Y-4501000D01*
X7539750Y-4501000D01*
X7531000Y-4509750D01*
X7531000Y-4527038D01*
X7531000Y-4540962D01*
X7536328Y-4553826D01*
X7546174Y-4563672D01*
X7559038Y-4569000D01*
X7590250Y-4569000D01*
X7599000Y-4560250D01*
X7599000Y-4639757D01*
X7588219Y-4632013D01*
X7563099Y-4641696D01*
X7543596Y-4660256D01*
X7532680Y-4684866D01*
X7532013Y-4688219D01*
X7539758Y-4699000D01*
X7599000Y-4699000D01*
X7599000Y-4701000D01*
X7539758Y-4701000D01*
X7532013Y-4711781D01*
X7532680Y-4715134D01*
X7543339Y-4739164D01*
X7536328Y-4746174D01*
X7531000Y-4759038D01*
X7531000Y-4772962D01*
X7531000Y-4790250D01*
X7539750Y-4799000D01*
X7599000Y-4799000D01*
X7599000Y-4801000D01*
X7539750Y-4801000D01*
X7531000Y-4809750D01*
X7531000Y-4827038D01*
X7531000Y-4840962D01*
X7536328Y-4853826D01*
X7546174Y-4863672D01*
X7559038Y-4869000D01*
X7590250Y-4869000D01*
X7599000Y-4860250D01*
X7599000Y-4964757D01*
X7588219Y-4957013D01*
X7563099Y-4966696D01*
X7543596Y-4985256D01*
X7532680Y-5009866D01*
X7532013Y-5013219D01*
X7539758Y-5024000D01*
X7599000Y-5024000D01*
X7599000Y-5026000D01*
X7539758Y-5026000D01*
X7532013Y-5036781D01*
X7532680Y-5040134D01*
X7543339Y-5064164D01*
X7536328Y-5071174D01*
X7531000Y-5084038D01*
X7531000Y-5097962D01*
X7531000Y-5115250D01*
X7539750Y-5124000D01*
X7599000Y-5124000D01*
X7599000Y-5126000D01*
X7539750Y-5126000D01*
X7531000Y-5134750D01*
X7531000Y-5152038D01*
X7531000Y-5165962D01*
X7536328Y-5178826D01*
X7546174Y-5188672D01*
X7559038Y-5194000D01*
X7590250Y-5194000D01*
X7599000Y-5185250D01*
X7599000Y-5264757D01*
X7588219Y-5257013D01*
X7563099Y-5266696D01*
X7543596Y-5285256D01*
X7532680Y-5309866D01*
X7532013Y-5313219D01*
X7539758Y-5324000D01*
X7599000Y-5324000D01*
X7599000Y-5326000D01*
X7539758Y-5326000D01*
X7532013Y-5336781D01*
X7532680Y-5340134D01*
X7543339Y-5364164D01*
X7536328Y-5371174D01*
X7531000Y-5384038D01*
X7531000Y-5397962D01*
X7531000Y-5415250D01*
X7539750Y-5424000D01*
X7599000Y-5424000D01*
X7599000Y-5426000D01*
X7539750Y-5426000D01*
X7531000Y-5434750D01*
X7531000Y-5452038D01*
X7531000Y-5465962D01*
X7536328Y-5478826D01*
X7546174Y-5488672D01*
X7559038Y-5494000D01*
X7590250Y-5494000D01*
X7599000Y-5485250D01*
X7599000Y-5586113D01*
X7596206Y-5587268D01*
X7555913Y-5627490D01*
X7534080Y-5680070D01*
X7534030Y-5737003D01*
X7555772Y-5789621D01*
X7595994Y-5829914D01*
X7648574Y-5851747D01*
X7705507Y-5851796D01*
X7758125Y-5830055D01*
X7798418Y-5789833D01*
X7820251Y-5737253D01*
X7820300Y-5680320D01*
X7820300Y-5878543D01*
X7469322Y-5878543D01*
X7459000Y-5878543D01*
X7170354Y-5878543D01*
X7170354Y-5608994D01*
X7198007Y-5636647D01*
X7205467Y-5654700D01*
X7220222Y-5669481D01*
X7233521Y-5675004D01*
X7220300Y-5680467D01*
X7205519Y-5695222D01*
X7197509Y-5714511D01*
X7197491Y-5735397D01*
X7205467Y-5754700D01*
X7220222Y-5769481D01*
X7239511Y-5777491D01*
X7260397Y-5777509D01*
X7279700Y-5769533D01*
X7294481Y-5754778D01*
X7302491Y-5735489D01*
X7302509Y-5714603D01*
X7294533Y-5695300D01*
X7279778Y-5680519D01*
X7266478Y-5674996D01*
X7279700Y-5669533D01*
X7294481Y-5654778D01*
X7302491Y-5635489D01*
X7302509Y-5614603D01*
X7294533Y-5595300D01*
X7279778Y-5580519D01*
X7266478Y-5574996D01*
X7279700Y-5569533D01*
X7294481Y-5554778D01*
X7302491Y-5535489D01*
X7302509Y-5514603D01*
X7294533Y-5495300D01*
X7279778Y-5480519D01*
X7266478Y-5474996D01*
X7279700Y-5469533D01*
X7294481Y-5454778D01*
X7302022Y-5436617D01*
X7333183Y-5405457D01*
X7331366Y-5409551D01*
X7330678Y-5436992D01*
X7340544Y-5462608D01*
X7342502Y-5465539D01*
X7355739Y-5467846D01*
X7355152Y-5468434D01*
X7351839Y-5469806D01*
X7344806Y-5476839D01*
X7341000Y-5486027D01*
X7341000Y-5495973D01*
X7341000Y-5563973D01*
X7344806Y-5573161D01*
X7351839Y-5580194D01*
X7361027Y-5584000D01*
X7370973Y-5584000D01*
X7438973Y-5584000D01*
X7448161Y-5580194D01*
X7455194Y-5573161D01*
X7459000Y-5563973D01*
X7459000Y-5554027D01*
X7459000Y-5486027D01*
X7455194Y-5476839D01*
X7448161Y-5469806D01*
X7444848Y-5468433D01*
X7444260Y-5467846D01*
X7457498Y-5465539D01*
X7468634Y-5440449D01*
X7469322Y-5413008D01*
X7469000Y-5412172D01*
X7469000Y-4315962D01*
X7469000Y-4284750D01*
X7469000Y-4265250D01*
X7469000Y-4234038D01*
X7463672Y-4221174D01*
X7453826Y-4211328D01*
X7440962Y-4206000D01*
X7427038Y-4206000D01*
X7409750Y-4206000D01*
X7401000Y-4214750D01*
X7401000Y-4274000D01*
X7460250Y-4274000D01*
X7469000Y-4265250D01*
X7469000Y-4284750D01*
X7460250Y-4276000D01*
X7401000Y-4276000D01*
X7401000Y-4276787D01*
X7399000Y-4276787D01*
X7399000Y-4276000D01*
X7399000Y-4274000D01*
X7399000Y-4214750D01*
X7390250Y-4206000D01*
X7372962Y-4206000D01*
X7359038Y-4206000D01*
X7346174Y-4211328D01*
X7336328Y-4221174D01*
X7331000Y-4234038D01*
X7331000Y-4265250D01*
X7339750Y-4274000D01*
X7399000Y-4274000D01*
X7399000Y-4276000D01*
X7339750Y-4276000D01*
X7331000Y-4284750D01*
X7331000Y-4315962D01*
X7336328Y-4328826D01*
X7346174Y-4338672D01*
X7350914Y-4340635D01*
X7350011Y-4341536D01*
X7341010Y-4363213D01*
X7340990Y-4386684D01*
X7349953Y-4408377D01*
X7366536Y-4424989D01*
X7366572Y-4425004D01*
X7350011Y-4441536D01*
X7341010Y-4463213D01*
X7340990Y-4486684D01*
X7349953Y-4508377D01*
X7366536Y-4524989D01*
X7366572Y-4525004D01*
X7350011Y-4541536D01*
X7341010Y-4563213D01*
X7340990Y-4586684D01*
X7349953Y-4608377D01*
X7366536Y-4624989D01*
X7366572Y-4625004D01*
X7350011Y-4641536D01*
X7341010Y-4663213D01*
X7340990Y-4686684D01*
X7349953Y-4708377D01*
X7366536Y-4724989D01*
X7366572Y-4725004D01*
X7350011Y-4741536D01*
X7341010Y-4763213D01*
X7340990Y-4786684D01*
X7349953Y-4808377D01*
X7366536Y-4824989D01*
X7366572Y-4825004D01*
X7350011Y-4841536D01*
X7341010Y-4863213D01*
X7340990Y-4886684D01*
X7349953Y-4908377D01*
X7366536Y-4924989D01*
X7366572Y-4925004D01*
X7350011Y-4941536D01*
X7341010Y-4963213D01*
X7340990Y-4986684D01*
X7349953Y-5008377D01*
X7366536Y-5024989D01*
X7366572Y-5025004D01*
X7350011Y-5041536D01*
X7341010Y-5063213D01*
X7340990Y-5086684D01*
X7349953Y-5108377D01*
X7366536Y-5124989D01*
X7388213Y-5133990D01*
X7411684Y-5134010D01*
X7433377Y-5125047D01*
X7449989Y-5108464D01*
X7458990Y-5086787D01*
X7459010Y-5063316D01*
X7450047Y-5041623D01*
X7433464Y-5025011D01*
X7433428Y-5024996D01*
X7449989Y-5008464D01*
X7458990Y-4986787D01*
X7459010Y-4963316D01*
X7450047Y-4941623D01*
X7433464Y-4925011D01*
X7433428Y-4924996D01*
X7449989Y-4908464D01*
X7458990Y-4886787D01*
X7459010Y-4863316D01*
X7450047Y-4841623D01*
X7433464Y-4825011D01*
X7433428Y-4824996D01*
X7449989Y-4808464D01*
X7458990Y-4786787D01*
X7459010Y-4763316D01*
X7450047Y-4741623D01*
X7433464Y-4725011D01*
X7433428Y-4724996D01*
X7449989Y-4708464D01*
X7458990Y-4686787D01*
X7459010Y-4663316D01*
X7450047Y-4641623D01*
X7433464Y-4625011D01*
X7433428Y-4624996D01*
X7449989Y-4608464D01*
X7458990Y-4586787D01*
X7459010Y-4563316D01*
X7450047Y-4541623D01*
X7433464Y-4525011D01*
X7433428Y-4524996D01*
X7449989Y-4508464D01*
X7458990Y-4486787D01*
X7459010Y-4463316D01*
X7450047Y-4441623D01*
X7433464Y-4425011D01*
X7433428Y-4424996D01*
X7449989Y-4408464D01*
X7458990Y-4386787D01*
X7459010Y-4363316D01*
X7450047Y-4341623D01*
X7449068Y-4340642D01*
X7453826Y-4338672D01*
X7463672Y-4328826D01*
X7469000Y-4315962D01*
X7469000Y-5412172D01*
X7459456Y-5387392D01*
X7457498Y-5384461D01*
X7444260Y-5382154D01*
X7401414Y-5425000D01*
X7401971Y-5425557D01*
X7400557Y-5426971D01*
X7400000Y-5426414D01*
X7399443Y-5426971D01*
X7398029Y-5425557D01*
X7398586Y-5425000D01*
X7398029Y-5424443D01*
X7399443Y-5423029D01*
X7400000Y-5423586D01*
X7442846Y-5380740D01*
X7440597Y-5367839D01*
X7449989Y-5358464D01*
X7458990Y-5336787D01*
X7459010Y-5313316D01*
X7450047Y-5291623D01*
X7433464Y-5275011D01*
X7411787Y-5266010D01*
X7388316Y-5265990D01*
X7366623Y-5274953D01*
X7361567Y-5280000D01*
X7350000Y-5280000D01*
X7332779Y-5283425D01*
X7318180Y-5293180D01*
X7250000Y-5361360D01*
X7220000Y-5331360D01*
X7220000Y-5319259D01*
X7220222Y-5319481D01*
X7239511Y-5327491D01*
X7260397Y-5327509D01*
X7279700Y-5319533D01*
X7294481Y-5304778D01*
X7302491Y-5285489D01*
X7302509Y-5264603D01*
X7294533Y-5245300D01*
X7279778Y-5230519D01*
X7266478Y-5224996D01*
X7279700Y-5219533D01*
X7294481Y-5204778D01*
X7302491Y-5185489D01*
X7302509Y-5164603D01*
X7294533Y-5145300D01*
X7279778Y-5130519D01*
X7266478Y-5124996D01*
X7279700Y-5119533D01*
X7294481Y-5104778D01*
X7302491Y-5085489D01*
X7302509Y-5064603D01*
X7294533Y-5045300D01*
X7279778Y-5030519D01*
X7266478Y-5024996D01*
X7279700Y-5019533D01*
X7294481Y-5004778D01*
X7302491Y-4985489D01*
X7302509Y-4964603D01*
X7294533Y-4945300D01*
X7279778Y-4930519D01*
X7261617Y-4922978D01*
X7220000Y-4881360D01*
X7220000Y-4844259D01*
X7220222Y-4844481D01*
X7239511Y-4852491D01*
X7260397Y-4852509D01*
X7279700Y-4844533D01*
X7294481Y-4829778D01*
X7302491Y-4810489D01*
X7302509Y-4789603D01*
X7294533Y-4770300D01*
X7279778Y-4755519D01*
X7266478Y-4749996D01*
X7279700Y-4744533D01*
X7294481Y-4729778D01*
X7302491Y-4710489D01*
X7302509Y-4689603D01*
X7294533Y-4670300D01*
X7279778Y-4655519D01*
X7266478Y-4649996D01*
X7279700Y-4644533D01*
X7294481Y-4629778D01*
X7302491Y-4610489D01*
X7302509Y-4589603D01*
X7294533Y-4570300D01*
X7279778Y-4555519D01*
X7266478Y-4549996D01*
X7279700Y-4544533D01*
X7294481Y-4529778D01*
X7302491Y-4510489D01*
X7302509Y-4489603D01*
X7294533Y-4470300D01*
X7279778Y-4455519D01*
X7261617Y-4447978D01*
X7220000Y-4406360D01*
X7220000Y-4394259D01*
X7220222Y-4394481D01*
X7239511Y-4402491D01*
X7260397Y-4402509D01*
X7279700Y-4394533D01*
X7294481Y-4379778D01*
X7302491Y-4360489D01*
X7302509Y-4339603D01*
X7294533Y-4320300D01*
X7279778Y-4305519D01*
X7266478Y-4299996D01*
X7279700Y-4294533D01*
X7294481Y-4279778D01*
X7302491Y-4260489D01*
X7302509Y-4239603D01*
X7294533Y-4220300D01*
X7279778Y-4205519D01*
X7266478Y-4199996D01*
X7279700Y-4194533D01*
X7294481Y-4179778D01*
X7302491Y-4160489D01*
X7302509Y-4139603D01*
X7294533Y-4120300D01*
X7279778Y-4105519D01*
X7266478Y-4099996D01*
X7279700Y-4094533D01*
X7294481Y-4079778D01*
X7302491Y-4060489D01*
X7302509Y-4039603D01*
X7294533Y-4020300D01*
X7279778Y-4005519D01*
X7260489Y-3997509D01*
X7239603Y-3997491D01*
X7220300Y-4005467D01*
X7205519Y-4020222D01*
X7197978Y-4038383D01*
X7170354Y-4066006D01*
X7170354Y-3963976D01*
X7847047Y-3963976D01*
X7847047Y-4364525D01*
X7842875Y-4358281D01*
X7823734Y-4345491D01*
X7820300Y-4344808D01*
X7820300Y-4105517D01*
X7798559Y-4052899D01*
X7758337Y-4012606D01*
X7705757Y-3990773D01*
X7648824Y-3990723D01*
X7596206Y-4012465D01*
X7555913Y-4052687D01*
X7534080Y-4105267D01*
X7534030Y-4162200D01*
X7555772Y-4214818D01*
X7595994Y-4255110D01*
X7648574Y-4276944D01*
X7705507Y-4276993D01*
X7758125Y-4255252D01*
X7798418Y-4215030D01*
X7820251Y-4162450D01*
X7820300Y-4105517D01*
X7820300Y-4344808D01*
X7801156Y-4341000D01*
X7798844Y-4341000D01*
X7776266Y-4345491D01*
X7757125Y-4358281D01*
X7750000Y-4368944D01*
X7742875Y-4358281D01*
X7723734Y-4345491D01*
X7701156Y-4341000D01*
X7698844Y-4341000D01*
X7676266Y-4345491D01*
X7657125Y-4358281D01*
X7656038Y-4359907D01*
X7636901Y-4341696D01*
X7611781Y-4332013D01*
X7601000Y-4339757D01*
X7601000Y-4399000D01*
X7601787Y-4399000D01*
X7601787Y-4401000D01*
X7601000Y-4401000D01*
X7601000Y-4439750D01*
X7601000Y-4460243D01*
X7601000Y-4499000D01*
X7601787Y-4499000D01*
X7601787Y-4501000D01*
X7601000Y-4501000D01*
X7601000Y-4560250D01*
X7609750Y-4569000D01*
X7640962Y-4569000D01*
X7653826Y-4563672D01*
X7655000Y-4562497D01*
X7655000Y-4658920D01*
X7636901Y-4641696D01*
X7611781Y-4632013D01*
X7601000Y-4639757D01*
X7601000Y-4699000D01*
X7601787Y-4699000D01*
X7601787Y-4701000D01*
X7601000Y-4701000D01*
X7601000Y-4739750D01*
X7601000Y-4760243D01*
X7601000Y-4799000D01*
X7601787Y-4799000D01*
X7601787Y-4801000D01*
X7601000Y-4801000D01*
X7601000Y-4860250D01*
X7609750Y-4869000D01*
X7640962Y-4869000D01*
X7653826Y-4863672D01*
X7655000Y-4862497D01*
X7655000Y-4983920D01*
X7636901Y-4966696D01*
X7611781Y-4957013D01*
X7601000Y-4964757D01*
X7601000Y-5024000D01*
X7601787Y-5024000D01*
X7601787Y-5026000D01*
X7601000Y-5026000D01*
X7601000Y-5064750D01*
X7601000Y-5085243D01*
X7601000Y-5124000D01*
X7601787Y-5124000D01*
X7601787Y-5126000D01*
X7601000Y-5126000D01*
X7601000Y-5185250D01*
X7609750Y-5194000D01*
X7640962Y-5194000D01*
X7653826Y-5188672D01*
X7655000Y-5187497D01*
X7655000Y-5283920D01*
X7636901Y-5266696D01*
X7611781Y-5257013D01*
X7601000Y-5264757D01*
X7601000Y-5324000D01*
X7601787Y-5324000D01*
X7601787Y-5326000D01*
X7601000Y-5326000D01*
X7601000Y-5364750D01*
X7601000Y-5385243D01*
X7601000Y-5424000D01*
X7601787Y-5424000D01*
X7601787Y-5426000D01*
X7601000Y-5426000D01*
X7601000Y-5485250D01*
X7609750Y-5494000D01*
X7640962Y-5494000D01*
X7653826Y-5488672D01*
X7663672Y-5478826D01*
X7666180Y-5472770D01*
X7676266Y-5479509D01*
X7698844Y-5484000D01*
X7701156Y-5484000D01*
X7723734Y-5479509D01*
X7742875Y-5466719D01*
X7750000Y-5456056D01*
X7757125Y-5466719D01*
X7776266Y-5479509D01*
X7798844Y-5484000D01*
X7801156Y-5484000D01*
X7823734Y-5479509D01*
X7842875Y-5466719D01*
X7847047Y-5460475D01*
X7847047Y-5878543D01*
M02*
