%FSLAX36Y36*%
G04 Gerber Fmt 3.6, Leading zero omitted, Abs format (unit inch)*
G04 Created by KiCad (PCBNEW (2014-jul-16 BZR unknown)-product) date Sun 25 Jan 2015 02:29:34 PM PST*
%MOIN*%
G01*
G04 APERTURE LIST*
%ADD10C,0.003937*%
%ADD11C,0.006000*%
%ADD12C,0.008000*%
%ADD13C,0.012000*%
%ADD14C,0.015000*%
%ADD15C,0.010000*%
%ADD16C,0.000100*%
%ADD17C,0.005906*%
G04 APERTURE END LIST*
D10*
D11*
X7575238Y-4293095D02*
X7579048Y-4293095D01*
X7582857Y-4295000D01*
X7584762Y-4296905D01*
X7586667Y-4300714D01*
X7588571Y-4308333D01*
X7588571Y-4317857D01*
X7586667Y-4325476D01*
X7584762Y-4329286D01*
X7582857Y-4331190D01*
X7579048Y-4333095D01*
X7575238Y-4333095D01*
X7571429Y-4331190D01*
X7569524Y-4329286D01*
X7567619Y-4325476D01*
X7565714Y-4317857D01*
X7565714Y-4308333D01*
X7567619Y-4300714D01*
X7569524Y-4296905D01*
X7571429Y-4295000D01*
X7575238Y-4293095D01*
X7600000Y-4293095D02*
X7613333Y-4333095D01*
X7626667Y-4293095D01*
X7689524Y-4293095D02*
X7670476Y-4293095D01*
X7668571Y-4312143D01*
X7670476Y-4310238D01*
X7674286Y-4308333D01*
X7683810Y-4308333D01*
X7687619Y-4310238D01*
X7689524Y-4312143D01*
X7691429Y-4315952D01*
X7691429Y-4325476D01*
X7689524Y-4329286D01*
X7687619Y-4331190D01*
X7683810Y-4333095D01*
X7674286Y-4333095D01*
X7670476Y-4331190D01*
X7668571Y-4329286D01*
X7702857Y-4293095D02*
X7716191Y-4333095D01*
X7729524Y-4293095D01*
X7771429Y-4331190D02*
X7777143Y-4333095D01*
X7786667Y-4333095D01*
X7790476Y-4331190D01*
X7792381Y-4329286D01*
X7794286Y-4325476D01*
X7794286Y-4321667D01*
X7792381Y-4317857D01*
X7790476Y-4315952D01*
X7786667Y-4314048D01*
X7779048Y-4312143D01*
X7775238Y-4310238D01*
X7773333Y-4308333D01*
X7771429Y-4304524D01*
X7771429Y-4300714D01*
X7773333Y-4296905D01*
X7775238Y-4295000D01*
X7779048Y-4293095D01*
X7788571Y-4293095D01*
X7794286Y-4295000D01*
X7832381Y-4295000D02*
X7828571Y-4293095D01*
X7822857Y-4293095D01*
X7817143Y-4295000D01*
X7813333Y-4298810D01*
X7811429Y-4302619D01*
X7809524Y-4310238D01*
X7809524Y-4315952D01*
X7811429Y-4323571D01*
X7813333Y-4327381D01*
X7817143Y-4331190D01*
X7822857Y-4333095D01*
X7826667Y-4333095D01*
X7832381Y-4331190D01*
X7834286Y-4329286D01*
X7834286Y-4315952D01*
X7826667Y-4315952D01*
X4610305Y-4092495D02*
X4596971Y-4073448D01*
X4587448Y-4092495D02*
X4587448Y-4052495D01*
X4602686Y-4052495D01*
X4606495Y-4054400D01*
X4608400Y-4056305D01*
X4610305Y-4060114D01*
X4610305Y-4065829D01*
X4608400Y-4069638D01*
X4606495Y-4071543D01*
X4602686Y-4073448D01*
X4587448Y-4073448D01*
X4627448Y-4071543D02*
X4640781Y-4071543D01*
X4646495Y-4092495D02*
X4627448Y-4092495D01*
X4627448Y-4052495D01*
X4646495Y-4052495D01*
X4661733Y-4090590D02*
X4667448Y-4092495D01*
X4676971Y-4092495D01*
X4680781Y-4090590D01*
X4682686Y-4088686D01*
X4684590Y-4084876D01*
X4684590Y-4081067D01*
X4682686Y-4077257D01*
X4680781Y-4075352D01*
X4676971Y-4073448D01*
X4669352Y-4071543D01*
X4665543Y-4069638D01*
X4663638Y-4067733D01*
X4661733Y-4063924D01*
X4661733Y-4060114D01*
X4663638Y-4056305D01*
X4665543Y-4054400D01*
X4669352Y-4052495D01*
X4678876Y-4052495D01*
X4684590Y-4054400D01*
X4701733Y-4071543D02*
X4715067Y-4071543D01*
X4720781Y-4092495D02*
X4701733Y-4092495D01*
X4701733Y-4052495D01*
X4720781Y-4052495D01*
X4732210Y-4052495D02*
X4755067Y-4052495D01*
X4743638Y-4092495D02*
X4743638Y-4052495D01*
X7488929Y-5608595D02*
X7466071Y-5608595D01*
X7477500Y-5608595D02*
X7477500Y-5568595D01*
X7473691Y-5574310D01*
X7469881Y-5578119D01*
X7466071Y-5580024D01*
X7493629Y-4286095D02*
X7470771Y-4286095D01*
X7482200Y-4286095D02*
X7482200Y-4246095D01*
X7478391Y-4251810D01*
X7474581Y-4255619D01*
X7470771Y-4257524D01*
X7543429Y-4592595D02*
X7520571Y-4592595D01*
X7532000Y-4592595D02*
X7532000Y-4552595D01*
X7528191Y-4558310D01*
X7524381Y-4562119D01*
X7520571Y-4564024D01*
X7536429Y-4886595D02*
X7513571Y-4886595D01*
X7525000Y-4886595D02*
X7525000Y-4846595D01*
X7521191Y-4852310D01*
X7517381Y-4856119D01*
X7513571Y-4858024D01*
X7539929Y-5215595D02*
X7517071Y-5215595D01*
X7528500Y-5215595D02*
X7528500Y-5175595D01*
X7524691Y-5181310D01*
X7520881Y-5185119D01*
X7517071Y-5187024D01*
X7532929Y-5509595D02*
X7510071Y-5509595D01*
X7521500Y-5509595D02*
X7521500Y-5469595D01*
X7517691Y-5475310D01*
X7513881Y-5479119D01*
X7510071Y-5481024D01*
X6899429Y-5488595D02*
X6876571Y-5488595D01*
X6888000Y-5488595D02*
X6888000Y-5448595D01*
X6884191Y-5454310D01*
X6880381Y-5458119D01*
X6876571Y-5460024D01*
X6902929Y-5044095D02*
X6880071Y-5044095D01*
X6891500Y-5044095D02*
X6891500Y-5004095D01*
X6887691Y-5009810D01*
X6883881Y-5013619D01*
X6880071Y-5015524D01*
X6892429Y-4550595D02*
X6869571Y-4550595D01*
X6881000Y-4550595D02*
X6881000Y-4510595D01*
X6877191Y-4516310D01*
X6873381Y-4520119D01*
X6869571Y-4522024D01*
X6885429Y-4092095D02*
X6862571Y-4092095D01*
X6874000Y-4092095D02*
X6874000Y-4052095D01*
X6870191Y-4057810D01*
X6866381Y-4061619D01*
X6862571Y-4063524D01*
X4004929Y-4501595D02*
X3982071Y-4501595D01*
X3993500Y-4501595D02*
X3993500Y-4461595D01*
X3989691Y-4467310D01*
X3985881Y-4471119D01*
X3982071Y-4473024D01*
X5656929Y-4533095D02*
X5634071Y-4533095D01*
X5645500Y-4533095D02*
X5645500Y-4493095D01*
X5641691Y-4498810D01*
X5637881Y-4502619D01*
X5634071Y-4504524D01*
X4771429Y-5670595D02*
X4748571Y-5670595D01*
X4760000Y-5670595D02*
X4760000Y-5630595D01*
X4756191Y-5636310D01*
X4752381Y-5640119D01*
X4748571Y-5642024D01*
X4459429Y-4722095D02*
X4436571Y-4722095D01*
X4448000Y-4722095D02*
X4448000Y-4682095D01*
X4444191Y-4687810D01*
X4440381Y-4691619D01*
X4436571Y-4693524D01*
X4805229Y-5040695D02*
X4782371Y-5040695D01*
X4793800Y-5040695D02*
X4793800Y-5000695D01*
X4789991Y-5006410D01*
X4786181Y-5010219D01*
X4782371Y-5012124D01*
X4761929Y-5860595D02*
X4739071Y-5860595D01*
X4750500Y-5860595D02*
X4750500Y-5820595D01*
X4746691Y-5826310D01*
X4742881Y-5830119D01*
X4739071Y-5832024D01*
X4926571Y-5877095D02*
X4926571Y-5837095D01*
X4941810Y-5837095D01*
X4945619Y-5839000D01*
X4947524Y-5840905D01*
X4949429Y-5844714D01*
X4949429Y-5850429D01*
X4947524Y-5854238D01*
X4945619Y-5856143D01*
X4941810Y-5858048D01*
X4926571Y-5858048D01*
X4989429Y-5877095D02*
X4976095Y-5858048D01*
X4966571Y-5877095D02*
X4966571Y-5837095D01*
X4981810Y-5837095D01*
X4985619Y-5839000D01*
X4987524Y-5840905D01*
X4989429Y-5844714D01*
X4989429Y-5850429D01*
X4987524Y-5854238D01*
X4985619Y-5856143D01*
X4981810Y-5858048D01*
X4966571Y-5858048D01*
X5014191Y-5837095D02*
X5021810Y-5837095D01*
X5025619Y-5839000D01*
X5029429Y-5842810D01*
X5031333Y-5850429D01*
X5031333Y-5863762D01*
X5029429Y-5871381D01*
X5025619Y-5875190D01*
X5021810Y-5877095D01*
X5014191Y-5877095D01*
X5010381Y-5875190D01*
X5006571Y-5871381D01*
X5004667Y-5863762D01*
X5004667Y-5850429D01*
X5006571Y-5842810D01*
X5010381Y-5839000D01*
X5014191Y-5837095D01*
X5069429Y-5839000D02*
X5065619Y-5837095D01*
X5059905Y-5837095D01*
X5054191Y-5839000D01*
X5050381Y-5842810D01*
X5048476Y-5846619D01*
X5046571Y-5854238D01*
X5046571Y-5859952D01*
X5048476Y-5867571D01*
X5050381Y-5871381D01*
X5054191Y-5875190D01*
X5059905Y-5877095D01*
X5063714Y-5877095D01*
X5069429Y-5875190D01*
X5071333Y-5873286D01*
X5071333Y-5859952D01*
X5063714Y-5859952D01*
X5111333Y-5877095D02*
X5098000Y-5858048D01*
X5088476Y-5877095D02*
X5088476Y-5837095D01*
X5103714Y-5837095D01*
X5107524Y-5839000D01*
X5109429Y-5840905D01*
X5111333Y-5844714D01*
X5111333Y-5850429D01*
X5109429Y-5854238D01*
X5107524Y-5856143D01*
X5103714Y-5858048D01*
X5088476Y-5858048D01*
X5126571Y-5865667D02*
X5145619Y-5865667D01*
X5122762Y-5877095D02*
X5136095Y-5837095D01*
X5149429Y-5877095D01*
X5162762Y-5877095D02*
X5162762Y-5837095D01*
X5176095Y-5865667D01*
X5189429Y-5837095D01*
X5189429Y-5877095D01*
X4266667Y-5552095D02*
X4289524Y-5552095D01*
X4278095Y-5592095D02*
X4278095Y-5552095D01*
X4302857Y-5571143D02*
X4316190Y-5571143D01*
X4321905Y-5592095D02*
X4302857Y-5592095D01*
X4302857Y-5552095D01*
X4321905Y-5552095D01*
X4361905Y-5592095D02*
X4348571Y-5573048D01*
X4339048Y-5592095D02*
X4339048Y-5552095D01*
X4354286Y-5552095D01*
X4358095Y-5554000D01*
X4360000Y-5555905D01*
X4361905Y-5559714D01*
X4361905Y-5565429D01*
X4360000Y-5569238D01*
X4358095Y-5571143D01*
X4354286Y-5573048D01*
X4339048Y-5573048D01*
X4379048Y-5592095D02*
X4379048Y-5552095D01*
X4392381Y-5580667D01*
X4405714Y-5552095D01*
X4405714Y-5592095D01*
X4424762Y-5592095D02*
X4424762Y-5552095D01*
X4443810Y-5592095D02*
X4443810Y-5552095D01*
X4466667Y-5592095D01*
X4466667Y-5552095D01*
X4483810Y-5580667D02*
X4502857Y-5580667D01*
X4480000Y-5592095D02*
X4493333Y-5552095D01*
X4506667Y-5592095D01*
X4514286Y-5552095D02*
X4537143Y-5552095D01*
X4525714Y-5592095D02*
X4525714Y-5552095D01*
X4550476Y-5571143D02*
X4563810Y-5571143D01*
X4569524Y-5592095D02*
X4550476Y-5592095D01*
X4550476Y-5552095D01*
X4569524Y-5552095D01*
X4289571Y-5492095D02*
X4297190Y-5492095D01*
X4301000Y-5494000D01*
X4304810Y-5497810D01*
X4306714Y-5505429D01*
X4306714Y-5518762D01*
X4304810Y-5526381D01*
X4301000Y-5530190D01*
X4297190Y-5532095D01*
X4289571Y-5532095D01*
X4285762Y-5530190D01*
X4281952Y-5526381D01*
X4280048Y-5518762D01*
X4280048Y-5505429D01*
X4281952Y-5497810D01*
X4285762Y-5494000D01*
X4289571Y-5492095D01*
X4323857Y-5532095D02*
X4323857Y-5492095D01*
X4346714Y-5532095D01*
X4346714Y-5492095D01*
X4424810Y-5490190D02*
X4390524Y-5541619D01*
X4476238Y-5492095D02*
X4483857Y-5492095D01*
X4487667Y-5494000D01*
X4491476Y-5497810D01*
X4493381Y-5505429D01*
X4493381Y-5518762D01*
X4491476Y-5526381D01*
X4487667Y-5530190D01*
X4483857Y-5532095D01*
X4476238Y-5532095D01*
X4472429Y-5530190D01*
X4468619Y-5526381D01*
X4466714Y-5518762D01*
X4466714Y-5505429D01*
X4468619Y-5497810D01*
X4472429Y-5494000D01*
X4476238Y-5492095D01*
X4523857Y-5511143D02*
X4510524Y-5511143D01*
X4510524Y-5532095D02*
X4510524Y-5492095D01*
X4529571Y-5492095D01*
X4558143Y-5511143D02*
X4544810Y-5511143D01*
X4544810Y-5532095D02*
X4544810Y-5492095D01*
X4563857Y-5492095D01*
X6309886Y-4646495D02*
X6309886Y-4606495D01*
X6327029Y-4646495D02*
X6327029Y-4625543D01*
X6325124Y-4621733D01*
X6321314Y-4619829D01*
X6315600Y-4619829D01*
X6311791Y-4621733D01*
X6309886Y-4623638D01*
X6363219Y-4646495D02*
X6363219Y-4625543D01*
X6361314Y-4621733D01*
X6357505Y-4619829D01*
X6349886Y-4619829D01*
X6346076Y-4621733D01*
X6363219Y-4644590D02*
X6359410Y-4646495D01*
X6349886Y-4646495D01*
X6346076Y-4644590D01*
X6344171Y-4640781D01*
X6344171Y-4636971D01*
X6346076Y-4633162D01*
X6349886Y-4631257D01*
X6359410Y-4631257D01*
X6363219Y-4629352D01*
X6382267Y-4646495D02*
X6382267Y-4619829D01*
X6382267Y-4627448D02*
X6384171Y-4623638D01*
X6386076Y-4621733D01*
X6389886Y-4619829D01*
X6393695Y-4619829D01*
X6424171Y-4646495D02*
X6424171Y-4606495D01*
X6424171Y-4644590D02*
X6420362Y-4646495D01*
X6412743Y-4646495D01*
X6408933Y-4644590D01*
X6407029Y-4642686D01*
X6405124Y-4638876D01*
X6405124Y-4627448D01*
X6407029Y-4623638D01*
X6408933Y-4621733D01*
X6412743Y-4619829D01*
X6420362Y-4619829D01*
X6424171Y-4621733D01*
X6439410Y-4619829D02*
X6447029Y-4646495D01*
X6454648Y-4627448D01*
X6462267Y-4646495D01*
X6469886Y-4619829D01*
X6502267Y-4646495D02*
X6502267Y-4625543D01*
X6500362Y-4621733D01*
X6496552Y-4619829D01*
X6488933Y-4619829D01*
X6485124Y-4621733D01*
X6502267Y-4644590D02*
X6498457Y-4646495D01*
X6488933Y-4646495D01*
X6485124Y-4644590D01*
X6483219Y-4640781D01*
X6483219Y-4636971D01*
X6485124Y-4633162D01*
X6488933Y-4631257D01*
X6498457Y-4631257D01*
X6502267Y-4629352D01*
X6521314Y-4646495D02*
X6521314Y-4619829D01*
X6521314Y-4627448D02*
X6523219Y-4623638D01*
X6525124Y-4621733D01*
X6528933Y-4619829D01*
X6532743Y-4619829D01*
X6561314Y-4644590D02*
X6557505Y-4646495D01*
X6549886Y-4646495D01*
X6546076Y-4644590D01*
X6544171Y-4640781D01*
X6544171Y-4625543D01*
X6546076Y-4621733D01*
X6549886Y-4619829D01*
X6557505Y-4619829D01*
X6561314Y-4621733D01*
X6563219Y-4625543D01*
X6563219Y-4629352D01*
X6544171Y-4633162D01*
X6279524Y-4593095D02*
X6275714Y-4591190D01*
X6273810Y-4589286D01*
X6271905Y-4585476D01*
X6271905Y-4574048D01*
X6273810Y-4570238D01*
X6275714Y-4568333D01*
X6279524Y-4566429D01*
X6285238Y-4566429D01*
X6289048Y-4568333D01*
X6290952Y-4570238D01*
X6292857Y-4574048D01*
X6292857Y-4585476D01*
X6290952Y-4589286D01*
X6289048Y-4591190D01*
X6285238Y-4593095D01*
X6279524Y-4593095D01*
X6310000Y-4566429D02*
X6310000Y-4606429D01*
X6310000Y-4568333D02*
X6313810Y-4566429D01*
X6321429Y-4566429D01*
X6325238Y-4568333D01*
X6327143Y-4570238D01*
X6329048Y-4574048D01*
X6329048Y-4585476D01*
X6327143Y-4589286D01*
X6325238Y-4591190D01*
X6321429Y-4593095D01*
X6313810Y-4593095D01*
X6310000Y-4591190D01*
X6361429Y-4591190D02*
X6357619Y-4593095D01*
X6350000Y-4593095D01*
X6346191Y-4591190D01*
X6344286Y-4587381D01*
X6344286Y-4572143D01*
X6346191Y-4568333D01*
X6350000Y-4566429D01*
X6357619Y-4566429D01*
X6361429Y-4568333D01*
X6363333Y-4572143D01*
X6363333Y-4575952D01*
X6344286Y-4579762D01*
X6380476Y-4566429D02*
X6380476Y-4593095D01*
X6380476Y-4570238D02*
X6382381Y-4568333D01*
X6386191Y-4566429D01*
X6391905Y-4566429D01*
X6395714Y-4568333D01*
X6397619Y-4572143D01*
X6397619Y-4593095D01*
X6445238Y-4591190D02*
X6449048Y-4593095D01*
X6456667Y-4593095D01*
X6460476Y-4591190D01*
X6462381Y-4587381D01*
X6462381Y-4585476D01*
X6460476Y-4581667D01*
X6456667Y-4579762D01*
X6450952Y-4579762D01*
X6447143Y-4577857D01*
X6445238Y-4574048D01*
X6445238Y-4572143D01*
X6447143Y-4568333D01*
X6450952Y-4566429D01*
X6456667Y-4566429D01*
X6460476Y-4568333D01*
X6485238Y-4593095D02*
X6481429Y-4591190D01*
X6479524Y-4589286D01*
X6477619Y-4585476D01*
X6477619Y-4574048D01*
X6479524Y-4570238D01*
X6481429Y-4568333D01*
X6485238Y-4566429D01*
X6490952Y-4566429D01*
X6494762Y-4568333D01*
X6496667Y-4570238D01*
X6498571Y-4574048D01*
X6498571Y-4585476D01*
X6496667Y-4589286D01*
X6494762Y-4591190D01*
X6490952Y-4593095D01*
X6485238Y-4593095D01*
X6532857Y-4566429D02*
X6532857Y-4593095D01*
X6515714Y-4566429D02*
X6515714Y-4587381D01*
X6517619Y-4591190D01*
X6521429Y-4593095D01*
X6527143Y-4593095D01*
X6530952Y-4591190D01*
X6532857Y-4589286D01*
X6551905Y-4593095D02*
X6551905Y-4566429D01*
X6551905Y-4574048D02*
X6553810Y-4570238D01*
X6555714Y-4568333D01*
X6559524Y-4566429D01*
X6563333Y-4566429D01*
X6593809Y-4591190D02*
X6590000Y-4593095D01*
X6582381Y-4593095D01*
X6578571Y-4591190D01*
X6576667Y-4589286D01*
X6574762Y-4585476D01*
X6574762Y-4574048D01*
X6576667Y-4570238D01*
X6578571Y-4568333D01*
X6582381Y-4566429D01*
X6590000Y-4566429D01*
X6593809Y-4568333D01*
X6626190Y-4591190D02*
X6622381Y-4593095D01*
X6614762Y-4593095D01*
X6610952Y-4591190D01*
X6609048Y-4587381D01*
X6609048Y-4572143D01*
X6610952Y-4568333D01*
X6614762Y-4566429D01*
X6622381Y-4566429D01*
X6626190Y-4568333D01*
X6628095Y-4572143D01*
X6628095Y-4575952D01*
X6609048Y-4579762D01*
X5747619Y-4016143D02*
X5753333Y-4018048D01*
X5755238Y-4019952D01*
X5757143Y-4023762D01*
X5757143Y-4029476D01*
X5755238Y-4033286D01*
X5753333Y-4035190D01*
X5749524Y-4037095D01*
X5734286Y-4037095D01*
X5734286Y-3997095D01*
X5747619Y-3997095D01*
X5751429Y-3999000D01*
X5753333Y-4000905D01*
X5755238Y-4004714D01*
X5755238Y-4008524D01*
X5753333Y-4012333D01*
X5751429Y-4014238D01*
X5747619Y-4016143D01*
X5734286Y-4016143D01*
X5774286Y-3997095D02*
X5774286Y-4029476D01*
X5776191Y-4033286D01*
X5778095Y-4035190D01*
X5781905Y-4037095D01*
X5789524Y-4037095D01*
X5793333Y-4035190D01*
X5795238Y-4033286D01*
X5797143Y-4029476D01*
X5797143Y-3997095D01*
X5814286Y-4035190D02*
X5820000Y-4037095D01*
X5829524Y-4037095D01*
X5833333Y-4035190D01*
X5835238Y-4033286D01*
X5837143Y-4029476D01*
X5837143Y-4025667D01*
X5835238Y-4021857D01*
X5833333Y-4019952D01*
X5829524Y-4018048D01*
X5821905Y-4016143D01*
X5818095Y-4014238D01*
X5816191Y-4012333D01*
X5814286Y-4008524D01*
X5814286Y-4004714D01*
X5816191Y-4000905D01*
X5818095Y-3999000D01*
X5821905Y-3997095D01*
X5831429Y-3997095D01*
X5837143Y-3999000D01*
X5844762Y-4040905D02*
X5875238Y-4040905D01*
X5882857Y-4035190D02*
X5888571Y-4037095D01*
X5898095Y-4037095D01*
X5901905Y-4035190D01*
X5903810Y-4033286D01*
X5905714Y-4029476D01*
X5905714Y-4025667D01*
X5903810Y-4021857D01*
X5901905Y-4019952D01*
X5898095Y-4018048D01*
X5890476Y-4016143D01*
X5886667Y-4014238D01*
X5884762Y-4012333D01*
X5882857Y-4008524D01*
X5882857Y-4004714D01*
X5884762Y-4000905D01*
X5886667Y-3999000D01*
X5890476Y-3997095D01*
X5900000Y-3997095D01*
X5905714Y-3999000D01*
X5922857Y-4016143D02*
X5936191Y-4016143D01*
X5941905Y-4037095D02*
X5922857Y-4037095D01*
X5922857Y-3997095D01*
X5941905Y-3997095D01*
X5981905Y-4037095D02*
X5968571Y-4018048D01*
X5959048Y-4037095D02*
X5959048Y-3997095D01*
X5974286Y-3997095D01*
X5978095Y-3999000D01*
X5980000Y-4000905D01*
X5981905Y-4004714D01*
X5981905Y-4010429D01*
X5980000Y-4014238D01*
X5978095Y-4016143D01*
X5974286Y-4018048D01*
X5959048Y-4018048D01*
X5993333Y-3997095D02*
X6006667Y-4037095D01*
X6020000Y-3997095D01*
X6040952Y-3997095D02*
X6048571Y-3997095D01*
X6052381Y-3999000D01*
X6056191Y-4002810D01*
X6058095Y-4010429D01*
X6058095Y-4023762D01*
X6056191Y-4031381D01*
X6052381Y-4035190D01*
X6048571Y-4037095D01*
X6040952Y-4037095D01*
X6037143Y-4035190D01*
X6033333Y-4031381D01*
X6031429Y-4023762D01*
X6031429Y-4010429D01*
X6033333Y-4002810D01*
X6037143Y-3999000D01*
X6040952Y-3997095D01*
X6080952Y-4014238D02*
X6077143Y-4012333D01*
X6075238Y-4010429D01*
X6073333Y-4006619D01*
X6073333Y-4004714D01*
X6075238Y-4000905D01*
X6077143Y-3999000D01*
X6080952Y-3997095D01*
X6088571Y-3997095D01*
X6092381Y-3999000D01*
X6094286Y-4000905D01*
X6096191Y-4004714D01*
X6096191Y-4006619D01*
X6094286Y-4010429D01*
X6092381Y-4012333D01*
X6088571Y-4014238D01*
X6080952Y-4014238D01*
X6077143Y-4016143D01*
X6075238Y-4018048D01*
X6073333Y-4021857D01*
X6073333Y-4029476D01*
X6075238Y-4033286D01*
X6077143Y-4035190D01*
X6080952Y-4037095D01*
X6088571Y-4037095D01*
X6092381Y-4035190D01*
X6094286Y-4033286D01*
X6096191Y-4029476D01*
X6096191Y-4021857D01*
X6094286Y-4018048D01*
X6092381Y-4016143D01*
X6088571Y-4014238D01*
X6166667Y-4037095D02*
X6153333Y-4018048D01*
X6143810Y-4037095D02*
X6143810Y-3997095D01*
X6159048Y-3997095D01*
X6162857Y-3999000D01*
X6164762Y-4000905D01*
X6166667Y-4004714D01*
X6166667Y-4010429D01*
X6164762Y-4014238D01*
X6162857Y-4016143D01*
X6159048Y-4018048D01*
X6143810Y-4018048D01*
X6183810Y-4016143D02*
X6197143Y-4016143D01*
X6202857Y-4037095D02*
X6183810Y-4037095D01*
X6183810Y-3997095D01*
X6202857Y-3997095D01*
X6214286Y-3997095D02*
X6227619Y-4037095D01*
X6240952Y-3997095D01*
X6282857Y-4025667D02*
X6301905Y-4025667D01*
X6279048Y-4037095D02*
X6292381Y-3997095D01*
X6305714Y-4037095D01*
X6347619Y-4000905D02*
X6349524Y-3999000D01*
X6353333Y-3997095D01*
X6362857Y-3997095D01*
X6366667Y-3999000D01*
X6368571Y-4000905D01*
X6370476Y-4004714D01*
X6370476Y-4008524D01*
X6368571Y-4014238D01*
X6345714Y-4037095D01*
X6370476Y-4037095D01*
X6406667Y-3997095D02*
X6387619Y-3997095D01*
X6385714Y-4016143D01*
X6387619Y-4014238D01*
X6391429Y-4012333D01*
X6400952Y-4012333D01*
X6404762Y-4014238D01*
X6406667Y-4016143D01*
X6408571Y-4019952D01*
X6408571Y-4029476D01*
X6406667Y-4033286D01*
X6404762Y-4035190D01*
X6400952Y-4037095D01*
X6391429Y-4037095D01*
X6387619Y-4035190D01*
X6385714Y-4033286D01*
X6437143Y-3997095D02*
X6437143Y-4025667D01*
X6435238Y-4031381D01*
X6431429Y-4035190D01*
X6425714Y-4037095D01*
X6421905Y-4037095D01*
X6454286Y-4025667D02*
X6473333Y-4025667D01*
X6450476Y-4037095D02*
X6463810Y-3997095D01*
X6477143Y-4037095D01*
X6490476Y-4037095D02*
X6490476Y-3997095D01*
X6513333Y-4037095D01*
X6513333Y-3997095D01*
X6530476Y-4000905D02*
X6532381Y-3999000D01*
X6536190Y-3997095D01*
X6545714Y-3997095D01*
X6549524Y-3999000D01*
X6551429Y-4000905D01*
X6553333Y-4004714D01*
X6553333Y-4008524D01*
X6551429Y-4014238D01*
X6528571Y-4037095D01*
X6553333Y-4037095D01*
X6578095Y-3997095D02*
X6581905Y-3997095D01*
X6585714Y-3999000D01*
X6587619Y-4000905D01*
X6589524Y-4004714D01*
X6591429Y-4012333D01*
X6591429Y-4021857D01*
X6589524Y-4029476D01*
X6587619Y-4033286D01*
X6585714Y-4035190D01*
X6581905Y-4037095D01*
X6578095Y-4037095D01*
X6574286Y-4035190D01*
X6572381Y-4033286D01*
X6570476Y-4029476D01*
X6568571Y-4021857D01*
X6568571Y-4012333D01*
X6570476Y-4004714D01*
X6572381Y-4000905D01*
X6574286Y-3999000D01*
X6578095Y-3997095D01*
X6629524Y-4037095D02*
X6606667Y-4037095D01*
X6618095Y-4037095D02*
X6618095Y-3997095D01*
X6614286Y-4002810D01*
X6610476Y-4006619D01*
X6606667Y-4008524D01*
X6665714Y-3997095D02*
X6646667Y-3997095D01*
X6644762Y-4016143D01*
X6646667Y-4014238D01*
X6650476Y-4012333D01*
X6660000Y-4012333D01*
X6663809Y-4014238D01*
X6665714Y-4016143D01*
X6667619Y-4019952D01*
X6667619Y-4029476D01*
X6665714Y-4033286D01*
X6663809Y-4035190D01*
X6660000Y-4037095D01*
X6650476Y-4037095D01*
X6646667Y-4035190D01*
X6644762Y-4033286D01*
X5760000Y-4114333D02*
X5758095Y-4112429D01*
X5754286Y-4106714D01*
X5752381Y-4102905D01*
X5750476Y-4097190D01*
X5748571Y-4087667D01*
X5748571Y-4080048D01*
X5750476Y-4070524D01*
X5752381Y-4064810D01*
X5754286Y-4061000D01*
X5758095Y-4055286D01*
X5760000Y-4053381D01*
X5792381Y-4097190D02*
X5788571Y-4099095D01*
X5780952Y-4099095D01*
X5777143Y-4097190D01*
X5775238Y-4095286D01*
X5773333Y-4091476D01*
X5773333Y-4080048D01*
X5775238Y-4076238D01*
X5777143Y-4074333D01*
X5780952Y-4072429D01*
X5788571Y-4072429D01*
X5792381Y-4074333D01*
X5805714Y-4114333D02*
X5807619Y-4112429D01*
X5811429Y-4106714D01*
X5813333Y-4102905D01*
X5815238Y-4097190D01*
X5817143Y-4087667D01*
X5817143Y-4080048D01*
X5815238Y-4070524D01*
X5813333Y-4064810D01*
X5811429Y-4061000D01*
X5807619Y-4055286D01*
X5805714Y-4053381D01*
X5864762Y-4062905D02*
X5866667Y-4061000D01*
X5870476Y-4059095D01*
X5880000Y-4059095D01*
X5883810Y-4061000D01*
X5885714Y-4062905D01*
X5887619Y-4066714D01*
X5887619Y-4070524D01*
X5885714Y-4076238D01*
X5862857Y-4099095D01*
X5887619Y-4099095D01*
X5912381Y-4059095D02*
X5916190Y-4059095D01*
X5920000Y-4061000D01*
X5921905Y-4062905D01*
X5923810Y-4066714D01*
X5925714Y-4074333D01*
X5925714Y-4083857D01*
X5923810Y-4091476D01*
X5921905Y-4095286D01*
X5920000Y-4097190D01*
X5916190Y-4099095D01*
X5912381Y-4099095D01*
X5908571Y-4097190D01*
X5906667Y-4095286D01*
X5904762Y-4091476D01*
X5902857Y-4083857D01*
X5902857Y-4074333D01*
X5904762Y-4066714D01*
X5906667Y-4062905D01*
X5908571Y-4061000D01*
X5912381Y-4059095D01*
X5963810Y-4099095D02*
X5940952Y-4099095D01*
X5952381Y-4099095D02*
X5952381Y-4059095D01*
X5948571Y-4064810D01*
X5944762Y-4068619D01*
X5940952Y-4070524D01*
X6000000Y-4059095D02*
X5980952Y-4059095D01*
X5979048Y-4078143D01*
X5980952Y-4076238D01*
X5984762Y-4074333D01*
X5994286Y-4074333D01*
X5998095Y-4076238D01*
X6000000Y-4078143D01*
X6001905Y-4081952D01*
X6001905Y-4091476D01*
X6000000Y-4095286D01*
X5998095Y-4097190D01*
X5994286Y-4099095D01*
X5984762Y-4099095D01*
X5980952Y-4097190D01*
X5979048Y-4095286D01*
X6062857Y-4078143D02*
X6068571Y-4080048D01*
X6070476Y-4081952D01*
X6072381Y-4085762D01*
X6072381Y-4091476D01*
X6070476Y-4095286D01*
X6068571Y-4097190D01*
X6064762Y-4099095D01*
X6049524Y-4099095D01*
X6049524Y-4059095D01*
X6062857Y-4059095D01*
X6066667Y-4061000D01*
X6068571Y-4062905D01*
X6070476Y-4066714D01*
X6070476Y-4070524D01*
X6068571Y-4074333D01*
X6066667Y-4076238D01*
X6062857Y-4078143D01*
X6049524Y-4078143D01*
X6097143Y-4080048D02*
X6097143Y-4099095D01*
X6083810Y-4059095D02*
X6097143Y-4080048D01*
X6110476Y-4059095D01*
X6150476Y-4059095D02*
X6160000Y-4099095D01*
X6167619Y-4070524D01*
X6175238Y-4099095D01*
X6184762Y-4059095D01*
X6198095Y-4087667D02*
X6217143Y-4087667D01*
X6194286Y-4099095D02*
X6207619Y-4059095D01*
X6220952Y-4099095D01*
X6241905Y-4080048D02*
X6241905Y-4099095D01*
X6228571Y-4059095D02*
X6241905Y-4080048D01*
X6255238Y-4059095D01*
X6268571Y-4099095D02*
X6268571Y-4059095D01*
X6291429Y-4099095D01*
X6291429Y-4059095D01*
X6310476Y-4078143D02*
X6323809Y-4078143D01*
X6329524Y-4099095D02*
X6310476Y-4099095D01*
X6310476Y-4059095D01*
X6329524Y-4059095D01*
X6398095Y-4061000D02*
X6394286Y-4059095D01*
X6388571Y-4059095D01*
X6382857Y-4061000D01*
X6379048Y-4064810D01*
X6377143Y-4068619D01*
X6375238Y-4076238D01*
X6375238Y-4081952D01*
X6377143Y-4089571D01*
X6379048Y-4093381D01*
X6382857Y-4097190D01*
X6388571Y-4099095D01*
X6392381Y-4099095D01*
X6398095Y-4097190D01*
X6400000Y-4095286D01*
X6400000Y-4081952D01*
X6392381Y-4081952D01*
X6440000Y-4099095D02*
X6426667Y-4080048D01*
X6417143Y-4099095D02*
X6417143Y-4059095D01*
X6432381Y-4059095D01*
X6436190Y-4061000D01*
X6438095Y-4062905D01*
X6440000Y-4066714D01*
X6440000Y-4072429D01*
X6438095Y-4076238D01*
X6436190Y-4078143D01*
X6432381Y-4080048D01*
X6417143Y-4080048D01*
X6455238Y-4087667D02*
X6474286Y-4087667D01*
X6451429Y-4099095D02*
X6464762Y-4059095D01*
X6478095Y-4099095D01*
X6491429Y-4099095D02*
X6491429Y-4059095D01*
X6504762Y-4087667D01*
X6518095Y-4059095D01*
X6518095Y-4099095D01*
X6556190Y-4099095D02*
X6537143Y-4099095D01*
X6537143Y-4059095D01*
X6569524Y-4099095D02*
X6569524Y-4059095D01*
X6611429Y-4095286D02*
X6609524Y-4097190D01*
X6603809Y-4099095D01*
X6600000Y-4099095D01*
X6594286Y-4097190D01*
X6590476Y-4093381D01*
X6588571Y-4089571D01*
X6586667Y-4081952D01*
X6586667Y-4076238D01*
X6588571Y-4068619D01*
X6590476Y-4064810D01*
X6594286Y-4061000D01*
X6600000Y-4059095D01*
X6603809Y-4059095D01*
X6609524Y-4061000D01*
X6611429Y-4062905D01*
X6628571Y-4099095D02*
X6628571Y-4059095D01*
X6628571Y-4078143D02*
X6651429Y-4078143D01*
X6651429Y-4099095D02*
X6651429Y-4059095D01*
D12*
X5650000Y-5275000D02*
X5700000Y-5225000D01*
X5625000Y-5275000D02*
X5650000Y-5275000D01*
X5600000Y-5300000D02*
X5625000Y-5275000D01*
X3937008Y-5905512D02*
X3937008Y-3937008D01*
X7874016Y-5905512D02*
X3937008Y-5905512D01*
X7874016Y-3937008D02*
X7874016Y-5905512D01*
X3937008Y-3937008D02*
X7874016Y-3937008D01*
D13*
X4525000Y-4352000D02*
X4525000Y-4550000D01*
X4525000Y-4550000D02*
X4425000Y-4550000D01*
X4425000Y-4550000D02*
X4425000Y-4350000D01*
X4425000Y-4350000D02*
X4525000Y-4350000D01*
X4500000Y-4350000D02*
X4525000Y-4375000D01*
X4925000Y-4352000D02*
X4925000Y-4550000D01*
X4925000Y-4550000D02*
X4825000Y-4550000D01*
X4825000Y-4550000D02*
X4825000Y-4350000D01*
X4825000Y-4350000D02*
X4925000Y-4350000D01*
X4900000Y-4350000D02*
X4925000Y-4375000D01*
D14*
X5855000Y-5150000D02*
X5695000Y-5150000D01*
X5695000Y-5250000D02*
X5855000Y-5250000D01*
X5655000Y-5150000D02*
X5495000Y-5150000D01*
X5495000Y-5250000D02*
X5655000Y-5250000D01*
X5495000Y-4700000D02*
X5655000Y-4700000D01*
X5655000Y-4600000D02*
X5495000Y-4600000D01*
X4655000Y-4600000D02*
X4495000Y-4600000D01*
X4495000Y-4700000D02*
X4655000Y-4700000D01*
X6055000Y-5150000D02*
X5895000Y-5150000D01*
X5895000Y-5250000D02*
X6055000Y-5250000D01*
X5600000Y-5780000D02*
X5600000Y-5620000D01*
X5500000Y-5620000D02*
X5500000Y-5780000D01*
X5045000Y-4700000D02*
X5205000Y-4700000D01*
X5205000Y-4600000D02*
X5045000Y-4600000D01*
X5175000Y-4500000D02*
X5135000Y-4500000D01*
X5365000Y-4500000D02*
X5415000Y-4500000D01*
D15*
X5355000Y-4450000D02*
X5355000Y-4550000D01*
X5345000Y-4450000D02*
X5345000Y-4550000D01*
X5335000Y-4450000D02*
X5335000Y-4550000D01*
X5365000Y-4450000D02*
X5365000Y-4550000D01*
X5325000Y-4450000D02*
X5375000Y-4550000D01*
X5375000Y-4450000D02*
X5325000Y-4550000D01*
X5325000Y-4450000D02*
X5325000Y-4550000D01*
X5350000Y-4450000D02*
X5350000Y-4550000D01*
X5375000Y-4550000D02*
X5375000Y-4450000D01*
X5375000Y-4450000D02*
X5175000Y-4450000D01*
X5175000Y-4450000D02*
X5175000Y-4550000D01*
X5175000Y-4550000D02*
X5375000Y-4550000D01*
D12*
X6204900Y-4194300D02*
X6046700Y-4194300D01*
X6045000Y-4195100D02*
G75*
G03X6204900Y-4195000I80000J-79900D01*
G74*
G01*
D16*
G36*
X6359100Y-4559700D02*
X6360700Y-4558900D01*
X6364200Y-4556700D01*
X6369200Y-4553400D01*
X6375100Y-4549400D01*
X6381000Y-4545400D01*
X6385900Y-4542200D01*
X6389400Y-4540000D01*
X6390800Y-4539200D01*
X6391500Y-4539400D01*
X6394400Y-4540800D01*
X6398500Y-4542900D01*
X6400800Y-4544200D01*
X6404600Y-4545800D01*
X6406500Y-4546100D01*
X6406800Y-4545600D01*
X6408200Y-4542700D01*
X6410300Y-4537800D01*
X6413200Y-4531300D01*
X6416400Y-4523700D01*
X6419900Y-4515500D01*
X6423400Y-4507100D01*
X6426700Y-4499100D01*
X6429600Y-4491900D01*
X6432000Y-4486100D01*
X6433500Y-4482100D01*
X6434100Y-4480300D01*
X6433900Y-4479900D01*
X6432000Y-4478100D01*
X6428700Y-4475600D01*
X6421700Y-4469900D01*
X6414600Y-4461100D01*
X6410400Y-4451200D01*
X6409000Y-4440200D01*
X6410200Y-4429900D01*
X6414200Y-4420100D01*
X6421000Y-4411300D01*
X6429400Y-4404700D01*
X6439100Y-4400500D01*
X6450000Y-4399200D01*
X6460400Y-4400400D01*
X6470500Y-4404300D01*
X6479300Y-4411100D01*
X6483000Y-4415400D01*
X6488200Y-4424300D01*
X6491100Y-4433900D01*
X6491500Y-4436400D01*
X6491000Y-4446900D01*
X6487900Y-4457000D01*
X6482300Y-4466000D01*
X6474600Y-4473400D01*
X6473700Y-4474100D01*
X6470100Y-4476800D01*
X6467700Y-4478600D01*
X6465800Y-4480200D01*
X6479200Y-4512500D01*
X6481400Y-4517600D01*
X6485000Y-4526400D01*
X6488300Y-4534000D01*
X6490900Y-4540100D01*
X6492600Y-4544100D01*
X6493400Y-4545700D01*
X6493500Y-4545800D01*
X6494700Y-4546000D01*
X6497200Y-4545200D01*
X6501700Y-4543000D01*
X6504700Y-4541400D01*
X6508100Y-4539800D01*
X6509600Y-4539200D01*
X6510900Y-4539900D01*
X6514200Y-4542000D01*
X6519000Y-4545200D01*
X6524800Y-4549100D01*
X6530300Y-4552900D01*
X6535400Y-4556200D01*
X6539100Y-4558600D01*
X6540800Y-4559500D01*
X6541100Y-4559500D01*
X6542700Y-4558700D01*
X6545600Y-4556200D01*
X6550000Y-4552100D01*
X6556200Y-4545900D01*
X6557200Y-4545000D01*
X6562300Y-4539800D01*
X6566500Y-4535400D01*
X6569200Y-4532300D01*
X6570200Y-4530900D01*
X6570200Y-4530900D01*
X6569300Y-4529100D01*
X6567000Y-4525500D01*
X6563600Y-4520300D01*
X6559600Y-4514300D01*
X6548900Y-4498800D01*
X6554700Y-4484100D01*
X6556500Y-4479700D01*
X6558800Y-4474200D01*
X6560500Y-4470300D01*
X6561400Y-4468600D01*
X6563000Y-4468100D01*
X6567000Y-4467100D01*
X6572800Y-4465900D01*
X6579800Y-4464600D01*
X6586400Y-4463400D01*
X6592400Y-4462300D01*
X6596700Y-4461400D01*
X6598600Y-4461000D01*
X6599100Y-4460700D01*
X6599500Y-4459800D01*
X6599700Y-4457800D01*
X6599900Y-4454100D01*
X6599900Y-4448400D01*
X6599900Y-4440200D01*
X6599900Y-4439300D01*
X6599900Y-4431400D01*
X6599700Y-4425100D01*
X6599500Y-4421000D01*
X6599200Y-4419400D01*
X6599200Y-4419400D01*
X6597400Y-4418900D01*
X6593100Y-4418000D01*
X6587200Y-4416800D01*
X6580000Y-4415500D01*
X6579600Y-4415400D01*
X6572500Y-4414000D01*
X6566600Y-4412800D01*
X6562400Y-4411800D01*
X6560600Y-4411300D01*
X6560300Y-4410800D01*
X6558800Y-4408000D01*
X6556800Y-4403600D01*
X6554500Y-4398300D01*
X6552200Y-4392700D01*
X6550100Y-4387700D01*
X6548800Y-4383900D01*
X6548400Y-4382200D01*
X6548400Y-4382200D01*
X6549500Y-4380500D01*
X6551900Y-4376800D01*
X6555400Y-4371700D01*
X6559500Y-4365700D01*
X6559800Y-4365200D01*
X6563900Y-4359200D01*
X6567200Y-4354200D01*
X6569400Y-4350500D01*
X6570200Y-4348900D01*
X6570200Y-4348800D01*
X6568900Y-4347000D01*
X6565800Y-4343600D01*
X6561400Y-4339000D01*
X6556200Y-4333700D01*
X6554500Y-4332100D01*
X6548700Y-4326400D01*
X6544600Y-4322700D01*
X6542100Y-4320700D01*
X6540900Y-4320300D01*
X6540900Y-4320300D01*
X6539100Y-4321400D01*
X6535300Y-4323900D01*
X6530100Y-4327300D01*
X6524100Y-4331500D01*
X6523600Y-4331800D01*
X6517600Y-4335800D01*
X6512600Y-4339200D01*
X6509100Y-4341600D01*
X6507500Y-4342500D01*
X6507300Y-4342500D01*
X6504800Y-4341800D01*
X6500600Y-4340300D01*
X6495300Y-4338200D01*
X6489800Y-4336000D01*
X6484700Y-4333900D01*
X6480900Y-4332200D01*
X6479200Y-4331200D01*
X6479100Y-4331100D01*
X6478500Y-4328900D01*
X6477500Y-4324400D01*
X6476200Y-4318300D01*
X6474800Y-4310900D01*
X6474600Y-4309700D01*
X6473200Y-4302600D01*
X6472100Y-4296700D01*
X6471200Y-4292600D01*
X6470800Y-4290900D01*
X6469800Y-4290700D01*
X6466300Y-4290400D01*
X6461000Y-4290300D01*
X6454500Y-4290200D01*
X6447700Y-4290300D01*
X6441100Y-4290400D01*
X6435500Y-4290600D01*
X6431400Y-4290900D01*
X6429700Y-4291200D01*
X6429700Y-4291300D01*
X6429000Y-4293500D01*
X6428100Y-4298000D01*
X6426800Y-4304300D01*
X6425400Y-4311600D01*
X6425100Y-4312900D01*
X6423800Y-4320000D01*
X6422600Y-4325900D01*
X6421700Y-4329900D01*
X6421300Y-4331500D01*
X6420600Y-4331800D01*
X6417700Y-4333100D01*
X6412900Y-4335100D01*
X6407000Y-4337500D01*
X6393200Y-4343000D01*
X6376400Y-4331500D01*
X6374900Y-4330500D01*
X6368800Y-4326300D01*
X6363800Y-4323000D01*
X6360400Y-4320800D01*
X6359000Y-4320000D01*
X6358800Y-4320000D01*
X6357100Y-4321500D01*
X6353800Y-4324600D01*
X6349300Y-4329100D01*
X6343900Y-4334300D01*
X6340000Y-4338300D01*
X6335400Y-4343000D01*
X6332500Y-4346200D01*
X6330900Y-4348200D01*
X6330300Y-4349400D01*
X6330400Y-4350300D01*
X6331500Y-4352000D01*
X6334000Y-4355700D01*
X6337500Y-4360800D01*
X6341500Y-4366800D01*
X6344900Y-4371700D01*
X6348600Y-4377400D01*
X6351000Y-4381400D01*
X6351800Y-4383400D01*
X6351600Y-4384200D01*
X6350400Y-4387500D01*
X6348400Y-4392500D01*
X6345900Y-4398400D01*
X6340000Y-4411700D01*
X6331300Y-4413400D01*
X6326000Y-4414400D01*
X6318600Y-4415800D01*
X6311500Y-4417200D01*
X6300400Y-4419400D01*
X6300000Y-4460000D01*
X6301800Y-4460700D01*
X6303400Y-4461200D01*
X6307500Y-4462100D01*
X6313300Y-4463200D01*
X6320200Y-4464500D01*
X6326100Y-4465600D01*
X6332000Y-4466800D01*
X6336300Y-4467600D01*
X6338200Y-4468000D01*
X6338700Y-4468600D01*
X6340200Y-4471500D01*
X6342200Y-4476100D01*
X6344600Y-4481500D01*
X6347000Y-4487200D01*
X6349100Y-4492500D01*
X6350500Y-4496500D01*
X6351100Y-4498600D01*
X6350200Y-4500100D01*
X6348000Y-4503600D01*
X6344700Y-4508600D01*
X6340700Y-4514400D01*
X6336700Y-4520300D01*
X6333300Y-4525400D01*
X6330900Y-4529000D01*
X6329900Y-4530600D01*
X6330400Y-4531800D01*
X6332800Y-4534600D01*
X6337200Y-4539200D01*
X6343800Y-4545800D01*
X6344900Y-4546800D01*
X6350200Y-4551900D01*
X6354600Y-4556000D01*
X6357700Y-4558700D01*
X6359100Y-4559700D01*
X6359100Y-4559700D01*
G37*
X6359100Y-4559700D02*
X6360700Y-4558900D01*
X6364200Y-4556700D01*
X6369200Y-4553400D01*
X6375100Y-4549400D01*
X6381000Y-4545400D01*
X6385900Y-4542200D01*
X6389400Y-4540000D01*
X6390800Y-4539200D01*
X6391500Y-4539400D01*
X6394400Y-4540800D01*
X6398500Y-4542900D01*
X6400800Y-4544200D01*
X6404600Y-4545800D01*
X6406500Y-4546100D01*
X6406800Y-4545600D01*
X6408200Y-4542700D01*
X6410300Y-4537800D01*
X6413200Y-4531300D01*
X6416400Y-4523700D01*
X6419900Y-4515500D01*
X6423400Y-4507100D01*
X6426700Y-4499100D01*
X6429600Y-4491900D01*
X6432000Y-4486100D01*
X6433500Y-4482100D01*
X6434100Y-4480300D01*
X6433900Y-4479900D01*
X6432000Y-4478100D01*
X6428700Y-4475600D01*
X6421700Y-4469900D01*
X6414600Y-4461100D01*
X6410400Y-4451200D01*
X6409000Y-4440200D01*
X6410200Y-4429900D01*
X6414200Y-4420100D01*
X6421000Y-4411300D01*
X6429400Y-4404700D01*
X6439100Y-4400500D01*
X6450000Y-4399200D01*
X6460400Y-4400400D01*
X6470500Y-4404300D01*
X6479300Y-4411100D01*
X6483000Y-4415400D01*
X6488200Y-4424300D01*
X6491100Y-4433900D01*
X6491500Y-4436400D01*
X6491000Y-4446900D01*
X6487900Y-4457000D01*
X6482300Y-4466000D01*
X6474600Y-4473400D01*
X6473700Y-4474100D01*
X6470100Y-4476800D01*
X6467700Y-4478600D01*
X6465800Y-4480200D01*
X6479200Y-4512500D01*
X6481400Y-4517600D01*
X6485000Y-4526400D01*
X6488300Y-4534000D01*
X6490900Y-4540100D01*
X6492600Y-4544100D01*
X6493400Y-4545700D01*
X6493500Y-4545800D01*
X6494700Y-4546000D01*
X6497200Y-4545200D01*
X6501700Y-4543000D01*
X6504700Y-4541400D01*
X6508100Y-4539800D01*
X6509600Y-4539200D01*
X6510900Y-4539900D01*
X6514200Y-4542000D01*
X6519000Y-4545200D01*
X6524800Y-4549100D01*
X6530300Y-4552900D01*
X6535400Y-4556200D01*
X6539100Y-4558600D01*
X6540800Y-4559500D01*
X6541100Y-4559500D01*
X6542700Y-4558700D01*
X6545600Y-4556200D01*
X6550000Y-4552100D01*
X6556200Y-4545900D01*
X6557200Y-4545000D01*
X6562300Y-4539800D01*
X6566500Y-4535400D01*
X6569200Y-4532300D01*
X6570200Y-4530900D01*
X6570200Y-4530900D01*
X6569300Y-4529100D01*
X6567000Y-4525500D01*
X6563600Y-4520300D01*
X6559600Y-4514300D01*
X6548900Y-4498800D01*
X6554700Y-4484100D01*
X6556500Y-4479700D01*
X6558800Y-4474200D01*
X6560500Y-4470300D01*
X6561400Y-4468600D01*
X6563000Y-4468100D01*
X6567000Y-4467100D01*
X6572800Y-4465900D01*
X6579800Y-4464600D01*
X6586400Y-4463400D01*
X6592400Y-4462300D01*
X6596700Y-4461400D01*
X6598600Y-4461000D01*
X6599100Y-4460700D01*
X6599500Y-4459800D01*
X6599700Y-4457800D01*
X6599900Y-4454100D01*
X6599900Y-4448400D01*
X6599900Y-4440200D01*
X6599900Y-4439300D01*
X6599900Y-4431400D01*
X6599700Y-4425100D01*
X6599500Y-4421000D01*
X6599200Y-4419400D01*
X6599200Y-4419400D01*
X6597400Y-4418900D01*
X6593100Y-4418000D01*
X6587200Y-4416800D01*
X6580000Y-4415500D01*
X6579600Y-4415400D01*
X6572500Y-4414000D01*
X6566600Y-4412800D01*
X6562400Y-4411800D01*
X6560600Y-4411300D01*
X6560300Y-4410800D01*
X6558800Y-4408000D01*
X6556800Y-4403600D01*
X6554500Y-4398300D01*
X6552200Y-4392700D01*
X6550100Y-4387700D01*
X6548800Y-4383900D01*
X6548400Y-4382200D01*
X6548400Y-4382200D01*
X6549500Y-4380500D01*
X6551900Y-4376800D01*
X6555400Y-4371700D01*
X6559500Y-4365700D01*
X6559800Y-4365200D01*
X6563900Y-4359200D01*
X6567200Y-4354200D01*
X6569400Y-4350500D01*
X6570200Y-4348900D01*
X6570200Y-4348800D01*
X6568900Y-4347000D01*
X6565800Y-4343600D01*
X6561400Y-4339000D01*
X6556200Y-4333700D01*
X6554500Y-4332100D01*
X6548700Y-4326400D01*
X6544600Y-4322700D01*
X6542100Y-4320700D01*
X6540900Y-4320300D01*
X6540900Y-4320300D01*
X6539100Y-4321400D01*
X6535300Y-4323900D01*
X6530100Y-4327300D01*
X6524100Y-4331500D01*
X6523600Y-4331800D01*
X6517600Y-4335800D01*
X6512600Y-4339200D01*
X6509100Y-4341600D01*
X6507500Y-4342500D01*
X6507300Y-4342500D01*
X6504800Y-4341800D01*
X6500600Y-4340300D01*
X6495300Y-4338200D01*
X6489800Y-4336000D01*
X6484700Y-4333900D01*
X6480900Y-4332200D01*
X6479200Y-4331200D01*
X6479100Y-4331100D01*
X6478500Y-4328900D01*
X6477500Y-4324400D01*
X6476200Y-4318300D01*
X6474800Y-4310900D01*
X6474600Y-4309700D01*
X6473200Y-4302600D01*
X6472100Y-4296700D01*
X6471200Y-4292600D01*
X6470800Y-4290900D01*
X6469800Y-4290700D01*
X6466300Y-4290400D01*
X6461000Y-4290300D01*
X6454500Y-4290200D01*
X6447700Y-4290300D01*
X6441100Y-4290400D01*
X6435500Y-4290600D01*
X6431400Y-4290900D01*
X6429700Y-4291200D01*
X6429700Y-4291300D01*
X6429000Y-4293500D01*
X6428100Y-4298000D01*
X6426800Y-4304300D01*
X6425400Y-4311600D01*
X6425100Y-4312900D01*
X6423800Y-4320000D01*
X6422600Y-4325900D01*
X6421700Y-4329900D01*
X6421300Y-4331500D01*
X6420600Y-4331800D01*
X6417700Y-4333100D01*
X6412900Y-4335100D01*
X6407000Y-4337500D01*
X6393200Y-4343000D01*
X6376400Y-4331500D01*
X6374900Y-4330500D01*
X6368800Y-4326300D01*
X6363800Y-4323000D01*
X6360400Y-4320800D01*
X6359000Y-4320000D01*
X6358800Y-4320000D01*
X6357100Y-4321500D01*
X6353800Y-4324600D01*
X6349300Y-4329100D01*
X6343900Y-4334300D01*
X6340000Y-4338300D01*
X6335400Y-4343000D01*
X6332500Y-4346200D01*
X6330900Y-4348200D01*
X6330300Y-4349400D01*
X6330400Y-4350300D01*
X6331500Y-4352000D01*
X6334000Y-4355700D01*
X6337500Y-4360800D01*
X6341500Y-4366800D01*
X6344900Y-4371700D01*
X6348600Y-4377400D01*
X6351000Y-4381400D01*
X6351800Y-4383400D01*
X6351600Y-4384200D01*
X6350400Y-4387500D01*
X6348400Y-4392500D01*
X6345900Y-4398400D01*
X6340000Y-4411700D01*
X6331300Y-4413400D01*
X6326000Y-4414400D01*
X6318600Y-4415800D01*
X6311500Y-4417200D01*
X6300400Y-4419400D01*
X6300000Y-4460000D01*
X6301800Y-4460700D01*
X6303400Y-4461200D01*
X6307500Y-4462100D01*
X6313300Y-4463200D01*
X6320200Y-4464500D01*
X6326100Y-4465600D01*
X6332000Y-4466800D01*
X6336300Y-4467600D01*
X6338200Y-4468000D01*
X6338700Y-4468600D01*
X6340200Y-4471500D01*
X6342200Y-4476100D01*
X6344600Y-4481500D01*
X6347000Y-4487200D01*
X6349100Y-4492500D01*
X6350500Y-4496500D01*
X6351100Y-4498600D01*
X6350200Y-4500100D01*
X6348000Y-4503600D01*
X6344700Y-4508600D01*
X6340700Y-4514400D01*
X6336700Y-4520300D01*
X6333300Y-4525400D01*
X6330900Y-4529000D01*
X6329900Y-4530600D01*
X6330400Y-4531800D01*
X6332800Y-4534600D01*
X6337200Y-4539200D01*
X6343800Y-4545800D01*
X6344900Y-4546800D01*
X6350200Y-4551900D01*
X6354600Y-4556000D01*
X6357700Y-4558700D01*
X6359100Y-4559700D01*
D15*
X4375000Y-5475000D02*
X4575000Y-5475000D01*
X4575000Y-5475000D02*
X4575000Y-5375000D01*
X4575000Y-5375000D02*
X4375000Y-5375000D01*
X4275000Y-5375000D02*
X4375000Y-5375000D01*
X4375000Y-5375000D02*
X4375000Y-5475000D01*
X4275000Y-5375000D02*
X4275000Y-5475000D01*
X4275000Y-5475000D02*
X4375000Y-5475000D01*
X3960000Y-5015000D02*
X3980000Y-5015000D01*
X3980000Y-5015000D02*
X3980000Y-4835000D01*
X3980000Y-4835000D02*
X3960000Y-4835000D01*
X4340000Y-4525000D02*
X4340000Y-5325000D01*
X4340000Y-5325000D02*
X3960000Y-5325000D01*
X3960000Y-5325000D02*
X3960000Y-4525000D01*
X3960000Y-4525000D02*
X4340000Y-4525000D01*
X4875000Y-5725000D02*
X5375000Y-5725000D01*
X5375000Y-5725000D02*
X5375000Y-5825000D01*
X5375000Y-5825000D02*
X4875000Y-5825000D01*
X4775000Y-5725000D02*
X4875000Y-5725000D01*
X4875000Y-5725000D02*
X4875000Y-5825000D01*
X4775000Y-5725000D02*
X4775000Y-5825000D01*
X4775000Y-5825000D02*
X4875000Y-5825000D01*
D17*
X5675000Y-4450000D02*
X5775000Y-4450000D01*
X5775000Y-4450000D02*
X5775000Y-4550000D01*
X5675000Y-4550000D02*
X5975000Y-4550000D01*
X5975000Y-4550000D02*
X5975000Y-4350000D01*
X5975000Y-4350000D02*
X5775000Y-4350000D01*
X5675000Y-4550000D02*
X5675000Y-4450000D01*
X5675000Y-4350000D02*
X5675000Y-4450000D01*
X5775000Y-4350000D02*
X5675000Y-4350000D01*
X7550000Y-4450000D02*
X7650000Y-4450000D01*
X7650000Y-4450000D02*
X7650000Y-4550000D01*
X7550000Y-4550000D02*
X7850000Y-4550000D01*
X7850000Y-4550000D02*
X7850000Y-4350000D01*
X7850000Y-4350000D02*
X7650000Y-4350000D01*
X7550000Y-4550000D02*
X7550000Y-4450000D01*
X7550000Y-4350000D02*
X7550000Y-4450000D01*
X7650000Y-4350000D02*
X7550000Y-4350000D01*
X7550000Y-4750000D02*
X7650000Y-4750000D01*
X7650000Y-4750000D02*
X7650000Y-4850000D01*
X7550000Y-4850000D02*
X7850000Y-4850000D01*
X7850000Y-4850000D02*
X7850000Y-4650000D01*
X7850000Y-4650000D02*
X7650000Y-4650000D01*
X7550000Y-4850000D02*
X7550000Y-4750000D01*
X7550000Y-4650000D02*
X7550000Y-4750000D01*
X7650000Y-4650000D02*
X7550000Y-4650000D01*
X7550000Y-5075000D02*
X7650000Y-5075000D01*
X7650000Y-5075000D02*
X7650000Y-5175000D01*
X7550000Y-5175000D02*
X7850000Y-5175000D01*
X7850000Y-5175000D02*
X7850000Y-4975000D01*
X7850000Y-4975000D02*
X7650000Y-4975000D01*
X7550000Y-5175000D02*
X7550000Y-5075000D01*
X7550000Y-4975000D02*
X7550000Y-5075000D01*
X7650000Y-4975000D02*
X7550000Y-4975000D01*
X7550000Y-5375000D02*
X7650000Y-5375000D01*
X7650000Y-5375000D02*
X7650000Y-5475000D01*
X7550000Y-5475000D02*
X7850000Y-5475000D01*
X7850000Y-5475000D02*
X7850000Y-5275000D01*
X7850000Y-5275000D02*
X7650000Y-5275000D01*
X7550000Y-5475000D02*
X7550000Y-5375000D01*
X7550000Y-5275000D02*
X7550000Y-5375000D01*
X7650000Y-5275000D02*
X7550000Y-5275000D01*
X4725000Y-5225000D02*
X4775000Y-5225000D01*
X4525000Y-5225000D02*
X4475000Y-5225000D01*
X4525000Y-5175000D02*
X4525000Y-5275000D01*
X4525000Y-5275000D02*
X4725000Y-5275000D01*
X4725000Y-5275000D02*
X4725000Y-5175000D01*
X4725000Y-5175000D02*
X4525000Y-5175000D01*
X5775000Y-5725000D02*
X5725000Y-5725000D01*
X5975000Y-5725000D02*
X6025000Y-5725000D01*
X5975000Y-5775000D02*
X5975000Y-5675000D01*
X5975000Y-5675000D02*
X5775000Y-5675000D01*
X5775000Y-5675000D02*
X5775000Y-5775000D01*
X5775000Y-5775000D02*
X5975000Y-5775000D01*
X5975000Y-5575000D02*
X6025000Y-5575000D01*
X5775000Y-5575000D02*
X5725000Y-5575000D01*
X5775000Y-5525000D02*
X5775000Y-5625000D01*
X5775000Y-5625000D02*
X5975000Y-5625000D01*
X5975000Y-5625000D02*
X5975000Y-5525000D01*
X5975000Y-5525000D02*
X5775000Y-5525000D01*
X6225000Y-5425000D02*
X6225000Y-5375000D01*
X6225000Y-5625000D02*
X6225000Y-5675000D01*
X6175000Y-5625000D02*
X6275000Y-5625000D01*
X6275000Y-5625000D02*
X6275000Y-5425000D01*
X6275000Y-5425000D02*
X6175000Y-5425000D01*
X6175000Y-5425000D02*
X6175000Y-5625000D01*
X5075000Y-5225000D02*
X5025000Y-5225000D01*
X5275000Y-5225000D02*
X5325000Y-5225000D01*
X5275000Y-5275000D02*
X5275000Y-5175000D01*
X5275000Y-5175000D02*
X5075000Y-5175000D01*
X5075000Y-5175000D02*
X5075000Y-5275000D01*
X5075000Y-5275000D02*
X5275000Y-5275000D01*
X4650000Y-5450000D02*
X4650000Y-5400000D01*
X4650000Y-5650000D02*
X4650000Y-5700000D01*
X4600000Y-5650000D02*
X4700000Y-5650000D01*
X4700000Y-5650000D02*
X4700000Y-5450000D01*
X4700000Y-5450000D02*
X4600000Y-5450000D01*
X4600000Y-5450000D02*
X4600000Y-5650000D01*
X5375000Y-4375000D02*
X5425000Y-4375000D01*
X5175000Y-4375000D02*
X5125000Y-4375000D01*
X5175000Y-4325000D02*
X5175000Y-4425000D01*
X5175000Y-4425000D02*
X5375000Y-4425000D01*
X5375000Y-4425000D02*
X5375000Y-4325000D01*
X5375000Y-4325000D02*
X5175000Y-4325000D01*
X7450000Y-4325000D02*
X7450000Y-5125000D01*
X7450000Y-5125000D02*
X7350000Y-5125000D01*
X7350000Y-5125000D02*
X7350000Y-4325000D01*
X7450000Y-4225000D02*
X7450000Y-4325000D01*
X7450000Y-4325000D02*
X7350000Y-4325000D01*
X7450000Y-4225000D02*
X7350000Y-4225000D01*
X7350000Y-4225000D02*
X7350000Y-4325000D01*
D14*
X5068100Y-4143900D02*
X5068100Y-4134100D01*
X4831900Y-4143900D02*
X4831900Y-4134100D01*
X5068100Y-4006100D02*
X5068100Y-4015900D01*
X4831900Y-4006100D02*
X4831900Y-4015900D01*
X4831900Y-4143900D02*
X5068100Y-4143900D01*
X4831900Y-4006100D02*
X5068100Y-4006100D01*
X4725000Y-5400000D02*
X5525000Y-5400000D01*
X5525000Y-5600000D02*
X4725000Y-5600000D01*
X4725000Y-5600000D02*
X4725000Y-5400000D01*
X4725000Y-5450000D02*
X4775000Y-5450000D01*
X4775000Y-5450000D02*
X4775000Y-5550000D01*
X4775000Y-5550000D02*
X4725000Y-5550000D01*
X5525000Y-5400000D02*
X5525000Y-5600000D01*
D15*
X4625000Y-4725000D02*
X4625000Y-4775000D01*
X4625000Y-4775000D02*
X4525000Y-4775000D01*
X4525000Y-4775000D02*
X4525000Y-4725000D01*
X4675000Y-4725000D02*
X4675000Y-5125000D01*
X4675000Y-5125000D02*
X4475000Y-5125000D01*
X4475000Y-5125000D02*
X4475000Y-4725000D01*
X4475000Y-4725000D02*
X4675000Y-4725000D01*
D14*
X4825000Y-4825000D02*
X6325000Y-4825000D01*
X6325000Y-4825000D02*
X6325000Y-5025000D01*
X6325000Y-5025000D02*
X4825000Y-5025000D01*
X4825000Y-5025000D02*
X4825000Y-4825000D01*
X4825000Y-4875000D02*
X4875000Y-4875000D01*
X4875000Y-4875000D02*
X4875000Y-4975000D01*
X4875000Y-4975000D02*
X4825000Y-4975000D01*
D15*
X7150000Y-4000000D02*
X7150000Y-4050000D01*
X7150000Y-4050000D02*
X7050000Y-4050000D01*
X7050000Y-4050000D02*
X7050000Y-4000000D01*
X7200000Y-4000000D02*
X7200000Y-4400000D01*
X7200000Y-4400000D02*
X7000000Y-4400000D01*
X7000000Y-4400000D02*
X7000000Y-4000000D01*
X7000000Y-4000000D02*
X7200000Y-4000000D01*
X7150000Y-4450000D02*
X7150000Y-4500000D01*
X7150000Y-4500000D02*
X7050000Y-4500000D01*
X7050000Y-4500000D02*
X7050000Y-4450000D01*
X7200000Y-4450000D02*
X7200000Y-4850000D01*
X7200000Y-4850000D02*
X7000000Y-4850000D01*
X7000000Y-4850000D02*
X7000000Y-4450000D01*
X7000000Y-4450000D02*
X7200000Y-4450000D01*
X7150000Y-4925000D02*
X7150000Y-4975000D01*
X7150000Y-4975000D02*
X7050000Y-4975000D01*
X7050000Y-4975000D02*
X7050000Y-4925000D01*
X7200000Y-4925000D02*
X7200000Y-5325000D01*
X7200000Y-5325000D02*
X7000000Y-5325000D01*
X7000000Y-5325000D02*
X7000000Y-4925000D01*
X7000000Y-4925000D02*
X7200000Y-4925000D01*
X7150000Y-5375000D02*
X7150000Y-5425000D01*
X7150000Y-5425000D02*
X7050000Y-5425000D01*
X7050000Y-5425000D02*
X7050000Y-5375000D01*
X7200000Y-5375000D02*
X7200000Y-5775000D01*
X7200000Y-5775000D02*
X7000000Y-5775000D01*
X7000000Y-5775000D02*
X7000000Y-5375000D01*
X7000000Y-5375000D02*
X7200000Y-5375000D01*
D14*
X6010000Y-5335600D02*
X6017900Y-5351400D01*
X6017900Y-5351400D02*
X6021900Y-5375000D01*
X6021900Y-5375000D02*
X6017900Y-5394700D01*
X6017900Y-5394700D02*
X6002200Y-5422200D01*
X6002200Y-5422200D02*
X5978500Y-5438000D01*
X5978500Y-5438000D02*
X5954900Y-5445900D01*
X5954900Y-5445900D02*
X5695100Y-5445900D01*
X5695100Y-5445900D02*
X5667500Y-5438000D01*
X5667500Y-5438000D02*
X5651800Y-5426200D01*
X5651800Y-5426200D02*
X5636000Y-5406500D01*
X5636000Y-5406500D02*
X5628100Y-5382900D01*
X5628100Y-5382900D02*
X5628100Y-5363200D01*
X5628100Y-5363200D02*
X5636000Y-5343500D01*
X5636000Y-5343500D02*
X5655700Y-5319900D01*
X5655700Y-5319900D02*
X5675400Y-5308100D01*
X5675400Y-5308100D02*
X5695100Y-5304100D01*
X5699000Y-5304100D02*
X5958900Y-5304100D01*
X5958900Y-5304100D02*
X5974600Y-5308100D01*
X5974600Y-5308100D02*
X5994300Y-5319900D01*
X5994300Y-5319900D02*
X6014000Y-5339600D01*
X5699400Y-5283300D02*
X5681300Y-5285200D01*
X5681300Y-5285200D02*
X5665600Y-5289600D01*
X5665600Y-5289600D02*
X5648600Y-5298200D01*
X5648600Y-5298200D02*
X5637200Y-5307300D01*
X5637200Y-5307300D02*
X5624200Y-5321100D01*
X5624200Y-5321100D02*
X5612800Y-5342300D01*
X5612800Y-5342300D02*
X5607700Y-5365900D01*
X5607700Y-5365900D02*
X5607700Y-5386000D01*
X5607700Y-5386000D02*
X5614400Y-5413600D01*
X5614400Y-5413600D02*
X5630100Y-5436800D01*
X5630100Y-5436800D02*
X5648200Y-5451400D01*
X5648200Y-5451400D02*
X5664800Y-5459600D01*
X5664800Y-5459600D02*
X5682500Y-5465900D01*
X5682500Y-5465900D02*
X5699800Y-5467100D01*
X5988800Y-5458500D02*
X6003700Y-5449800D01*
X6003700Y-5449800D02*
X6016300Y-5438800D01*
X6016300Y-5438800D02*
X6026200Y-5425800D01*
X6026200Y-5425800D02*
X6038000Y-5404100D01*
X6038000Y-5404100D02*
X6042300Y-5385600D01*
X6042300Y-5385600D02*
X6043100Y-5367500D01*
X6043100Y-5367500D02*
X6039600Y-5349400D01*
X6039600Y-5349400D02*
X6032100Y-5331700D01*
X6032100Y-5331700D02*
X6017900Y-5313200D01*
X6017900Y-5313200D02*
X6004100Y-5300600D01*
X6004100Y-5300600D02*
X5988800Y-5291500D01*
X5988800Y-5291500D02*
X5971900Y-5286000D01*
X5971900Y-5286000D02*
X5954500Y-5283300D01*
X5699000Y-5466700D02*
X5953000Y-5466700D01*
X5953000Y-5466700D02*
X5969500Y-5465200D01*
X5969500Y-5465200D02*
X5988800Y-5458500D01*
X5699000Y-5283300D02*
X5953000Y-5283300D01*
D17*
X4588699Y-4375522D02*
G75*
G03X4761000Y-4375000I86301J-49478D01*
G74*
G01*
X4761000Y-4375000D02*
X4588000Y-4375000D01*
X7450000Y-5500000D02*
X7475000Y-5500000D01*
X7475000Y-5500000D02*
X7475000Y-5550000D01*
X7475000Y-5550000D02*
X7450000Y-5550000D01*
X7450000Y-5300000D02*
X7475000Y-5300000D01*
X7475000Y-5300000D02*
X7475000Y-5450000D01*
X7475000Y-5450000D02*
X7450000Y-5450000D01*
X7350000Y-5575000D02*
X7300000Y-5575000D01*
X7300000Y-5575000D02*
X7300000Y-5275000D01*
X7300000Y-5275000D02*
X7350000Y-5275000D01*
D15*
X7450000Y-5475000D02*
X7450000Y-5275000D01*
X7450000Y-5275000D02*
X7350000Y-5275000D01*
X7350000Y-5275000D02*
X7350000Y-5475000D01*
X7350000Y-5575000D02*
X7350000Y-5475000D01*
X7350000Y-5475000D02*
X7450000Y-5475000D01*
X7350000Y-5575000D02*
X7450000Y-5575000D01*
X7450000Y-5575000D02*
X7450000Y-5475000D01*
D17*
X5775000Y-4250000D02*
X5825000Y-4250000D01*
X5575000Y-4250000D02*
X5525000Y-4250000D01*
X5575000Y-4200000D02*
X5575000Y-4300000D01*
X5575000Y-4300000D02*
X5775000Y-4300000D01*
X5775000Y-4300000D02*
X5775000Y-4200000D01*
X5775000Y-4200000D02*
X5575000Y-4200000D01*
X6725000Y-4975000D02*
X6775000Y-4975000D01*
X6525000Y-4975000D02*
X6475000Y-4975000D01*
X6525000Y-4925000D02*
X6525000Y-5025000D01*
X6525000Y-5025000D02*
X6725000Y-5025000D01*
X6725000Y-5025000D02*
X6725000Y-4925000D01*
X6725000Y-4925000D02*
X6525000Y-4925000D01*
X6725000Y-5175000D02*
X6775000Y-5175000D01*
X6525000Y-5175000D02*
X6475000Y-5175000D01*
X6525000Y-5125000D02*
X6525000Y-5225000D01*
X6525000Y-5225000D02*
X6725000Y-5225000D01*
X6725000Y-5225000D02*
X6725000Y-5125000D01*
X6725000Y-5125000D02*
X6525000Y-5125000D01*
X6725000Y-5425000D02*
X6775000Y-5425000D01*
X6525000Y-5425000D02*
X6475000Y-5425000D01*
X6525000Y-5375000D02*
X6525000Y-5475000D01*
X6525000Y-5475000D02*
X6725000Y-5475000D01*
X6725000Y-5475000D02*
X6725000Y-5375000D01*
X6725000Y-5375000D02*
X6525000Y-5375000D01*
X6725000Y-5625000D02*
X6775000Y-5625000D01*
X6525000Y-5625000D02*
X6475000Y-5625000D01*
X6525000Y-5575000D02*
X6525000Y-5675000D01*
X6525000Y-5675000D02*
X6725000Y-5675000D01*
X6725000Y-5675000D02*
X6725000Y-5575000D01*
X6725000Y-5575000D02*
X6525000Y-5575000D01*
D12*
X4468333Y-4314286D02*
X4466429Y-4316190D01*
X4460714Y-4318095D01*
X4456905Y-4318095D01*
X4451191Y-4316190D01*
X4447381Y-4312381D01*
X4445476Y-4308571D01*
X4443571Y-4300952D01*
X4443571Y-4295238D01*
X4445476Y-4287619D01*
X4447381Y-4283810D01*
X4451191Y-4280000D01*
X4456905Y-4278095D01*
X4460714Y-4278095D01*
X4466429Y-4280000D01*
X4468333Y-4281905D01*
X4506429Y-4318095D02*
X4483571Y-4318095D01*
X4495000Y-4318095D02*
X4495000Y-4278095D01*
X4491191Y-4283810D01*
X4487381Y-4287619D01*
X4483571Y-4289524D01*
X4868333Y-4314286D02*
X4866429Y-4316190D01*
X4860714Y-4318095D01*
X4856905Y-4318095D01*
X4851191Y-4316190D01*
X4847381Y-4312381D01*
X4845476Y-4308571D01*
X4843571Y-4300952D01*
X4843571Y-4295238D01*
X4845476Y-4287619D01*
X4847381Y-4283810D01*
X4851191Y-4280000D01*
X4856905Y-4278095D01*
X4860714Y-4278095D01*
X4866429Y-4280000D01*
X4868333Y-4281905D01*
X4902619Y-4291429D02*
X4902619Y-4318095D01*
X4893095Y-4276190D02*
X4883571Y-4304762D01*
X4908333Y-4304762D01*
X5543333Y-5314286D02*
X5541429Y-5316190D01*
X5535714Y-5318095D01*
X5531905Y-5318095D01*
X5526191Y-5316190D01*
X5522381Y-5312381D01*
X5520476Y-5308571D01*
X5518571Y-5300952D01*
X5518571Y-5295238D01*
X5520476Y-5287619D01*
X5522381Y-5283810D01*
X5526191Y-5280000D01*
X5531905Y-5278095D01*
X5535714Y-5278095D01*
X5541429Y-5280000D01*
X5543333Y-5281905D01*
X5579524Y-5278095D02*
X5560476Y-5278095D01*
X5558571Y-5297143D01*
X5560476Y-5295238D01*
X5564286Y-5293333D01*
X5573810Y-5293333D01*
X5577619Y-5295238D01*
X5579524Y-5297143D01*
X5581429Y-5300952D01*
X5581429Y-5310476D01*
X5579524Y-5314286D01*
X5577619Y-5316190D01*
X5573810Y-5318095D01*
X5564286Y-5318095D01*
X5560476Y-5316190D01*
X5558571Y-5314286D01*
X5443333Y-5164286D02*
X5441429Y-5166190D01*
X5435714Y-5168095D01*
X5431905Y-5168095D01*
X5426191Y-5166190D01*
X5422381Y-5162381D01*
X5420476Y-5158571D01*
X5418571Y-5150952D01*
X5418571Y-5145238D01*
X5420476Y-5137619D01*
X5422381Y-5133810D01*
X5426191Y-5130000D01*
X5431905Y-5128095D01*
X5435714Y-5128095D01*
X5441429Y-5130000D01*
X5443333Y-5131905D01*
X5477619Y-5128095D02*
X5470000Y-5128095D01*
X5466191Y-5130000D01*
X5464286Y-5131905D01*
X5460476Y-5137619D01*
X5458571Y-5145238D01*
X5458571Y-5160476D01*
X5460476Y-5164286D01*
X5462381Y-5166190D01*
X5466191Y-5168095D01*
X5473810Y-5168095D01*
X5477619Y-5166190D01*
X5479524Y-5164286D01*
X5481429Y-5160476D01*
X5481429Y-5150952D01*
X5479524Y-5147143D01*
X5477619Y-5145238D01*
X5473810Y-5143333D01*
X5466191Y-5143333D01*
X5462381Y-5145238D01*
X5460476Y-5147143D01*
X5458571Y-5150952D01*
X5418333Y-4664286D02*
X5416429Y-4666190D01*
X5410714Y-4668095D01*
X5406905Y-4668095D01*
X5401191Y-4666190D01*
X5397381Y-4662381D01*
X5395476Y-4658571D01*
X5393571Y-4650952D01*
X5393571Y-4645238D01*
X5395476Y-4637619D01*
X5397381Y-4633810D01*
X5401191Y-4630000D01*
X5406905Y-4628095D01*
X5410714Y-4628095D01*
X5416429Y-4630000D01*
X5418333Y-4631905D01*
X5431667Y-4628095D02*
X5458333Y-4628095D01*
X5441191Y-4668095D01*
X4718333Y-4664286D02*
X4716429Y-4666190D01*
X4710714Y-4668095D01*
X4706905Y-4668095D01*
X4701191Y-4666190D01*
X4697381Y-4662381D01*
X4695476Y-4658571D01*
X4693571Y-4650952D01*
X4693571Y-4645238D01*
X4695476Y-4637619D01*
X4697381Y-4633810D01*
X4701191Y-4630000D01*
X4706905Y-4628095D01*
X4710714Y-4628095D01*
X4716429Y-4630000D01*
X4718333Y-4631905D01*
X4741191Y-4645238D02*
X4737381Y-4643333D01*
X4735476Y-4641429D01*
X4733571Y-4637619D01*
X4733571Y-4635714D01*
X4735476Y-4631905D01*
X4737381Y-4630000D01*
X4741191Y-4628095D01*
X4748810Y-4628095D01*
X4752619Y-4630000D01*
X4754524Y-4631905D01*
X4756429Y-4635714D01*
X4756429Y-4637619D01*
X4754524Y-4641429D01*
X4752619Y-4643333D01*
X4748810Y-4645238D01*
X4741191Y-4645238D01*
X4737381Y-4647143D01*
X4735476Y-4649048D01*
X4733571Y-4652857D01*
X4733571Y-4660476D01*
X4735476Y-4664286D01*
X4737381Y-4666190D01*
X4741191Y-4668095D01*
X4748810Y-4668095D01*
X4752619Y-4666190D01*
X4754524Y-4664286D01*
X4756429Y-4660476D01*
X4756429Y-4652857D01*
X4754524Y-4649048D01*
X4752619Y-4647143D01*
X4748810Y-4645238D01*
X6093333Y-5214286D02*
X6091429Y-5216190D01*
X6085714Y-5218095D01*
X6081905Y-5218095D01*
X6076191Y-5216190D01*
X6072381Y-5212381D01*
X6070476Y-5208571D01*
X6068571Y-5200952D01*
X6068571Y-5195238D01*
X6070476Y-5187619D01*
X6072381Y-5183810D01*
X6076191Y-5180000D01*
X6081905Y-5178095D01*
X6085714Y-5178095D01*
X6091429Y-5180000D01*
X6093333Y-5181905D01*
X6112381Y-5218095D02*
X6120000Y-5218095D01*
X6123810Y-5216190D01*
X6125714Y-5214286D01*
X6129524Y-5208571D01*
X6131429Y-5200952D01*
X6131429Y-5185714D01*
X6129524Y-5181905D01*
X6127619Y-5180000D01*
X6123810Y-5178095D01*
X6116191Y-5178095D01*
X6112381Y-5180000D01*
X6110476Y-5181905D01*
X6108571Y-5185714D01*
X6108571Y-5195238D01*
X6110476Y-5199048D01*
X6112381Y-5200952D01*
X6116191Y-5202857D01*
X6123810Y-5202857D01*
X6127619Y-5200952D01*
X6129524Y-5199048D01*
X6131429Y-5195238D01*
X5524286Y-5839286D02*
X5522381Y-5841190D01*
X5516667Y-5843095D01*
X5512857Y-5843095D01*
X5507143Y-5841190D01*
X5503333Y-5837381D01*
X5501429Y-5833571D01*
X5499524Y-5825952D01*
X5499524Y-5820238D01*
X5501429Y-5812619D01*
X5503333Y-5808810D01*
X5507143Y-5805000D01*
X5512857Y-5803095D01*
X5516667Y-5803095D01*
X5522381Y-5805000D01*
X5524286Y-5806905D01*
X5562381Y-5843095D02*
X5539524Y-5843095D01*
X5550952Y-5843095D02*
X5550952Y-5803095D01*
X5547143Y-5808810D01*
X5543333Y-5812619D01*
X5539524Y-5814524D01*
X5587143Y-5803095D02*
X5590952Y-5803095D01*
X5594762Y-5805000D01*
X5596667Y-5806905D01*
X5598571Y-5810714D01*
X5600476Y-5818333D01*
X5600476Y-5827857D01*
X5598571Y-5835476D01*
X5596667Y-5839286D01*
X5594762Y-5841190D01*
X5590952Y-5843095D01*
X5587143Y-5843095D01*
X5583333Y-5841190D01*
X5581429Y-5839286D01*
X5579524Y-5835476D01*
X5577619Y-5827857D01*
X5577619Y-5818333D01*
X5579524Y-5810714D01*
X5581429Y-5806905D01*
X5583333Y-5805000D01*
X5587143Y-5803095D01*
X4949286Y-4664286D02*
X4947381Y-4666190D01*
X4941667Y-4668095D01*
X4937857Y-4668095D01*
X4932143Y-4666190D01*
X4928333Y-4662381D01*
X4926429Y-4658571D01*
X4924524Y-4650952D01*
X4924524Y-4645238D01*
X4926429Y-4637619D01*
X4928333Y-4633810D01*
X4932143Y-4630000D01*
X4937857Y-4628095D01*
X4941667Y-4628095D01*
X4947381Y-4630000D01*
X4949286Y-4631905D01*
X4987381Y-4668095D02*
X4964524Y-4668095D01*
X4975952Y-4668095D02*
X4975952Y-4628095D01*
X4972143Y-4633810D01*
X4968333Y-4637619D01*
X4964524Y-4639524D01*
X5025476Y-4668095D02*
X5002619Y-4668095D01*
X5014048Y-4668095D02*
X5014048Y-4628095D01*
X5010238Y-4633810D01*
X5006429Y-4637619D01*
X5002619Y-4639524D01*
X5295476Y-4618095D02*
X5295476Y-4578095D01*
X5305000Y-4578095D01*
X5310714Y-4580000D01*
X5314524Y-4583810D01*
X5316429Y-4587619D01*
X5318333Y-4595238D01*
X5318333Y-4600952D01*
X5316429Y-4608571D01*
X5314524Y-4612381D01*
X5310714Y-4616190D01*
X5305000Y-4618095D01*
X5295476Y-4618095D01*
X5356429Y-4618095D02*
X5333571Y-4618095D01*
X5345000Y-4618095D02*
X5345000Y-4578095D01*
X5341191Y-4583810D01*
X5337381Y-4587619D01*
X5333571Y-4589524D01*
X5383384Y-4570180D02*
X5413860Y-4570180D01*
X5125116Y-4564274D02*
X5155592Y-4564274D01*
X5140354Y-4579513D02*
X5140354Y-4549036D01*
X6245476Y-4218095D02*
X6245476Y-4178095D01*
X6255000Y-4178095D01*
X6260714Y-4180000D01*
X6264524Y-4183810D01*
X6266429Y-4187619D01*
X6268333Y-4195238D01*
X6268333Y-4200952D01*
X6266429Y-4208571D01*
X6264524Y-4212381D01*
X6260714Y-4216190D01*
X6255000Y-4218095D01*
X6245476Y-4218095D01*
X6283571Y-4181905D02*
X6285476Y-4180000D01*
X6289286Y-4178095D01*
X6298810Y-4178095D01*
X6302619Y-4180000D01*
X6304524Y-4181905D01*
X6306429Y-4185714D01*
X6306429Y-4189524D01*
X6304524Y-4195238D01*
X6281667Y-4218095D01*
X6306429Y-4218095D01*
X6109762Y-4152857D02*
X6140238Y-4152857D01*
X6109762Y-4427857D02*
X6140238Y-4427857D01*
X6125000Y-4443095D02*
X6125000Y-4412619D01*
X4103382Y-4151954D02*
X4103382Y-4111954D01*
X4103382Y-4131001D02*
X4126239Y-4131001D01*
X4126239Y-4151954D02*
X4126239Y-4111954D01*
X4166239Y-4151954D02*
X4143382Y-4151954D01*
X4154811Y-4151954D02*
X4154811Y-4111954D01*
X4151001Y-4117668D01*
X4147192Y-4121477D01*
X4143382Y-4123382D01*
X7646689Y-4151954D02*
X7646689Y-4111954D01*
X7646689Y-4131001D02*
X7669546Y-4131001D01*
X7669546Y-4151954D02*
X7669546Y-4111954D01*
X7686689Y-4115763D02*
X7688594Y-4113858D01*
X7692403Y-4111954D01*
X7701927Y-4111954D01*
X7705737Y-4113858D01*
X7707642Y-4115763D01*
X7709546Y-4119573D01*
X7709546Y-4123382D01*
X7707642Y-4129096D01*
X7684784Y-4151954D01*
X7709546Y-4151954D01*
X4103382Y-5726757D02*
X4103382Y-5686757D01*
X4103382Y-5705804D02*
X4126239Y-5705804D01*
X4126239Y-5726757D02*
X4126239Y-5686757D01*
X4141477Y-5686757D02*
X4166239Y-5686757D01*
X4152906Y-5701995D01*
X4158620Y-5701995D01*
X4162430Y-5703900D01*
X4164334Y-5705804D01*
X4166239Y-5709614D01*
X4166239Y-5719138D01*
X4164334Y-5722947D01*
X4162430Y-5724852D01*
X4158620Y-5726757D01*
X4147192Y-5726757D01*
X4143382Y-5724852D01*
X4141477Y-5722947D01*
X7646689Y-5726757D02*
X7646689Y-5686757D01*
X7646689Y-5705804D02*
X7669546Y-5705804D01*
X7669546Y-5726757D02*
X7669546Y-5686757D01*
X7705737Y-5700090D02*
X7705737Y-5726757D01*
X7696213Y-5684852D02*
X7686689Y-5713423D01*
X7711451Y-5713423D01*
X4211667Y-5403095D02*
X4211667Y-5431667D01*
X4209762Y-5437381D01*
X4205952Y-5441190D01*
X4200238Y-5443095D01*
X4196429Y-5443095D01*
X4251667Y-5443095D02*
X4228810Y-5443095D01*
X4240238Y-5443095D02*
X4240238Y-5403095D01*
X4236429Y-5408810D01*
X4232619Y-5412619D01*
X4228810Y-5414524D01*
X4044524Y-4493095D02*
X4044524Y-4453095D01*
X4067381Y-4493095D01*
X4067381Y-4453095D01*
X4107381Y-4493095D02*
X4084524Y-4493095D01*
X4095952Y-4493095D02*
X4095952Y-4453095D01*
X4092143Y-4458810D01*
X4088333Y-4462619D01*
X4084524Y-4464524D01*
X4700124Y-5726595D02*
X4700124Y-5686595D01*
X4722981Y-5726595D01*
X4722981Y-5686595D01*
X4759171Y-5699929D02*
X4759171Y-5726595D01*
X4749648Y-5684690D02*
X4740124Y-5713262D01*
X4764886Y-5713262D01*
X5706024Y-4620595D02*
X5706024Y-4580595D01*
X5728881Y-4620595D01*
X5728881Y-4580595D01*
X5765071Y-4580595D02*
X5757452Y-4580595D01*
X5753643Y-4582500D01*
X5751738Y-4584405D01*
X5747929Y-4590119D01*
X5746024Y-4597738D01*
X5746024Y-4612976D01*
X5747929Y-4616786D01*
X5749833Y-4618690D01*
X5753643Y-4620595D01*
X5761262Y-4620595D01*
X5765071Y-4618690D01*
X5766976Y-4616786D01*
X5768881Y-4612976D01*
X5768881Y-4603452D01*
X5766976Y-4599643D01*
X5765071Y-4597738D01*
X5761262Y-4595833D01*
X5753643Y-4595833D01*
X5749833Y-4597738D01*
X5747929Y-4599643D01*
X5746024Y-4603452D01*
X7566476Y-4610095D02*
X7566476Y-4570095D01*
X7589333Y-4610095D01*
X7589333Y-4570095D01*
X7629333Y-4610095D02*
X7606476Y-4610095D01*
X7617905Y-4610095D02*
X7617905Y-4570095D01*
X7614095Y-4575810D01*
X7610286Y-4579619D01*
X7606476Y-4581524D01*
X7667429Y-4610095D02*
X7644571Y-4610095D01*
X7656000Y-4610095D02*
X7656000Y-4570095D01*
X7652191Y-4575810D01*
X7648381Y-4579619D01*
X7644571Y-4581524D01*
X7558076Y-4910895D02*
X7558076Y-4870895D01*
X7580933Y-4910895D01*
X7580933Y-4870895D01*
X7620933Y-4910895D02*
X7598076Y-4910895D01*
X7609505Y-4910895D02*
X7609505Y-4870895D01*
X7605695Y-4876610D01*
X7601886Y-4880419D01*
X7598076Y-4882324D01*
X7636171Y-4874705D02*
X7638076Y-4872800D01*
X7641886Y-4870895D01*
X7651410Y-4870895D01*
X7655219Y-4872800D01*
X7657124Y-4874705D01*
X7659029Y-4878514D01*
X7659029Y-4882324D01*
X7657124Y-4888038D01*
X7634267Y-4910895D01*
X7659029Y-4910895D01*
X7560276Y-5238695D02*
X7560276Y-5198695D01*
X7583133Y-5238695D01*
X7583133Y-5198695D01*
X7623133Y-5238695D02*
X7600276Y-5238695D01*
X7611705Y-5238695D02*
X7611705Y-5198695D01*
X7607895Y-5204410D01*
X7604086Y-5208219D01*
X7600276Y-5210124D01*
X7636467Y-5198695D02*
X7661229Y-5198695D01*
X7647895Y-5213933D01*
X7653610Y-5213933D01*
X7657419Y-5215838D01*
X7659324Y-5217743D01*
X7661229Y-5221552D01*
X7661229Y-5231076D01*
X7659324Y-5234886D01*
X7657419Y-5236790D01*
X7653610Y-5238695D01*
X7642181Y-5238695D01*
X7638371Y-5236790D01*
X7636467Y-5234886D01*
X7559476Y-5541095D02*
X7559476Y-5501095D01*
X7582333Y-5541095D01*
X7582333Y-5501095D01*
X7622333Y-5541095D02*
X7599476Y-5541095D01*
X7610905Y-5541095D02*
X7610905Y-5501095D01*
X7607095Y-5506810D01*
X7603286Y-5510619D01*
X7599476Y-5512524D01*
X7656619Y-5514429D02*
X7656619Y-5541095D01*
X7647095Y-5499190D02*
X7637571Y-5527762D01*
X7662333Y-5527762D01*
X4468333Y-5318095D02*
X4455000Y-5299048D01*
X4445476Y-5318095D02*
X4445476Y-5278095D01*
X4460714Y-5278095D01*
X4464524Y-5280000D01*
X4466429Y-5281905D01*
X4468333Y-5285714D01*
X4468333Y-5291429D01*
X4466429Y-5295238D01*
X4464524Y-5297143D01*
X4460714Y-5299048D01*
X4445476Y-5299048D01*
X4483571Y-5281905D02*
X4485476Y-5280000D01*
X4489286Y-5278095D01*
X4498810Y-5278095D01*
X4502619Y-5280000D01*
X4504524Y-5281905D01*
X4506429Y-5285714D01*
X4506429Y-5289524D01*
X4504524Y-5295238D01*
X4481667Y-5318095D01*
X4506429Y-5318095D01*
X5869514Y-5834828D02*
X5856181Y-5815780D01*
X5846657Y-5834828D02*
X5846657Y-5794828D01*
X5861895Y-5794828D01*
X5865705Y-5796732D01*
X5867610Y-5798637D01*
X5869514Y-5802447D01*
X5869514Y-5808161D01*
X5867610Y-5811970D01*
X5865705Y-5813875D01*
X5861895Y-5815780D01*
X5846657Y-5815780D01*
X5882848Y-5794828D02*
X5907610Y-5794828D01*
X5894276Y-5810066D01*
X5899991Y-5810066D01*
X5903800Y-5811970D01*
X5905705Y-5813875D01*
X5907610Y-5817685D01*
X5907610Y-5827208D01*
X5905705Y-5831018D01*
X5903800Y-5832923D01*
X5899991Y-5834828D01*
X5888562Y-5834828D01*
X5884753Y-5832923D01*
X5882848Y-5831018D01*
X6068333Y-5493095D02*
X6055000Y-5474048D01*
X6045476Y-5493095D02*
X6045476Y-5453095D01*
X6060714Y-5453095D01*
X6064524Y-5455000D01*
X6066429Y-5456905D01*
X6068333Y-5460714D01*
X6068333Y-5466429D01*
X6066429Y-5470238D01*
X6064524Y-5472143D01*
X6060714Y-5474048D01*
X6045476Y-5474048D01*
X6102619Y-5466429D02*
X6102619Y-5493095D01*
X6093095Y-5451190D02*
X6083571Y-5479762D01*
X6108333Y-5479762D01*
X6318333Y-5543095D02*
X6305000Y-5524048D01*
X6295476Y-5543095D02*
X6295476Y-5503095D01*
X6310714Y-5503095D01*
X6314524Y-5505000D01*
X6316429Y-5506905D01*
X6318333Y-5510714D01*
X6318333Y-5516429D01*
X6316429Y-5520238D01*
X6314524Y-5522143D01*
X6310714Y-5524048D01*
X6295476Y-5524048D01*
X6354524Y-5503095D02*
X6335476Y-5503095D01*
X6333571Y-5522143D01*
X6335476Y-5520238D01*
X6339286Y-5518333D01*
X6348810Y-5518333D01*
X6352619Y-5520238D01*
X6354524Y-5522143D01*
X6356429Y-5525952D01*
X6356429Y-5535476D01*
X6354524Y-5539286D01*
X6352619Y-5541190D01*
X6348810Y-5543095D01*
X6339286Y-5543095D01*
X6335476Y-5541190D01*
X6333571Y-5539286D01*
X5018333Y-5168095D02*
X5005000Y-5149048D01*
X4995476Y-5168095D02*
X4995476Y-5128095D01*
X5010714Y-5128095D01*
X5014524Y-5130000D01*
X5016429Y-5131905D01*
X5018333Y-5135714D01*
X5018333Y-5141429D01*
X5016429Y-5145238D01*
X5014524Y-5147143D01*
X5010714Y-5149048D01*
X4995476Y-5149048D01*
X5052619Y-5128095D02*
X5045000Y-5128095D01*
X5041191Y-5130000D01*
X5039286Y-5131905D01*
X5035476Y-5137619D01*
X5033571Y-5145238D01*
X5033571Y-5160476D01*
X5035476Y-5164286D01*
X5037381Y-5166190D01*
X5041191Y-5168095D01*
X5048810Y-5168095D01*
X5052619Y-5166190D01*
X5054524Y-5164286D01*
X5056429Y-5160476D01*
X5056429Y-5150952D01*
X5054524Y-5147143D01*
X5052619Y-5145238D01*
X5048810Y-5143333D01*
X5041191Y-5143333D01*
X5037381Y-5145238D01*
X5035476Y-5147143D01*
X5033571Y-5150952D01*
X4568333Y-5718095D02*
X4555000Y-5699048D01*
X4545476Y-5718095D02*
X4545476Y-5678095D01*
X4560714Y-5678095D01*
X4564524Y-5680000D01*
X4566429Y-5681905D01*
X4568333Y-5685714D01*
X4568333Y-5691429D01*
X4566429Y-5695238D01*
X4564524Y-5697143D01*
X4560714Y-5699048D01*
X4545476Y-5699048D01*
X4581667Y-5678095D02*
X4608333Y-5678095D01*
X4591191Y-5718095D01*
X5193333Y-4293095D02*
X5180000Y-4274048D01*
X5170476Y-4293095D02*
X5170476Y-4253095D01*
X5185714Y-4253095D01*
X5189524Y-4255000D01*
X5191429Y-4256905D01*
X5193333Y-4260714D01*
X5193333Y-4266429D01*
X5191429Y-4270238D01*
X5189524Y-4272143D01*
X5185714Y-4274048D01*
X5170476Y-4274048D01*
X5216191Y-4270238D02*
X5212381Y-4268333D01*
X5210476Y-4266429D01*
X5208571Y-4262619D01*
X5208571Y-4260714D01*
X5210476Y-4256905D01*
X5212381Y-4255000D01*
X5216191Y-4253095D01*
X5223810Y-4253095D01*
X5227619Y-4255000D01*
X5229524Y-4256905D01*
X5231429Y-4260714D01*
X5231429Y-4262619D01*
X5229524Y-4266429D01*
X5227619Y-4268333D01*
X5223810Y-4270238D01*
X5216191Y-4270238D01*
X5212381Y-4272143D01*
X5210476Y-4274048D01*
X5208571Y-4277857D01*
X5208571Y-4285476D01*
X5210476Y-4289286D01*
X5212381Y-4291190D01*
X5216191Y-4293095D01*
X5223810Y-4293095D01*
X5227619Y-4291190D01*
X5229524Y-4289286D01*
X5231429Y-4285476D01*
X5231429Y-4277857D01*
X5229524Y-4274048D01*
X5227619Y-4272143D01*
X5223810Y-4270238D01*
X7374286Y-4193095D02*
X7360952Y-4174048D01*
X7351429Y-4193095D02*
X7351429Y-4153095D01*
X7366667Y-4153095D01*
X7370476Y-4155000D01*
X7372381Y-4156905D01*
X7374286Y-4160714D01*
X7374286Y-4166429D01*
X7372381Y-4170238D01*
X7370476Y-4172143D01*
X7366667Y-4174048D01*
X7351429Y-4174048D01*
X7412381Y-4193095D02*
X7389524Y-4193095D01*
X7400952Y-4193095D02*
X7400952Y-4153095D01*
X7397143Y-4158810D01*
X7393333Y-4162619D01*
X7389524Y-4164524D01*
X7450476Y-4193095D02*
X7427619Y-4193095D01*
X7439048Y-4193095D02*
X7439048Y-4153095D01*
X7435238Y-4158810D01*
X7431429Y-4162619D01*
X7427619Y-4164524D01*
X4921667Y-4216190D02*
X4927381Y-4218095D01*
X4936905Y-4218095D01*
X4940714Y-4216190D01*
X4942619Y-4214286D01*
X4944524Y-4210476D01*
X4944524Y-4206667D01*
X4942619Y-4202857D01*
X4940714Y-4200952D01*
X4936905Y-4199048D01*
X4929286Y-4197143D01*
X4925476Y-4195238D01*
X4923571Y-4193333D01*
X4921667Y-4189524D01*
X4921667Y-4185714D01*
X4923571Y-4181905D01*
X4925476Y-4180000D01*
X4929286Y-4178095D01*
X4938810Y-4178095D01*
X4944524Y-4180000D01*
X4957857Y-4178095D02*
X4967381Y-4218095D01*
X4975000Y-4189524D01*
X4982619Y-4218095D01*
X4992143Y-4178095D01*
X5028333Y-4218095D02*
X5005476Y-4218095D01*
X5016905Y-4218095D02*
X5016905Y-4178095D01*
X5013095Y-4183810D01*
X5009286Y-4187619D01*
X5005476Y-4189524D01*
X5544524Y-5483095D02*
X5544524Y-5515476D01*
X5546429Y-5519286D01*
X5548333Y-5521190D01*
X5552143Y-5523095D01*
X5559762Y-5523095D01*
X5563571Y-5521190D01*
X5565476Y-5519286D01*
X5567381Y-5515476D01*
X5567381Y-5483095D01*
X5607381Y-5523095D02*
X5584524Y-5523095D01*
X5595952Y-5523095D02*
X5595952Y-5483095D01*
X5592143Y-5488810D01*
X5588333Y-5492619D01*
X5584524Y-5494524D01*
X4363024Y-4659595D02*
X4363024Y-4691976D01*
X4364929Y-4695786D01*
X4366833Y-4697690D01*
X4370643Y-4699595D01*
X4378262Y-4699595D01*
X4382071Y-4697690D01*
X4383976Y-4695786D01*
X4385881Y-4691976D01*
X4385881Y-4659595D01*
X4401119Y-4659595D02*
X4425881Y-4659595D01*
X4412548Y-4674833D01*
X4418262Y-4674833D01*
X4422071Y-4676738D01*
X4423976Y-4678643D01*
X4425881Y-4682452D01*
X4425881Y-4691976D01*
X4423976Y-4695786D01*
X4422071Y-4697690D01*
X4418262Y-4699595D01*
X4406833Y-4699595D01*
X4403024Y-4697690D01*
X4401119Y-4695786D01*
X4769524Y-5078095D02*
X4769524Y-5110476D01*
X4771429Y-5114286D01*
X4773333Y-5116190D01*
X4777143Y-5118095D01*
X4784762Y-5118095D01*
X4788571Y-5116190D01*
X4790476Y-5114286D01*
X4792381Y-5110476D01*
X4792381Y-5078095D01*
X4828571Y-5091429D02*
X4828571Y-5118095D01*
X4819048Y-5076190D02*
X4809524Y-5104762D01*
X4834286Y-5104762D01*
X6819524Y-3978095D02*
X6819524Y-4010476D01*
X6821429Y-4014286D01*
X6823333Y-4016190D01*
X6827143Y-4018095D01*
X6834762Y-4018095D01*
X6838571Y-4016190D01*
X6840476Y-4014286D01*
X6842381Y-4010476D01*
X6842381Y-3978095D01*
X6863333Y-4018095D02*
X6870952Y-4018095D01*
X6874762Y-4016190D01*
X6876667Y-4014286D01*
X6880476Y-4008571D01*
X6882381Y-4000952D01*
X6882381Y-3985714D01*
X6880476Y-3981905D01*
X6878571Y-3980000D01*
X6874762Y-3978095D01*
X6867143Y-3978095D01*
X6863333Y-3980000D01*
X6861429Y-3981905D01*
X6859524Y-3985714D01*
X6859524Y-3995238D01*
X6861429Y-3999048D01*
X6863333Y-4000952D01*
X6867143Y-4002857D01*
X6874762Y-4002857D01*
X6878571Y-4000952D01*
X6880476Y-3999048D01*
X6882381Y-3995238D01*
X6800476Y-4428095D02*
X6800476Y-4460476D01*
X6802381Y-4464286D01*
X6804286Y-4466190D01*
X6808095Y-4468095D01*
X6815714Y-4468095D01*
X6819524Y-4466190D01*
X6821429Y-4464286D01*
X6823333Y-4460476D01*
X6823333Y-4428095D01*
X6863333Y-4468095D02*
X6840476Y-4468095D01*
X6851905Y-4468095D02*
X6851905Y-4428095D01*
X6848095Y-4433810D01*
X6844286Y-4437619D01*
X6840476Y-4439524D01*
X6888095Y-4428095D02*
X6891905Y-4428095D01*
X6895714Y-4430000D01*
X6897619Y-4431905D01*
X6899524Y-4435714D01*
X6901429Y-4443333D01*
X6901429Y-4452857D01*
X6899524Y-4460476D01*
X6897619Y-4464286D01*
X6895714Y-4466190D01*
X6891905Y-4468095D01*
X6888095Y-4468095D01*
X6884286Y-4466190D01*
X6882381Y-4464286D01*
X6880476Y-4460476D01*
X6878571Y-4452857D01*
X6878571Y-4443333D01*
X6880476Y-4435714D01*
X6882381Y-4431905D01*
X6884286Y-4430000D01*
X6888095Y-4428095D01*
X6825476Y-4878095D02*
X6825476Y-4910476D01*
X6827381Y-4914286D01*
X6829286Y-4916190D01*
X6833095Y-4918095D01*
X6840714Y-4918095D01*
X6844524Y-4916190D01*
X6846429Y-4914286D01*
X6848333Y-4910476D01*
X6848333Y-4878095D01*
X6888333Y-4918095D02*
X6865476Y-4918095D01*
X6876905Y-4918095D02*
X6876905Y-4878095D01*
X6873095Y-4883810D01*
X6869286Y-4887619D01*
X6865476Y-4889524D01*
X6926429Y-4918095D02*
X6903571Y-4918095D01*
X6915000Y-4918095D02*
X6915000Y-4878095D01*
X6911191Y-4883810D01*
X6907381Y-4887619D01*
X6903571Y-4889524D01*
X6825476Y-5328095D02*
X6825476Y-5360476D01*
X6827381Y-5364286D01*
X6829286Y-5366190D01*
X6833095Y-5368095D01*
X6840714Y-5368095D01*
X6844524Y-5366190D01*
X6846429Y-5364286D01*
X6848333Y-5360476D01*
X6848333Y-5328095D01*
X6888333Y-5368095D02*
X6865476Y-5368095D01*
X6876905Y-5368095D02*
X6876905Y-5328095D01*
X6873095Y-5333810D01*
X6869286Y-5337619D01*
X6865476Y-5339524D01*
X6903571Y-5331905D02*
X6905476Y-5330000D01*
X6909286Y-5328095D01*
X6918810Y-5328095D01*
X6922619Y-5330000D01*
X6924524Y-5331905D01*
X6926429Y-5335714D01*
X6926429Y-5339524D01*
X6924524Y-5345238D01*
X6901667Y-5368095D01*
X6926429Y-5368095D01*
X6067619Y-5328095D02*
X6094286Y-5368095D01*
X6094286Y-5328095D02*
X6067619Y-5368095D01*
X6130476Y-5368095D02*
X6107619Y-5368095D01*
X6119048Y-5368095D02*
X6119048Y-5328095D01*
X6115238Y-5333810D01*
X6111429Y-5337619D01*
X6107619Y-5339524D01*
X4644524Y-4318095D02*
X4644524Y-4350476D01*
X4646429Y-4354286D01*
X4648333Y-4356190D01*
X4652143Y-4358095D01*
X4659762Y-4358095D01*
X4663571Y-4356190D01*
X4665476Y-4354286D01*
X4667381Y-4350476D01*
X4667381Y-4318095D01*
X4684524Y-4321905D02*
X4686429Y-4320000D01*
X4690238Y-4318095D01*
X4699762Y-4318095D01*
X4703571Y-4320000D01*
X4705476Y-4321905D01*
X4707381Y-4325714D01*
X4707381Y-4329524D01*
X4705476Y-4335238D01*
X4682619Y-4358095D01*
X4707381Y-4358095D01*
X7330024Y-5637095D02*
X7330024Y-5597095D01*
X7352881Y-5637095D01*
X7352881Y-5597095D01*
X7390976Y-5597095D02*
X7371929Y-5597095D01*
X7370024Y-5616143D01*
X7371929Y-5614238D01*
X7375738Y-5612333D01*
X7385262Y-5612333D01*
X7389071Y-5614238D01*
X7390976Y-5616143D01*
X7392881Y-5619952D01*
X7392881Y-5629476D01*
X7390976Y-5633286D01*
X7389071Y-5635190D01*
X7385262Y-5637095D01*
X7375738Y-5637095D01*
X7371929Y-5635190D01*
X7370024Y-5633286D01*
X5593333Y-4368095D02*
X5580000Y-4349048D01*
X5570476Y-4368095D02*
X5570476Y-4328095D01*
X5585714Y-4328095D01*
X5589524Y-4330000D01*
X5591429Y-4331905D01*
X5593333Y-4335714D01*
X5593333Y-4341429D01*
X5591429Y-4345238D01*
X5589524Y-4347143D01*
X5585714Y-4349048D01*
X5570476Y-4349048D01*
X5612381Y-4368095D02*
X5620000Y-4368095D01*
X5623810Y-4366190D01*
X5625714Y-4364286D01*
X5629524Y-4358571D01*
X5631429Y-4350952D01*
X5631429Y-4335714D01*
X5629524Y-4331905D01*
X5627619Y-4330000D01*
X5623810Y-4328095D01*
X5616191Y-4328095D01*
X5612381Y-4330000D01*
X5610476Y-4331905D01*
X5608571Y-4335714D01*
X5608571Y-4345238D01*
X5610476Y-4349048D01*
X5612381Y-4350952D01*
X5616191Y-4352857D01*
X5623810Y-4352857D01*
X5627619Y-4350952D01*
X5629524Y-4349048D01*
X5631429Y-4345238D01*
X6598105Y-4901363D02*
X6584771Y-4882315D01*
X6575247Y-4901363D02*
X6575247Y-4861363D01*
X6590486Y-4861363D01*
X6594295Y-4863268D01*
X6596200Y-4865172D01*
X6598105Y-4868982D01*
X6598105Y-4874696D01*
X6596200Y-4878506D01*
X6594295Y-4880411D01*
X6590486Y-4882315D01*
X6575247Y-4882315D01*
X6636200Y-4901363D02*
X6613343Y-4901363D01*
X6624771Y-4901363D02*
X6624771Y-4861363D01*
X6620962Y-4867077D01*
X6617152Y-4870887D01*
X6613343Y-4872792D01*
X6670486Y-4874696D02*
X6670486Y-4901363D01*
X6660962Y-4859458D02*
X6651438Y-4888030D01*
X6676200Y-4888030D01*
X6598105Y-5101363D02*
X6584771Y-5082315D01*
X6575247Y-5101363D02*
X6575247Y-5061363D01*
X6590486Y-5061363D01*
X6594295Y-5063268D01*
X6596200Y-5065172D01*
X6598105Y-5068982D01*
X6598105Y-5074696D01*
X6596200Y-5078506D01*
X6594295Y-5080411D01*
X6590486Y-5082315D01*
X6575247Y-5082315D01*
X6636200Y-5101363D02*
X6613343Y-5101363D01*
X6624771Y-5101363D02*
X6624771Y-5061363D01*
X6620962Y-5067077D01*
X6617152Y-5070887D01*
X6613343Y-5072792D01*
X6672390Y-5061363D02*
X6653343Y-5061363D01*
X6651438Y-5080411D01*
X6653343Y-5078506D01*
X6657152Y-5076601D01*
X6666676Y-5076601D01*
X6670486Y-5078506D01*
X6672390Y-5080411D01*
X6674295Y-5084220D01*
X6674295Y-5093744D01*
X6672390Y-5097553D01*
X6670486Y-5099458D01*
X6666676Y-5101363D01*
X6657152Y-5101363D01*
X6653343Y-5099458D01*
X6651438Y-5097553D01*
X6598105Y-5351363D02*
X6584771Y-5332315D01*
X6575247Y-5351363D02*
X6575247Y-5311363D01*
X6590486Y-5311363D01*
X6594295Y-5313268D01*
X6596200Y-5315172D01*
X6598105Y-5318982D01*
X6598105Y-5324696D01*
X6596200Y-5328506D01*
X6594295Y-5330411D01*
X6590486Y-5332315D01*
X6575247Y-5332315D01*
X6636200Y-5351363D02*
X6613343Y-5351363D01*
X6624771Y-5351363D02*
X6624771Y-5311363D01*
X6620962Y-5317077D01*
X6617152Y-5320887D01*
X6613343Y-5322792D01*
X6670486Y-5311363D02*
X6662867Y-5311363D01*
X6659057Y-5313268D01*
X6657152Y-5315172D01*
X6653343Y-5320887D01*
X6651438Y-5328506D01*
X6651438Y-5343744D01*
X6653343Y-5347553D01*
X6655247Y-5349458D01*
X6659057Y-5351363D01*
X6666676Y-5351363D01*
X6670486Y-5349458D01*
X6672390Y-5347553D01*
X6674295Y-5343744D01*
X6674295Y-5334220D01*
X6672390Y-5330411D01*
X6670486Y-5328506D01*
X6666676Y-5326601D01*
X6659057Y-5326601D01*
X6655247Y-5328506D01*
X6653343Y-5330411D01*
X6651438Y-5334220D01*
X6598105Y-5551363D02*
X6584771Y-5532315D01*
X6575247Y-5551363D02*
X6575247Y-5511363D01*
X6590486Y-5511363D01*
X6594295Y-5513268D01*
X6596200Y-5515172D01*
X6598105Y-5518982D01*
X6598105Y-5524696D01*
X6596200Y-5528506D01*
X6594295Y-5530411D01*
X6590486Y-5532315D01*
X6575247Y-5532315D01*
X6636200Y-5551363D02*
X6613343Y-5551363D01*
X6624771Y-5551363D02*
X6624771Y-5511363D01*
X6620962Y-5517077D01*
X6617152Y-5520887D01*
X6613343Y-5522792D01*
X6649533Y-5511363D02*
X6676200Y-5511363D01*
X6659057Y-5551363D01*
M02*
