<?xml version="1.0" standalone="no"?>
 <!DOCTYPE svg PUBLIC "-//W3C//DTD SVG 1.1//EN" 
 "http://www.w3.org/Graphics/SVG/1.1/DTD/svg11.dtd"> 
<svg xmlns="http://www.w3.org/2000/svg" version="1.1" 
    width="27.94cm" height="21.59cm" viewBox="0 0 110000 85000 ">
<title>SVG Picture created as bus_servo8.svg date 2015/01/25 14:44:28 </title>
  <desc>Picture generated by Eeschema-SVG </desc>
<g style="fill:#000000; fill-opacity:1;stroke:#000000; stroke-opacity:1;
stroke-linecap:round; stroke-linejoin:round; "
 transform="translate(0 0) scale(1 1)">
</g>
<g style="fill:#000000; fill-opacity:0.0; 
stroke:#000000; stroke-width:100; stroke-opacity:1; 
stroke-linecap:round; stroke-linejoin:round;">
</g>
<g style="fill:#000000; fill-opacity:0.0; 
stroke:#000000; stroke-width:60; stroke-opacity:1; 
stroke-linecap:round; stroke-linejoin:round;">
<rect x="62760" y="67680" width="42520" height="12600" rx="0" />
</g>
<g style="fill:#000000; fill-opacity:0.0; 
stroke:#000000; stroke-width:100; stroke-opacity:1; 
stroke-linecap:round; stroke-linejoin:round;">
</g>
<g style="fill:#000000; fill-opacity:0.0; 
stroke:#000000; stroke-width:60; stroke-opacity:1; 
stroke-linecap:round; stroke-linejoin:round;">
<rect x="3940" y="3940" width="102120" height="77120" rx="0" />
</g>
<g style="fill:#000000; fill-opacity:0.0; 
stroke:#000000; stroke-width:100; stroke-opacity:1; 
stroke-linecap:round; stroke-linejoin:round;">
</g>
<g style="fill:#000000; fill-opacity:0.0; 
stroke:#000000; stroke-width:60; stroke-opacity:1; 
stroke-linecap:round; stroke-linejoin:round;">
<rect x="4720" y="4720" width="100560" height="75560" rx="0" />
</g>
<g style="fill:#000000; fill-opacity:0.0; 
stroke:#000000; stroke-width:100; stroke-opacity:1; 
stroke-linecap:round; stroke-linejoin:round;">
</g>
<g style="fill:#000000; fill-opacity:0.0; 
stroke:#000000; stroke-width:60; stroke-opacity:1; 
stroke-linecap:round; stroke-linejoin:round;">
<path d="M23620 4720
L23620 3940
" />
</g>
<g style="fill:#000000; fill-opacity:0.0; 
stroke:#000000; stroke-width:100; stroke-opacity:1; 
stroke-linecap:round; stroke-linejoin:round;">
</g>
<g style="fill:#000000; fill-opacity:0.0; 
stroke:#000000; stroke-width:60; stroke-opacity:1; 
stroke-linecap:round; stroke-linejoin:round;">
<path d="M43310 4720
L43310 3940
" />
</g>
<g style="fill:#000000; fill-opacity:0.0; 
stroke:#000000; stroke-width:100; stroke-opacity:1; 
stroke-linecap:round; stroke-linejoin:round;">
</g>
<g style="fill:#000000; fill-opacity:0.0; 
stroke:#000000; stroke-width:60; stroke-opacity:1; 
stroke-linecap:round; stroke-linejoin:round;">
<path d="M62990 4720
L62990 3940
" />
</g>
<g style="fill:#000000; fill-opacity:0.0; 
stroke:#000000; stroke-width:100; stroke-opacity:1; 
stroke-linecap:round; stroke-linejoin:round;">
</g>
<g style="fill:#000000; fill-opacity:0.0; 
stroke:#000000; stroke-width:60; stroke-opacity:1; 
stroke-linecap:round; stroke-linejoin:round;">
<path d="M82680 4720
L82680 3940
" />
</g>
<g style="fill:#000000; fill-opacity:0.0; 
stroke:#000000; stroke-width:100; stroke-opacity:1; 
stroke-linecap:round; stroke-linejoin:round;">
</g>
<g style="fill:#000000; fill-opacity:0.0; 
stroke:#000000; stroke-width:60; stroke-opacity:1; 
stroke-linecap:round; stroke-linejoin:round;">
<path d="M102360 4720
L102360 3940
" />
</g>
<g style="fill:#000000; fill-opacity:0.0; 
stroke:#000000; stroke-width:100; stroke-opacity:1; 
stroke-linecap:round; stroke-linejoin:round;">
</g>
<g style="fill:#000000; fill-opacity:0.0; 
stroke:#000000; stroke-width:60; stroke-opacity:1; 
stroke-linecap:round; stroke-linejoin:round;">
<path d="M14170 4560
L13880 4560
" />
<path d="M14020 4560
L14020 4050
L13970 4120
L13930 4170
L13880 4190
" />
</g>
<g style="fill:#000000; fill-opacity:0.0; 
stroke:#000000; stroke-width:100; stroke-opacity:1; 
stroke-linecap:round; stroke-linejoin:round;">
</g>
<g style="fill:#000000; fill-opacity:0.0; 
stroke:#000000; stroke-width:60; stroke-opacity:1; 
stroke-linecap:round; stroke-linejoin:round;">
<path d="M33560 4090
L33580 4070
L33630 4050
L33750 4050
L33800 4070
L33820 4090
L33850 4140
L33850 4190
L33820 4260
L33530 4560
L33850 4560
" />
</g>
<g style="fill:#000000; fill-opacity:0.0; 
stroke:#000000; stroke-width:100; stroke-opacity:1; 
stroke-linecap:round; stroke-linejoin:round;">
</g>
<g style="fill:#000000; fill-opacity:0.0; 
stroke:#000000; stroke-width:60; stroke-opacity:1; 
stroke-linecap:round; stroke-linejoin:round;">
<path d="M53220 4050
L53540 4050
L53370 4240
L53440 4240
L53490 4260
L53510 4290
L53540 4340
L53540 4460
L53510 4510
L53490 4530
L53440 4560
L53300 4560
L53250 4530
L53220 4510
" />
</g>
<g style="fill:#000000; fill-opacity:0.0; 
stroke:#000000; stroke-width:100; stroke-opacity:1; 
stroke-linecap:round; stroke-linejoin:round;">
</g>
<g style="fill:#000000; fill-opacity:0.0; 
stroke:#000000; stroke-width:60; stroke-opacity:1; 
stroke-linecap:round; stroke-linejoin:round;">
<path d="M73170 4220
L73170 4560
" />
<path d="M73050 4020
L72930 4390
L73240 4390
" />
</g>
<g style="fill:#000000; fill-opacity:0.0; 
stroke:#000000; stroke-width:100; stroke-opacity:1; 
stroke-linecap:round; stroke-linejoin:round;">
</g>
<g style="fill:#000000; fill-opacity:0.0; 
stroke:#000000; stroke-width:60; stroke-opacity:1; 
stroke-linecap:round; stroke-linejoin:round;">
<path d="M92880 4050
L92640 4050
L92620 4290
L92640 4260
L92690 4240
L92810 4240
L92860 4260
L92880 4290
L92910 4340
L92910 4460
L92880 4510
L92860 4530
L92810 4560
L92690 4560
L92640 4530
L92620 4510
" />
</g>
<g style="fill:#000000; fill-opacity:0.0; 
stroke:#000000; stroke-width:100; stroke-opacity:1; 
stroke-linecap:round; stroke-linejoin:round;">
</g>
<g style="fill:#000000; fill-opacity:0.0; 
stroke:#000000; stroke-width:60; stroke-opacity:1; 
stroke-linecap:round; stroke-linejoin:round;">
<path d="M23620 80280
L23620 81060
" />
</g>
<g style="fill:#000000; fill-opacity:0.0; 
stroke:#000000; stroke-width:100; stroke-opacity:1; 
stroke-linecap:round; stroke-linejoin:round;">
</g>
<g style="fill:#000000; fill-opacity:0.0; 
stroke:#000000; stroke-width:60; stroke-opacity:1; 
stroke-linecap:round; stroke-linejoin:round;">
<path d="M43310 80280
L43310 81060
" />
</g>
<g style="fill:#000000; fill-opacity:0.0; 
stroke:#000000; stroke-width:100; stroke-opacity:1; 
stroke-linecap:round; stroke-linejoin:round;">
</g>
<g style="fill:#000000; fill-opacity:0.0; 
stroke:#000000; stroke-width:60; stroke-opacity:1; 
stroke-linecap:round; stroke-linejoin:round;">
<path d="M62990 80280
L62990 81060
" />
</g>
<g style="fill:#000000; fill-opacity:0.0; 
stroke:#000000; stroke-width:100; stroke-opacity:1; 
stroke-linecap:round; stroke-linejoin:round;">
</g>
<g style="fill:#000000; fill-opacity:0.0; 
stroke:#000000; stroke-width:60; stroke-opacity:1; 
stroke-linecap:round; stroke-linejoin:round;">
<path d="M82680 80280
L82680 81060
" />
</g>
<g style="fill:#000000; fill-opacity:0.0; 
stroke:#000000; stroke-width:100; stroke-opacity:1; 
stroke-linecap:round; stroke-linejoin:round;">
</g>
<g style="fill:#000000; fill-opacity:0.0; 
stroke:#000000; stroke-width:60; stroke-opacity:1; 
stroke-linecap:round; stroke-linejoin:round;">
<path d="M102360 80280
L102360 81060
" />
</g>
<g style="fill:#000000; fill-opacity:0.0; 
stroke:#000000; stroke-width:100; stroke-opacity:1; 
stroke-linecap:round; stroke-linejoin:round;">
</g>
<g style="fill:#000000; fill-opacity:0.0; 
stroke:#000000; stroke-width:60; stroke-opacity:1; 
stroke-linecap:round; stroke-linejoin:round;">
<path d="M14170 80900
L13880 80900
" />
<path d="M14020 80900
L14020 80390
L13970 80460
L13930 80510
L13880 80530
" />
</g>
<g style="fill:#000000; fill-opacity:0.0; 
stroke:#000000; stroke-width:100; stroke-opacity:1; 
stroke-linecap:round; stroke-linejoin:round;">
</g>
<g style="fill:#000000; fill-opacity:0.0; 
stroke:#000000; stroke-width:60; stroke-opacity:1; 
stroke-linecap:round; stroke-linejoin:round;">
<path d="M33560 80430
L33580 80410
L33630 80390
L33750 80390
L33800 80410
L33820 80430
L33850 80480
L33850 80530
L33820 80600
L33530 80900
L33850 80900
" />
</g>
<g style="fill:#000000; fill-opacity:0.0; 
stroke:#000000; stroke-width:100; stroke-opacity:1; 
stroke-linecap:round; stroke-linejoin:round;">
</g>
<g style="fill:#000000; fill-opacity:0.0; 
stroke:#000000; stroke-width:60; stroke-opacity:1; 
stroke-linecap:round; stroke-linejoin:round;">
<path d="M53220 80390
L53540 80390
L53370 80580
L53440 80580
L53490 80600
L53510 80630
L53540 80680
L53540 80800
L53510 80850
L53490 80870
L53440 80900
L53300 80900
L53250 80870
L53220 80850
" />
</g>
<g style="fill:#000000; fill-opacity:0.0; 
stroke:#000000; stroke-width:100; stroke-opacity:1; 
stroke-linecap:round; stroke-linejoin:round;">
</g>
<g style="fill:#000000; fill-opacity:0.0; 
stroke:#000000; stroke-width:60; stroke-opacity:1; 
stroke-linecap:round; stroke-linejoin:round;">
<path d="M73170 80560
L73170 80900
" />
<path d="M73050 80360
L72930 80730
L73240 80730
" />
</g>
<g style="fill:#000000; fill-opacity:0.0; 
stroke:#000000; stroke-width:100; stroke-opacity:1; 
stroke-linecap:round; stroke-linejoin:round;">
</g>
<g style="fill:#000000; fill-opacity:0.0; 
stroke:#000000; stroke-width:60; stroke-opacity:1; 
stroke-linecap:round; stroke-linejoin:round;">
<path d="M92880 80390
L92640 80390
L92620 80630
L92640 80600
L92690 80580
L92810 80580
L92860 80600
L92880 80630
L92910 80680
L92910 80800
L92880 80850
L92860 80870
L92810 80900
L92690 80900
L92640 80870
L92620 80850
" />
</g>
<g style="fill:#000000; fill-opacity:0.0; 
stroke:#000000; stroke-width:100; stroke-opacity:1; 
stroke-linecap:round; stroke-linejoin:round;">
</g>
<g style="fill:#000000; fill-opacity:0.0; 
stroke:#000000; stroke-width:60; stroke-opacity:1; 
stroke-linecap:round; stroke-linejoin:round;">
<path d="M3940 23620
L4720 23620
" />
</g>
<g style="fill:#000000; fill-opacity:0.0; 
stroke:#000000; stroke-width:100; stroke-opacity:1; 
stroke-linecap:round; stroke-linejoin:round;">
</g>
<g style="fill:#000000; fill-opacity:0.0; 
stroke:#000000; stroke-width:60; stroke-opacity:1; 
stroke-linecap:round; stroke-linejoin:round;">
<path d="M3940 43310
L4720 43310
" />
</g>
<g style="fill:#000000; fill-opacity:0.0; 
stroke:#000000; stroke-width:100; stroke-opacity:1; 
stroke-linecap:round; stroke-linejoin:round;">
</g>
<g style="fill:#000000; fill-opacity:0.0; 
stroke:#000000; stroke-width:60; stroke-opacity:1; 
stroke-linecap:round; stroke-linejoin:round;">
<path d="M3940 62990
L4720 62990
" />
</g>
<g style="fill:#000000; fill-opacity:0.0; 
stroke:#000000; stroke-width:100; stroke-opacity:1; 
stroke-linecap:round; stroke-linejoin:round;">
</g>
<g style="fill:#000000; fill-opacity:0.0; 
stroke:#000000; stroke-width:60; stroke-opacity:1; 
stroke-linecap:round; stroke-linejoin:round;">
<path d="M4210 13860
L4450 13860
" />
<path d="M4160 14010
L4330 13500
L4500 14010
" />
</g>
<g style="fill:#000000; fill-opacity:0.0; 
stroke:#000000; stroke-width:100; stroke-opacity:1; 
stroke-linecap:round; stroke-linejoin:round;">
</g>
<g style="fill:#000000; fill-opacity:0.0; 
stroke:#000000; stroke-width:60; stroke-opacity:1; 
stroke-linecap:round; stroke-linejoin:round;">
<path d="M4370 33420
L4440 33440
L4470 33470
L4490 33520
L4490 33590
L4470 33640
L4440 33660
L4400 33690
L4200 33690
L4200 33180
L4370 33180
L4420 33200
L4440 33220
L4470 33270
L4470 33320
L4440 33370
L4420 33390
L4370 33420
L4200 33420
" />
</g>
<g style="fill:#000000; fill-opacity:0.0; 
stroke:#000000; stroke-width:100; stroke-opacity:1; 
stroke-linecap:round; stroke-linejoin:round;">
</g>
<g style="fill:#000000; fill-opacity:0.0; 
stroke:#000000; stroke-width:60; stroke-opacity:1; 
stroke-linecap:round; stroke-linejoin:round;">
<path d="M4490 53330
L4470 53350
L4400 53380
L4350 53380
L4270 53350
L4230 53300
L4200 53250
L4180 53160
L4180 53080
L4200 52990
L4230 52940
L4270 52890
L4350 52870
L4400 52870
L4470 52890
L4490 52910
" />
</g>
<g style="fill:#000000; fill-opacity:0.0; 
stroke:#000000; stroke-width:100; stroke-opacity:1; 
stroke-linecap:round; stroke-linejoin:round;">
</g>
<g style="fill:#000000; fill-opacity:0.0; 
stroke:#000000; stroke-width:60; stroke-opacity:1; 
stroke-linecap:round; stroke-linejoin:round;">
<path d="M4200 73060
L4200 72550
L4320 72550
L4400 72570
L4440 72620
L4470 72670
L4490 72760
L4490 72840
L4470 72930
L4440 72980
L4400 73030
L4320 73060
L4200 73060
" />
</g>
<g style="fill:#000000; fill-opacity:0.0; 
stroke:#000000; stroke-width:100; stroke-opacity:1; 
stroke-linecap:round; stroke-linejoin:round;">
</g>
<g style="fill:#000000; fill-opacity:0.0; 
stroke:#000000; stroke-width:60; stroke-opacity:1; 
stroke-linecap:round; stroke-linejoin:round;">
<path d="M106060 23620
L105280 23620
" />
</g>
<g style="fill:#000000; fill-opacity:0.0; 
stroke:#000000; stroke-width:100; stroke-opacity:1; 
stroke-linecap:round; stroke-linejoin:round;">
</g>
<g style="fill:#000000; fill-opacity:0.0; 
stroke:#000000; stroke-width:60; stroke-opacity:1; 
stroke-linecap:round; stroke-linejoin:round;">
<path d="M106060 43310
L105280 43310
" />
</g>
<g style="fill:#000000; fill-opacity:0.0; 
stroke:#000000; stroke-width:100; stroke-opacity:1; 
stroke-linecap:round; stroke-linejoin:round;">
</g>
<g style="fill:#000000; fill-opacity:0.0; 
stroke:#000000; stroke-width:60; stroke-opacity:1; 
stroke-linecap:round; stroke-linejoin:round;">
<path d="M106060 62990
L105280 62990
" />
</g>
<g style="fill:#000000; fill-opacity:0.0; 
stroke:#000000; stroke-width:100; stroke-opacity:1; 
stroke-linecap:round; stroke-linejoin:round;">
</g>
<g style="fill:#000000; fill-opacity:0.0; 
stroke:#000000; stroke-width:60; stroke-opacity:1; 
stroke-linecap:round; stroke-linejoin:round;">
<path d="M105550 13860
L105790 13860
" />
<path d="M105500 14010
L105670 13500
L105840 14010
" />
</g>
<g style="fill:#000000; fill-opacity:0.0; 
stroke:#000000; stroke-width:100; stroke-opacity:1; 
stroke-linecap:round; stroke-linejoin:round;">
</g>
<g style="fill:#000000; fill-opacity:0.0; 
stroke:#000000; stroke-width:60; stroke-opacity:1; 
stroke-linecap:round; stroke-linejoin:round;">
<path d="M105710 33420
L105780 33440
L105810 33470
L105830 33520
L105830 33590
L105810 33640
L105780 33660
L105740 33690
L105540 33690
L105540 33180
L105710 33180
L105760 33200
L105780 33220
L105810 33270
L105810 33320
L105780 33370
L105760 33390
L105710 33420
L105540 33420
" />
</g>
<g style="fill:#000000; fill-opacity:0.0; 
stroke:#000000; stroke-width:100; stroke-opacity:1; 
stroke-linecap:round; stroke-linejoin:round;">
</g>
<g style="fill:#000000; fill-opacity:0.0; 
stroke:#000000; stroke-width:60; stroke-opacity:1; 
stroke-linecap:round; stroke-linejoin:round;">
<path d="M105830 53330
L105810 53350
L105740 53380
L105690 53380
L105610 53350
L105570 53300
L105540 53250
L105520 53160
L105520 53080
L105540 52990
L105570 52940
L105610 52890
L105690 52870
L105740 52870
L105810 52890
L105830 52910
" />
</g>
<g style="fill:#000000; fill-opacity:0.0; 
stroke:#000000; stroke-width:100; stroke-opacity:1; 
stroke-linecap:round; stroke-linejoin:round;">
</g>
<g style="fill:#000000; fill-opacity:0.0; 
stroke:#000000; stroke-width:60; stroke-opacity:1; 
stroke-linecap:round; stroke-linejoin:round;">
<path d="M105540 73060
L105540 72550
L105660 72550
L105740 72570
L105780 72620
L105810 72670
L105830 72760
L105830 72840
L105810 72930
L105780 72980
L105740 73030
L105660 73060
L105540 73060
" />
</g>
<g style="fill:#000000; fill-opacity:0.0; 
stroke:#000000; stroke-width:100; stroke-opacity:1; 
stroke-linecap:round; stroke-linejoin:round;">
</g>
<g style="fill:#000000; fill-opacity:0.0; 
stroke:#000000; stroke-width:60; stroke-opacity:1; 
stroke-linecap:round; stroke-linejoin:round;">
<path d="M71950 78610
L71950 78020
L72090 78020
L72180 78050
L72230 78110
L72260 78160
L72290 78270
L72290 78360
L72260 78470
L72230 78530
L72180 78580
L72090 78610
L71950 78610
" />
<path d="M72790 78610
L72790 78300
L72770 78250
L72710 78220
L72600 78220
L72540 78250
" />
<path d="M72790 78580
L72740 78610
L72600 78610
L72540 78580
L72510 78530
L72510 78470
L72540 78420
L72600 78390
L72740 78390
L72790 78360
" />
<path d="M72990 78220
L73210 78220
" />
<path d="M73070 78020
L73070 78530
L73100 78580
L73150 78610
L73210 78610
" />
<path d="M73640 78580
L73580 78610
L73470 78610
L73410 78580
L73380 78530
L73380 78300
L73410 78250
L73470 78220
L73580 78220
L73640 78250
L73660 78300
L73660 78360
L73380 78420
" />
<path d="M73920 78560
L73950 78580
L73920 78610
L73890 78580
L73920 78560
L73920 78610
" />
<path d="M73920 78250
L73950 78270
L73920 78300
L73890 78270
L73920 78250
L73920 78300
" />
<path d="M74850 78300
L74650 78300
" />
<path d="M74650 78610
L74650 78020
L74930 78020
" />
<path d="M75160 78610
L75160 78220
" />
<path d="M75160 78330
L75190 78270
L75220 78250
L75270 78220
L75330 78220
" />
<path d="M75530 78610
L75530 78220
" />
<path d="M75530 78020
L75500 78050
L75530 78080
L75560 78050
L75530 78020
L75530 78080
" />
<path d="M76570 78610
L76230 78610
" />
<path d="M76400 78610
L76400 78020
L76340 78110
L76290 78160
L76230 78190
" />
<path d="M76760 78020
L77160 78020
L76900 78610
" />
<path d="M77940 78020
L78060 78020
L78110 78050
L78170 78110
L78200 78220
L78200 78420
L78170 78530
L78110 78580
L78060 78610
L77940 78610
L77890 78580
L77830 78530
L77800 78420
L77800 78220
L77830 78110
L77890 78050
L77940 78020
" />
<path d="M78700 78580
L78650 78610
L78530 78610
L78480 78580
L78450 78560
L78420 78500
L78420 78330
L78450 78270
L78480 78250
L78530 78220
L78650 78220
L78700 78250
" />
<path d="M78880 78220
L79100 78220
" />
<path d="M78960 78020
L78960 78530
L78990 78580
L79040 78610
L79100 78610
" />
<path d="M79720 78080
L79750 78050
L79810 78020
L79950 78020
L80000 78050
L80030 78080
L80060 78130
L80060 78190
L80030 78270
L79690 78610
L80060 78610
" />
<path d="M80420 78020
L80480 78020
L80540 78050
L80560 78080
L80590 78130
L80620 78250
L80620 78390
L80590 78500
L80560 78560
L80540 78580
L80480 78610
L80420 78610
L80370 78580
L80340 78560
L80310 78500
L80280 78390
L80280 78250
L80310 78130
L80340 78080
L80370 78050
L80420 78020
" />
<path d="M81180 78610
L80840 78610
" />
<path d="M81010 78610
L81010 78020
L80950 78110
L80900 78160
L80840 78190
" />
<path d="M81680 78220
L81680 78610
" />
<path d="M81540 77990
L81400 78420
L81770 78420
" />
</g>
<g style="fill:#000000; fill-opacity:0.0; 
stroke:#000000; stroke-width:100; stroke-opacity:1; 
stroke-linecap:round; stroke-linejoin:round;">
</g>
<g style="fill:#000000; fill-opacity:0.0; 
stroke:#000000; stroke-width:60; stroke-opacity:1; 
stroke-linecap:round; stroke-linejoin:round;">
<path d="M62760 78900
L105280 78900
" />
</g>
<g style="fill:#000000; fill-opacity:0.0; 
stroke:#000000; stroke-width:100; stroke-opacity:1; 
stroke-linecap:round; stroke-linejoin:round;">
</g>
<g style="fill:#000000; fill-opacity:0.0; 
stroke:#000000; stroke-width:60; stroke-opacity:1; 
stroke-linecap:round; stroke-linejoin:round;">
<path d="M63290 79710
L63290 79120
" />
<path d="M63630 79710
L63370 79370
" />
<path d="M63630 79120
L63290 79460
" />
<path d="M63880 79710
L63880 79320
" />
<path d="M63880 79120
L63850 79150
L63880 79180
L63910 79150
L63880 79120
L63880 79180
" />
<path d="M64500 79660
L64470 79680
L64390 79710
L64330 79710
L64240 79680
L64190 79630
L64160 79570
L64130 79460
L64130 79370
L64160 79260
L64190 79210
L64240 79150
L64330 79120
L64390 79120
L64470 79150
L64500 79180
" />
<path d="M65000 79710
L65000 79400
L64980 79350
L64920 79320
L64810 79320
L64750 79350
" />
<path d="M65000 79680
L64950 79710
L64810 79710
L64750 79680
L64720 79630
L64720 79570
L64750 79520
L64810 79490
L64950 79490
L65000 79460
" />
<path d="M65530 79710
L65530 79120
" />
<path d="M65530 79680
L65480 79710
L65360 79710
L65310 79680
L65280 79660
L65250 79600
L65250 79430
L65280 79370
L65310 79350
L65360 79320
L65480 79320
L65530 79350
" />
<path d="M66260 79400
L66460 79400
" />
<path d="M66540 79710
L66260 79710
L66260 79120
L66540 79120
" />
<path d="M66790 79660
L66820 79680
L66790 79710
L66760 79680
L66790 79660
L66790 79710
" />
<path d="M67070 79710
L67070 79120
L67210 79120
L67300 79150
L67350 79210
L67380 79260
L67410 79370
L67410 79460
L67380 79570
L67350 79630
L67300 79680
L67210 79710
L67070 79710
" />
<path d="M67660 79660
L67690 79680
L67660 79710
L67630 79680
L67660 79660
L67660 79710
" />
<path d="M67910 79540
L68190 79540
" />
<path d="M67860 79710
L68050 79120
L68250 79710
" />
<path d="M68450 79660
L68480 79680
L68450 79710
L68420 79680
L68450 79660
L68450 79710
" />
<path d="M69630 79710
L69630 79120
" />
<path d="M69690 79490
L69860 79710
" />
<path d="M69860 79320
L69630 79540
" />
<path d="M70110 79710
L70110 79320
" />
<path d="M70110 79120
L70080 79150
L70110 79180
L70140 79150
L70110 79120
L70110 79180
" />
<path d="M70640 79680
L70590 79710
L70470 79710
L70420 79680
L70390 79660
L70360 79600
L70360 79430
L70390 79370
L70420 79350
L70470 79320
L70590 79320
L70640 79350
" />
<path d="M71150 79710
L71150 79400
L71130 79350
L71070 79320
L70960 79320
L70900 79350
" />
<path d="M71150 79680
L71100 79710
L70960 79710
L70900 79680
L70870 79630
L70870 79570
L70900 79520
L70960 79490
L71100 79490
L71150 79460
" />
<path d="M71680 79710
L71680 79120
" />
<path d="M71680 79680
L71630 79710
L71510 79710
L71460 79680
L71430 79660
L71400 79600
L71400 79430
L71430 79370
L71460 79350
L71510 79320
L71630 79320
L71680 79350
" />
<path d="M72580 79940
L72550 79910
L72490 79820
L72470 79770
L72440 79680
L72410 79540
L72410 79430
L72440 79290
L72470 79210
L72490 79150
L72550 79070
L72580 79040
" />
<path d="M72770 79180
L72800 79150
L72860 79120
L73000 79120
L73050 79150
L73080 79180
L73110 79230
L73110 79290
L73080 79370
L72740 79710
L73110 79710
" />
<path d="M73470 79120
L73530 79120
L73590 79150
L73610 79180
L73640 79230
L73670 79350
L73670 79490
L73640 79600
L73610 79660
L73590 79680
L73530 79710
L73470 79710
L73420 79680
L73390 79660
L73360 79600
L73330 79490
L73330 79350
L73360 79230
L73390 79180
L73420 79150
L73470 79120
" />
<path d="M74230 79710
L73890 79710
" />
<path d="M74060 79710
L74060 79120
L74000 79210
L73950 79260
L73890 79290
" />
<path d="M74730 79320
L74730 79710
" />
<path d="M74590 79090
L74450 79520
L74820 79520
" />
<path d="M75040 79490
L75490 79490
" />
<path d="M75770 79320
L75770 79820
L75740 79880
L75690 79910
L75660 79910
" />
<path d="M75770 79120
L75740 79150
L75770 79180
L75800 79150
L75770 79120
L75770 79180
" />
<path d="M76300 79320
L76300 79710
" />
<path d="M76050 79320
L76050 79630
L76080 79680
L76130 79710
L76220 79710
L76280 79680
L76300 79660
" />
<path d="M76660 79710
L76610 79680
L76580 79630
L76580 79120
" />
<path d="M76890 79490
L77340 79490
" />
<path d="M77930 79710
L77590 79710
" />
<path d="M77760 79710
L77760 79120
L77700 79210
L77650 79260
L77590 79290
" />
<path d="M78430 79120
L78320 79120
L78260 79150
L78240 79180
L78180 79260
L78150 79370
L78150 79600
L78180 79660
L78210 79680
L78260 79710
L78380 79710
L78430 79680
L78460 79660
L78490 79600
L78490 79460
L78460 79400
L78430 79370
L78380 79350
L78260 79350
L78210 79370
L78180 79400
L78150 79460
" />
<path d="M79390 79400
L79470 79430
L79500 79460
L79530 79520
L79530 79600
L79500 79660
L79470 79680
L79420 79710
L79190 79710
L79190 79120
L79390 79120
L79440 79150
L79470 79180
L79500 79230
L79500 79290
L79470 79350
L79440 79370
L79390 79400
L79190 79400
" />
<path d="M79720 79120
L80120 79120
L79720 79710
L80120 79710
" />
<path d="M80680 79710
L80480 79430
" />
<path d="M80340 79710
L80340 79120
L80570 79120
L80620 79150
L80650 79180
L80680 79230
L80680 79320
L80650 79370
L80620 79400
L80570 79430
L80340 79430
" />
<path d="M81630 79320
L81630 79710
" />
<path d="M81380 79320
L81380 79630
L81410 79680
L81460 79710
L81550 79710
L81610 79680
L81630 79660
" />
<path d="M81910 79320
L81910 79710
" />
<path d="M81910 79370
L81940 79350
L81990 79320
L82080 79320
L82140 79350
L82160 79400
L82160 79710
" />
<path d="M82440 79710
L82440 79120
" />
<path d="M82500 79490
L82670 79710
" />
<path d="M82670 79320
L82440 79540
" />
<path d="M82920 79320
L82920 79710
" />
<path d="M82920 79370
L82950 79350
L83000 79320
L83090 79320
L83150 79350
L83170 79400
L83170 79710
" />
<path d="M83530 79710
L83480 79680
L83450 79660
L83420 79600
L83420 79430
L83450 79370
L83480 79350
L83530 79320
L83620 79320
L83680 79350
L83700 79370
L83730 79430
L83730 79600
L83700 79660
L83680 79680
L83620 79710
L83530 79710
" />
<path d="M83920 79320
L84040 79710
L84150 79430
L84260 79710
L84370 79320
" />
<path d="M84600 79320
L84600 79710
" />
<path d="M84600 79370
L84630 79350
L84680 79320
L84770 79320
L84830 79350
L84850 79400
L84850 79710
" />
<path d="M85070 79940
L85100 79910
L85160 79820
L85190 79770
L85210 79680
L85240 79540
L85240 79430
L85210 79290
L85190 79210
L85160 79150
L85100 79070
L85070 79040
" />
<path d="M85520 79490
L85970 79490
" />
<path d="M86250 79320
L86250 79910
" />
<path d="M86250 79350
L86310 79320
L86420 79320
L86480 79350
L86500 79370
L86530 79430
L86530 79600
L86500 79660
L86480 79680
L86420 79710
L86310 79710
L86250 79680
" />
<path d="M86780 79710
L86780 79320
" />
<path d="M86780 79430
L86810 79370
L86840 79350
L86890 79320
L86950 79320
" />
<path d="M87230 79710
L87180 79680
L87150 79660
L87120 79600
L87120 79430
L87150 79370
L87180 79350
L87230 79320
L87320 79320
L87380 79350
L87400 79370
L87430 79430
L87430 79600
L87400 79660
L87380 79680
L87320 79710
L87230 79710
" />
<path d="M87930 79710
L87930 79120
" />
<path d="M87930 79680
L87880 79710
L87760 79710
L87710 79680
L87680 79660
L87650 79600
L87650 79430
L87680 79370
L87710 79350
L87760 79320
L87880 79320
L87930 79350
" />
<path d="M88460 79320
L88460 79710
" />
<path d="M88210 79320
L88210 79630
L88240 79680
L88290 79710
L88380 79710
L88440 79680
L88460 79660
" />
<path d="M88990 79680
L88940 79710
L88820 79710
L88770 79680
L88740 79660
L88710 79600
L88710 79430
L88740 79370
L88770 79350
L88820 79320
L88940 79320
L88990 79350
" />
<path d="M89170 79320
L89390 79320
" />
<path d="M89250 79120
L89250 79630
L89280 79680
L89330 79710
L89390 79710
" />
</g>
<g style="fill:#000000; fill-opacity:0.0; 
stroke:#000000; stroke-width:100; stroke-opacity:1; 
stroke-linecap:round; stroke-linejoin:round;">
</g>
<g style="fill:#000000; fill-opacity:0.0; 
stroke:#000000; stroke-width:60; stroke-opacity:1; 
stroke-linecap:round; stroke-linejoin:round;">
<path d="M62760 77720
L105280 77720
" />
</g>
<g style="fill:#000000; fill-opacity:0.0; 
stroke:#000000; stroke-width:100; stroke-opacity:1; 
stroke-linecap:round; stroke-linejoin:round;">
</g>
<g style="fill:#000000; fill-opacity:0.0; 
stroke:#000000; stroke-width:120; stroke-opacity:1; 
stroke-linecap:round; stroke-linejoin:round;">
<path d="M97090 78610
L96890 78330
" />
<path d="M96750 78610
L96750 78020
L96980 78020
L97030 78050
L97060 78080
L97090 78130
L97090 78220
L97060 78270
L97030 78300
L96980 78330
L96750 78330
" />
<path d="M97570 78580
L97510 78610
L97400 78610
L97340 78580
L97310 78530
L97310 78300
L97340 78250
L97400 78220
L97510 78220
L97570 78250
L97590 78300
L97590 78360
L97310 78420
" />
<path d="M97790 78220
L97930 78610
L98080 78220
" />
<path d="M98300 78560
L98330 78580
L98300 78610
L98270 78580
L98300 78560
L98300 78610
" />
<path d="M98300 78250
L98330 78270
L98300 78300
L98270 78270
L98300 78250
L98300 78300
" />
<path d="M99000 78440
L99280 78440
" />
<path d="M98950 78610
L99140 78020
L99340 78610
" />
</g>
<g style="fill:#000000; fill-opacity:0.0; 
stroke:#000000; stroke-width:100; stroke-opacity:1; 
stroke-linecap:round; stroke-linejoin:round;">
</g>
<g style="fill:#000000; fill-opacity:0.0; 
stroke:#000000; stroke-width:60; stroke-opacity:1; 
stroke-linecap:round; stroke-linejoin:round;">
<path d="M63260 78580
L63350 78610
L63490 78610
L63540 78580
L63570 78560
L63600 78500
L63600 78440
L63570 78390
L63540 78360
L63490 78330
L63370 78300
L63320 78270
L63290 78250
L63260 78190
L63260 78130
L63290 78080
L63320 78050
L63370 78020
L63520 78020
L63600 78050
" />
<path d="M63850 78610
L63850 78220
" />
<path d="M63850 78020
L63820 78050
L63850 78080
L63880 78050
L63850 78020
L63850 78080
" />
<path d="M64070 78220
L64380 78220
L64070 78610
L64380 78610
" />
<path d="M64840 78580
L64780 78610
L64670 78610
L64610 78580
L64580 78530
L64580 78300
L64610 78250
L64670 78220
L64780 78220
L64840 78250
L64860 78300
L64860 78360
L64580 78420
" />
<path d="M65120 78560
L65150 78580
L65120 78610
L65090 78580
L65120 78560
L65120 78610
" />
<path d="M65120 78250
L65150 78270
L65120 78300
L65090 78270
L65120 78250
L65120 78300
" />
<path d="M65820 78440
L66100 78440
" />
<path d="M65770 78610
L65960 78020
L66160 78610
" />
</g>
<g style="fill:#000000; fill-opacity:0.0; 
stroke:#000000; stroke-width:100; stroke-opacity:1; 
stroke-linecap:round; stroke-linejoin:round;">
</g>
<g style="fill:#000000; fill-opacity:0.0; 
stroke:#000000; stroke-width:60; stroke-opacity:1; 
stroke-linecap:round; stroke-linejoin:round;">
<path d="M96750 79710
L96750 79120
" />
<path d="M97280 79710
L97280 79120
" />
<path d="M97280 79680
L97230 79710
L97110 79710
L97060 79680
L97030 79660
L97000 79600
L97000 79430
L97030 79370
L97060 79350
L97110 79320
L97230 79320
L97280 79350
" />
<path d="M97560 79660
L97590 79680
L97560 79710
L97530 79680
L97560 79660
L97560 79710
" />
<path d="M97560 79350
L97590 79370
L97560 79400
L97530 79370
L97560 79350
L97560 79400
" />
<path d="M98600 79710
L98260 79710
" />
<path d="M98430 79710
L98430 79120
L98370 79210
L98320 79260
L98260 79290
" />
<path d="M99270 79090
L98770 79850
" />
<path d="M99410 79120
L99780 79120
L99580 79350
L99670 79350
L99720 79370
L99750 79400
L99780 79460
L99780 79600
L99750 79660
L99720 79680
L99670 79710
L99500 79710
L99440 79680
L99410 79660
" />
</g>
<g style="fill:#000000; fill-opacity:0.0; 
stroke:#000000; stroke-width:100; stroke-opacity:1; 
stroke-linecap:round; stroke-linejoin:round;">
</g>
<g style="fill:#000000; fill-opacity:0.0; 
stroke:#000000; stroke-width:60; stroke-opacity:1; 
stroke-linecap:round; stroke-linejoin:round;">
<path d="M62760 76140
L105280 76140
" />
</g>
<g style="fill:#000000; fill-opacity:0.0; 
stroke:#000000; stroke-width:100; stroke-opacity:1; 
stroke-linecap:round; stroke-linejoin:round;">
</g>
<g style="fill:#000000; fill-opacity:0.0; 
stroke:#000000; stroke-width:160; stroke-opacity:1; 
stroke-linecap:round; stroke-linejoin:round;">
<path d="M63330 76410
L63780 76410
" />
<path d="M63460 77200
L63550 76410
" />
<path d="M63950 77200
L64010 76680
" />
<path d="M64040 76410
L64000 76450
L64030 76490
L64080 76450
L64040 76410
L64030 76490
" />
<path d="M64280 76680
L64580 76680
" />
<path d="M64420 76410
L64340 77090
L64370 77160
L64440 77200
L64520 77200
" />
<path d="M64890 77200
L64820 77160
L64790 77090
L64870 76410
" />
<path d="M65490 77160
L65410 77200
L65260 77200
L65190 77160
L65160 77090
L65200 76790
L65250 76710
L65320 76680
L65470 76680
L65550 76710
L65580 76790
L65570 76860
L65180 76940
" />
<path d="M65870 77130
L65910 77160
L65870 77200
L65830 77160
L65870 77130
L65870 77200
" />
<path d="M65930 76710
L65960 76750
L65920 76790
L65880 76750
L65930 76710
L65920 76790
" />
<path d="M67160 76790
L67260 76830
L67300 76860
L67330 76940
L67310 77050
L67260 77130
L67220 77160
L67150 77200
L66850 77200
L66940 76410
L67200 76410
L67280 76450
L67300 76490
L67340 76560
L67330 76640
L67280 76710
L67240 76750
L67160 76790
L66900 76790
" />
<path d="M67640 77200
L67700 76680
" />
<path d="M67680 76830
L67730 76750
L67770 76710
L67850 76680
L67920 76680
" />
<path d="M68130 77200
L68190 76680
" />
<path d="M68220 76410
L68180 76450
L68210 76490
L68260 76450
L68220 76410
L68210 76490
" />
<path d="M68850 77200
L68940 76410
" />
<path d="M68850 77160
L68770 77200
L68620 77200
L68550 77160
L68510 77130
L68480 77050
L68510 76830
L68560 76750
L68610 76710
L68680 76680
L68830 76680
L68910 76710
" />
<path d="M69620 76680
L69540 77320
L69490 77390
L69450 77430
L69370 77470
L69250 77470
L69190 77430
" />
<path d="M69560 77160
L69480 77200
L69330 77200
L69260 77160
L69220 77130
L69190 77050
L69220 76830
L69270 76750
L69320 76710
L69390 76680
L69540 76680
L69620 76710
" />
<path d="M70230 77160
L70150 77200
L70000 77200
L69930 77160
L69900 77090
L69940 76790
L69990 76710
L70060 76680
L70210 76680
L70290 76710
L70320 76790
L70310 76860
L69920 76940
" />
<path d="M71270 76370
L70470 77390
" />
<path d="M71490 76790
L71750 76790
" />
<path d="M71810 77200
L71440 77200
L71530 76410
L71900 76410
" />
<path d="M72210 76680
L72150 77200
" />
<path d="M72200 76750
L72250 76710
L72320 76680
L72430 76680
L72510 76710
L72540 76790
L72490 77200
" />
<path d="M73200 77160
L73120 77200
L72970 77200
L72900 77160
L72860 77130
L72830 77050
L72860 76830
L72910 76750
L72960 76710
L73030 76680
L73180 76680
L73260 76710
" />
<path d="M73650 77200
L73580 77160
L73540 77130
L73510 77050
L73540 76830
L73590 76750
L73640 76710
L73710 76680
L73820 76680
L73900 76710
L73930 76750
L73950 76830
L73920 77050
L73880 77130
L73840 77160
L73760 77200
L73650 77200
" />
<path d="M74590 77200
L74680 76410
" />
<path d="M74590 77160
L74510 77200
L74360 77200
L74290 77160
L74250 77130
L74220 77050
L74250 76830
L74300 76750
L74350 76710
L74420 76680
L74570 76680
L74650 76710
" />
<path d="M75260 77160
L75180 77200
L75030 77200
L74960 77160
L74930 77090
L74970 76790
L75020 76710
L75090 76680
L75240 76680
L75320 76710
L75350 76790
L75340 76860
L74950 76940
" />
<path d="M75640 77200
L75700 76680
" />
<path d="M75680 76830
L75730 76750
L75770 76710
L75850 76680
L75920 76680
" />
<path d="M76090 77160
L76170 77200
L76320 77200
L76390 77160
L76440 77090
L76440 77050
L76410 76980
L76350 76940
L76230 76940
L76160 76900
L76130 76830
L76140 76790
L76190 76710
L76260 76680
L76380 76680
L76450 76710
" />
<path d="M77430 76370
L76630 77390
" />
<path d="M77560 77160
L77670 77200
L77860 77200
L77940 77160
L77970 77130
L78020 77050
L78030 76980
L78000 76900
L77980 76860
L77900 76830
L77760 76790
L77690 76750
L77660 76710
L77630 76640
L77640 76560
L77680 76490
L77730 76450
L77800 76410
L77990 76410
L78100 76450
" />
<path d="M78460 77200
L78390 77160
L78350 77130
L78320 77050
L78350 76830
L78400 76750
L78450 76710
L78520 76680
L78630 76680
L78710 76710
L78740 76750
L78760 76830
L78730 77050
L78690 77130
L78650 77160
L78570 77200
L78460 77200
" />
<path d="M79120 76680
L79060 77200
" />
<path d="M79110 76750
L79160 76710
L79230 76680
L79340 76680
L79420 76710
L79450 76790
L79400 77200
" />
<path d="M80110 77200
L80160 76790
L80130 76710
L80050 76680
L79900 76680
L79830 76710
" />
<path d="M80110 77160
L80030 77200
L79840 77200
L79770 77160
L79740 77090
L79750 77010
L79800 76940
L79870 76900
L80060 76900
L80150 76860
" />
<path d="M80480 77200
L80540 76680
" />
<path d="M80520 76830
L80570 76750
L80610 76710
L80690 76680
L80760 76680
" />
<path d="M80930 77160
L81010 77200
L81160 77200
L81230 77160
L81280 77090
L81280 77050
L81250 76980
L81190 76940
L81070 76940
L81000 76900
L80970 76830
L80980 76790
L81030 76710
L81100 76680
L81220 76680
L81290 76710
" />
<path d="M82210 77200
L82300 76410
L82490 76980
L82820 76410
L82730 77200
" />
<path d="M83110 77200
L83170 76680
" />
<path d="M83200 76410
L83160 76450
L83190 76490
L83240 76450
L83200 76410
L83190 76490
" />
<path d="M83550 76680
L83490 77200
" />
<path d="M83540 76750
L83590 76710
L83660 76680
L83770 76680
L83850 76710
L83880 76790
L83830 77200
" />
<path d="M84200 77200
L84260 76680
" />
<path d="M84290 76410
L84250 76450
L84280 76490
L84330 76450
L84290 76410
L84280 76490
" />
<path d="M84610 76900
L85210 76900
" />
<path d="M85520 77160
L85630 77200
L85820 77200
L85900 77160
L85930 77130
L85980 77050
L85990 76980
L85960 76900
L85940 76860
L85860 76830
L85720 76790
L85650 76750
L85620 76710
L85590 76640
L85600 76560
L85640 76490
L85690 76450
L85760 76410
L85950 76410
L86060 76450
" />
<path d="M86310 77200
L86400 76410
" />
<path d="M86650 77200
L86700 76790
L86670 76710
L86590 76680
L86480 76680
L86410 76710
L86360 76750
" />
<path d="M87020 77200
L87080 76680
" />
<path d="M87110 76410
L87070 76450
L87100 76490
L87150 76450
L87110 76410
L87100 76490
" />
<path d="M87700 77160
L87620 77200
L87470 77200
L87400 77160
L87370 77090
L87410 76790
L87460 76710
L87530 76680
L87680 76680
L87760 76710
L87790 76790
L87780 76860
L87390 76940
" />
<path d="M88190 77200
L88120 77160
L88090 77090
L88170 76410
" />
<path d="M88830 77200
L88920 76410
" />
<path d="M88830 77160
L88750 77200
L88600 77200
L88530 77160
L88490 77130
L88460 77050
L88490 76830
L88540 76750
L88590 76710
L88660 76680
L88810 76680
L88890 76710
" />
</g>
<g style="fill:#000000; fill-opacity:0.0; 
stroke:#000000; stroke-width:100; stroke-opacity:1; 
stroke-linecap:round; stroke-linejoin:round;">
</g>
<g style="fill:#000000; fill-opacity:0.0; 
stroke:#000000; stroke-width:60; stroke-opacity:1; 
stroke-linecap:round; stroke-linejoin:round;">
<path d="M63490 75380
L63290 75380
" />
<path d="M63290 75690
L63290 75100
L63570 75100
" />
<path d="M63800 75690
L63800 75300
" />
<path d="M63800 75100
L63770 75130
L63800 75160
L63830 75130
L63800 75100
L63800 75160
" />
<path d="M64160 75690
L64110 75660
L64080 75610
L64080 75100
" />
<path d="M64620 75660
L64560 75690
L64450 75690
L64390 75660
L64360 75610
L64360 75380
L64390 75330
L64450 75300
L64560 75300
L64620 75330
L64640 75380
L64640 75440
L64360 75500
" />
<path d="M64900 75640
L64930 75660
L64900 75690
L64870 75660
L64900 75640
L64900 75690
" />
<path d="M64900 75330
L64930 75350
L64900 75380
L64870 75350
L64900 75330
L64900 75380
" />
<path d="M65630 75690
L65630 75100
" />
<path d="M65630 75330
L65690 75300
L65800 75300
L65860 75330
L65880 75350
L65910 75410
L65910 75580
L65880 75640
L65860 75660
L65800 75690
L65690 75690
L65630 75660
" />
<path d="M66410 75300
L66410 75690
" />
<path d="M66160 75300
L66160 75610
L66190 75660
L66240 75690
L66330 75690
L66390 75660
L66410 75640
" />
<path d="M66660 75660
L66720 75690
L66830 75690
L66890 75660
L66920 75610
L66920 75580
L66890 75520
L66830 75500
L66750 75500
L66690 75470
L66660 75410
L66660 75380
L66690 75330
L66750 75300
L66830 75300
L66890 75330
" />
<path d="M67030 75750
L67480 75750
" />
<path d="M67590 75660
L67650 75690
L67760 75690
L67820 75660
L67850 75610
L67850 75580
L67820 75520
L67760 75500
L67680 75500
L67620 75470
L67590 75410
L67590 75380
L67620 75330
L67680 75300
L67760 75300
L67820 75330
" />
<path d="M68330 75660
L68270 75690
L68160 75690
L68100 75660
L68070 75610
L68070 75380
L68100 75330
L68160 75300
L68270 75300
L68330 75330
L68350 75380
L68350 75440
L68070 75500
" />
<path d="M68610 75690
L68610 75300
" />
<path d="M68610 75410
L68640 75350
L68670 75330
L68720 75300
L68780 75300
" />
<path d="M68920 75300
L69060 75690
L69210 75300
" />
<path d="M69510 75690
L69460 75660
L69430 75640
L69400 75580
L69400 75410
L69430 75350
L69460 75330
L69510 75300
L69600 75300
L69660 75330
L69680 75350
L69710 75410
L69710 75580
L69680 75640
L69660 75660
L69600 75690
L69510 75690
" />
<path d="M70040 75350
L69990 75330
L69960 75300
L69930 75240
L69930 75210
L69960 75160
L69990 75130
L70040 75100
L70160 75100
L70210 75130
L70240 75160
L70270 75210
L70270 75240
L70240 75300
L70210 75330
L70160 75350
L70040 75350
L69990 75380
L69960 75410
L69930 75470
L69930 75580
L69960 75640
L69990 75660
L70040 75690
L70160 75690
L70210 75660
L70240 75640
L70270 75580
L70270 75470
L70240 75410
L70210 75380
L70160 75350
" />
<path d="M70520 75640
L70550 75660
L70520 75690
L70490 75660
L70520 75640
L70520 75690
" />
<path d="M70770 75660
L70830 75690
L70940 75690
L71000 75660
L71030 75610
L71030 75580
L71000 75520
L70940 75500
L70860 75500
L70800 75470
L70770 75410
L70770 75380
L70800 75330
L70860 75300
L70940 75300
L71000 75330
" />
<path d="M71530 75660
L71480 75690
L71360 75690
L71310 75660
L71280 75640
L71250 75580
L71250 75410
L71280 75350
L71310 75330
L71360 75300
L71480 75300
L71530 75330
" />
<path d="M71790 75690
L71790 75100
" />
<path d="M72040 75690
L72040 75380
L72020 75330
L71960 75300
L71870 75300
L71820 75330
L71790 75350
" />
</g>
<g style="fill:#000000; fill-opacity:0.0; 
stroke:#000000; stroke-width:100; stroke-opacity:1; 
stroke-linecap:round; stroke-linejoin:round;">
</g>
<g style="fill:#000000; fill-opacity:0.0; 
stroke:#000000; stroke-width:60; stroke-opacity:1; 
stroke-linecap:round; stroke-linejoin:round;">
<path d="M62760 73780
L105280 73780
" />
</g>
<g style="fill:#000000; fill-opacity:0.0; 
stroke:#000000; stroke-width:100; stroke-opacity:1; 
stroke-linecap:round; stroke-linejoin:round;">
</g>
<g style="fill:#000000; fill-opacity:0.0; 
stroke:#000000; stroke-width:60; stroke-opacity:1; 
stroke-linecap:round; stroke-linejoin:round;">
<path d="M63260 74600
L63350 74630
L63490 74630
L63540 74600
L63570 74580
L63600 74520
L63600 74460
L63570 74410
L63540 74380
L63490 74350
L63370 74320
L63320 74290
L63290 74270
L63260 74210
L63260 74150
L63290 74100
L63320 74070
L63370 74040
L63520 74040
L63600 74070
" />
<path d="M63850 74630
L63850 74040
" />
<path d="M64100 74630
L64100 74320
L64080 74270
L64020 74240
L63930 74240
L63880 74270
L63850 74290
" />
<path d="M64610 74600
L64550 74630
L64440 74630
L64380 74600
L64350 74550
L64350 74320
L64380 74270
L64440 74240
L64550 74240
L64610 74270
L64630 74320
L64630 74380
L64350 74440
" />
<path d="M65120 74600
L65060 74630
L64950 74630
L64890 74600
L64860 74550
L64860 74320
L64890 74270
L64950 74240
L65060 74240
L65120 74270
L65140 74320
L65140 74380
L64860 74440
" />
<path d="M65320 74240
L65540 74240
" />
<path d="M65400 74040
L65400 74550
L65430 74600
L65480 74630
L65540 74630
" />
<path d="M65740 74580
L65770 74600
L65740 74630
L65710 74600
L65740 74580
L65740 74630
" />
<path d="M65740 74270
L65770 74290
L65740 74320
L65710 74290
L65740 74270
L65740 74320
" />
<path d="M66890 74010
L66390 74770
" />
</g>
<g style="fill:#000000; fill-opacity:0.0; 
stroke:#000000; stroke-width:100; stroke-opacity:1; 
stroke-linecap:round; stroke-linejoin:round;">
</g>
<g style="fill:#000000; fill-opacity:0.0; 
stroke:#000000; stroke-width:60; stroke-opacity:1; 
stroke-linecap:round; stroke-linejoin:round;">
<path d="M70630 77720
L70630 78900
" />
</g>
<g style="fill:#000000; fill-opacity:0.0; 
stroke:#000000; stroke-width:100; stroke-opacity:1; 
stroke-linecap:round; stroke-linejoin:round;">
</g>
<g style="fill:#000000; fill-opacity:0.0; 
stroke:#000000; stroke-width:60; stroke-opacity:1; 
stroke-linecap:round; stroke-linejoin:round;">
<path d="M95830 77720
L95830 80280
" />
<path d="M47500 45500
L60500 45500
" />
<path d="M47500 43500
L60500 43500
" />
<path d="M47500 42500
L60500 42500
" />
<path d="M47500 40500
L60500 40500
" />
<path d="M47500 39500
L60500 39500
" />
<path d="M47500 38500
L60500 38500
" />
<path d="M47500 37500
L60500 37500
" />
<path d="M47500 35500
L60500 35500
" />
<path d="M60500 34500
L66500 34500
L66500 46500
L60500 46500
L60500 34500
" />
<path d="M60600 34410
L60670 34440
L60790 34440
L60830 34410
L60860 34390
L60880 34340
L60880 34290
L60860 34250
L60830 34220
L60790 34200
L60690 34170
L60640 34150
L60620 34130
L60600 34080
L60600 34030
L60620 33980
L60640 33960
L60690 33940
L60810 33940
L60880 33960
" />
<path d="M61290 34410
L61240 34440
L61150 34440
L61100 34410
L61080 34360
L61080 34170
L61100 34130
L61150 34100
L61240 34100
L61290 34130
L61310 34170
L61310 34220
L61080 34270
" />
<path d="M61530 34440
L61530 34100
" />
<path d="M61530 34200
L61550 34150
L61580 34130
L61620 34100
L61670 34100
" />
<path d="M61790 34100
L61910 34440
L62030 34100
" />
<path d="M62290 34440
L62240 34410
L62220 34390
L62200 34340
L62200 34200
L62220 34150
L62240 34130
L62290 34100
L62360 34100
L62410 34130
L62430 34150
L62460 34200
L62460 34340
L62430 34390
L62410 34410
L62360 34440
L62290 34440
" />
<path d="M62650 34410
L62690 34440
L62790 34440
L62840 34410
L62860 34360
L62860 34340
L62840 34290
L62790 34270
L62720 34270
L62670 34250
L62650 34200
L62650 34170
L62670 34130
L62720 34100
L62790 34100
L62840 34130
" />
<path d="M62950 34480
L63330 34480
" />
<path d="M63540 33940
L63590 33940
L63640 33960
L63660 33980
L63690 34030
L63710 34130
L63710 34250
L63690 34340
L63660 34390
L63640 34410
L63590 34440
L63540 34440
L63500 34410
L63470 34390
L63450 34340
L63430 34250
L63430 34130
L63450 34030
L63470 33980
L63500 33960
L63540 33940
" />
<path d="M63930 34390
L63950 34410
L63930 34440
L63910 34410
L63930 34390
L63930 34440
" />
<path d="M63930 34130
L63950 34150
L63930 34170
L63910 34150
L63930 34130
L63930 34170
" />
<path d="M64120 33940
L64450 33940
L64240 34440
" />
<path d="M60600 46990
L60640 47020
L60740 47020
L60790 46990
L60810 46940
L60810 46920
L60790 46870
L60740 46850
L60670 46850
L60620 46830
L60600 46780
L60600 46750
L60620 46710
L60670 46680
L60740 46680
L60790 46710
" />
<path d="M61210 46990
L61160 47020
L61070 47020
L61020 46990
L61000 46940
L61000 46750
L61020 46710
L61070 46680
L61160 46680
L61210 46710
L61230 46750
L61230 46800
L61000 46850
" />
<path d="M61450 47020
L61450 46680
" />
<path d="M61450 46780
L61470 46730
L61500 46710
L61540 46680
L61590 46680
" />
<path d="M61710 46680
L61830 47020
L61950 46680
" />
<path d="M62210 47020
L62160 46990
L62140 46970
L62120 46920
L62120 46780
L62140 46730
L62160 46710
L62210 46680
L62280 46680
L62330 46710
L62350 46730
L62380 46780
L62380 46920
L62350 46970
L62330 46990
L62280 47020
L62210 47020
" />
<path d="M62570 46990
L62610 47020
L62710 47020
L62760 46990
L62780 46940
L62780 46920
L62760 46870
L62710 46850
L62640 46850
L62590 46830
L62570 46780
L62570 46750
L62590 46710
L62640 46680
L62710 46680
L62760 46710
" />
<path d="M63080 46520
L63130 46520
L63180 46540
L63200 46560
L63230 46610
L63250 46710
L63250 46830
L63230 46920
L63200 46970
L63180 46990
L63130 47020
L63080 47020
L63040 46990
L63010 46970
L62990 46920
L62970 46830
L62970 46710
L62990 46610
L63010 46560
L63040 46540
L63080 46520
" />
<path d="M63350 47060
L63730 47060
" />
<path d="M63800 46520
L64130 46520
L63920 47020
" />
<path d="M64330 46970
L64350 46990
L64330 47020
L64310 46990
L64330 46970
L64330 47020
" />
<path d="M64550 46990
L64590 47020
L64690 47020
L64740 46990
L64760 46940
L64760 46920
L64740 46870
L64690 46850
L64620 46850
L64570 46830
L64550 46780
L64550 46750
L64570 46710
L64620 46680
L64690 46680
L64740 46710
" />
<path d="M65180 46990
L65140 47020
L65040 47020
L64990 46990
L64970 46970
L64950 46920
L64950 46780
L64970 46730
L64990 46710
L65040 46680
L65140 46680
L65180 46710
" />
<path d="M65400 47020
L65400 46520
" />
<path d="M65610 47020
L65610 46750
L65590 46710
L65540 46680
L65470 46680
L65420 46710
L65400 46730
" />
<path d="M61450 45460
L61520 45490
L61540 45510
L61560 45560
L61560 45630
L61540 45680
L61520 45700
L61470 45730
L61280 45730
L61280 45230
L61450 45230
L61490 45250
L61520 45270
L61540 45320
L61540 45370
L61520 45420
L61490 45440
L61450 45460
L61280 45460
" />
<path d="M62040 45250
L61990 45230
L61920 45230
L61850 45250
L61800 45300
L61780 45350
L61760 45440
L61760 45510
L61780 45610
L61800 45650
L61850 45700
L61920 45730
L61970 45730
L62040 45700
L62060 45680
L62060 45510
L61970 45510
" />
<path d="M62280 45730
L62280 45230
L62560 45730
L62560 45230
" />
<path d="M62800 45730
L62800 45230
L62920 45230
L62990 45250
L63040 45300
L63060 45350
L63080 45440
L63080 45510
L63060 45610
L63040 45650
L62990 45700
L62920 45730
L62800 45730
" />
</g>
<g style="fill:#000000; fill-opacity:0.0; 
stroke:#000000; stroke-width:100; stroke-opacity:1; 
stroke-linecap:round; stroke-linejoin:round;">
<polyline fill="none;"
points="61000,45500
60750,45250
60500,45250
60500,45750
60750,45750
61000,45500
" /> 
</g>
<g style="fill:#000000; fill-opacity:0.0; 
stroke:#000000; stroke-width:60; stroke-opacity:1; 
stroke-linecap:round; stroke-linejoin:round;">
<path d="M61280 37730
L61280 37230
L61470 37230
L61520 37250
L61540 37270
L61560 37320
L61560 37390
L61540 37440
L61520 37460
L61470 37490
L61280 37490
" />
<path d="M61780 37230
L61780 37630
L61800 37680
L61830 37700
L61870 37730
L61970 37730
L62020 37700
L62040 37680
L62060 37630
L62060 37230
" />
<path d="M62540 37730
L62300 37730
L62300 37230
" />
<path d="M62680 37700
L62750 37730
L62870 37730
L62910 37700
L62940 37680
L62960 37630
L62960 37580
L62940 37540
L62910 37510
L62870 37490
L62770 37460
L62720 37440
L62700 37420
L62680 37370
L62680 37320
L62700 37270
L62720 37250
L62770 37230
L62890 37230
L62960 37250
" />
<path d="M63180 37460
L63350 37460
" />
<path d="M63420 37730
L63180 37730
L63180 37230
L63420 37230
" />
<path d="M63580 37230
L63890 37230
L63720 37420
L63800 37420
L63840 37440
L63870 37460
L63890 37510
L63890 37630
L63870 37680
L63840 37700
L63800 37730
L63650 37730
L63610 37700
L63580 37680
" />
</g>
<g style="fill:#000000; fill-opacity:0.0; 
stroke:#000000; stroke-width:100; stroke-opacity:1; 
stroke-linecap:round; stroke-linejoin:round;">
<polyline fill="none;"
points="61000,37500
60750,37250
60500,37250
60500,37750
60750,37750
61000,37500
" /> 
</g>
<g style="fill:#000000; fill-opacity:0.0; 
stroke:#000000; stroke-width:60; stroke-opacity:1; 
stroke-linecap:round; stroke-linejoin:round;">
<path d="M61280 38730
L61280 38230
L61470 38230
L61520 38250
L61540 38270
L61560 38320
L61560 38390
L61540 38440
L61520 38460
L61470 38490
L61280 38490
" />
<path d="M61780 38230
L61780 38630
L61800 38680
L61830 38700
L61870 38730
L61970 38730
L62020 38700
L62040 38680
L62060 38630
L62060 38230
" />
<path d="M62540 38730
L62300 38730
L62300 38230
" />
<path d="M62680 38700
L62750 38730
L62870 38730
L62910 38700
L62940 38680
L62960 38630
L62960 38580
L62940 38540
L62910 38510
L62870 38490
L62770 38460
L62720 38440
L62700 38420
L62680 38370
L62680 38320
L62700 38270
L62720 38250
L62770 38230
L62890 38230
L62960 38250
" />
<path d="M63180 38460
L63350 38460
" />
<path d="M63420 38730
L63180 38730
L63180 38230
L63420 38230
" />
<path d="M63610 38270
L63630 38250
L63680 38230
L63800 38230
L63840 38250
L63870 38270
L63890 38320
L63890 38370
L63870 38440
L63580 38730
L63890 38730
" />
</g>
<g style="fill:#000000; fill-opacity:0.0; 
stroke:#000000; stroke-width:100; stroke-opacity:1; 
stroke-linecap:round; stroke-linejoin:round;">
<polyline fill="none;"
points="61000,38500
60750,38250
60500,38250
60500,38750
60750,38750
61000,38500
" /> 
</g>
<g style="fill:#000000; fill-opacity:0.0; 
stroke:#000000; stroke-width:60; stroke-opacity:1; 
stroke-linecap:round; stroke-linejoin:round;">
<path d="M61280 39730
L61280 39230
L61470 39230
L61520 39250
L61540 39270
L61560 39320
L61560 39390
L61540 39440
L61520 39460
L61470 39490
L61280 39490
" />
<path d="M61780 39230
L61780 39630
L61800 39680
L61830 39700
L61870 39730
L61970 39730
L62020 39700
L62040 39680
L62060 39630
L62060 39230
" />
<path d="M62540 39730
L62300 39730
L62300 39230
" />
<path d="M62680 39700
L62750 39730
L62870 39730
L62910 39700
L62940 39680
L62960 39630
L62960 39580
L62940 39540
L62910 39510
L62870 39490
L62770 39460
L62720 39440
L62700 39420
L62680 39370
L62680 39320
L62700 39270
L62720 39250
L62770 39230
L62890 39230
L62960 39250
" />
<path d="M63180 39460
L63350 39460
" />
<path d="M63420 39730
L63180 39730
L63180 39230
L63420 39230
" />
<path d="M63890 39730
L63610 39730
" />
<path d="M63750 39730
L63750 39230
L63700 39300
L63650 39350
L63610 39370
" />
</g>
<g style="fill:#000000; fill-opacity:0.0; 
stroke:#000000; stroke-width:100; stroke-opacity:1; 
stroke-linecap:round; stroke-linejoin:round;">
<polyline fill="none;"
points="61000,39500
60750,39250
60500,39250
60500,39750
60750,39750
61000,39500
" /> 
</g>
<g style="fill:#000000; fill-opacity:0.0; 
stroke:#000000; stroke-width:60; stroke-opacity:1; 
stroke-linecap:round; stroke-linejoin:round;">
<path d="M61280 40730
L61280 40230
L61470 40230
L61520 40250
L61540 40270
L61560 40320
L61560 40390
L61540 40440
L61520 40460
L61470 40490
L61280 40490
" />
<path d="M61780 40230
L61780 40630
L61800 40680
L61830 40700
L61870 40730
L61970 40730
L62020 40700
L62040 40680
L62060 40630
L62060 40230
" />
<path d="M62540 40730
L62300 40730
L62300 40230
" />
<path d="M62680 40700
L62750 40730
L62870 40730
L62910 40700
L62940 40680
L62960 40630
L62960 40580
L62940 40540
L62910 40510
L62870 40490
L62770 40460
L62720 40440
L62700 40420
L62680 40370
L62680 40320
L62700 40270
L62720 40250
L62770 40230
L62890 40230
L62960 40250
" />
<path d="M63180 40460
L63350 40460
" />
<path d="M63420 40730
L63180 40730
L63180 40230
L63420 40230
" />
<path d="M63720 40230
L63770 40230
L63820 40250
L63840 40270
L63870 40320
L63890 40420
L63890 40540
L63870 40630
L63840 40680
L63820 40700
L63770 40730
L63720 40730
L63680 40700
L63650 40680
L63630 40630
L63610 40540
L63610 40420
L63630 40320
L63650 40270
L63680 40250
L63720 40230
" />
</g>
<g style="fill:#000000; fill-opacity:0.0; 
stroke:#000000; stroke-width:100; stroke-opacity:1; 
stroke-linecap:round; stroke-linejoin:round;">
<polyline fill="none;"
points="61000,40500
60750,40250
60500,40250
60500,40750
60750,40750
61000,40500
" /> 
</g>
<g style="fill:#000000; fill-opacity:0.0; 
stroke:#000000; stroke-width:60; stroke-opacity:1; 
stroke-linecap:round; stroke-linejoin:round;">
<path d="M61260 42700
L61330 42730
L61450 42730
L61490 42700
L61520 42680
L61540 42630
L61540 42580
L61520 42540
L61490 42510
L61450 42490
L61350 42460
L61300 42440
L61280 42420
L61260 42370
L61260 42320
L61280 42270
L61300 42250
L61350 42230
L61470 42230
L61540 42250
" />
<path d="M61760 42460
L61930 42460
" />
<path d="M62000 42730
L61760 42730
L61760 42230
L62000 42230
" />
<path d="M62450 42730
L62210 42730
L62210 42230
" />
<path d="M62610 42460
L62780 42460
" />
<path d="M62850 42730
L62610 42730
L62610 42230
L62850 42230
" />
<path d="M63340 42680
L63320 42700
L63250 42730
L63200 42730
L63130 42700
L63080 42650
L63060 42610
L63040 42510
L63040 42440
L63060 42350
L63080 42300
L63130 42250
L63200 42230
L63250 42230
L63320 42250
L63340 42270
" />
<path d="M63490 42230
L63770 42230
" />
<path d="M63630 42730
L63630 42230
" />
<path d="M64200 42730
L63920 42730
" />
<path d="M64060 42730
L64060 42230
L64010 42300
L63960 42350
L63920 42370
" />
<path d="M61160 42140
L64300 42140
" />
</g>
<g style="fill:#000000; fill-opacity:0.0; 
stroke:#000000; stroke-width:100; stroke-opacity:1; 
stroke-linecap:round; stroke-linejoin:round;">
<polyline fill="none;"
points="61000,42500
60750,42250
60500,42250
60500,42750
60750,42750
61000,42500
" /> 
</g>
<g style="fill:#000000; fill-opacity:0.0; 
stroke:#000000; stroke-width:60; stroke-opacity:1; 
stroke-linecap:round; stroke-linejoin:round;">
<path d="M61260 43700
L61330 43730
L61450 43730
L61490 43700
L61520 43680
L61540 43630
L61540 43580
L61520 43540
L61490 43510
L61450 43490
L61350 43460
L61300 43440
L61280 43420
L61260 43370
L61260 43320
L61280 43270
L61300 43250
L61350 43230
L61470 43230
L61540 43250
" />
<path d="M61760 43460
L61930 43460
" />
<path d="M62000 43730
L61760 43730
L61760 43230
L62000 43230
" />
<path d="M62450 43730
L62210 43730
L62210 43230
" />
<path d="M62610 43460
L62780 43460
" />
<path d="M62850 43730
L62610 43730
L62610 43230
L62850 43230
" />
<path d="M63340 43680
L63320 43700
L63250 43730
L63200 43730
L63130 43700
L63080 43650
L63060 43610
L63040 43510
L63040 43440
L63060 43350
L63080 43300
L63130 43250
L63200 43230
L63250 43230
L63320 43250
L63340 43270
" />
<path d="M63490 43230
L63770 43230
" />
<path d="M63630 43730
L63630 43230
" />
<path d="M64030 43230
L64080 43230
L64130 43250
L64150 43270
L64180 43320
L64200 43420
L64200 43540
L64180 43630
L64150 43680
L64130 43700
L64080 43730
L64030 43730
L63990 43700
L63960 43680
L63940 43630
L63920 43540
L63920 43420
L63940 43320
L63960 43270
L63990 43250
L64030 43230
" />
<path d="M61160 43140
L64300 43140
" />
</g>
<g style="fill:#000000; fill-opacity:0.0; 
stroke:#000000; stroke-width:100; stroke-opacity:1; 
stroke-linecap:round; stroke-linejoin:round;">
<polyline fill="none;"
points="61000,43500
60750,43250
60500,43250
60500,43750
60750,43750
61000,43500
" /> 
</g>
<g style="fill:#000000; fill-opacity:0.0; 
stroke:#000000; stroke-width:60; stroke-opacity:1; 
stroke-linecap:round; stroke-linejoin:round;">
<path d="M61450 35460
L61520 35490
L61540 35510
L61560 35560
L61560 35630
L61540 35680
L61520 35700
L61470 35730
L61280 35730
L61280 35230
L61450 35230
L61490 35250
L61520 35270
L61540 35320
L61540 35370
L61520 35420
L61490 35440
L61450 35460
L61280 35460
" />
<path d="M62020 35230
L61780 35230
L61760 35460
L61780 35440
L61830 35420
L61950 35420
L61990 35440
L62020 35460
L62040 35510
L62040 35630
L62020 35680
L61990 35700
L61950 35730
L61830 35730
L61780 35700
L61760 35680
" />
<path d="M62190 35230
L62350 35730
L62520 35230
" />
</g>
<g style="fill:#000000; fill-opacity:0.0; 
stroke:#000000; stroke-width:100; stroke-opacity:1; 
stroke-linecap:round; stroke-linejoin:round;">
<polyline fill="none;"
points="61000,35500
60750,35250
60500,35250
60500,35750
60750,35750
61000,35500
" /> 
</g>
<g style="fill:#000000; fill-opacity:0.0; 
stroke:#000000; stroke-width:60; stroke-opacity:1; 
stroke-linecap:round; stroke-linejoin:round;">
<path d="M48790 45110
L48860 45140
L48880 45160
L48900 45210
L48900 45280
L48880 45330
L48860 45350
L48810 45380
L48620 45380
L48620 44880
L48790 44880
L48830 44900
L48860 44920
L48880 44970
L48880 45020
L48860 45070
L48830 45090
L48790 45110
L48620 45110
" />
<path d="M49380 44900
L49330 44880
L49260 44880
L49190 44900
L49140 44950
L49120 45000
L49100 45090
L49100 45160
L49120 45260
L49140 45300
L49190 45350
L49260 45380
L49310 45380
L49380 45350
L49400 45330
L49400 45160
L49310 45160
" />
<path d="M49620 45380
L49620 44880
L49900 45380
L49900 44880
" />
<path d="M50140 45380
L50140 44880
L50260 44880
L50330 44900
L50380 44950
L50400 45000
L50420 45090
L50420 45160
L50400 45260
L50380 45300
L50330 45350
L50260 45380
L50140 45380
" />
<path d="M48790 35110
L48860 35140
L48880 35160
L48900 35210
L48900 35280
L48880 35330
L48860 35350
L48810 35380
L48620 35380
L48620 34880
L48790 34880
L48830 34900
L48860 34920
L48880 34970
L48880 35020
L48860 35070
L48830 35090
L48790 35110
L48620 35110
" />
<path d="M49360 34880
L49120 34880
L49100 35110
L49120 35090
L49170 35070
L49290 35070
L49330 35090
L49360 35110
L49380 35160
L49380 35280
L49360 35330
L49330 35350
L49290 35380
L49170 35380
L49120 35350
L49100 35330
" />
<path d="M49530 34880
L49690 35380
L49860 34880
" />
<path d="M48620 37380
L48620 36880
L48810 36880
L48860 36900
L48880 36920
L48900 36970
L48900 37040
L48880 37090
L48860 37110
L48810 37140
L48620 37140
" />
<path d="M49120 36880
L49120 37280
L49140 37330
L49170 37350
L49210 37380
L49310 37380
L49360 37350
L49380 37330
L49400 37280
L49400 36880
" />
<path d="M49880 37380
L49640 37380
L49640 36880
" />
<path d="M50020 37350
L50090 37380
L50210 37380
L50250 37350
L50280 37330
L50300 37280
L50300 37230
L50280 37190
L50250 37160
L50210 37140
L50110 37110
L50060 37090
L50040 37070
L50020 37020
L50020 36970
L50040 36920
L50060 36900
L50110 36880
L50230 36880
L50300 36900
" />
<path d="M50520 37110
L50690 37110
" />
<path d="M50760 37380
L50520 37380
L50520 36880
L50760 36880
" />
<path d="M50920 36880
L51230 36880
L51060 37070
L51140 37070
L51180 37090
L51210 37110
L51230 37160
L51230 37280
L51210 37330
L51180 37350
L51140 37380
L50990 37380
L50950 37350
L50920 37330
" />
<path d="M48620 38380
L48620 37880
L48810 37880
L48860 37900
L48880 37920
L48900 37970
L48900 38040
L48880 38090
L48860 38110
L48810 38140
L48620 38140
" />
<path d="M49120 37880
L49120 38280
L49140 38330
L49170 38350
L49210 38380
L49310 38380
L49360 38350
L49380 38330
L49400 38280
L49400 37880
" />
<path d="M49880 38380
L49640 38380
L49640 37880
" />
<path d="M50020 38350
L50090 38380
L50210 38380
L50250 38350
L50280 38330
L50300 38280
L50300 38230
L50280 38190
L50250 38160
L50210 38140
L50110 38110
L50060 38090
L50040 38070
L50020 38020
L50020 37970
L50040 37920
L50060 37900
L50110 37880
L50230 37880
L50300 37900
" />
<path d="M50520 38110
L50690 38110
" />
<path d="M50760 38380
L50520 38380
L50520 37880
L50760 37880
" />
<path d="M50950 37920
L50970 37900
L51020 37880
L51140 37880
L51180 37900
L51210 37920
L51230 37970
L51230 38020
L51210 38090
L50920 38380
L51230 38380
" />
<path d="M48620 39380
L48620 38880
L48810 38880
L48860 38900
L48880 38920
L48900 38970
L48900 39040
L48880 39090
L48860 39110
L48810 39140
L48620 39140
" />
<path d="M49120 38880
L49120 39280
L49140 39330
L49170 39350
L49210 39380
L49310 39380
L49360 39350
L49380 39330
L49400 39280
L49400 38880
" />
<path d="M49880 39380
L49640 39380
L49640 38880
" />
<path d="M50020 39350
L50090 39380
L50210 39380
L50250 39350
L50280 39330
L50300 39280
L50300 39230
L50280 39190
L50250 39160
L50210 39140
L50110 39110
L50060 39090
L50040 39070
L50020 39020
L50020 38970
L50040 38920
L50060 38900
L50110 38880
L50230 38880
L50300 38900
" />
<path d="M50520 39110
L50690 39110
" />
<path d="M50760 39380
L50520 39380
L50520 38880
L50760 38880
" />
<path d="M51230 39380
L50950 39380
" />
<path d="M51090 39380
L51090 38880
L51040 38950
L50990 39000
L50950 39020
" />
<path d="M48620 40380
L48620 39880
L48810 39880
L48860 39900
L48880 39920
L48900 39970
L48900 40040
L48880 40090
L48860 40110
L48810 40140
L48620 40140
" />
<path d="M49120 39880
L49120 40280
L49140 40330
L49170 40350
L49210 40380
L49310 40380
L49360 40350
L49380 40330
L49400 40280
L49400 39880
" />
<path d="M49880 40380
L49640 40380
L49640 39880
" />
<path d="M50020 40350
L50090 40380
L50210 40380
L50250 40350
L50280 40330
L50300 40280
L50300 40230
L50280 40190
L50250 40160
L50210 40140
L50110 40110
L50060 40090
L50040 40070
L50020 40020
L50020 39970
L50040 39920
L50060 39900
L50110 39880
L50230 39880
L50300 39900
" />
<path d="M50520 40110
L50690 40110
" />
<path d="M50760 40380
L50520 40380
L50520 39880
L50760 39880
" />
<path d="M51060 39880
L51110 39880
L51160 39900
L51180 39920
L51210 39970
L51230 40070
L51230 40190
L51210 40280
L51180 40330
L51160 40350
L51110 40380
L51060 40380
L51020 40350
L50990 40330
L50970 40280
L50950 40190
L50950 40070
L50970 39970
L50990 39920
L51020 39900
L51060 39880
" />
<path d="M48600 42350
L48670 42380
L48790 42380
L48830 42350
L48860 42330
L48880 42280
L48880 42230
L48860 42190
L48830 42160
L48790 42140
L48690 42110
L48640 42090
L48620 42070
L48600 42020
L48600 41970
L48620 41920
L48640 41900
L48690 41880
L48810 41880
L48880 41900
" />
<path d="M49100 42110
L49270 42110
" />
<path d="M49340 42380
L49100 42380
L49100 41880
L49340 41880
" />
<path d="M49790 42380
L49550 42380
L49550 41880
" />
<path d="M49950 42110
L50120 42110
" />
<path d="M50190 42380
L49950 42380
L49950 41880
L50190 41880
" />
<path d="M50680 42330
L50660 42350
L50590 42380
L50540 42380
L50470 42350
L50420 42300
L50400 42260
L50380 42160
L50380 42090
L50400 42000
L50420 41950
L50470 41900
L50540 41880
L50590 41880
L50660 41900
L50680 41920
" />
<path d="M50830 41880
L51110 41880
" />
<path d="M50970 42380
L50970 41880
" />
<path d="M51540 42380
L51260 42380
" />
<path d="M51400 42380
L51400 41880
L51350 41950
L51300 42000
L51260 42020
" />
<path d="M48500 41790
L51640 41790
" />
<path d="M48600 43350
L48670 43380
L48790 43380
L48830 43350
L48860 43330
L48880 43280
L48880 43230
L48860 43190
L48830 43160
L48790 43140
L48690 43110
L48640 43090
L48620 43070
L48600 43020
L48600 42970
L48620 42920
L48640 42900
L48690 42880
L48810 42880
L48880 42900
" />
<path d="M49100 43110
L49270 43110
" />
<path d="M49340 43380
L49100 43380
L49100 42880
L49340 42880
" />
<path d="M49790 43380
L49550 43380
L49550 42880
" />
<path d="M49950 43110
L50120 43110
" />
<path d="M50190 43380
L49950 43380
L49950 42880
L50190 42880
" />
<path d="M50680 43330
L50660 43350
L50590 43380
L50540 43380
L50470 43350
L50420 43300
L50400 43260
L50380 43160
L50380 43090
L50400 43000
L50420 42950
L50470 42900
L50540 42880
L50590 42880
L50660 42900
L50680 42920
" />
<path d="M50830 42880
L51110 42880
" />
<path d="M50970 43380
L50970 42880
" />
<path d="M51370 42880
L51420 42880
L51470 42900
L51490 42920
L51520 42970
L51540 43070
L51540 43190
L51520 43280
L51490 43330
L51470 43350
L51420 43380
L51370 43380
L51330 43350
L51300 43330
L51280 43280
L51260 43190
L51260 43070
L51280 42970
L51300 42920
L51330 42900
L51370 42880
" />
<path d="M48500 42790
L51640 42790
" />
<path d="M53500 40500
L53500 40500
" />
<path d="M54500 39500
L54500 39500
" />
<path d="M55500 38500
L55500 38500
" />
<path d="M56500 37500
L56500 37500
" />
<path d="M58500 35500
L58500 35500
" />
<path d="M40500 28500
L47500 28500
L47500 46500
L40500 46500
L40500 28500
" />
<path d="M40620 28440
L40620 27940
L40810 27940
L40860 27960
L40880 27980
L40900 28030
L40900 28100
L40880 28150
L40860 28170
L40810 28200
L40620 28200
" />
<path d="M41120 28440
L41120 28100
" />
<path d="M41120 28200
L41140 28150
L41170 28130
L41210 28100
L41260 28100
" />
<path d="M41500 28440
L41450 28410
L41430 28390
L41410 28340
L41410 28200
L41430 28150
L41450 28130
L41500 28100
L41570 28100
L41620 28130
L41640 28150
L41670 28200
L41670 28340
L41640 28390
L41620 28410
L41570 28440
L41500 28440
" />
<path d="M42090 28410
L42050 28440
L41950 28440
L41900 28410
L41880 28390
L41860 28340
L41860 28200
L41880 28150
L41900 28130
L41950 28100
L42050 28100
L42090 28130
" />
<path d="M42500 28410
L42450 28440
L42360 28440
L42310 28410
L42290 28360
L42290 28170
L42310 28130
L42360 28100
L42450 28100
L42500 28130
L42520 28170
L42520 28220
L42290 28270
" />
<path d="M42720 28410
L42760 28440
L42860 28440
L42910 28410
L42930 28360
L42930 28340
L42910 28290
L42860 28270
L42790 28270
L42740 28250
L42720 28200
L42720 28170
L42740 28130
L42790 28100
L42860 28100
L42910 28130
" />
<path d="M43120 28410
L43160 28440
L43260 28440
L43310 28410
L43330 28360
L43330 28340
L43310 28290
L43260 28270
L43190 28270
L43140 28250
L43120 28200
L43120 28170
L43140 28130
L43190 28100
L43260 28100
L43310 28130
" />
<path d="M43610 28440
L43560 28410
L43540 28390
L43520 28340
L43520 28200
L43540 28150
L43560 28130
L43610 28100
L43680 28100
L43730 28130
L43750 28150
L43780 28200
L43780 28340
L43750 28390
L43730 28410
L43680 28440
L43610 28440
" />
<path d="M43990 28440
L43990 28100
" />
<path d="M43990 28200
L44010 28150
L44040 28130
L44080 28100
L44130 28100
" />
<path d="M40620 46680
L40620 47180
" />
<path d="M40620 46710
L40670 46680
L40760 46680
L40810 46710
L40830 46730
L40860 46780
L40860 46920
L40830 46970
L40810 46990
L40760 47020
L40670 47020
L40620 46990
" />
<path d="M41070 47020
L41070 46680
" />
<path d="M41070 46780
L41090 46730
L41120 46710
L41160 46680
L41210 46680
" />
<path d="M41450 47020
L41400 46990
L41380 46970
L41360 46920
L41360 46780
L41380 46730
L41400 46710
L41450 46680
L41520 46680
L41570 46710
L41590 46730
L41620 46780
L41620 46920
L41590 46970
L41570 46990
L41520 47020
L41450 47020
" />
<path d="M42040 46990
L42000 47020
L41900 47020
L41850 46990
L41830 46970
L41810 46920
L41810 46780
L41830 46730
L41850 46710
L41900 46680
L42000 46680
L42040 46710
" />
<path d="M42450 46990
L42400 47020
L42310 47020
L42260 46990
L42240 46940
L42240 46750
L42260 46710
L42310 46680
L42400 46680
L42450 46710
L42470 46750
L42470 46800
L42240 46850
" />
<path d="M42670 46990
L42710 47020
L42810 47020
L42860 46990
L42880 46940
L42880 46920
L42860 46870
L42810 46850
L42740 46850
L42690 46830
L42670 46780
L42670 46750
L42690 46710
L42740 46680
L42810 46680
L42860 46710
" />
<path d="M43070 46990
L43110 47020
L43210 47020
L43260 46990
L43280 46940
L43280 46920
L43260 46870
L43210 46850
L43140 46850
L43090 46830
L43070 46780
L43070 46750
L43090 46710
L43140 46680
L43210 46680
L43260 46710
" />
<path d="M43560 47020
L43510 46990
L43490 46970
L43470 46920
L43470 46780
L43490 46730
L43510 46710
L43560 46680
L43630 46680
L43680 46710
L43700 46730
L43730 46780
L43730 46920
L43700 46970
L43680 46990
L43630 47020
L43560 47020
" />
<path d="M43940 47020
L43940 46680
" />
<path d="M43940 46780
L43960 46730
L43990 46710
L44030 46680
L44080 46680
" />
<path d="M44250 46970
L44270 46990
L44250 47020
L44230 46990
L44250 46970
L44250 47020
" />
<path d="M44470 46990
L44510 47020
L44610 47020
L44660 46990
L44680 46940
L44680 46920
L44660 46870
L44610 46850
L44540 46850
L44490 46830
L44470 46780
L44470 46750
L44490 46710
L44540 46680
L44610 46680
L44660 46710
" />
<path d="M45100 46990
L45060 47020
L44960 47020
L44910 46990
L44890 46970
L44870 46920
L44870 46780
L44890 46730
L44910 46710
L44960 46680
L45060 46680
L45100 46710
" />
<path d="M45320 47020
L45320 46520
" />
<path d="M45530 47020
L45530 46750
L45510 46710
L45460 46680
L45390 46680
L45340 46710
L45320 46730
" />
<path d="M45110 45460
L45180 45490
L45200 45510
L45220 45560
L45220 45630
L45200 45680
L45180 45700
L45130 45730
L44940 45730
L44940 45230
L45110 45230
L45150 45250
L45180 45270
L45200 45320
L45200 45370
L45180 45420
L45150 45440
L45110 45460
L44940 45460
" />
<path d="M45700 45250
L45650 45230
L45580 45230
L45510 45250
L45460 45300
L45440 45350
L45420 45440
L45420 45510
L45440 45610
L45460 45650
L45510 45700
L45580 45730
L45630 45730
L45700 45700
L45720 45680
L45720 45510
L45630 45510
" />
<path d="M45940 45730
L45940 45230
L46220 45730
L46220 45230
" />
<path d="M46460 45730
L46460 45230
L46580 45230
L46650 45250
L46700 45300
L46720 45350
L46740 45440
L46740 45510
L46720 45610
L46700 45650
L46650 45700
L46580 45730
L46460 45730
" />
</g>
<g style="fill:#000000; fill-opacity:0.0; 
stroke:#000000; stroke-width:100; stroke-opacity:1; 
stroke-linecap:round; stroke-linejoin:round;">
<polyline fill="none;"
points="47500,45500
47250,45250
47000,45250
47000,45750
47250,45750
47500,45500
" /> 
</g>
<g style="fill:#000000; fill-opacity:0.0; 
stroke:#000000; stroke-width:60; stroke-opacity:1; 
stroke-linecap:round; stroke-linejoin:round;">
<path d="M45720 35460
L45790 35490
L45810 35510
L45830 35560
L45830 35630
L45810 35680
L45790 35700
L45740 35730
L45550 35730
L45550 35230
L45720 35230
L45760 35250
L45790 35270
L45810 35320
L45810 35370
L45790 35420
L45760 35440
L45720 35460
L45550 35460
" />
<path d="M46290 35230
L46050 35230
L46030 35460
L46050 35440
L46100 35420
L46220 35420
L46260 35440
L46290 35460
L46310 35510
L46310 35630
L46290 35680
L46260 35700
L46220 35730
L46100 35730
L46050 35700
L46030 35680
" />
<path d="M46460 35230
L46620 35730
L46790 35230
" />
</g>
<g style="fill:#000000; fill-opacity:0.0; 
stroke:#000000; stroke-width:100; stroke-opacity:1; 
stroke-linecap:round; stroke-linejoin:round;">
<polyline fill="none;"
points="47500,35500
47250,35250
47000,35250
47000,35750
47250,35750
47500,35500
" /> 
</g>
<g style="fill:#000000; fill-opacity:0.0; 
stroke:#000000; stroke-width:60; stroke-opacity:1; 
stroke-linecap:round; stroke-linejoin:round;">
<path d="M44130 37730
L44130 37230
L44320 37230
L44370 37250
L44390 37270
L44410 37320
L44410 37390
L44390 37440
L44370 37460
L44320 37490
L44130 37490
" />
<path d="M44630 37230
L44630 37630
L44650 37680
L44680 37700
L44720 37730
L44820 37730
L44870 37700
L44890 37680
L44910 37630
L44910 37230
" />
<path d="M45390 37730
L45150 37730
L45150 37230
" />
<path d="M45530 37700
L45600 37730
L45720 37730
L45760 37700
L45790 37680
L45810 37630
L45810 37580
L45790 37540
L45760 37510
L45720 37490
L45620 37460
L45570 37440
L45550 37420
L45530 37370
L45530 37320
L45550 37270
L45570 37250
L45620 37230
L45740 37230
L45810 37250
" />
<path d="M46030 37460
L46200 37460
" />
<path d="M46270 37730
L46030 37730
L46030 37230
L46270 37230
" />
<path d="M46430 37230
L46740 37230
L46570 37420
L46650 37420
L46690 37440
L46720 37460
L46740 37510
L46740 37630
L46720 37680
L46690 37700
L46650 37730
L46500 37730
L46460 37700
L46430 37680
" />
</g>
<g style="fill:#000000; fill-opacity:0.0; 
stroke:#000000; stroke-width:100; stroke-opacity:1; 
stroke-linecap:round; stroke-linejoin:round;">
<polyline fill="none;"
points="47500,37500
47250,37250
47000,37250
47000,37750
47250,37750
47500,37500
" /> 
</g>
<g style="fill:#000000; fill-opacity:0.0; 
stroke:#000000; stroke-width:60; stroke-opacity:1; 
stroke-linecap:round; stroke-linejoin:round;">
<path d="M44130 38730
L44130 38230
L44320 38230
L44370 38250
L44390 38270
L44410 38320
L44410 38390
L44390 38440
L44370 38460
L44320 38490
L44130 38490
" />
<path d="M44630 38230
L44630 38630
L44650 38680
L44680 38700
L44720 38730
L44820 38730
L44870 38700
L44890 38680
L44910 38630
L44910 38230
" />
<path d="M45390 38730
L45150 38730
L45150 38230
" />
<path d="M45530 38700
L45600 38730
L45720 38730
L45760 38700
L45790 38680
L45810 38630
L45810 38580
L45790 38540
L45760 38510
L45720 38490
L45620 38460
L45570 38440
L45550 38420
L45530 38370
L45530 38320
L45550 38270
L45570 38250
L45620 38230
L45740 38230
L45810 38250
" />
<path d="M46030 38460
L46200 38460
" />
<path d="M46270 38730
L46030 38730
L46030 38230
L46270 38230
" />
<path d="M46460 38270
L46480 38250
L46530 38230
L46650 38230
L46690 38250
L46720 38270
L46740 38320
L46740 38370
L46720 38440
L46430 38730
L46740 38730
" />
</g>
<g style="fill:#000000; fill-opacity:0.0; 
stroke:#000000; stroke-width:100; stroke-opacity:1; 
stroke-linecap:round; stroke-linejoin:round;">
<polyline fill="none;"
points="47500,38500
47250,38250
47000,38250
47000,38750
47250,38750
47500,38500
" /> 
</g>
<g style="fill:#000000; fill-opacity:0.0; 
stroke:#000000; stroke-width:60; stroke-opacity:1; 
stroke-linecap:round; stroke-linejoin:round;">
<path d="M44130 39730
L44130 39230
L44320 39230
L44370 39250
L44390 39270
L44410 39320
L44410 39390
L44390 39440
L44370 39460
L44320 39490
L44130 39490
" />
<path d="M44630 39230
L44630 39630
L44650 39680
L44680 39700
L44720 39730
L44820 39730
L44870 39700
L44890 39680
L44910 39630
L44910 39230
" />
<path d="M45390 39730
L45150 39730
L45150 39230
" />
<path d="M45530 39700
L45600 39730
L45720 39730
L45760 39700
L45790 39680
L45810 39630
L45810 39580
L45790 39540
L45760 39510
L45720 39490
L45620 39460
L45570 39440
L45550 39420
L45530 39370
L45530 39320
L45550 39270
L45570 39250
L45620 39230
L45740 39230
L45810 39250
" />
<path d="M46030 39460
L46200 39460
" />
<path d="M46270 39730
L46030 39730
L46030 39230
L46270 39230
" />
<path d="M46740 39730
L46460 39730
" />
<path d="M46600 39730
L46600 39230
L46550 39300
L46500 39350
L46460 39370
" />
</g>
<g style="fill:#000000; fill-opacity:0.0; 
stroke:#000000; stroke-width:100; stroke-opacity:1; 
stroke-linecap:round; stroke-linejoin:round;">
<polyline fill="none;"
points="47500,39500
47250,39250
47000,39250
47000,39750
47250,39750
47500,39500
" /> 
</g>
<g style="fill:#000000; fill-opacity:0.0; 
stroke:#000000; stroke-width:60; stroke-opacity:1; 
stroke-linecap:round; stroke-linejoin:round;">
<path d="M44130 40730
L44130 40230
L44320 40230
L44370 40250
L44390 40270
L44410 40320
L44410 40390
L44390 40440
L44370 40460
L44320 40490
L44130 40490
" />
<path d="M44630 40230
L44630 40630
L44650 40680
L44680 40700
L44720 40730
L44820 40730
L44870 40700
L44890 40680
L44910 40630
L44910 40230
" />
<path d="M45390 40730
L45150 40730
L45150 40230
" />
<path d="M45530 40700
L45600 40730
L45720 40730
L45760 40700
L45790 40680
L45810 40630
L45810 40580
L45790 40540
L45760 40510
L45720 40490
L45620 40460
L45570 40440
L45550 40420
L45530 40370
L45530 40320
L45550 40270
L45570 40250
L45620 40230
L45740 40230
L45810 40250
" />
<path d="M46030 40460
L46200 40460
" />
<path d="M46270 40730
L46030 40730
L46030 40230
L46270 40230
" />
<path d="M46570 40230
L46620 40230
L46670 40250
L46690 40270
L46720 40320
L46740 40420
L46740 40540
L46720 40630
L46690 40680
L46670 40700
L46620 40730
L46570 40730
L46530 40700
L46500 40680
L46480 40630
L46460 40540
L46460 40420
L46480 40320
L46500 40270
L46530 40250
L46570 40230
" />
</g>
<g style="fill:#000000; fill-opacity:0.0; 
stroke:#000000; stroke-width:100; stroke-opacity:1; 
stroke-linecap:round; stroke-linejoin:round;">
<polyline fill="none;"
points="47500,40500
47250,40250
47000,40250
47000,40750
47250,40750
47500,40500
" /> 
</g>
<g style="fill:#000000; fill-opacity:0.0; 
stroke:#000000; stroke-width:60; stroke-opacity:1; 
stroke-linecap:round; stroke-linejoin:round;">
<path d="M43800 42700
L43870 42730
L43990 42730
L44030 42700
L44060 42680
L44080 42630
L44080 42580
L44060 42540
L44030 42510
L43990 42490
L43890 42460
L43840 42440
L43820 42420
L43800 42370
L43800 42320
L43820 42270
L43840 42250
L43890 42230
L44010 42230
L44080 42250
" />
<path d="M44300 42460
L44470 42460
" />
<path d="M44540 42730
L44300 42730
L44300 42230
L44540 42230
" />
<path d="M44990 42730
L44750 42730
L44750 42230
" />
<path d="M45150 42460
L45320 42460
" />
<path d="M45390 42730
L45150 42730
L45150 42230
L45390 42230
" />
<path d="M45880 42680
L45860 42700
L45790 42730
L45740 42730
L45670 42700
L45620 42650
L45600 42610
L45580 42510
L45580 42440
L45600 42350
L45620 42300
L45670 42250
L45740 42230
L45790 42230
L45860 42250
L45880 42270
" />
<path d="M46030 42230
L46310 42230
" />
<path d="M46170 42730
L46170 42230
" />
<path d="M46740 42730
L46460 42730
" />
<path d="M46600 42730
L46600 42230
L46550 42300
L46500 42350
L46460 42370
" />
<path d="M43700 42140
L46840 42140
" />
</g>
<g style="fill:#000000; fill-opacity:0.0; 
stroke:#000000; stroke-width:100; stroke-opacity:1; 
stroke-linecap:round; stroke-linejoin:round;">
<polyline fill="none;"
points="47500,42500
47250,42250
47000,42250
47000,42750
47250,42750
47500,42500
" /> 
</g>
<g style="fill:#000000; fill-opacity:0.0; 
stroke:#000000; stroke-width:60; stroke-opacity:1; 
stroke-linecap:round; stroke-linejoin:round;">
<path d="M43800 43700
L43870 43730
L43990 43730
L44030 43700
L44060 43680
L44080 43630
L44080 43580
L44060 43540
L44030 43510
L43990 43490
L43890 43460
L43840 43440
L43820 43420
L43800 43370
L43800 43320
L43820 43270
L43840 43250
L43890 43230
L44010 43230
L44080 43250
" />
<path d="M44300 43460
L44470 43460
" />
<path d="M44540 43730
L44300 43730
L44300 43230
L44540 43230
" />
<path d="M44990 43730
L44750 43730
L44750 43230
" />
<path d="M45150 43460
L45320 43460
" />
<path d="M45390 43730
L45150 43730
L45150 43230
L45390 43230
" />
<path d="M45880 43680
L45860 43700
L45790 43730
L45740 43730
L45670 43700
L45620 43650
L45600 43610
L45580 43510
L45580 43440
L45600 43350
L45620 43300
L45670 43250
L45740 43230
L45790 43230
L45860 43250
L45880 43270
" />
<path d="M46030 43230
L46310 43230
" />
<path d="M46170 43730
L46170 43230
" />
<path d="M46570 43230
L46620 43230
L46670 43250
L46690 43270
L46720 43320
L46740 43420
L46740 43540
L46720 43630
L46690 43680
L46670 43700
L46620 43730
L46570 43730
L46530 43700
L46500 43680
L46480 43630
L46460 43540
L46460 43420
L46480 43320
L46500 43270
L46530 43250
L46570 43230
" />
<path d="M43700 43140
L46840 43140
" />
</g>
<g style="fill:#000000; fill-opacity:0.0; 
stroke:#000000; stroke-width:100; stroke-opacity:1; 
stroke-linecap:round; stroke-linejoin:round;">
<polyline fill="none;"
points="47500,43500
47250,43250
47000,43250
47000,43750
47250,43750
47500,43500
" /> 
</g> 
</svg>
