%FSLAX36Y36*%
G04 Gerber Fmt 3.6, Leading zero omitted, Abs format (unit inch)*
G04 Created by KiCad (PCBNEW (2014-jul-16 BZR unknown)-product) date Tue 27 Jan 2015 12:23:33 PM PST*
%MOIN*%
G01*
G04 APERTURE LIST*
%ADD10C,0.003937*%
%ADD11C,0.059100*%
%ADD12C,0.078700*%
%ADD13R,0.078700X0.078700*%
%ADD14C,0.060000*%
%ADD15R,0.068000X0.068000*%
%ADD16C,0.068000*%
%ADD17R,0.060000X0.060000*%
%ADD18O,0.068000X0.068000*%
%ADD19R,0.055000X0.055000*%
%ADD20C,0.055000*%
G04 APERTURE END LIST*
D10*
D11*
X4475000Y-4400000D03*
X4475000Y-4500000D03*
X4875000Y-4400000D03*
X4875000Y-4500000D03*
X5725000Y-5200000D03*
X5825000Y-5200000D03*
X5525000Y-5200000D03*
X5625000Y-5200000D03*
X5625000Y-4650000D03*
X5525000Y-4650000D03*
X4525000Y-4650000D03*
X4625000Y-4650000D03*
X5925000Y-5200000D03*
X6025000Y-5200000D03*
X5550000Y-5650000D03*
X5550000Y-5750000D03*
X5175000Y-4650000D03*
X5075000Y-4650000D03*
D12*
X5075000Y-4500000D03*
D13*
X5475000Y-4500000D03*
D14*
X6125000Y-4325000D03*
X6125000Y-4225000D03*
D15*
X4325000Y-5425000D03*
D16*
X4425000Y-5425000D03*
X4525000Y-5425000D03*
D17*
X4100000Y-4725000D03*
D14*
X4200000Y-4725000D03*
X4100000Y-4825000D03*
X4200000Y-4825000D03*
X4100000Y-4925000D03*
X4200000Y-4925000D03*
X4100000Y-5025000D03*
X4200000Y-5025000D03*
X4100000Y-5125000D03*
X4200000Y-5125000D03*
D15*
X4825000Y-5775000D03*
D16*
X4925000Y-5775000D03*
X5025000Y-5775000D03*
X5125000Y-5775000D03*
X5225000Y-5775000D03*
X5325000Y-5775000D03*
D15*
X5725000Y-4500000D03*
D18*
X5725000Y-4400000D03*
X5825000Y-4500000D03*
X5825000Y-4400000D03*
X5925000Y-4500000D03*
X5925000Y-4400000D03*
D15*
X7600000Y-4500000D03*
D18*
X7600000Y-4400000D03*
X7700000Y-4500000D03*
X7700000Y-4400000D03*
X7800000Y-4500000D03*
X7800000Y-4400000D03*
D15*
X7600000Y-4800000D03*
D18*
X7600000Y-4700000D03*
X7700000Y-4800000D03*
X7700000Y-4700000D03*
X7800000Y-4800000D03*
X7800000Y-4700000D03*
D15*
X7600000Y-5125000D03*
D18*
X7600000Y-5025000D03*
X7700000Y-5125000D03*
X7700000Y-5025000D03*
X7800000Y-5125000D03*
X7800000Y-5025000D03*
D15*
X7600000Y-5425000D03*
D18*
X7600000Y-5325000D03*
X7700000Y-5425000D03*
X7700000Y-5325000D03*
X7800000Y-5425000D03*
X7800000Y-5325000D03*
D12*
X4425000Y-5225000D03*
X4825000Y-5225000D03*
X6075000Y-5725000D03*
X5675000Y-5725000D03*
X5675000Y-5575000D03*
X6075000Y-5575000D03*
X6225000Y-5725000D03*
X6225000Y-5325000D03*
X5375000Y-5225000D03*
X4975000Y-5225000D03*
X4650000Y-5750000D03*
X4650000Y-5350000D03*
X5075000Y-4375000D03*
X5475000Y-4375000D03*
D15*
X7400000Y-4275000D03*
D16*
X7400000Y-4375000D03*
X7400000Y-4475000D03*
X7400000Y-4575000D03*
X7400000Y-4675000D03*
X7400000Y-4775000D03*
X7400000Y-4875000D03*
X7400000Y-4975000D03*
X7400000Y-5075000D03*
D13*
X4822000Y-4075000D03*
D12*
X5078000Y-4075000D03*
D19*
X4825000Y-5650000D03*
D20*
X4925000Y-5650000D03*
X5025000Y-5650000D03*
X5125000Y-5650000D03*
X5225000Y-5650000D03*
X5325000Y-5650000D03*
X5425000Y-5650000D03*
X5425000Y-5350000D03*
X5325000Y-5350000D03*
X5225000Y-5350000D03*
X5125000Y-5350000D03*
X5025000Y-5350000D03*
X4925000Y-5350000D03*
X4825000Y-5350000D03*
D19*
X4425000Y-4775000D03*
D20*
X4425000Y-4875000D03*
X4425000Y-4975000D03*
X4425000Y-5075000D03*
X4725000Y-5075000D03*
X4725000Y-4975000D03*
X4725000Y-4875000D03*
X4725000Y-4775000D03*
X5025000Y-5075000D03*
X5125000Y-5075000D03*
X5225000Y-5075000D03*
X5325000Y-5075000D03*
X5425000Y-5075000D03*
X5525000Y-5075000D03*
X5625000Y-5075000D03*
X5725000Y-5075000D03*
X5825000Y-5075000D03*
X5925000Y-5075000D03*
X6025000Y-5075000D03*
X6125000Y-5075000D03*
X6225000Y-5075000D03*
D19*
X4925000Y-5075000D03*
D20*
X6225000Y-4775000D03*
X6125000Y-4775000D03*
X6025000Y-4775000D03*
X5925000Y-4775000D03*
X5825000Y-4775000D03*
X5725000Y-4775000D03*
X5625000Y-4775000D03*
X5525000Y-4775000D03*
X5425000Y-4775000D03*
X5325000Y-4775000D03*
X5225000Y-4775000D03*
X5125000Y-4775000D03*
X5025000Y-4775000D03*
X4925000Y-4775000D03*
D19*
X6950000Y-4050000D03*
D20*
X6950000Y-4150000D03*
X6950000Y-4250000D03*
X6950000Y-4350000D03*
X7250000Y-4350000D03*
X7250000Y-4250000D03*
X7250000Y-4150000D03*
X7250000Y-4050000D03*
D19*
X6950000Y-4500000D03*
D20*
X6950000Y-4600000D03*
X6950000Y-4700000D03*
X6950000Y-4800000D03*
X7250000Y-4800000D03*
X7250000Y-4700000D03*
X7250000Y-4600000D03*
X7250000Y-4500000D03*
D19*
X6950000Y-4975000D03*
D20*
X6950000Y-5075000D03*
X6950000Y-5175000D03*
X6950000Y-5275000D03*
X7250000Y-5275000D03*
X7250000Y-5175000D03*
X7250000Y-5075000D03*
X7250000Y-4975000D03*
D19*
X6950000Y-5425000D03*
D20*
X6950000Y-5525000D03*
X6950000Y-5625000D03*
X6950000Y-5725000D03*
X7250000Y-5725000D03*
X7250000Y-5625000D03*
X7250000Y-5525000D03*
X7250000Y-5425000D03*
D11*
X5728900Y-5375000D03*
X5921100Y-5375000D03*
D14*
X4725000Y-4400000D03*
X4675000Y-4475000D03*
X4625000Y-4400000D03*
D15*
X7400000Y-5525000D03*
D16*
X7400000Y-5425000D03*
X7400000Y-5325000D03*
D12*
X5475000Y-4250000D03*
X5875000Y-4250000D03*
X6425000Y-4975000D03*
X6825000Y-4975000D03*
X6425000Y-5175000D03*
X6825000Y-5175000D03*
X6425000Y-5425000D03*
X6825000Y-5425000D03*
X6425000Y-5625000D03*
X6825000Y-5625000D03*
M02*
