M48
;DRILL file {kicad (2014-jul-16 BZR unknown)-product} date Sun 25 Jan 2015 02:29:32 PM PST
;FORMAT={2:4/ absolute / inch / suppress leading zeros}
FMAT,2
INCH,TZ
T1C0.025
T2C0.030
T3C0.032
T4C0.032
T5C0.039
T6C0.040
T7C0.047
T8C0.050
T9C0.125
%
G90
G05
M72
T1
X42750Y-52000
X43250Y-49750
X47500Y-54250
X47500Y-56500
X48250Y-47750
X48250Y-48750
X49000Y-54250
X49700Y-51450
X50000Y-55500
X51650Y-51700
X51750Y-52900
X51750Y-55500
X52000Y-49500
X52500Y-51450
X54250Y-57750
X55750Y-45000
X58000Y-55750
X58000Y-57250
X67500Y-45000
X78000Y-46000
X78000Y-49250
X78000Y-52250
T2
X46250Y-44000
X46750Y-44750
X47250Y-44000
X61250Y-42250
X61250Y-43250
T3
X44750Y-44000
X44750Y-45000
X45250Y-46500
X46250Y-46500
X48750Y-44000
X48750Y-45000
X50750Y-46500
X51750Y-46500
X55250Y-46500
X55250Y-52000
X55500Y-56500
X55500Y-57500
X56250Y-46500
X56250Y-52000
X57250Y-52000
X57289Y-53750
X58250Y-52000
X59211Y-53750
X59250Y-52000
X60250Y-52000
T4
X44250Y-47750
X44250Y-48750
X44250Y-49750
X44250Y-50750
X47250Y-47750
X47250Y-48750
X47250Y-49750
X47250Y-50750
X48250Y-53500
X48250Y-56500
X49250Y-47750
X49250Y-50750
X49250Y-53500
X49250Y-56500
X50250Y-47750
X50250Y-50750
X50250Y-53500
X50250Y-56500
X51250Y-47750
X51250Y-50750
X51250Y-53500
X51250Y-56500
X52250Y-47750
X52250Y-50750
X52250Y-53500
X52250Y-56500
X53250Y-47750
X53250Y-50750
X53250Y-53500
X53250Y-56500
X54250Y-47750
X54250Y-50750
X54250Y-53500
X54250Y-56500
X55250Y-47750
X55250Y-50750
X56250Y-47750
X56250Y-50750
X57250Y-47750
X57250Y-50750
X58250Y-47750
X58250Y-50750
X59250Y-47750
X59250Y-50750
X60250Y-47750
X60250Y-50750
X61250Y-47750
X61250Y-50750
X62250Y-47750
X62250Y-50750
X69500Y-40500
X69500Y-41500
X69500Y-42500
X69500Y-43500
X69500Y-45000
X69500Y-46000
X69500Y-47000
X69500Y-48000
X69500Y-49750
X69500Y-50750
X69500Y-51750
X69500Y-52750
X69500Y-54250
X69500Y-55250
X69500Y-56250
X69500Y-57250
X72500Y-40500
X72500Y-41500
X72500Y-42500
X72500Y-43500
X72500Y-45000
X72500Y-46000
X72500Y-47000
X72500Y-48000
X72500Y-49750
X72500Y-50750
X72500Y-51750
X72500Y-52750
X72500Y-54250
X72500Y-55250
X72500Y-56250
X72500Y-57250
T5
X44250Y-52250
X46500Y-53500
X46500Y-57500
X48250Y-52250
X49750Y-52250
X50750Y-43750
X53750Y-52250
X54750Y-42500
X54750Y-43750
X54750Y-45000
X56750Y-55750
X56750Y-57250
X58750Y-42500
X60750Y-55750
X60750Y-57250
X62250Y-53250
X62250Y-57250
X64250Y-49750
X64250Y-51750
X64250Y-54250
X64250Y-56250
X68250Y-49750
X68250Y-51750
X68250Y-54250
X68250Y-56250
T6
X41000Y-47250
X41000Y-48250
X41000Y-49250
X41000Y-50250
X41000Y-51250
X42000Y-47250
X42000Y-48250
X42000Y-49250
X42000Y-50250
X42000Y-51250
X43250Y-54250
X44250Y-54250
X45250Y-54250
X48250Y-57750
X49250Y-57750
X50250Y-57750
X51250Y-57750
X52250Y-57750
X53250Y-57750
X57250Y-44000
X57250Y-45000
X58250Y-44000
X58250Y-45000
X59250Y-44000
X59250Y-45000
X74000Y-42750
X74000Y-43750
X74000Y-44750
X74000Y-45750
X74000Y-46750
X74000Y-47750
X74000Y-48750
X74000Y-49750
X74000Y-50750
X74000Y-53250
X74000Y-54250
X74000Y-55250
X76000Y-44000
X76000Y-45000
X76000Y-47000
X76000Y-48000
X76000Y-50250
X76000Y-51250
X76000Y-53250
X76000Y-54250
X77000Y-44000
X77000Y-45000
X77000Y-47000
X77000Y-48000
X77000Y-50250
X77000Y-51250
X77000Y-53250
X77000Y-54250
X78000Y-44000
X78000Y-45000
X78000Y-47000
X78000Y-48000
X78000Y-50250
X78000Y-51250
X78000Y-53250
X78000Y-54250
T7
X48220Y-40750
X50780Y-40750
T8
X50750Y-45000
T9
X41339Y-41339
X41339Y-57087
X76772Y-41339
X76772Y-57087
T0
M30
